<?xml version="1.0" encoding="utf-8"?>
<!-- Generator: Adobe Illustrator 17.1.0, SVG Export Plug-In . SVG Version: 6.00 Build 0)  -->
<svg version="1.2" baseProfile="tiny" id="Layer_1" xmlns="http://www.w3.org/2000/svg" xmlns:xlink="http://www.w3.org/1999/xlink"
	 x="0px" y="0px" viewBox="0 0 63.4 70.6" xml:space="preserve">
<linearGradient id="SVGID_1_" gradientUnits="userSpaceOnUse" x1="11.9423" y1="56.8512" x2="58.9161" y2="9.8773">
	<stop  offset="0" style="stop-color:#95C180"/>
	<stop  offset="0.2182" style="stop-color:#99C485"/>
	<stop  offset="0.5277" style="stop-color:#A7CC91"/>
	<stop  offset="0.8901" style="stop-color:#BEDBA8"/>
	<stop  offset="1" style="stop-color:#C7E2B1"/>
</linearGradient>
<path fill="url(#SVGID_1_)" d="M1.5,20.8L37.9,5.9l11.2,17.4L49,7c0,0-0.3-6,1.3-5.7c2,0.4,1,25.7,1,25.7s6.5,12.7,7.7,16.4
	c1.3,3.8,3,9.8,3,9.8l-38.6,15c0,0-4.8-21.3-7-26.2C14.2,37.2,1.5,20.8,1.5,20.8z"/>
<g>
	<path d="M61.1,51.2C61.1,51.2,61.1,51.2,61.1,51.2C61.1,51.2,61.1,51.2,61.1,51.2z"/>
	<path d="M53.3,58.4l0.1-0.1C53.4,58.4,53.4,58.4,53.3,58.4z"/>
	<polygon points="58.3,43.2 58.3,43.3 58.1,42.7 	"/>
	<path d="M26.7,68.3l0.1,0.2L26.7,68.3z"/>
	<path d="M41.9,62.9c0,0-0.1,0.1-0.2,0.1C41.8,63,41.9,62.9,41.9,62.9z"/>
	<path d="M57,38.9l0.1,0.2C57.1,39.2,57.1,39.1,57,38.9z"/>
	<path d="M53.4,31.1L53.4,31.1C53.4,31.2,53.4,31.2,53.4,31.1z"/>
	<path d="M54.7,34.2l0.1,0.2C54.8,34.3,54.8,34.2,54.7,34.2z"/>
	<path d="M54.9,34.5l-0.1-0.1C54.9,34.5,54.9,34.5,54.9,34.5z"/>
	<path d="M48.2,23.1c0.1,0.2,0.3,0.4,0.4,0.6L48.2,23.1z"/>
	<path d="M16.3,43L16.3,43C16.3,43,16.3,43,16.3,43z"/>
	<path d="M48.6,23.2l0.1,0.2L48.6,23.2z"/>
	<path d="M58.8,43.1c0.1,0.2,0.3,0.7,0.3,0.7C58.9,43.6,58.8,43.2,58.8,43.1z"/>
	<path d="M12.6,38.5l-0.1-0.1L12.6,38.5z"/>
	<polygon points="48.6,23.2 48.5,23 48.5,23.1 	"/>
	<polygon points="6.1,21.2 6.1,21.2 6,21.2 	"/>
	<path d="M7.5,20.6l-0.3,0.1C7.3,20.7,7.4,20.7,7.5,20.6z"/>
	<path d="M48.6,23.6l0.2,0.3L48.6,23.6z"/>
	<path d="M22.5,14.6l-0.1,0.1L22.5,14.6z"/>
	<path d="M43,62.5l0.1,0C43.1,62.4,43.1,62.4,43,62.5z"/>
	<polygon points="32.9,67.3 32.9,67.3 32.9,67.3 	"/>
	<path d="M33.4,67.1c-0.2,0.1-0.4,0.2-0.5,0.3C33,67.3,33.2,67.2,33.4,67.1z"/>
	<path d="M31.7,67.8L31.7,67.8L31.7,67.8z"/>
	<polygon points="42.9,63.4 42.9,63.4 42.9,63.4 	"/>
	<path d="M40.7,64.3l-0.2,0L40.7,64.3z"/>
	<polygon points="26,69.2 26,69.2 26,69.2 	"/>
	<path d="M17.7,48.2c1,2,2.2,4.7,3,6.8c0.2,0.4,0.5,1.1,0.8,1.7l0,0.1l0.2,0.5c0.1,0.2-0.2-0.4-0.1,0l0.1,0.2c0,0.1,0.5,1.4,0.1,0.5
		l0.8,2.2c0.2,0.5,0.2,0.3,0.3,0.8c0,0.1-0.1-0.2-0.1-0.1c0.5,1.6,0.8,1.8,1.3,3.3l-0.1-0.1c0.1,0.2,0.3,0.7,0.3,0.7
		c0-0.2-0.1-0.3-0.2-0.7c0.1,0,0.2,0.6,0.3,0.5c0.1,0.4,0.2,0.5,0.3,0.9c0.1,0.5,0.4,1.3,0.5,1.7c0.1,0.2,0.3,0.5,0.4,1.1
		c0.1,0.4-0.1-0.1,0.1,0.5l0.1,0.1L26,69l0,0.2c0,0.1,0,0,0,0c0.1,0.5,0.2,0.6,0.3,0.8c0.2-0.1,0.3-0.1,0.7-0.3L26.5,70l0.8-0.3
		l0.7-0.3c0,0-0.2,0.1-0.4,0.2c0.3-0.1,0.5-0.2,0.7-0.3c-0.1,0-0.5,0.2-0.3,0c0.3-0.1,0.6-0.3,0.8-0.3l-0.3,0.2
		c0.6-0.3,0.3-0.2,1-0.4c0,0,0,0,0,0c0.4-0.2,1-0.4,1.7-0.7l-0.1,0.1c0.3-0.1,0.4-0.2,0.5-0.3c-0.4,0.1-0.3,0.1-0.3,0.1
		c0.5-0.1,0.7-0.4,1.6-0.7c0,0-0.2,0.1-0.4,0.2c-0.3,0.2-0.3,0.2-0.8,0.5c0.3-0.1,0.7-0.3,0.6-0.2l0.1-0.1l0.5-0.2
		c0.1-0.1-0.4,0.1,0-0.1c0.5-0.2,0.3,0,0.3-0.1c0.7-0.3,0.3-0.2,0.9-0.4c-0.1,0-0.2,0.1-0.2,0.1c0.5-0.2,1.1-0.5,1.3-0.5
		c-0.1,0-0.1,0.1-0.2,0.1l0,0c-0.5,0.3,0.4-0.2,0.3-0.1c0,0,0.6-0.3,0.9-0.4l-0.1,0c0.9-0.5,0,0.1,0.9-0.3c0.6-0.3-0.2,0.1,0.1-0.1
		c0.4-0.2,0.6-0.2,1.2-0.4c0.2-0.1,0.5-0.2,0.6-0.1c0.4-0.2,1.1-0.4,1.3-0.6c-0.6,0.2-0.6,0.3-1.4,0.5l0.2-0.1
		c0.5-0.2,1.2-0.5,1.5-0.6c-0.1,0-0.1,0-0.1,0c0.7-0.3,0.9-0.4,1.6-0.7c0.1,0-0.3,0.2-0.6,0.3c0.5-0.1,0.5-0.2,1.2-0.5
		c0.1,0-0.5,0.2-0.5,0.3l0.8-0.3c0,0,0,0,0,0c0.1-0.1,0.6-0.2,1.1-0.4c1.1-0.5,1.3-0.6,1.9-0.9C46,62,46.1,62,46,62
		c-0.3,0.1-0.2,0.1-0.3,0.1c0.4-0.2,0.9-0.3,0.7-0.2c0.6-0.3-0.2,0.1,0.1-0.1l0.8-0.3c-0.1,0-0.4,0.1,0-0.1l1-0.4
		c-0.1,0,0.2,0-0.2,0.1c0.2-0.1,0.6-0.2,0.7-0.3c-0.5,0.2,0.8-0.4,0.4-0.3l0.5-0.2c-0.1,0-0.1,0.1-0.3,0.1c0.2,0,0.4-0.2,0.6-0.3
		c0.2-0.1,0.7-0.2,0.7-0.2c0.2-0.1,0.6-0.2,0.6-0.2c0.2-0.1,0,0,0.1-0.1l0.8-0.3c0.1,0,0.2,0.1,0,0.1c0.3-0.1,0.1-0.1,0.6-0.3
		c-0.3,0.2,0.6-0.2,0.3,0c0.3-0.1,1.1-0.4,1.5-0.6c0.2-0.1-0.5,0.2-0.5,0.1c1.2-0.5,1.2-0.6,2.1-1l-0.2,0.1c0.5-0.2,0.5-0.2,0.8-0.4
		c-0.1,0.1,0.7-0.1,1.6-0.5c0.1-0.1-0.5,0.2-0.4,0.1l0.6-0.2c0,0,0,0-0.1,0.1c0.5-0.2,1-0.3,1.2-0.5l0.6-0.1l-0.2,0.1
		c0.1-0.1,0.7-0.3,0.8-0.4c0.6-0.3,0.8-0.3,1.2-0.4c-0.1,0-0.4,0.1,0.1-0.1c0,0,0.4-0.1,0.7-0.2c0,0,0.1,0,0.1-0.1l0-0.1l-0.1-0.2
		c0-0.1-0.1-0.2,0-0.2c-0.1-0.3-0.2-0.6-0.2-0.7l0.1,0c-0.1,0-0.3-0.8-0.5-1.3c0.1,0.1-0.2-0.6-0.2-0.9c-0.1-0.1-0.4-1-0.5-1.1
		c-0.2-0.4-0.1-0.4-0.1-0.5l-0.1-0.2c0-0.2-0.3-1-0.5-1.5l-0.2-0.4l0-0.2c0-0.1-0.2-0.4-0.1-0.2l-0.1-0.2c-0.1,0-0.1-0.3-0.3-0.8
		c0-0.1,0-0.1,0,0c-0.1-0.2,0-0.1,0-0.3c0,0.2-0.4-0.8-0.2-0.2c0,0.1-0.2-0.3-0.2-0.6l0-0.2l-0.2-0.3c-0.1-0.4-0.2-0.5-0.3-0.8
		c0.1,0.3,0.4,0.6,0.1-0.1c0.2,0.4,0.3,0.6,0.4,0.8c-0.1-0.2-0.1-0.2,0,0c-0.2-0.6-0.1-0.2-0.3-0.8c0.1,0,0-0.2-0.2-0.7l0.1,0.4
		c0,0,0,0,0-0.1c0.1,0.2,0.1,0.2,0.1,0.2c0-0.1-0.3-0.7-0.3-0.8c0.2,0.6-0.5-1-0.4-0.6c0-0.1-0.2-0.5-0.2-0.5c0.2,0.5-0.1-0.4,0-0.3
		c-0.1-0.2,0.1,0.4,0,0.2c-0.1-0.3-0.2-0.5-0.2-0.7l0.1,0.1L57.9,41c-0.1-0.1,0.1,0.5,0,0c0-0.1-0.2-0.5-0.2-0.5
		c0.1,0.2,0.1,0,0.3,0.4c-0.1-0.3-0.5-1.3-0.4-0.9l-0.1-0.4c0.1,0.2,0.3,0.9,0,0.2l0,0l-0.2-0.5l-0.1-0.2c0,0-0.1-0.1-0.1-0.2
		c0-0.1-0.1-0.2,0-0.2c-0.2-0.5-0.2-0.5-0.3-0.5c-0.1-0.3-0.2-0.4-0.1-0.3c-0.2-0.4-0.5-1.1-0.6-1.4c-0.3-0.5,0,0.1-0.1-0.2
		c-0.1-0.5-0.7-1.8-1.2-2.7c0,0.3-0.1-0.2-0.3-0.4c0.1,0.2-0.3-0.9,0-0.1l-0.2-0.5c-0.1-0.3,0.4,0.8,0.2,0.2
		c-0.3-0.5-0.5-0.8-0.8-1.5c0.2,0.2-0.3-0.5-0.1-0.3c0.1,0.1,0.2,0.3,0.3,0.5l0-0.1c-0.6-1.1-0.2-0.3-0.6-0.9
		c-0.4-0.7-0.2-0.6-0.2-0.6c0-0.1-0.2-0.5-0.4-0.6c0.3,0.4,0.4,0.8,0.3,0.6c-0.1-0.3-0.5-1-0.7-1.2c0.5,1,0.4,0.7,0.8,1.6
		c0.1,0.1,0.1,0.1,0.4,0.6c-0.2-0.3,0,0,0,0.1c0-0.1,0.2,0.4,0.3,0.5c0.1,0.2-0.2-0.3,0,0.3l0.1,0.1c0.1,0.2-0.1-0.1,0.2,0.4
		c-0.2-0.2,0,0.1-0.3-0.5c0.3,0.8,0.6,1.2,0.9,1.7l-0.1-0.1c0.1,0.1,0.2,0.4,0.3,0.5c0.2,0.4-0.2-0.3-0.2-0.2l0.3,0.6c0,0,0,0,0,0
		c0.1,0.2,0.2,0.3,0.2,0.4c-0.1-0.2-0.2-0.2-0.2-0.4l0.4,0.7c-0.1-0.1,0.2,0.6,0,0.1l0.4,1l0,0.1c0.1,0.2,0.1,0.2,0-0.1
		c0.1,0.3,0.7,1.5,0.6,1.4c0.4,0.8,0.5,1.1,0.9,2c-0.3-0.7,0.3,0.9-0.1,0.1c0.2,0.5,0.3,0.5,0.4,0.9c0.1,0.4,0,0.2-0.2-0.1l0.2,0.4
		l0,0l0.2,0.4c0.1,0.4,0,0.1,0.1,0.5l0.1,0.1l0.1,0.3c0-0.1,0.1,0.1,0.2,0.4l0,0l0.1,0.4c-0.2-0.4,0.1,0.3,0,0.2l0.3,0.9l0-0.1
		c0.3,0.7,0,0,0.2,0.6l0,0c0.3,0.9,0.6,1.5,0.8,2.1c-0.1-0.4-0.2-0.3-0.1-0.3c0.2,0.5,0.5,1.4,0.8,2c0,0.2,0,0.3,0.2,0.9
		c0.2,0.4,0.2,0.5,0.3,0.6c0.1,0.4,0.4,1.2,0.4,1.2c0.1,0.1,0.1,0.4,0.2,0.6l0,0.1l0,0c0.2,0.8,0.5,1.2,0.7,2L62,53.7l0.1,0.3
		c0,0.1-0.1-0.1-0.1-0.1l0.2,0.7l0.1,0.2c0,0,0,0.1,0,0.1l-0.1,0c0.1,0,0.2,0,0.1-0.1c0,0.1,0,0.1-0.1,0.1L62.2,55
		c-0.1,0-0.1,0.1-0.3,0.1c0.1-0.1,0.2-0.1,0.1-0.1c0,0-0.1,0-0.2,0.1c-0.2,0.1-0.5,0.2-0.5,0.2l0.3-0.1c-0.4,0.2-0.4,0.2-0.4,0.2
		c-0.5,0.2-0.4,0.1-0.9,0.3l0.4-0.1c0.1,0-0.1,0.1-0.4,0.2c-0.1,0-0.2,0.1-0.1,0L59,56.3c-0.2,0.1-0.2,0,0,0l-1.3,0.6l0,0l-0.3,0.1
		l-0.5,0.1l0.2,0c-0.3,0.1-0.5,0.2-0.8,0.3l0.1-0.1c-0.8,0.4-1,0.3-1.8,0.7c-0.1,0,0.1,0,0.1-0.1c-0.7,0.3-0.6,0.2-1.3,0.5
		c0,0,0,0,0,0L53,58.6l0-0.1l-0.3,0.2l-0.2,0l-0.1,0.1c-0.4,0.1-0.9,0.3-1.4,0.5l0.1,0c-1.2,0.6-2.9,1.1-4.4,1.7l0-0.1l-0.6,0.3
		c-0.3,0.1,0.2-0.1,0.1-0.1c-0.7,0.3-0.3,0.2-1,0.5c-0.4,0.1,0.1-0.1,0.3-0.2c-0.7,0.3-1.8,0.8-2.3,0.9c0,0,0,0,0,0
		c-0.5,0.2-1.1,0.5-1.7,0.7c0,0,0.1-0.1,0.3-0.1c-0.2,0.1-0.5,0.2-0.6,0.3l0.2-0.1c-0.4,0.2-1.2,0.5-1.3,0.5c0.1,0,0,0-0.3,0.2
		c-0.2,0-1,0.4-1.5,0.6c0.1,0,0.5-0.2,0.4-0.2c-0.3,0.1-0.5,0.2-0.8,0.3l0.1-0.1l-1.3,0.6c-0.2,0-1.3,0.5-1.2,0.4
		c-0.5,0.2,0.4-0.1-0.2,0.1c-0.2,0-0.5,0.2-0.5,0.2l0.1,0L34.2,66l0.2-0.1c-0.4,0.2-0.6,0.3-0.6,0.3c-0.4,0.1-0.8,0.3-1,0.4l0.1-0.1
		c-1,0.4-1.6,0.5-2.4,0.9c-0.1,0-0.1,0,0.1,0L30,67.6l0.1-0.1l-1,0.4l0,0l-2.3,0.9l0,0l-0.2,0.1c0-0.1,0-0.1,0-0.2c0,0,0,0,0-0.1
		l-0.1-0.3c0,0,0,0,0,0.1l-0.2-0.6l0.1,0.1c-0.2-0.4-0.4-1.3-0.3-1c-0.1-0.3-0.3-0.7-0.3-0.8c-0.2-0.7,0-0.2-0.2-0.6
		c-0.2-0.5-0.2-0.6-0.4-1.2l0,0L25,63.3l0.1,0.1c-0.3-0.7-0.2-0.9-0.5-1.4c-0.1-0.3-0.3-0.8-0.3-0.8l-0.9-2.4c0-0.2-0.1-0.2-0.2-0.7
		l0,0.1c-0.5-1.2-0.9-2.6-1.5-3.9l0-0.1l-0.1-0.2c-0.6-1.4-1.3-3.3-1.8-4.4c-0.2-0.4-0.5-0.9-0.7-1.5l0,0.1L17.3,45
		c0,0.1,0-0.1,0.1,0.1c-0.2-0.2-0.3-0.6-0.4-0.9l0.1,0.3c-0.2-0.3-0.4-0.7-0.5-0.9l-0.3-0.5c0,0,0-0.1,0-0.1l-0.1-0.1l-0.1-0.3
		c-0.1-0.1-0.4-0.7-0.6-0.9c0-0.1-0.2-0.5,0-0.2l-1-1.7l0.1,0.3c0,0.1-0.3-0.5-0.5-0.7c0.2,0.3,0.1,0,0-0.2c-0.2-0.2,0.1,0.2,0,0.1
		c-0.2-0.3-0.6-0.9-0.6-1.1l0.1,0.2c-0.2-0.4-0.3-0.6-0.5-1c-0.2-0.3-0.4-0.6-0.4-0.5c-0.3-0.5-0.1-0.2-0.2-0.4
		c-0.2-0.2-0.6-0.9-0.6-1c-0.2-0.2-0.8-1.4-0.9-1.4l-0.2-0.4c0,0-0.1-0.1-0.3-0.4c-0.2-0.3-0.1-0.3-0.1-0.4l-0.2-0.2
		c-1-1.9-2.6-4.2-3.8-6.2c-0.6-0.9-1.3-1.9-2-3l0.1,0.1l-0.6-1l0.5,0.8c-0.2-0.2-0.3-0.4-0.4-0.6l-0.2-0.3l-0.1-0.1l0,0l-0.1-0.2
		l0.2-0.1l0.7-0.3l1.6-0.6C7,20.7,6.7,21,7.7,20.5l-0.2,0.1c1-0.4,1.5-0.7,2.5-1.1c-0.1,0.1,0.7-0.3,0.6-0.2l0.1-0.1
		c0.2-0.1,0.8-0.3,0.7-0.2l0.4-0.2l0.1,0c0.6-0.2,1.9-0.8,2.2-0.8c1.4-0.6,3.8-1.5,5.6-2.3c0.2-0.1,0.8-0.3,1.2-0.5l0.5-0.1
		c0.4-0.2,0.9-0.4,1.3-0.5c0,0,0,0,0,0c0.4-0.2,0.9-0.3,1.2-0.5c0.5-0.2,0.9-0.3,0.8-0.3c0-0.1,1-0.4,1-0.4l13-5.1
		c0.1,0,0.1,0,0.1,0l0.1,0.2l0.8,1.2l1.5,2.4l2.9,4.5c1.8,2.8,3.3,5.2,4.3,6.5c0.1,0.2,0.5,0.7,0.4,0.4c0.2,0.4,0.3,0.6,0.4,0.7
		c-0.3-0.6,0.2,0.1-0.1-0.4l0.2,0.3c0.1,0.1-0.3-0.4-0.2-0.4l-0.1-0.1c-0.2-0.3-0.2-0.4-0.3-0.5c-0.2-0.2-0.4-0.4-0.7-1l0.1,0.2
		c-0.3-0.5-0.1-0.3-0.2-0.4l0.1,0.1l-0.2-0.4c0.2,0.3,0.5,0.8,0.4,0.6c-0.3-0.6,0.1,0.2-0.2-0.3c-0.2-0.3-0.1-0.2-0.1-0.2l-0.3-0.5
		c0,0,0.2,0.3,0.1,0.1l-0.4-0.6c0-0.2-0.4-0.7-0.6-1c0.3,0.4,0-0.1,0.1,0l-0.7-1.1c-0.1-0.1,0.2,0.3,0.1,0.1
		c-0.1-0.2-0.2-0.3-0.3-0.4c0-0.1-0.5-0.8-0.4-0.8c-0.4-0.8-0.3-0.3-0.7-1c0-0.1,0.3,0.5,0.2,0.2l-0.5-0.7c0.1,0.1,0.1,0.1,0.3,0.4
		c-1.2-2-1.7-3.1-2.8-4.8c-0.1-0.3,0.1,0.2,0.3,0.3c-0.9-1.2-1.1-1.8-1.8-2.9l0,0l-0.3-0.6l-0.4-0.7L39.2,7l0-0.1c0,0,0,0-0.1,0
		L38.9,7l-0.3,0.1l-0.9,0.3l-2.9,1.1l0.2-0.1c-0.2,0.1-0.7,0.3-1,0.4c-0.1,0,0.2-0.2-0.3,0.1c0.1,0,0.4-0.1,0.3-0.1
		c-1.6,0.6-5.1,1.9-7.7,3l-11,4.4c0.5-0.2,0.3-0.1-0.1,0.1c-1.2,0.3-1.9,0.8-3.1,1.2c-2,0.9-3.9,1.5-5.8,2.3l-0.1,0
		C6.1,20,6,20,5.7,20.1l0,0c-0.7,0.3-1.6,0.6-2,0.8l0,0.1c-0.2,0.1-0.3,0.1-0.3,0.1c-0.1,0-0.2,0.1-0.6,0.2l0,0L2,21.7c0,0,0,0,0,0
		c0,0.1,0.3,0.5,0.7,1.1L3,23.3c0.1,0.1,0.2,0.3,0.2,0.3c0.3,0.5,1,1.4,1.4,2.1c0.1,0.2,0.7,1.1,1,1.7c0.7,1.1,1.8,2.8,2.7,4.2
		l0-0.1l0.2,0.4c0,0,0,0.1,0,0c0.1,0.3,0.6,0.9,0.7,1.2c-0.1-0.2-0.2-0.3-0.3-0.5c-0.2-0.3,0.1-0.1,0.3,0.4l0,0l0.2,0.3
		c0,0.1,0.1,0.3,0.1,0.4c0.8,1.3,1.4,2.1,2.1,3.4c-0.1-0.1,0.6,0.9,0.3,0.7c0.5,0.8,0-0.2,0.2,0.2c0.1,0.2,0.3,0.4,0.3,0.5
		c-0.1-0.1,0.1,0.2,0,0l0.3,0.5c0,0.1-0.1-0.1-0.1-0.1c0.7,1.1,1.1,1.9,1.6,2.9c0.1,0.1-0.2-0.4-0.1-0.3c0.6,1,0.4,0.9,1,1.8
		l-0.1-0.2c0.2,0.3,0.3,0.4,0.5,0.9c0,0.1-0.3-0.4-0.4-0.6c0.2,0.3,0.6,1.2,0.5,0.9c0.2,0.4,0.3,0.6,0.4,0.8c0,0-0.2-0.4,0-0.2
		l1,2.1c0,0,0,0.1,0,0C17.4,47.5,17.3,47.5,17.7,48.2z"/>
	<path d="M43.2,63.3l-0.3,0.1c0,0,0,0-0.1,0.1L43.2,63.3z"/>
	<path d="M29.5,68.7L29.5,68.7C29.5,68.7,29.5,68.7,29.5,68.7z"/>
	<path d="M26,69.4c0.1,0.4,0,0,0-0.2C26,69.2,26,69.2,26,69.4z"/>
	<path d="M50.8,60.1C50.8,60.1,50.8,60.1,50.8,60.1C50.8,60.1,50.8,60.1,50.8,60.1z"/>
	<path d="M59.6,45.5L59.6,45.5L59.6,45.5z"/>
	<path d="M60,46.7l0.1,0.2C60.1,46.9,60.1,46.8,60,46.7z"/>
	<path d="M45.7,62.2c-0.1,0-0.2,0.1-0.2,0.1C45.6,62.2,45.6,62.2,45.7,62.2z"/>
	<polygon points="60.2,47.2 60.3,47.5 60.3,47.5 	"/>
	<path d="M59.5,45.1l0.1,0.4C59.6,45.4,59.6,45.2,59.5,45.1z"/>
	<path d="M58.6,56.9L58.6,56.9C58.4,57.1,58.5,57,58.6,56.9z"/>
	<polygon points="60.8,48.5 60.8,48.5 60.8,48.6 	"/>
	<path d="M59,43.8l0.1,0.1L59,43.8C59,43.8,59,43.8,59,43.8z"/>
	<path d="M62.9,54.8c-0.1-0.1-0.1-0.2-0.1-0.2C62.9,54.8,62.9,54.9,62.9,54.8z"/>
</g>
<g>
	<g>
		<path d="M52.2,10.6L52.2,10.6C52.2,10.6,52.2,10.6,52.2,10.6z"/>
		<path d="M52.1,13.8L52.1,13.8C52.1,13.8,52.1,13.8,52.1,13.8z"/>
		<polygon points="52.3,8.6 52.3,8.6 52.3,8.5 		"/>
		<path d="M51.9,20.7L51.9,20.7L51.9,20.7z"/>
		<path d="M52,16.6L52,16.6C52,16.7,52,16.6,52,16.6z"/>
		<path d="M52.4,7.6L52.4,7.6C52.4,7.7,52.4,7.6,52.4,7.6z"/>
		<path d="M50.7,7.2L50.7,7.2C50.7,7.2,50.7,7.2,50.7,7.2z"/>
		<path d="M51.5,7.3L51.5,7.3C51.5,7.3,51.5,7.3,51.5,7.3z"/>
		<path d="M51.6,7.3L51.6,7.3C51.5,7.3,51.6,7.3,51.6,7.3z"/>
		<path d="M51.5,45.9c0,0.1,0,0.1,0,0.2L51.5,45.9z"/>
		<path d="M51.8,27L51.8,27C51.8,27,51.8,27,51.8,27z"/>
		<path d="M51.6,45.9L51.6,45.9L51.6,45.9z"/>
		<path d="M52.4,8.7c0,0.1,0,0.2,0,0.2C52.4,8.8,52.4,8.7,52.4,8.7z"/>
		<path d="M52.1,28.3L52.1,28.3L52.1,28.3z"/>
		<polygon points="51.6,45.9 51.6,45.9 51.6,45.9 		"/>
		<polygon points="51.7,33.5 51.7,33.5 51.7,33.5 		"/>
		<path d="M51.7,33.9L51.7,33.9C51.7,33.8,51.7,33.9,51.7,33.9z"/>
		<path d="M51.5,46L51.5,46L51.5,46z"/>
		<path d="M51.6,37.6L51.6,37.6L51.6,37.6z"/>
		<path d="M52,16.4L52,16.4C52,16.3,52,16.3,52,16.4z"/>
		<polygon points="52.2,19 52.2,19 52.2,19 		"/>
		<path d="M52.2,18.8c0,0,0,0.1,0,0.1C52.2,18.9,52.2,18.9,52.2,18.8z"/>
		<path d="M52.2,19.3L52.2,19.3L52.2,19.3z"/>
		<polygon points="52.3,16.5 52.3,16.5 52.3,16.5 		"/>
		<path d="M52.3,17L52.3,17L52.3,17z"/>
		<polygon points="52.2,20.6 52.2,20.6 52.2,20.6 		"/>
		<path d="M52.2,25.8l0-1.7c0-0.1,0-0.3,0-0.4l0,0l0-0.1c0-0.1,0,0.1,0,0l0-0.1c0,0,0-0.4,0-0.1l0-0.5c0-0.1,0-0.1,0-0.2
			c0,0,0,0,0,0c0-0.4,0-0.5,0-0.8l0,0l0-0.2c0,0,0,0.1,0,0.2c0,0,0-0.1,0-0.1c0-0.1,0-0.1,0-0.2c0-0.1,0-0.3,0-0.4
			c0-0.1,0-0.1,0-0.3c0-0.1,0,0,0-0.1l0,0c0-0.1,0-0.1,0-0.1c0-0.1,0-0.1,0-0.2l0,0.1l0-0.3c0,0,0,0.1,0,0.1c0-0.1,0-0.1,0-0.2
			c0,0,0,0.1,0,0.1c0-0.1,0-0.2,0-0.2l0,0.1c0-0.2,0-0.1,0-0.3c0,0,0,0,0,0c0-0.1,0-0.3,0-0.4l0,0c0-0.1,0-0.1,0-0.1
			c0,0.1,0,0.1,0,0.1c0-0.1,0-0.2,0-0.4c0,0,0,0.1,0,0.1c0,0.1,0,0.1,0,0.2c0-0.1,0-0.2,0-0.1l0,0l0-0.1c0,0,0,0.1,0,0
			c0-0.1,0-0.1,0-0.1c0-0.2,0-0.1,0-0.2c0,0,0,0,0,0.1c0-0.1,0-0.3,0-0.3c0,0,0,0,0,0.1l0,0c0,0.1,0-0.1,0-0.1c0,0,0-0.2,0-0.2l0,0
			c0-0.2,0,0,0-0.2c0-0.2,0,0.1,0,0c0-0.1,0-0.1,0-0.3c0,0,0-0.1,0-0.1c0-0.1,0-0.3,0-0.3c0,0.2,0,0.2,0,0.3l0-0.1l0-0.4
			c0,0,0,0,0,0c0-0.2,0-0.2,0-0.4c0,0,0,0.1,0,0.2c0-0.1,0-0.1,0-0.3c0,0,0,0.1,0,0.1l0-0.2h0c0,0,0-0.1,0-0.3c0-0.3,0-0.3,0-0.5
			c0,0,0-0.1,0,0c0,0.1,0,0.1,0,0.1c0-0.1,0-0.2,0-0.2c0-0.2,0,0.1,0,0l0-0.2c0,0,0,0.1,0,0l0-0.3c0,0,0,0,0,0.1c0-0.1,0-0.1,0-0.2
			c0,0.1,0-0.2,0-0.1l0-0.1c0,0,0,0,0,0.1c0,0,0-0.1,0-0.2c0,0,0-0.2,0-0.2c0,0,0-0.1,0-0.2c0-0.1,0,0,0,0l0-0.2c0,0,0,0,0,0
			c0-0.1,0,0,0-0.1c0,0.1,0-0.2,0-0.1c0-0.1,0-0.3,0-0.4c0-0.1,0,0.1,0,0.1c0-0.3,0-0.3,0-0.5l0,0.1c0-0.1,0-0.1,0-0.2
			c0,0,0.1-0.2,0.1-0.4c0,0,0,0.1,0,0.1v-0.1c0,0,0,0,0,0c0-0.1,0-0.2,0-0.3l0-0.1l0,0.1c0,0,0-0.2,0-0.2c0-0.2,0-0.2,0-0.3
			c0,0,0,0.1,0,0c0,0,0-0.3,0-0.2c0,0,0-0.1,0-0.1l0,0c0,0,0-0.2,0-0.3c0,0,0-0.1,0-0.2c0,0,0-0.2,0-0.3c0-0.1,0-0.1,0-0.1l0,0
			c0-0.1,0-0.2,0-0.4l0-0.1l0,0c0,0,0-0.1,0-0.1l0-0.1c0,0,0-0.1,0-0.2c0,0,0,0,0,0c0-0.1,0,0,0-0.1c0,0,0-0.2,0-0.1
			c0,0,0-0.1,0-0.1l0,0l0-0.1c0-0.1,0-0.1,0-0.2c0,0.1,0,0.2,0,0c0,0.1,0,0.2,0,0.2c0,0,0-0.1,0,0c0-0.2,0-0.1,0-0.2c0,0,0,0,0-0.2
			l0,0.1l0,0c0,0,0,0,0,0.1c0,0,0-0.2,0-0.2c0,0.1,0-0.3,0-0.2c0,0,0-0.1,0-0.1c0,0.1,0-0.1,0-0.1c0,0,0,0.1,0,0c0-0.1,0-0.1,0-0.2
			l0,0l0-0.1c0,0,0,0.1,0,0c0,0,0-0.1,0-0.1c0,0.1,0,0,0,0.1c0-0.1,0-0.3,0-0.2l0-0.1c0,0.1,0,0.2,0,0l0,0l0-0.1l0-0.1
			c0,0,0,0,0-0.1c0,0,0-0.1,0-0.1c0-0.2,0-0.2,0-0.2c0-0.1,0-0.1,0-0.1l0-0.1c-0.1,0-0.3,0-0.4,0c-0.1,0,0,0-0.1,0
			c-0.1,0-0.5,0-0.7,0c0.1,0-0.1,0-0.1,0c0,0-0.2,0,0,0l-0.1,0c-0.1,0,0.2,0,0.1,0c-0.1,0-0.2,0-0.4,0c0.1,0-0.1,0-0.1,0
			c0,0,0.1,0,0.1,0l0,0c-0.3,0-0.1,0-0.2,0c-0.2,0-0.1,0-0.2,0c0,0-0.1,0-0.2,0c0.1,0,0.2,0,0.2,0c-0.1,0-0.3,0-0.3,0
			c0.3,0,0.2,0,0.4,0c0,0,0,0,0.2,0c-0.1,0,0,0,0,0c0,0,0.1,0,0.1,0c0,0-0.1,0,0.1,0l0,0c0.1,0,0,0,0.1,0c-0.1,0,0,0-0.1,0
			c0.2,0,0.3,0,0.5,0l0,0c0,0,0.1,0,0.1,0c0.1,0-0.1,0-0.1,0l0.2,0c0,0,0,0,0,0c0,0,0.1,0,0.1,0l-0.1,0l0.2,0c0,0,0.1,0,0,0l0.3,0
			l0,0c0.1,0,0.1,0,0,0c0.1,0,0.3,0,0.3,0c0,0,0,0,0,0c0,0.2,0,0.2,0,0.5c0-0.2,0,0.2,0,0c0,0.1,0,0.1,0,0.2c0,0.1,0,0,0,0l0,0.1
			l0,0l0,0.1c0,0.1,0,0,0,0.1l0,0l0,0.1c0,0,0,0,0,0.1l0,0l0,0.1c0-0.1,0,0.1,0,0l0,0.2l0,0c0,0.2,0,0,0,0.2l0,0c0,0.2,0,0.4,0,0.5
			c0-0.1,0-0.1,0-0.1c0,0.1,0,0.4,0,0.5c0,0.1,0,0.1,0,0.2c0,0.1,0,0.1,0,0.2c0,0.1,0,0.3,0,0.3c0,0,0,0.1,0,0.1l0,0l0,0
			c0,0.2,0,0.3,0,0.5l0,0l0,0.1c0,0,0,0,0,0l0,0.4l0-0.1c0,0.1,0,0.1,0,0.2c0-0.1,0,0.1,0,0.1l0-0.1c0,0.1,0,0.1,0,0.1
			c0,0.1,0,0.1,0,0.2l0-0.1c0,0,0,0,0,0.1c0,0,0,0.1,0,0l0,0.3c0,0.1,0,0,0,0l0,0.3l0,0l0,0.1l0,0.1l0,0c0,0.1,0,0.1,0,0.2l0,0
			c0,0.2,0,0.2,0,0.4c0,0,0,0,0,0c0,0.2,0,0.1,0,0.3c0,0,0,0,0,0l0,0.1l0,0l0,0.1l0,0.1l0,0c0,0.1,0,0.2,0,0.3l0,0
			c0,0.3,0,0.7,0,1.1l0,0l0,0.2c0,0.1,0-0.1,0,0c0,0.2,0,0.1,0,0.3c0,0.1,0,0,0-0.1c0,0.2,0,0.4,0,0.6c0,0,0,0,0,0l0,0.4
			c0,0,0,0,0-0.1c0,0,0,0.1,0,0.2l0-0.1c0,0.1,0,0.3,0,0.3c0,0,0,0,0,0.1c0,0,0,0.2,0,0.4c0,0,0-0.1,0-0.1c0,0.1,0,0.1,0,0.2l0,0
			l0,0.3c0,0,0,0.3,0,0.3c0,0.1,0-0.1,0,0.1c0,0,0,0.1,0,0.1l0,0l0,0.1l0-0.1c0,0.1,0,0.2,0,0.2c0,0.1,0,0.2,0,0.2l0,0
			c0,0.2,0,0.4,0,0.6c0,0,0,0,0,0l0,0.1l0,0l0,0.2l0,0l0,0.6l0,0c0,0.2,0,0.2,0,0.4l0,0l0,0.1l0,0c0,0.1,0,0.3,0,0.2
			c0,0.1,0,0.2,0,0.2c0,0.2,0,0,0,0.1c0,0.1,0,0.1,0,0.3l0,0l0,0.2l0,0c0,0.2,0,0.2,0,0.3c0,0.1,0,0.2,0,0.2l0,0.6c0,0,0,0,0,0.2
			l0,0c0,0.3,0,0.6,0,1l0,0l0,0.1l0,1.1c0,0.1,0,0.2,0,0.4l0,0c0,0.3,0,0.5,0,0.8c0,0,0,0,0,0c0,0.1,0,0.2,0,0.2l0-0.1
			c0,0.1,0,0.2,0,0.2l0,0.1c0,0,0,0,0,0l0,0l0,0.1c0,0,0,0.2,0,0.2c0,0,0,0.1,0,0l0,0.5l0-0.1c0,0,0,0.1,0,0.2c0-0.1,0,0,0,0
			c0,0.1,0-0.1,0,0c0,0.1,0,0.2,0,0.3l0,0c0,0.1,0,0.2,0,0.3c0,0.1,0,0.2,0,0.1c0,0.1,0,0.1,0,0.1c0,0.1,0,0.3,0,0.3
			c0,0.1,0,0.4,0,0.4l0,0.1c0,0,0,0,0,0.1c0,0.1,0,0.1,0,0.1l0,0.1c0,0.5,0,1.1-0.1,1.7l0,0.8l0,0l0,0.3l0-0.2l0,0.2
			c0,0.3,0,0.7,0,1.1c0,0.2,0,0.2,0,0.4l0,0l0,0.6c0,0,0,0.2,0,0.1l0,0c0,0.1,0,0.2,0,0.2l0,0.1l0,0c0,0.1,0,0.5,0,0.5
			c0,0.4,0,0.9,0,1.4c0,0.1,0,0.2,0,0.3l0,0.1c0,0.1,0,0.2,0,0.3c0,0,0,0,0,0c0,0.1,0,0.2,0,0.3c0,0.1,0,0.2,0,0.2c0,0,0,0.2,0,0.2
			s-0.2,6-0.1,7.5c0,0,0,0.2,0,0.1c0,0.1,0,0.2,0,0.2c0-0.1,0,0,0-0.1l0,0.1c0,0,0-0.1,0-0.1l0,0c0-0.1,0-0.1,0-0.1
			c0-0.1,0-0.1,0-0.3l0,0c0-0.1,0-0.1,0-0.1v0l0-0.1c0,0.1,0,0.2,0,0.2c0-0.2,0,0,0-0.1c0-0.1,0-0.1,0,0l0-0.1c0,0,0,0.1,0,0l0-0.2
			c0,0,0-0.2,0-0.3c0,0.1,0,0,0,0l0-0.3c0,0,0,0.1,0,0c0-0.1,0-0.1,0-0.1c0,0,0-0.2,0-0.2c0-0.2,0-0.1,0-0.3c0,0,0,0.1,0,0.1l0-0.2
			c0,0,0,0,0,0.1c0-0.5,0.1-0.8,0.1-1.3c0-0.1,0,0,0,0.1c0-0.3,0-0.5,0-0.8l0,0c0-0.4,0-0.9,0.1-1.4l0,0.1c0-0.1,0-0.2,0-0.2
			c0,0,0,0.1,0-0.1c0,0,0,0.1,0,0.1c0-0.4,0-1.2,0.1-1.9l0.1-2.7c0,0.1,0,0.1,0,0c0.1-0.3,0-0.5,0-0.8c0-0.5,0-1,0-1.4l0,0
			c0-0.1,0-0.1,0-0.2l0,0l0-0.5l0,0c0-0.1,0-0.1,0-0.2l0,0l0-0.1c0,0,0-0.3,0-0.4c0-0.1,0-0.4,0-0.6c0,0,0-0.3,0-0.4l0-1.2l0,0
			l0-0.1c0,0,0,0,0,0c0-0.1,0-0.2,0-0.3c0,0.1,0,0.1,0,0.1c0,0.1,0,0,0-0.1l0,0l0-0.1c0,0,0-0.1,0-0.1c0-0.3,0-0.6,0-0.9
			c0,0,0-0.3,0-0.2c0-0.2,0,0,0-0.1c0-0.1,0-0.1,0-0.1c0,0,0,0,0,0v-0.1c0,0,0,0,0,0c0-0.3,0-0.5,0-0.8c0,0,0,0.1,0,0.1
			c0-0.3,0-0.2,0-0.5l0,0.1c0-0.1,0-0.1,0-0.2c0,0,0,0.1,0,0.2c0-0.1,0-0.3,0-0.2c0-0.1,0-0.1,0-0.2c0,0,0,0.1,0,0l0-0.5
			c0,0,0,0,0,0C52.2,26,52.2,26,52.2,25.8z"/>
		<path d="M52.3,16.4L52.3,16.4c0,0.1,0,0.1,0,0.1L52.3,16.4z"/>
		<path d="M52.2,19.8L52.2,19.8C52.2,19.8,52.2,19.8,52.2,19.8z"/>
		<path d="M52.2,20.6C52.2,20.5,52.2,20.6,52.2,20.6C52.2,20.6,52.2,20.6,52.2,20.6z"/>
		<path d="M52.3,14.5C52.3,14.5,52.3,14.5,52.3,14.5C52.3,14.5,52.3,14.5,52.3,14.5z"/>
		<path d="M52.4,9.2L52.4,9.2L52.4,9.2z"/>
		<path d="M52.4,9.5L52.4,9.5L52.4,9.5z"/>
		<path d="M52.3,15.8L52.3,15.8C52.3,15.8,52.3,15.8,52.3,15.8z"/>
		<polygon points="52.4,9.7 52.4,9.7 52.4,9.7 		"/>
		<path d="M52.4,9.1L52.4,9.1C52.4,9.2,52.4,9.2,52.4,9.1z"/>
		<path d="M52.3,12.6L52.3,12.6C52.3,12.6,52.3,12.6,52.3,12.6z"/>
		<polygon points="52.4,10 52.4,10 52.4,10 		"/>
		<polygon points="52.4,8.8 52.4,8.9 52.4,8.8 		"/>
		<path d="M52.4,11.5C52.4,11.5,52.4,11.4,52.4,11.5C52.3,11.5,52.4,11.5,52.4,11.5z"/>
	</g>
	<g>
		<path d="M49.7,46.5C49.7,46.5,49.8,46.5,49.7,46.5C49.7,46.5,49.7,46.5,49.7,46.5z"/>
		<path d="M49.4,42.2L49.4,42.2C49.4,42.2,49.4,42.2,49.4,42.2z"/>
		<polygon points="50.3,48.8 50.3,48.8 50.3,48.9 50.3,48.9 50.3,48.9 		"/>
		<path d="M49.6,32.6L49.6,32.6L49.6,32.6z"/>
		<path d="M49.5,38.3C49.5,38.3,49.5,38.2,49.5,38.3C49.5,38.3,49.5,38.3,49.5,38.3z"/>
		<path d="M50.8,48.3L50.8,48.3C50.8,48.4,50.8,48.4,50.8,48.3z"/>
		<path d="M51.7,45.6L51.7,45.6C51.7,45.6,51.7,45.6,51.7,45.6z"/>
		<path d="M51.3,46.6L51.3,46.6C51.3,46.7,51.3,46.6,51.3,46.6z"/>
		<path d="M51.3,46.7L51.3,46.7C51.3,46.7,51.2,46.7,51.3,46.7z"/>
		<path d="M52.1,7.3c0,0.1,0,0.1,0,0.2L52.1,7.3z"/>
		<path d="M49.8,24L49.8,24C49.8,24,49.8,24,49.8,24z"/>
		<path d="M52.3,7.4L52.3,7.4L52.3,7.4z"/>
		<path d="M50.2,49.8c0-0.1-0.1-0.3-0.1-0.3C50.1,49.6,50.2,49.8,50.2,49.8z"/>
		<path d="M49.1,22.2L49.1,22.2L49.1,22.2z"/>
		<polygon points="52.3,7.4 52.3,7.4 52.3,7.4 		"/>
		<polygon points="49.9,15 49.9,15 49.9,15 		"/>
		<path d="M50,14.5l0,0.1C50,14.6,50,14.6,50,14.5z"/>
		<path d="M52.1,7.6l0,0.1C52.1,7.6,52.1,7.6,52.1,7.6z"/>
		<path d="M50,9.4L50,9.4L50,9.4z"/>
		<path d="M49.5,38.7L49.5,38.7C49.5,38.7,49.5,38.7,49.5,38.7z"/>
		<polygon points="49,35.1 49,35.1 49,35.1 		"/>
		<path d="M49,35.3c0-0.1,0-0.1,0-0.2C49,35.2,49,35.2,49,35.3z"/>
		<path d="M49,34.7L49,34.7L49,34.7z"/>
		<polygon points="48.9,38.5 48.9,38.5 48.9,38.5 		"/>
		<path d="M48.9,37.7L48.9,37.7C49,37.7,48.9,37.7,48.9,37.7z"/>
		<polygon points="49,32.8 49,32.8 49,32.8 		"/>
		<path d="M49,25.7c0,0.7,0,1.6,0,2.3c0,0.2,0,0.4,0,0.6l-0.1,0l0,0.2c0,0.1,0-0.1,0,0l0,0.1c0,0,0,0.5-0.1,0.2l0,0.7
			c0,0.2,0,0.1,0,0.3c0,0,0-0.1,0-0.1c0,0.5,0.1,0.6,0.1,1.1l0,0c0,0.1,0,0.2,0,0.2c0.1-0.1,0-0.1,0-0.2c0,0,0,0.2,0.1,0.2
			c0,0.1,0,0.2,0,0.3c0,0.2,0,0.4-0.1,0.6c0,0.1,0.1,0.2,0.1,0.4c0,0.1,0,0,0,0.1l0,0c0,0.1,0,0.1,0,0.1c0,0.2,0,0.1,0,0.3l0-0.1
			c0,0.1,0,0.2,0,0.4c0,0,0-0.1,0-0.1c0,0.1,0,0.2,0,0.2c0,0,0-0.2,0-0.1c0,0.1,0,0.2,0,0.3l0-0.1c0,0.2,0,0.1,0,0.4c0,0,0,0,0,0
			c0,0.2,0,0.4,0,0.6l0,0c0,0.1,0,0.1,0,0.2c0-0.1,0-0.1,0-0.1c0,0.2,0,0.3,0,0.5c0,0,0-0.1,0-0.1c0-0.1-0.1-0.1-0.1-0.3
			c0,0.1,0,0.2,0,0.2l0,0l0,0.2c0,0,0-0.1,0.1,0c0,0.2,0,0.1,0,0.1c0,0.2,0,0.1,0,0.3c0,0,0-0.1,0-0.1c0,0.2,0,0.4,0,0.4
			c0,0,0,0,0-0.1l0,0c0-0.2,0,0.1,0,0.1c0,0,0,0.2,0,0.3l0,0c0.1,0.3-0.1,0-0.1,0.3c0,0.2,0-0.1,0,0c0,0.1,0,0.2,0,0.4
			c0,0.1,0,0.2-0.1,0.2c0,0.1,0,0.4,0,0.5c0-0.2,0-0.2,0-0.5l0,0.1c0,0.2,0,0.4,0,0.5c0,0,0,0,0,0c0,0.2,0,0.3,0,0.6
			c0,0,0-0.1,0-0.2c0,0.2,0,0.2,0,0.4c0,0,0-0.2,0-0.2l0,0.3h0c0,0,0,0.2,0,0.4c0,0.4,0.1,0.4,0.1,0.7c0,0.1,0,0.1,0,0
			c0-0.1,0-0.1,0-0.1c0,0.1,0,0.3-0.1,0.2c0,0.2,0-0.1,0,0.1l0,0.3c0,0,0-0.1,0,0c0,0.1,0,0.2,0,0.3c0,0,0,0,0-0.1
			c0,0.1,0,0.2,0,0.2c0-0.2,0,0.3,0,0.2l0,0.2c0,0,0,0,0-0.1c0,0.1,0,0.1,0,0.2c0,0.1,0,0.2,0,0.2c0,0.1,0,0.2,0,0.2c0,0.1,0,0,0,0
			l0,0.3c0,0-0.1,0-0.1,0c0,0.1,0.1,0,0,0.2c0-0.1,0,0.2-0.1,0.1c0,0.1,0,0.4,0,0.5c0,0.1,0-0.2,0-0.1c0,0.4,0.1,0.4,0.1,0.7l0-0.1
			c0,0.2,0,0.2,0,0.3c0-0.1-0.1,0.2-0.1,0.5c0,0,0-0.2,0.1-0.1l0,0.2c0,0,0,0,0,0c0,0.2-0.1,0.3,0,0.4l-0.1,0.2l0-0.1
			c0,0,0,0.2,0,0.3l0,0C49,44.9,49,45,49,45.1c0,0,0-0.1,0.1,0c-0.1,0,0.1,0.3,0,0.3c0,0.1,0,0.2,0.1,0.2l0,0c0.1,0,0.1,0.2,0.2,0.4
			c-0.1,0,0.1,0.2,0,0.3c0.1,0,0.1,0.3,0.1,0.3c0,0.1,0,0.1,0,0.2l0,0.1c0,0.1,0.1,0.3,0.1,0.5l0.1,0.1l0,0.1c0,0,0.1,0.1,0,0.1
			l0,0.1c0,0,0,0.1,0.1,0.3c0,0.1,0,0,0,0c0,0.1,0,0.1,0,0.1c0-0.1,0.2,0.3,0.1,0c0,0,0.1,0.1,0.1,0.2l0,0.1l0.1,0
			c0,0.1,0,0.2,0.1,0.4c0-0.1-0.1-0.1,0,0.2c0-0.2-0.1-0.2-0.1-0.3c0,0.1,0,0.1,0,0c0.1,0.3,0,0.1,0.1,0.3c0,0.1,0,0.2,0.1,0.5
			l0-0.3c0,0,0,0,0,0c0-0.1,0-0.1,0-0.2c0,0.1,0.1,0.2,0.1,0.3c0-0.4,0.1,0.3,0.1,0.1c0,0,0,0,0,0c0-0.1,0-0.1,0-0.1
			c-0.1,0.3,0.1,0,0,0.1c0-0.1-0.1,0.1,0-0.1c0-0.1,0.1-0.2,0.1-0.2l0,0.1l0.1-0.2c0-0.1-0.1,0.1,0-0.1c0,0,0.1-0.2,0.1-0.2
			c0,0.1,0,0.1-0.1,0.3c0.1-0.2,0.2-0.6,0.1-0.5l0.1-0.2c0,0.1-0.2,0.3,0,0l0,0l0.1-0.2l0-0.1c0,0,0,0,0-0.1c0,0,0-0.1,0.1-0.1
			c0.1-0.2,0.1-0.2,0.1-0.3c0-0.1,0.1-0.1,0.1-0.1c0.1-0.1,0.1-0.4,0.2-0.4c0-0.2,0,0,0-0.1c0.1-0.1,0.2-0.6,0.3-0.9
			c-0.1,0.1,0-0.1,0-0.2c0,0.1,0.1-0.3,0.1,0l0-0.2c0.1-0.1-0.1,0.3,0,0.1c0.1-0.2,0-0.3,0.1-0.5c0,0.1,0-0.2,0.1-0.1
			c0,0,0,0.1,0,0.2l0,0c0.1-0.4,0-0.1,0-0.3c0.1-0.2,0.1-0.2,0.1-0.2c0,0,0.1-0.2,0.1-0.2c0,0.1-0.1,0.3-0.1,0.2
			c0.1-0.1,0.1-0.3,0.1-0.4c-0.2,0.3-0.1,0.2-0.2,0.5c0,0,0,0.1,0,0.2c0-0.1,0,0,0,0c0,0,0,0.1,0,0.2c0,0,0-0.1-0.1,0.1l0,0.1
			c0,0.1,0,0-0.1,0.1c0-0.1-0.1,0,0-0.2c-0.1,0.2-0.1,0.4-0.2,0.6c0,0,0,0,0,0c0,0,0,0.1,0,0.2c-0.1,0.1,0-0.1,0-0.1l-0.1,0.2
			c0,0,0,0,0,0c0,0.1,0,0.1,0,0.1c0-0.1,0-0.1,0-0.1l0,0.2c0,0-0.1,0.2,0,0L51,47.3l0,0c0,0.1,0,0.1,0,0c0,0.1-0.1,0.5-0.2,0.4
			c-0.1,0.3-0.1,0.3-0.2,0.7c0.1-0.3-0.1,0.2,0-0.1c-0.1,0.1,0,0.2-0.1,0.3c0,0.1,0-0.1,0-0.2l0,0.1l0,0l0,0.1c0,0.1,0-0.1,0,0
			l0,0.1l0,0c0,0,0,0.1,0,0.2l0,0l0,0l0-0.1c0,0,0-0.1,0-0.1c0-0.1,0-0.1-0.1-0.2l0,0.1c-0.1-0.2,0-0.1,0-0.2l0,0.1
			c0-0.3-0.1-0.3-0.1-0.5c0,0.1,0,0,0,0L50,47.8c0-0.1-0.1-0.2-0.1-0.3c0-0.1,0-0.1,0-0.3c0-0.1,0-0.2-0.1-0.2
			c0-0.1-0.1-0.4-0.1-0.4c0,0,0-0.1-0.1-0.2l0,0l0,0c0-0.3-0.1-0.4-0.1-0.6l0,0l0-0.1c0,0,0,0,0,0l-0.1-0.5l0,0.1
			c0-0.1-0.1-0.2-0.1-0.3c0.1,0.2,0-0.2,0-0.2l0,0.1c0-0.1,0-0.1-0.1-0.1c0-0.1,0-0.1,0-0.2c0,0,0,0,0-0.1l0,0.1l0,0c0,0,0,0,0,0
			c0,0,0,0,0-0.1c0,0,0-0.1,0,0c0-0.1,0-0.4,0-0.4c0-0.1,0-0.1,0,0l0-0.5l0,0l0-0.1l0-0.2l0,0.1c0-0.1,0-0.2,0-0.3l0,0
			c0-0.3,0-0.3,0-0.6c0,0,0,0,0,0c0-0.3,0-0.2,0-0.4c0,0,0,0,0,0l0-0.1l0,0l0-0.1l0-0.1l0,0c0.1-0.1,0-0.3,0.1-0.5l0,0
			c-0.1-0.4,0.1-1,0-1.5l0,0l0-0.2c0-0.1,0,0.1,0,0c0-0.2,0-0.1,0-0.4c0-0.1,0,0,0,0.1c0-0.2,0-0.6,0-0.8c0,0,0,0,0,0
			c0-0.2,0-0.4,0-0.6c0,0,0,0,0,0.1c0-0.1,0-0.2,0-0.2l0,0.1c0-0.1,0-0.4,0-0.4c0,0,0,0,0-0.1c0-0.1,0-0.3,0-0.5c0,0,0,0.2,0,0.1
			c0-0.1,0-0.2,0-0.3l0,0l0-0.5c0-0.1,0-0.4,0-0.4c0-0.2,0,0.1,0-0.1c0-0.1,0-0.2,0-0.2l0,0l0-0.1l0,0.1c0-0.1,0-0.2-0.1-0.2
			c0-0.1,0-0.3,0-0.3l0,0c0-0.3,0.1-0.5,0-0.8c0,0,0,0,0,0l0-0.2l0,0l0-0.3l0,0l0-0.9l0,0c0-0.3,0-0.3,0-0.5c0,0,0,0,0,0l0-0.2l0,0
			c0-0.2,0-0.4,0-0.3c0-0.1,0-0.2,0-0.3c0-0.2,0-0.1,0-0.2c0-0.2,0-0.2,0-0.4l0,0l0-0.3l0,0c0-0.2,0-0.3,0-0.5c0-0.1,0-0.3,0-0.3
			l0-0.8c0,0,0-0.1,0-0.2l0,0c0-0.4,0.1-0.9,0.1-1.3l0,0l0-0.1l0-1.5c0-0.1,0-0.3,0-0.5l0,0c0-0.4,0-0.7,0-1.1c0,0,0,0,0,0
			c0-0.1,0-0.2,0-0.3l0,0.1c0-0.1,0-0.3,0-0.3l0-0.2c0,0,0,0,0,0l0,0l0-0.1c0,0,0-0.3,0-0.3c0,0,0-0.2,0-0.1l0-0.6l0,0.1
			c0,0,0-0.2,0-0.3c0,0.1,0,0,0.1,0c0-0.1,0,0.1,0,0c0-0.1,0-0.3,0-0.4l0,0.1c0-0.1,0-0.2,0-0.4c0-0.1,0-0.2,0-0.2
			c0-0.2,0-0.1,0-0.1c0-0.1,0-0.3,0-0.4c-0.1-0.1,0-0.5,0-0.5l0-0.2c0,0,0,0-0.1-0.2c0-0.1,0-0.1,0.1-0.1l-0.1-0.1
			c0.1-0.7,0-1.6,0.1-2.3c0-0.3,0-0.7,0-1.1l0,0l0-0.4l0,0.3c0-0.1,0-0.1,0-0.2c0-0.4,0.1-1,0-1.5c-0.1-0.3,0.1-0.2,0-0.5l0,0.1
			c0-0.3,0-0.5-0.1-0.9c0.1,0,0-0.2,0-0.2l0,0c0-0.1,0-0.3,0-0.2l0-0.2l0,0c0-0.2,0-0.6,0-0.7c0-0.5,0-1.3,0-1.9c0-0.1,0-0.3,0-0.4
			l0-0.2c0-0.1,0-0.3,0-0.4c0,0,0,0,0,0c0-0.1,0-0.3,0-0.4c0-0.2,0-0.3,0-0.3c0,0,0-0.3,0-0.3l0.1-3.9l0,0.3l0-0.4
			c0-0.1,0.1-0.3,0.2-0.4c0.2-0.1,0.4-0.1,0.7-0.1C51.6,4,52,4.2,52,4.6c0,1.2,0.1,2.2,0.1,2.7c0,0.1,0,0.3,0.1,0.2
			c0,0.1,0,0.2,0,0.2c0-0.2,0.1,0.1,0.1-0.1l0,0.1c0,0,0-0.2,0-0.1l0,0c0-0.1,0-0.2,0-0.2c0-0.1-0.1-0.2-0.1-0.4l0,0.1
			c0-0.2,0-0.1,0-0.2v0l0-0.2c0,0.1,0,0.3,0,0.2c0-0.2,0,0.1,0-0.1c0-0.1,0-0.1,0-0.1l0-0.2c0,0,0,0.1,0,0l0-0.2c0.1,0,0-0.3,0-0.4
			c0,0.2,0,0,0,0l0-0.4c0,0,0,0.1,0,0c0-0.1,0-0.1,0-0.2c0,0,0-0.3,0-0.3c0-0.3,0-0.1,0-0.4c0,0,0,0.2,0,0.1l0-0.3c0,0,0,0.1,0,0.2
			c0-0.3,0.1-0.7-0.1-1c-0.2-0.3-0.4-0.5-0.8-0.6c-0.1-0.1,0.1,0,0.2,0c-0.5-0.1-0.7-0.2-1.2-0.1l0,0c-0.5,0-1.1,0.5-1,1.2l0,0
			l0,0.6l0-0.1c0,0.1,0,0.2,0,0.3c0,0,0-0.1,0,0.1c0,0,0-0.1,0-0.1c-0.1,0.6-0.1,1.7-0.1,2.6l-0.1,3.8c0-0.2,0.1-0.1,0,0
			c-0.1,0.4,0,0.7-0.1,1c0,0.7-0.1,1.3,0,2l0,0c0,0.1,0,0.1,0,0.2l0,0c0,0.2,0,0.5,0,0.7l0,0c0,0.1,0,0.1,0,0.2l0,0l0,0.2
			c-0.1,0,0,0.4,0,0.5c0,0.2,0,0.5,0,0.8c0,0.1,0,0.4,0,0.6l0,1.6l0,0v0.1c0,0,0,0,0,0c0,0.1,0,0.3,0,0.4c0-0.1,0-0.1,0-0.2
			c0-0.1,0,0,0,0.2l0,0l0,0.1c0,0,0,0.1-0.1,0.1c0,0.5,0,0.8,0,1.3c0-0.1,0,0.3,0,0.2c0,0.3,0,0,0.1,0.1c0,0.1,0,0.2,0,0.2
			c0,0,0,0.1,0,0l0,0.2c0,0,0,0,0,0c0,0.4,0,0.7,0,1.1c0,0,0-0.1,0-0.1c0,0.4,0,0.3,0,0.6l0-0.1c0,0.1,0,0.2,0,0.3c0,0,0-0.2,0-0.2
			c0,0.1,0,0.4,0,0.3c0,0.1,0,0.2,0,0.3c0,0,0-0.1,0,0c0,0.2,0,0.5,0,0.7c0,0,0,0,0,0C49,25.4,49,25.4,49,25.7z"/>
		<path d="M48.9,38.6L48.9,38.6c0-0.1,0-0.1,0-0.1L48.9,38.6z"/>
		<path d="M49,34L49,34C49,34,49,34,49,34z"/>
		<path d="M49,32.8C49,32.9,49,32.8,49,32.8C49,32.8,49,32.8,49,32.8z"/>
		<path d="M49,41.2C49,41.2,49,41.2,49,41.2C49,41.2,49,41.2,49,41.2z"/>
		<path d="M49.9,48.7L49.9,48.7L49.9,48.7z"/>
		<path d="M49.8,48.1l0-0.1C49.8,48,49.8,48.1,49.8,48.1z"/>
		<path d="M49,39.5C49,39.4,49,39.4,49,39.5C49,39.4,49,39.5,49,39.5z"/>
		<polygon points="49.7,47.9 49.7,47.8 49.7,47.8 		"/>
		<path d="M49.9,48.9l0-0.2C49.9,48.8,49.9,48.8,49.9,48.9z"/>
		<path d="M49,43.9L49,43.9C48.9,43.8,49,43.9,49,43.9z"/>
		<polygon points="49.6,47.4 49.6,47.4 49.6,47.4 		"/>
		<path d="M50.1,49.5C50.1,49.5,50.1,49.5,50.1,49.5L50.1,49.5L50.1,49.5z"/>
		<path d="M49.1,45.4C49.1,45.5,49.1,45.5,49.1,45.4C49.1,45.4,49.1,45.4,49.1,45.4z"/>
	</g>
</g>
<g>
	<path fill="#565656" d="M35.7,16.2C35.7,16.2,35.7,16.2,35.7,16.2C35.7,16.2,35.7,16.2,35.7,16.2z"/>
	<path fill="#565656" d="M34.1,18.3L34.1,18.3C34.1,18.3,34.1,18.3,34.1,18.3z"/>
	<polygon fill="#565656" points="37.2,15.8 37.2,15.8 37.4,15.8 	"/>
	<path fill="#565656" d="M29,19L29,19C29,19,29,19,29,19z"/>
	<path fill="#565656" d="M32.1,19C32.1,19,32.1,19,32.1,19C32.1,19,32.1,19,32.1,19z"/>
	<path fill="#565656" d="M38.1,16.2L38.1,16.2C38,16.2,38,16.2,38.1,16.2z"/>
	<path fill="#565656" d="M39.6,16.5L39.6,16.5C39.6,16.5,39.6,16.5,39.6,16.5z"/>
	<path fill="#565656" d="M39,16.2L39,16.2C39,16.2,39,16.2,39,16.2z"/>
	<path fill="#565656" d="M39,16.2L39,16.2C39,16.2,39,16.2,39,16.2z"/>
	<path fill="#565656" d="M12.9,27.6c0,0,0,0.1,0,0.1L12.9,27.6z"/>
	<path fill="#565656" d="M25.7,22.5L25.7,22.5C25.7,22.5,25.7,22.5,25.7,22.5z"/>
	<path fill="#565656" d="M13.1,27.7L13.1,27.7C13.1,27.7,13.1,27.7,13.1,27.7z"/>
	<path fill="#565656" d="M37.2,16.2c0,0-0.1,0-0.1,0C37.1,16.2,37.2,16.2,37.2,16.2z"/>
	<path fill="#565656" d="M24.5,22.9L24.5,22.9L24.5,22.9z"/>
	<polygon fill="#565656" points="13.1,27.7 13.1,27.6 13.1,27.6 	"/>
	<polygon fill="#565656" points="20.8,22.7 20.8,22.7 20.8,22.7 	"/>
	<path fill="#565656" d="M20.6,22.9L20.6,22.9C20.6,22.8,20.6,22.8,20.6,22.9z"/>
	<path fill="#565656" d="M13,27.7L13,27.7C13,27.8,13,27.8,13,27.7z"/>
	<path fill="#565656" d="M18.5,24.8L18.5,24.8C18.5,24.8,18.5,24.8,18.5,24.8z"/>
	<path fill="#565656" d="M32.3,19L32.3,19C32.4,19,32.4,19,32.3,19z"/>
	<polygon fill="#565656" points="30.5,18.8 30.5,18.8 30.5,18.8 	"/>
	<path fill="#565656" d="M30.5,18.8C30.5,18.8,30.5,18.8,30.5,18.8C30.5,18.8,30.5,18.8,30.5,18.8z"/>
	<path fill="#565656" d="M30.2,18.8L30.2,18.8L30.2,18.8z"/>
	<polygon fill="#565656" points="32.3,19.5 32.3,19.5 32.3,19.5 	"/>
	<path fill="#565656" d="M31.7,19.4C31.7,19.4,31.7,19.4,31.7,19.4C31.7,19.4,31.7,19.4,31.7,19.4z"/>
	<polygon fill="#565656" points="29.5,19.4 29.5,19.4 29.5,19.4 	"/>
	<path fill="#565656" d="M26.9,22.8c0.4-0.3,0.7-0.8,1-1.1c0-0.1,0.1-0.2,0.2-0.3l0.1,0l0.1-0.1c0,0,0,0.1,0,0l0-0.1
		c0,0,0.2-0.2,0.1-0.1l0.2-0.4c0.1-0.1,0-0.1,0.1-0.1c0,0,0,0,0,0c0.2-0.2,0.1-0.4,0.3-0.6l0,0c0,0,0.1-0.1,0.1-0.1
		c-0.1,0,0,0.1-0.1,0.1c0,0,0-0.1,0-0.1c0.1,0,0.1-0.1,0.1-0.1c0.1-0.1,0.2-0.2,0.2-0.2c0,0,0-0.1,0.1-0.2c0.1,0,0,0,0.1,0l0,0
		c0.1-0.1,0.1,0,0.1,0c0.1-0.1,0-0.1,0.1-0.1l0,0.1c0.1-0.1,0.1-0.1,0.2-0.1c0,0,0,0-0.1,0.1c0.1,0,0.1-0.1,0.1-0.1c0,0-0.1,0-0.1,0
		c0,0,0.1-0.1,0.1-0.1l0,0.1c0.1-0.1,0-0.1,0.1-0.1c0,0,0,0,0,0c0.1-0.1,0.2-0.1,0.3-0.1l0,0c0,0,0.1,0,0.1-0.1c-0.1,0-0.1,0-0.1,0
		c0.1,0,0.1-0.1,0.3-0.1c0,0,0,0-0.1,0c0,0,0,0.1-0.1,0.1c0.1,0,0.1,0,0.1,0l0,0l0.1,0c0,0-0.1,0,0-0.1c0.1,0,0,0,0.1,0
		c0.1,0,0,0,0.2,0c0,0,0,0,0,0c0.1,0,0.2,0,0.2,0.1c0,0,0,0,0,0l0,0c-0.1,0,0.1,0,0,0c0,0,0.1,0,0.1,0l0,0c0.2,0,0,0,0.1,0.1
		c0.1,0.1,0,0,0,0c0.1,0.1,0.1,0.1,0.2,0.2c0,0,0.1,0.1,0.1,0.1c0.1,0,0.2,0.2,0.3,0.1c-0.1-0.1-0.2,0-0.3-0.2l0.1,0
		c0.1,0.1,0.2,0.1,0.3,0.2c0,0,0,0,0,0c0.2,0,0.2,0,0.4,0c0,0-0.1,0-0.1,0c0.1,0,0.1,0,0.3,0c0,0-0.1,0-0.1,0c0.1,0,0.1,0,0.2,0v0
		c0,0,0.1,0,0.2,0c0.2,0,0.3-0.1,0.4-0.2c0,0,0,0,0,0c-0.1,0,0,0-0.1,0c0.1,0,0.2,0,0.1,0c0.1,0-0.1,0,0,0l0.2,0c0,0-0.1,0,0,0
		l0.2-0.1c0,0,0,0,0,0c0,0,0.1,0,0.1-0.1c-0.1,0,0.2-0.1,0.1-0.1l0.1,0c0,0,0,0-0.1,0c0,0,0.1,0,0.1-0.1c0,0,0.1-0.1,0.1-0.1
		c0,0,0.1-0.1,0.1-0.1c0,0,0,0,0,0l0.1-0.1c0,0,0.1,0,0,0.1c0-0.1,0-0.1,0.1-0.1c0,0.1,0.1-0.1,0.1,0c0.1,0,0.2-0.1,0.2-0.2
		c0-0.1-0.1,0.1-0.1,0c0.2-0.2,0.1-0.3,0.2-0.4l0,0c0.1-0.1,0-0.1,0.1-0.2c0,0,0.2-0.1,0.2-0.2c0,0-0.1,0.1-0.1,0l0.1-0.1
		c0,0,0,0,0,0c0-0.1,0.1-0.2,0.1-0.2l0.1-0.1l0,0c0,0,0-0.1,0-0.2c0-0.1,0.1-0.1,0.1-0.2c0,0-0.1,0,0,0c0,0,0.1-0.2,0.1-0.1
		c0,0,0.1-0.1,0.1-0.1l0,0c0,0,0-0.1,0.1-0.2c0,0.1,0.1-0.1,0.1-0.1c0,0,0.1-0.1,0.1-0.2c0.1,0,0.1,0,0.1,0l0,0c0,0,0.2-0.1,0.3-0.1
		l0.1-0.1l0,0c0,0,0.1,0,0,0l0,0c0,0,0.1,0,0.1-0.1c0,0,0,0,0,0c0,0,0,0,0.1,0c0,0,0.1-0.1,0-0.1c0,0,0.1,0,0.1,0l0,0l0,0
		c0.1,0,0.1,0,0.2,0c-0.1,0-0.1,0.1,0,0.1c-0.1,0-0.1,0-0.2,0c0,0,0,0,0,0c0.1,0,0,0,0.1,0c0,0,0,0,0.1,0.1l-0.1,0l0,0c0,0,0,0,0,0
		c0,0,0.1,0,0.2,0c-0.1-0.1,0.2,0,0.1-0.1c0,0,0.1,0,0.1,0c-0.1,0,0.1,0,0.1,0.1c0,0-0.1,0,0,0c0.1,0,0.1,0,0.1,0l0,0l0.1,0
		c0,0-0.1,0,0,0c0,0,0.1,0,0.1,0c0,0,0,0.1-0.1,0.1c0.1,0,0.2,0,0.2,0l0.1,0c0,0-0.2-0.1,0-0.1l0,0l0.1,0l0,0c0,0,0,0,0.1,0
		c0,0,0,0,0,0c0.1,0,0.1,0,0.1,0c0.1,0,0.1,0,0,0c0.1,0,0.2,0,0.3,0.1c0.1,0,0,0,0,0c0.1,0.1,0.3,0.1,0.5,0.1c0-0.1,0,0,0.1,0
		c0,0,0.2,0.1,0,0.1l0.1,0c0.1,0-0.2,0-0.1,0c0.1,0,0.2,0,0.3,0c-0.1,0,0.1,0,0.1,0c0,0-0.1,0-0.1,0l0,0c0.2,0.1,0.1,0,0.2,0
		c0.1,0,0.1,0.1,0.1,0.1c0,0,0.1,0,0.1,0c-0.1,0-0.1-0.1-0.1-0.1c0,0.1,0.2,0.1,0.2,0.1c-0.2-0.1-0.1-0.1-0.3-0.2c0,0,0,0-0.1,0
		c0.1,0,0,0,0,0c0,0-0.1,0-0.1,0c0,0,0.1,0,0-0.1l0,0c0,0,0,0-0.1,0c0.1,0,0,0,0.1,0c-0.1-0.1-0.2,0-0.4-0.1c0,0,0,0,0,0
		c0,0-0.1,0-0.1,0c-0.1,0,0.1,0,0.1,0l-0.1,0l0,0c0,0-0.1,0-0.1,0c0,0,0.1,0,0.1,0l-0.1,0c0,0-0.1-0.1,0,0l-0.2,0l0,0c0,0-0.1,0,0,0
		c-0.1,0-0.3,0-0.3-0.1c-0.2,0-0.2,0-0.4,0c0.2,0-0.2-0.1,0-0.1c-0.1,0-0.1,0-0.2,0c-0.1,0,0-0.1,0-0.1l-0.1,0l0,0l-0.1,0
		c-0.1,0,0,0-0.1,0l0,0l-0.1,0c0,0,0,0-0.1,0l0,0l-0.1,0c0.1,0-0.1,0,0,0c-0.1,0-0.1,0-0.2,0l0,0c-0.1,0,0,0-0.1,0l0,0
		c-0.2,0-0.3,0.1-0.4,0c0.1,0,0,0,0,0c-0.1,0-0.3,0.1-0.4,0.1c-0.1,0-0.1,0-0.2,0c-0.1,0-0.1,0.1-0.1,0.1c-0.1,0-0.2,0.1-0.2,0.1
		c0,0-0.1,0-0.1,0.1l0,0l0,0c-0.2,0.1-0.2,0.2-0.3,0.3l0,0l0,0.1c0,0,0,0,0,0c-0.1,0.1-0.1,0.2-0.2,0.3l0,0c0,0.1,0,0.1-0.1,0.2
		c0-0.1,0,0.1-0.1,0.1l0-0.1c0,0.1,0,0.1,0,0.1c0,0.1-0.1,0-0.1,0.1l0-0.1c0,0,0,0,0,0.1c0,0,0,0,0,0c0,0.1-0.1,0.2-0.1,0.2
		c0,0,0,0,0,0c-0.1,0.2,0,0.1-0.1,0.2l0,0l0,0.1l-0.1,0.1l0,0c0,0,0,0.1-0.1,0.1l0,0c-0.1,0.1-0.1,0.1-0.2,0.3c0,0,0,0,0,0
		c-0.1,0.1-0.1,0-0.2,0.2c0,0,0,0,0,0l0,0.1l0,0l0,0.1l0,0l0,0c-0.1,0-0.1,0.1-0.2,0.1l0,0c-0.2,0.2-0.5,0.2-0.7,0.3l0,0l-0.1,0.1
		c-0.1,0,0,0,0,0c-0.1,0,0,0.1-0.2,0.1c-0.1,0,0,0,0.1,0c-0.1,0-0.3,0.1-0.4,0.1c0,0,0,0,0,0c-0.1,0-0.2,0-0.3,0c0,0,0,0,0,0
		c0,0-0.1,0-0.1,0l0,0c-0.1,0-0.2,0-0.2-0.1c0,0,0,0-0.1,0c0-0.1-0.1-0.1-0.2-0.1c0,0,0.1,0,0.1,0c0,0-0.1-0.1-0.1-0.1l0,0l-0.2-0.2
		c0-0.1-0.3-0.2-0.2-0.2c-0.1-0.1,0.1,0.1-0.1,0c0,0-0.1,0-0.1-0.1l0,0c0,0-0.1,0-0.1,0l0.1,0c-0.1,0-0.2,0-0.2,0
		c-0.1,0-0.2,0-0.2,0l0,0c-0.2,0-0.4,0-0.6,0.1c0,0,0,0,0,0l-0.1,0.1l0,0c-0.1,0-0.1,0.1-0.2,0.1l0,0c-0.1,0.1-0.3,0.2-0.5,0.3l0,0
		c-0.1,0.2-0.2,0.1-0.2,0.2l0,0l-0.1,0.1l0,0c0,0.1-0.2,0.2-0.2,0.2c0,0-0.1,0.1-0.1,0.2c-0.1,0.1,0,0-0.1,0.1
		c-0.1,0.1-0.1,0.1-0.1,0.2l0,0l-0.1,0.2l0,0c-0.1,0.1-0.1,0.1-0.2,0.2c0,0-0.1,0.1-0.1,0.1l-0.2,0.4c-0.1,0,0,0-0.1,0.1l0,0
		c-0.1,0.2-0.3,0.4-0.5,0.6l0,0l0,0.1c-0.2,0.2-0.4,0.5-0.6,0.6c0,0.1-0.1,0.1-0.2,0.2l0,0c-0.1,0.1-0.3,0.2-0.5,0.3c0,0,0,0,0,0
		c0,0-0.1,0-0.1,0l0,0c0,0-0.1,0-0.1,0c0,0,0,0-0.1,0c0,0,0,0,0,0l0,0l0,0c0,0-0.1,0-0.2,0c0,0-0.1,0,0,0c-0.1,0-0.2,0-0.3-0.1l0,0
		c0,0-0.1,0-0.1,0c0.1,0,0,0,0-0.1c0,0,0,0,0,0c-0.1,0-0.2,0-0.2-0.1l0,0c-0.1,0-0.1-0.1-0.2-0.1c-0.1,0-0.1-0.1-0.1,0
		c-0.1,0,0,0,0-0.1c-0.1,0-0.2-0.1-0.2-0.1c-0.1,0-0.2-0.2-0.3-0.2l-0.1-0.1c0,0,0,0-0.1,0c-0.1-0.1,0-0.1,0-0.1l-0.1,0
		c-0.2-0.1-0.4-0.2-0.7-0.3c-0.3-0.1-0.7,0-0.9,0.1c-0.2,0.1-0.4,0.3-0.6,0.4l0,0l-0.2,0.1l0.2-0.1c0,0-0.1,0.1-0.1,0.1
		c-0.2,0.1-0.5,0.4-0.7,0.6c-0.1,0.2-0.1,0.1-0.2,0.2c0,0,0,0,0,0c-0.1,0.2-0.2,0.2-0.3,0.4c0-0.1-0.1,0.1-0.1,0.1l0,0
		c0,0-0.1,0.1-0.1,0.1l0,0.1l0,0c-0.1,0.1-0.2,0.3-0.3,0.3c-0.2,0.2-0.5,0.5-0.8,0.7c0,0-0.1,0.1-0.2,0.1l-0.1,0
		c-0.1,0-0.1,0.1-0.2,0.1c0,0,0,0,0,0c-0.1,0-0.1,0-0.2,0.1c-0.1,0-0.2,0-0.1,0c0,0.1-0.2,0-0.2,0c0,0-0.3,0-0.7,0
		c-0.5,0-1.2,0-1.9,0.1c-0.3,0-0.8,0.1-1.1,0.3c-0.4,0.2-0.7,0.4-0.9,0.8c-0.4,0.6-0.5,1.2-0.4,1.6c0,0,0,0.2,0.1,0.1
		c0,0.1,0,0.1,0,0.2c0-0.1,0.1,0,0.1-0.1l0,0.1c0,0,0-0.1,0-0.1l0,0c0-0.1,0-0.1,0-0.1c0-0.1-0.1-0.1,0-0.2l0,0c0-0.1,0-0.1,0.1-0.1
		l0,0l0-0.1c0,0.1,0,0.2,0,0.1c0-0.1,0,0,0-0.1c0-0.1,0,0,0,0l0-0.1c0,0,0,0.1,0,0l0-0.1c0.1,0,0-0.2,0.1-0.2c0,0.1,0,0,0,0
		c0-0.1,0.1-0.1,0.1-0.2c0,0,0,0.1,0,0c0,0,0-0.1,0-0.1c0,0,0.1-0.2,0.1-0.1c0.1-0.1,0-0.1,0.1-0.2c0,0-0.1,0.1,0,0.1
		c0,0,0.1-0.1,0.1-0.1c0,0,0,0,0,0.1c0.3-0.3,0.5-0.3,0.8-0.5c0.1,0,0,0-0.1,0.1c0.2-0.1,0.4-0.1,0.6-0.1l0,0c0.3,0,0.7-0.1,1.1-0.1
		l0,0c0,0,0.1,0,0.2,0c0,0,0,0,0.1,0c0,0-0.1,0-0.1,0c0.3,0,1,0,1.6,0c0.4,0,0.8-0.1,1.2-0.3c0.4-0.2,0.7-0.5,1-0.7
		c-0.1,0.1-0.1,0,0,0c0.2-0.1,0.3-0.3,0.5-0.4c0.3-0.3,0.6-0.5,0.8-0.9l0,0c0,0,0-0.1,0.1-0.1l0,0c0.1-0.1,0.2-0.2,0.3-0.3l0,0
		c0.1-0.1,0,0,0.1-0.1l0,0l0.1-0.1c0,0,0.2-0.1,0.2-0.2c0.1-0.1,0.2-0.2,0.3-0.3c0,0,0.2-0.1,0.3-0.1c0.1,0,0.2-0.1,0.3-0.1
		c0.1,0,0.2,0,0.4,0.1l0,0l0.1,0c0,0,0,0,0,0c0,0.1,0.2,0.1,0.2,0.1c0,0,0,0-0.1,0c0,0,0,0,0.1,0l0,0l0.1,0c0,0,0,0.1,0,0.1
		c0.2,0.1,0.4,0.2,0.6,0.4c0,0,0.2,0.1,0.1,0.1c0.2,0.1,0,0,0.1,0c0,0,0.1,0,0.1,0.1c0,0,0,0,0,0l0.1,0.1c0,0,0,0,0,0
		c0.2,0.1,0.4,0.2,0.7,0.2c0,0-0.1,0-0.1,0c0.3,0,0.2,0.1,0.5,0l0,0c0.1,0,0.1,0,0.2,0c0,0-0.1,0-0.2,0.1c0.1,0,0.3-0.1,0.2-0.1
		c0.1,0,0.1,0,0.2,0c0,0-0.1,0,0,0c0.1,0,0.3-0.1,0.5-0.2c0,0,0,0,0,0C26.7,22.8,26.7,22.9,26.9,22.8z"/>
	<path fill="#565656" d="M32.3,19.5L32.3,19.5c-0.1,0-0.1,0-0.1,0L32.3,19.5z"/>
	<path fill="#565656" d="M29.9,19L29.9,19C29.9,19,29.9,19,29.9,19z"/>
	<path fill="#565656" d="M29.5,19.4C29.5,19.3,29.5,19.4,29.5,19.4C29.5,19.4,29.5,19.4,29.5,19.4z"/>
	<path fill="#565656" d="M33.9,19C33.9,19,33.9,19,33.9,19C33.9,19,33.9,19,33.9,19z"/>
	<path fill="#565656" d="M36.8,16.2L36.8,16.2C36.8,16.2,36.8,16.2,36.8,16.2z"/>
	<path fill="#565656" d="M36.6,16.2L36.6,16.2C36.5,16.2,36.5,16.2,36.6,16.2z"/>
	<path fill="#565656" d="M32.9,19.4C32.9,19.4,32.8,19.4,32.9,19.4C32.9,19.4,32.9,19.4,32.9,19.4z"/>
	<polygon fill="#565656" points="36.5,16.2 36.4,16.2 36.4,16.2 	"/>
	<path fill="#565656" d="M36.9,16.2L36.9,16.2C36.8,16.2,36.8,16.2,36.9,16.2z"/>
	<path fill="#565656" d="M35,17.7L35,17.7C35,17.8,35,17.8,35,17.7z"/>
	<polygon fill="#565656" points="36.3,16.3 36.3,16.3 36.2,16.3 	"/>
	<path fill="#565656" d="M37.1,16.2C37.1,16.2,37.1,16.2,37.1,16.2L37.1,16.2C37.1,16.2,37.1,16.2,37.1,16.2z"/>
	<path fill="#565656" d="M35.5,17C35.5,17,35.4,17,35.5,17C35.4,17,35.4,17,35.5,17z"/>
</g>
<g>
	<path fill="#565656" d="M38.6,23.9L38.6,23.9C38.6,23.9,38.6,23.9,38.6,23.9z"/>
	<path fill="#565656" d="M36.9,26L36.9,26C36.9,26,36.9,26,36.9,26z"/>
	<polygon fill="#565656" points="40.2,23.5 40.2,23.5 40.3,23.5 	"/>
	<path fill="#565656" d="M32,26.5L32,26.5C32,26.5,32,26.5,32,26.5z"/>
	<path fill="#565656" d="M35.3,27.2C35.3,27.2,35.3,27.2,35.3,27.2C35.3,27.2,35.3,27.2,35.3,27.2z"/>
	<path fill="#565656" d="M41.1,23.7L41.1,23.7C41,23.7,41.1,23.7,41.1,23.7z"/>
	<path fill="#565656" d="M42.7,23.8L42.7,23.8C42.7,23.8,42.7,23.8,42.7,23.8z"/>
	<path fill="#565656" d="M42.1,23.6L42.1,23.6C42,23.6,42.1,23.6,42.1,23.6z"/>
	<path fill="#565656" d="M42,23.6L42,23.6C42,23.6,42,23.6,42,23.6z"/>
	<path fill="#565656" d="M15.9,35.7c0,0.1,0,0.1,0,0.1L15.9,35.7z"/>
	<path fill="#565656" d="M28.2,30.1L28.2,30.1C28.2,30.1,28.2,30.1,28.2,30.1z"/>
	<path fill="#565656" d="M16.1,35.8L16.1,35.8C16.1,35.8,16.1,35.8,16.1,35.8z"/>
	<path fill="#565656" d="M40.2,23.8c0,0-0.1,0-0.1,0C40.2,23.9,40.2,23.9,40.2,23.8z"/>
	<path fill="#565656" d="M27.7,31.4L27.7,31.4L27.7,31.4z"/>
	<polygon fill="#565656" points="16.1,35.8 16.1,35.7 16,35.7 	"/>
	<polygon fill="#565656" points="23.6,30.4 23.6,30.4 23.6,30.4 	"/>
	<path fill="#565656" d="M23.3,30.6L23.3,30.6C23.3,30.6,23.3,30.6,23.3,30.6z"/>
	<path fill="#565656" d="M15.9,35.8L15.9,35.8C15.9,35.9,15.9,35.9,15.9,35.8z"/>
	<path fill="#565656" d="M21.2,32.8L21.2,32.8C21.2,32.8,21.2,32.8,21.2,32.8z"/>
	<path fill="#565656" d="M35.5,27.2L35.5,27.2C35.5,27.2,35.5,27.2,35.5,27.2z"/>
	<polygon fill="#565656" points="33.4,27.3 33.4,27.3 33.4,27.3 	"/>
	<path fill="#565656" d="M33.5,27.3c0,0-0.1,0-0.1,0C33.4,27.3,33.5,27.3,33.5,27.3z"/>
	<path fill="#565656" d="M33.2,27.2L33.2,27.2L33.2,27.2z"/>
	<polygon fill="#565656" points="35.5,27.7 35.5,27.7 35.5,27.7 	"/>
	<path fill="#565656" d="M34.9,27.7C34.9,27.7,34.9,27.7,34.9,27.7C34.9,27.7,34.9,27.7,34.9,27.7z"/>
	<polygon fill="#565656" points="32.1,27.1 32.1,27.1 32.1,27.1 	"/>
	<path fill="#565656" d="M29.4,29.8c0.2-0.4,0.5-0.9,0.7-1.2c0-0.1,0.1-0.2,0.2-0.3l0,0l0.1-0.1c0,0,0,0.1,0,0l0-0.1
		c0,0,0.2-0.2,0.1,0c0.1-0.1,0.2-0.2,0.3-0.3c0.1-0.1,0-0.1,0.1-0.1c0,0,0,0,0,0c0.2-0.1,0.2-0.3,0.4-0.4l0,0c0,0,0.1-0.1,0.1-0.1
		c-0.1,0,0,0-0.1,0c0,0,0.1-0.1,0.1-0.1c0.1,0,0.1,0,0.1-0.1c0.1,0,0.2-0.1,0.3,0c0,0,0.1-0.1,0.2-0.1c0.1,0,0,0,0.1,0l0,0
		c0.1,0,0.1,0,0.1,0c0.1,0,0.1,0,0.2,0l-0.1,0c0.1,0,0.1,0,0.2,0c0,0,0,0-0.1,0c0.1,0,0.1,0,0.1,0c0,0-0.1,0,0,0c0.1,0,0.1,0,0.2,0
		l-0.1,0c0.1,0,0.1,0,0.2,0c0,0,0,0,0,0c0.1,0,0.2,0,0.3,0.1l0,0c0.1,0,0.1,0,0.1,0c-0.1,0,0,0-0.1-0.1c0.1,0.1,0.2,0,0.3,0
		c0,0,0,0-0.1,0c-0.1,0-0.1,0.1-0.2,0.1c0.1,0,0.1,0,0.1,0l0,0l0.1,0c0,0-0.1-0.1,0-0.1c0.1,0,0,0.1,0.1,0c0.1,0,0.1,0,0.2,0
		c0,0,0,0,0,0c0.1,0,0.2,0.1,0.2,0.1c0,0,0,0-0.1,0l0,0c-0.1,0,0.1,0,0,0c0,0,0.1,0,0.2,0l0,0c0.2,0,0,0.1,0.2,0.1c0.1,0,0,0,0,0
		c0.1,0,0.1,0.1,0.2,0.1c0,0,0.1,0.1,0.1,0.1c0.1,0,0.2,0.1,0.3,0c-0.1-0.1-0.1,0-0.3-0.1l0.1,0c0.1,0,0.2,0,0.3,0.1c0,0,0,0,0,0
		c0.2,0,0.2,0,0.4,0c0,0-0.1,0-0.1,0c0.1,0,0.1,0,0.3,0c0,0-0.1,0-0.1,0c0.1,0,0.1,0,0.2,0v0c0,0,0.1,0,0.3,0
		c0.3-0.1,0.3-0.1,0.4-0.2c0,0,0.1,0,0,0c-0.1,0,0,0-0.1,0c0.1,0,0.2-0.1,0.2,0c0.1-0.1-0.1,0,0,0c0.1,0,0.1-0.1,0.2-0.1
		c0,0-0.1,0,0,0c0.1-0.1,0.1-0.1,0.2-0.1c0,0,0,0,0,0.1c0,0,0.1-0.1,0.1-0.1c-0.1,0.1,0.1-0.1,0-0.1l0.1-0.1c0,0,0,0,0,0.1
		c0,0,0.1-0.1,0.1-0.1c0,0,0.1-0.1,0.1-0.1c0,0,0.1-0.1,0.1-0.1c0,0,0,0,0,0l0.1-0.1c0,0,0.1,0,0.1,0c0-0.1,0,0,0-0.1
		c0,0.1,0.1-0.1,0.1,0c0.1,0,0.1-0.2,0.2-0.3c0-0.1-0.1,0.1-0.1,0.1c0.1-0.2,0.1-0.3,0.2-0.4l0,0c0-0.1,0-0.1,0-0.2
		c0,0,0.1-0.1,0.2-0.2c0,0-0.1,0.1-0.1,0l0.1-0.1c0,0,0,0,0,0c0-0.1,0.1-0.1,0.1-0.2l0.1-0.1l0,0c0,0,0.1-0.1,0.1-0.1
		c0.1-0.1,0.1-0.1,0.2-0.2c0,0-0.1,0,0-0.1c0,0,0.1-0.1,0.2-0.1c0,0,0.1-0.1,0.1-0.1l0,0c0,0,0.1-0.1,0.2-0.2c0,0.1,0.1-0.1,0.2,0
		c0,0,0.1-0.1,0.1-0.2c0.1,0,0.1,0,0.1,0l0,0c0,0,0.2-0.1,0.3-0.1l0.1-0.1l0,0c0,0,0.1,0,0,0l0,0c0,0,0.1,0,0.1-0.1c0,0,0,0,0,0
		c0,0,0,0,0.1,0c0,0,0.1-0.1,0-0.1c0,0,0.1,0,0.1,0l0,0l0-0.1c0.1,0,0.1,0,0.2,0c-0.1,0-0.1,0.1,0,0.1c-0.1,0-0.1,0-0.2,0.1
		c0,0,0,0,0,0c0.1,0,0,0,0.2-0.1c0,0,0,0,0.1,0l-0.1,0l0,0c0,0,0,0,0,0c0,0,0.1-0.1,0.2,0c-0.1,0,0.2-0.1,0.1-0.1c0,0,0.1,0,0.1,0
		c-0.1,0,0.1,0,0.1,0.1c0,0-0.1,0,0,0c0.1,0,0.1,0,0.1,0l0,0l0.1,0c0,0-0.1,0,0,0c0,0,0.1,0,0.1,0c0,0,0,0.1-0.1,0.1
		c0.1,0,0.3,0,0.2,0h0.1c0,0-0.2,0,0,0l0,0l0.1,0l0,0c0,0,0,0,0.1,0c0,0,0,0,0,0c0.1,0,0.1,0,0.1,0c0.1,0,0.1,0,0.1,0
		c0.1,0,0.2,0,0.3,0c0.1,0,0,0,0,0c0.1,0.1,0.4,0,0.5,0.1c0-0.1,0.1,0,0.1,0c0,0,0.2,0.1,0,0.1l0.1,0c0.1,0-0.2,0-0.1,0.1
		c0.1,0,0.2,0,0.3,0c0,0,0.1,0,0.1,0c0,0-0.1,0-0.1,0l0,0c0.2,0,0.1,0,0.2,0c0.1,0,0.1,0,0.1,0.1c0,0,0.1,0,0.1,0
		c-0.1,0-0.2,0-0.1-0.1c0.1,0.1,0.2,0,0.3,0c-0.2-0.1-0.1,0-0.3-0.1c0,0,0,0.1-0.1,0c0.1,0,0,0,0,0c0,0-0.1,0-0.1,0c0,0,0.1,0,0-0.1
		l0,0.1c0,0,0,0-0.1,0c0.1,0,0,0,0.1,0c-0.2-0.1-0.2,0-0.4,0c0,0,0,0,0,0c0,0-0.1,0-0.1,0c-0.1,0,0.1,0,0,0l-0.1,0l0,0
		c0,0-0.1,0-0.1,0c0,0,0.1,0,0.1,0l-0.1,0c0,0-0.1,0,0,0l-0.2,0l0,0c-0.1,0-0.1,0,0,0c-0.1,0-0.3,0.1-0.3,0c-0.2,0-0.2,0-0.4,0
		c0.2,0-0.2,0,0-0.1c-0.1,0-0.1,0-0.2,0c-0.1,0,0,0,0-0.1l-0.1,0l0,0l-0.1,0c-0.1,0,0,0-0.1,0l0,0l-0.1,0c0,0,0,0-0.1,0l0,0l-0.1,0
		c0.1,0-0.1,0,0,0c-0.1,0-0.1,0-0.2,0l0,0c-0.1,0,0,0-0.1,0l0,0c-0.2,0-0.3,0.1-0.4,0.1c0.1,0,0,0,0,0c-0.1,0-0.3,0.1-0.4,0.1
		c-0.1,0-0.1,0-0.2,0c-0.1,0-0.1,0-0.1,0.1c-0.1,0-0.2,0.1-0.2,0.1c0,0-0.1,0-0.1,0.1l0,0l0,0c-0.2,0-0.2,0.2-0.3,0.2l0,0l0,0.1
		c0,0,0,0,0,0c-0.1,0.1-0.2,0.1-0.2,0.2l0.1,0c0,0.1,0,0.1-0.1,0.1c0.1-0.1-0.1,0.1-0.1,0.1l0-0.1c-0.1,0.1-0.1,0.1,0,0.1
		c-0.1,0.1-0.1,0-0.1,0.1l0-0.1c0,0,0,0,0,0.1c0,0,0,0,0,0c0,0.1-0.1,0.2-0.1,0.2c0,0,0,0,0,0c-0.1,0.2,0,0.1-0.1,0.2l0,0l0,0.1
		l-0.1,0.1l0,0c0,0.1,0,0.1-0.1,0.2l0,0c-0.1,0.2-0.1,0.2-0.2,0.3c0,0,0,0,0,0c0,0.1-0.1,0.1-0.1,0.2c0,0,0,0,0,0l0,0.1l0,0l0,0.1
		l0,0l0,0c-0.1,0-0.1,0.1-0.2,0.2l0,0c-0.1,0.2-0.4,0.4-0.6,0.6l0,0c0,0,0,0.1-0.1,0.1c-0.1,0,0,0,0,0c-0.1,0.1,0,0.1-0.1,0.1
		c-0.1,0,0,0,0-0.1c-0.1,0.1-0.3,0.1-0.4,0.1c0,0,0,0,0,0c-0.1,0-0.2,0-0.3,0c0,0,0,0,0.1,0c0,0-0.1,0-0.1,0l0,0c-0.1,0-0.2,0-0.2,0
		c0,0,0,0-0.1,0c0,0-0.2,0-0.3-0.1c0,0,0.1,0,0.1,0c-0.1,0-0.1,0-0.2,0l0,0l-0.3,0c0-0.1-0.2-0.1-0.2-0.1c-0.1,0,0.1,0,0,0
		c0,0-0.1,0-0.1,0l0,0l-0.1,0l0.1,0c-0.1,0-0.1,0-0.1,0c-0.1,0-0.2,0-0.2-0.1h0c-0.2,0-0.3-0.2-0.5-0.1c0,0,0,0,0,0l-0.1,0l0,0h-0.2
		l0,0c-0.1,0-0.4,0-0.5,0l0,0c-0.2,0-0.2,0-0.3,0c0,0,0,0,0,0l-0.1,0l0,0c-0.1,0-0.3,0-0.2,0c-0.1,0-0.2,0.1-0.2,0.1
		c-0.2,0,0,0-0.1,0c-0.1,0-0.1,0.1-0.3,0.1l0,0c-0.1,0-0.1,0.1-0.2,0.1l0,0c-0.1,0.1-0.2,0.1-0.3,0.2c-0.1,0-0.2,0.1-0.2,0.1
		c-0.1,0.1-0.2,0.2-0.4,0.4c-0.1,0,0,0-0.1,0.1l0,0c-0.2,0.2-0.4,0.4-0.6,0.6l0,0l0,0.1c-0.2,0.2-0.4,0.6-0.5,0.7
		c0,0.1-0.1,0.2-0.1,0.3l0,0c-0.1,0.2-0.2,0.4-0.4,0.5c0,0,0,0,0,0c0,0.1-0.1,0.1-0.1,0.1l0,0c0,0.1-0.1,0.1-0.1,0.1l0,0.1
		c0,0,0,0,0,0l0,0l-0.1,0c0,0-0.1,0.1-0.1,0.2c0,0-0.1,0.1,0,0c-0.1,0.1-0.2,0.2-0.2,0.2l0,0c0,0,0,0.1-0.1,0.1c0-0.1,0,0,0,0
		c0,0,0,0,0,0c0,0-0.1,0.1-0.2,0.1l0,0c-0.1,0-0.1,0-0.2,0c0,0-0.1,0-0.1,0.1c-0.1,0,0,0-0.1,0c0,0-0.1,0-0.1,0c0,0.1-0.2-0.1-0.2,0
		l0-0.1c0,0,0,0-0.1,0c0,0,0-0.1,0-0.1l-0.1,0c-0.2-0.2-0.7-0.7-1.3-0.9c-0.3,0-0.6,0-0.9,0.1l0,0c-0.1,0-0.2,0.1-0.3,0.1
		c0.1,0,0.1,0,0.2-0.1l-0.1,0.1c-0.3,0.1-0.6,0.3-0.9,0.5c-0.1,0.2-0.1,0-0.3,0.2c0,0,0,0,0,0c-0.1,0.2-0.2,0.3-0.3,0.4
		c0-0.1-0.1,0.1-0.1,0.1l0,0c0,0-0.1,0.1-0.1,0.1l0,0.1l0,0c-0.1,0.1-0.2,0.3-0.3,0.3c-0.2,0.3-0.5,0.6-0.7,0.8c0,0-0.1,0.1-0.2,0.2
		c0,0-0.1,0-0.1,0c-0.1,0.1-0.1,0.1-0.2,0.2c0,0,0,0,0,0c-0.1,0-0.1,0.1-0.2,0.1c-0.1,0-0.1,0.1-0.1,0c0,0.1-0.2,0.1-0.2,0.1
		c0,0-0.2,0.1-0.7,0.1c-0.4,0-1.1-0.1-1.9-0.1c-0.4,0-0.7,0.1-1.2,0.2c-0.4,0.2-0.7,0.5-0.9,0.8c-0.4,0.7-0.3,1.3-0.2,1.6
		c0,0,0.1,0.2,0.1,0.1c0,0.1,0,0.1,0,0.2c0-0.1,0.1,0,0.1-0.1l0,0.1c0,0,0-0.1,0-0.1l0,0c0-0.1,0-0.1,0-0.1c0-0.1-0.1-0.1-0.1-0.2
		l0,0c0-0.1,0-0.1,0-0.1l0,0l0-0.1c0,0.1,0,0.2,0,0.1c0-0.1,0,0,0-0.1c0-0.1,0,0,0,0l0-0.1c0,0,0,0.1,0,0l0-0.1c0.1,0,0-0.2,0.1-0.2
		c0,0.1,0,0,0,0c0-0.1,0-0.2,0.1-0.2c0,0,0,0.1,0,0c0,0,0-0.1,0-0.1c0,0,0.1-0.2,0.1-0.1c0.1-0.1,0-0.1,0.1-0.2c0,0-0.1,0.1,0,0.1
		c0,0,0-0.1,0.1-0.1c0,0,0,0,0,0.1c0.3-0.3,0.5-0.4,0.8-0.5c0.1,0,0,0-0.1,0.1c0.2-0.1,0.4,0,0.6-0.1v0c0.3,0,0.7-0.1,1.1,0l0,0
		c0.1,0,0.1,0,0.2,0c0,0,0,0,0.1,0c0,0-0.1,0-0.1,0c0.3,0.1,1,0.2,1.7,0.1c0.4-0.1,0.8-0.3,1.1-0.6c0.3-0.3,0.6-0.6,0.8-0.8
		c-0.1,0.1-0.1,0,0,0c0.2-0.1,0.2-0.3,0.4-0.4c0.3-0.3,0.6-0.5,0.8-0.8l0,0c0,0,0,0,0.1-0.1l0,0c0.1-0.1,0.2-0.2,0.3-0.2l0,0
		c0.1,0,0,0,0.1-0.1l0,0l0.1-0.1c0,0,0.2-0.1,0.3-0.1c0.1,0,0.2-0.1,0.4-0.1c0,0,0.2,0,0.2,0.1c0.2,0,0.4,0.2,0.7,0.4l0,0l0.1,0.1
		c0,0,0,0,0,0c0,0.1,0.2,0.1,0.2,0.2c0-0.1,0,0-0.1-0.1c0-0.1,0,0,0.1,0l0,0l0.1,0c0,0,0,0.1,0,0.1c0.3,0.2,0.6,0.3,1,0.2
		c0,0,0.3-0.1,0.2,0c0.2-0.1,0,0,0-0.1c0.1,0,0.1-0.1,0.1,0c0,0,0.1,0,0,0c0,0,0.1,0,0.1-0.1c0,0,0,0,0,0c0.2-0.2,0.4-0.3,0.6-0.4
		c0,0-0.1,0.1-0.1,0c0.1-0.2,0.2-0.1,0.3-0.3l0,0.1c0-0.1,0-0.1,0.1-0.2c0,0,0,0.1-0.1,0.1c0.1-0.1,0.2-0.2,0.1-0.2
		c0.1-0.1,0.1-0.1,0.1-0.1c0,0-0.1,0.1,0,0c0.1-0.1,0.2-0.2,0.3-0.4c0,0,0,0,0,0C29.2,29.9,29.3,29.9,29.4,29.8z"/>
	<path fill="#565656" d="M35.5,27.7L35.5,27.7c-0.1,0-0.1,0-0.1,0L35.5,27.7z"/>
	<path fill="#565656" d="M32.7,27.2L32.7,27.2C32.7,27.2,32.7,27.2,32.7,27.2z"/>
	<path fill="#565656" d="M32.1,27.2C32.2,27.2,32.1,27.2,32.1,27.2C32.1,27.2,32.1,27.2,32.1,27.2z"/>
	<path fill="#565656" d="M36.9,26.7C36.9,26.7,36.9,26.7,36.9,26.7C36.9,26.7,36.9,26.7,36.9,26.7z"/>
	<path fill="#565656" d="M39.8,23.9L39.8,23.9C39.8,23.9,39.8,23.9,39.8,23.9z"/>
	<path fill="#565656" d="M39.6,23.9L39.6,23.9C39.5,23.9,39.5,23.9,39.6,23.9z"/>
	<path fill="#565656" d="M36.1,27.5C36.1,27.5,36,27.5,36.1,27.5C36.1,27.5,36.1,27.5,36.1,27.5z"/>
	<polygon fill="#565656" points="39.5,23.9 39.4,24 39.4,24 	"/>
	<path fill="#565656" d="M39.9,23.9L39.9,23.9C39.8,23.9,39.8,23.9,39.9,23.9z"/>
	<path fill="#565656" d="M37.7,25.3L37.7,25.3C37.7,25.4,37.7,25.3,37.7,25.3z"/>
	<polygon fill="#565656" points="39.2,24.1 39.2,24.1 39.2,24.1 	"/>
	<path fill="#565656" d="M40.1,23.9C40.1,23.9,40.1,23.9,40.1,23.9L40.1,23.9C40.1,23.9,40.1,23.9,40.1,23.9z"/>
	<path fill="#565656" d="M38.3,24.6C38.3,24.6,38.3,24.6,38.3,24.6C38.3,24.6,38.3,24.6,38.3,24.6z"/>
</g>
<g>
	<path fill="#565656" d="M44.4,31.8L44.4,31.8C44.4,31.8,44.4,31.8,44.4,31.8z"/>
	<path fill="#565656" d="M41.9,31.4L41.9,31.4C41.9,31.4,41.9,31.4,41.9,31.4z"/>
	<polygon fill="#565656" points="45.8,31.3 45.8,31.3 45.9,31.2 	"/>
	<path fill="#565656" d="M37.6,34.6L37.6,34.6C37.6,34.6,37.6,34.6,37.6,34.6z"/>
	<path fill="#565656" d="M39.6,32.1C39.5,32.1,39.5,32.1,39.6,32.1C39.5,32.1,39.6,32.1,39.6,32.1z"/>
	<path fill="#565656" d="M46.6,30.8L46.6,30.8C46.5,30.9,46.6,30.9,46.6,30.8z"/>
	<path fill="#565656" d="M47,29.3L47,29.3C47,29.3,47,29.3,47,29.3z"/>
	<path fill="#565656" d="M46.8,29.9L46.8,29.9C46.8,29.9,46.8,29.9,46.8,29.9z"/>
	<path fill="#565656" d="M46.8,29.9L46.8,29.9C46.8,29.9,46.8,29.9,46.8,29.9z"/>
	<path fill="#565656" d="M20.7,41.8c0,0,0,0.1,0,0.1L20.7,41.8z"/>
	<path fill="#565656" d="M33,34.8L33,34.8C33,34.8,33,34.8,33,34.8z"/>
	<path fill="#565656" d="M20.8,42L20.8,42C20.8,42,20.8,42,20.8,42z"/>
	<path fill="#565656" d="M46,31.5c0,0-0.1,0.1-0.1,0.1C45.9,31.6,46,31.6,46,31.5z"/>
	<path fill="#565656" d="M32.2,35.8L32.2,35.8L32.2,35.8z"/>
	<polygon fill="#565656" points="20.8,42 20.8,41.9 20.8,41.9 	"/>
	<polygon fill="#565656" points="29.1,38.3 29.1,38.3 29.1,38.2 	"/>
	<path fill="#565656" d="M28.9,38.4L28.9,38.4C28.9,38.3,28.9,38.4,28.9,38.4z"/>
	<path fill="#565656" d="M20.7,42L20.7,42C20.7,42,20.7,42,20.7,42z"/>
	<path fill="#565656" d="M26.3,39.1L26.3,39.1C26.3,39.1,26.3,39.1,26.3,39.1z"/>
	<path fill="#565656" d="M39.7,32L39.7,32C39.8,31.9,39.8,31.9,39.7,32z"/>
	<polygon fill="#565656" points="38.9,34 38.9,34 38.9,34 	"/>
	<path fill="#565656" d="M39,33.9c0,0,0,0.1,0,0.1C39,34,39,33.9,39,33.9z"/>
	<path fill="#565656" d="M38.8,34.2L38.8,34.2L38.8,34.2z"/>
	<polygon fill="#565656" points="40,32.4 40,32.4 40,32.4 	"/>
	<path fill="#565656" d="M39.7,32.7C39.7,32.7,39.7,32.7,39.7,32.7C39.7,32.7,39.7,32.7,39.7,32.7z"/>
	<polygon fill="#565656" points="38,35.1 38,35.1 38,35.1 	"/>
	<path fill="#565656" d="M33.7,35.8c0.2,0.1,0.4,0.3,0.7,0.4c0.3,0.1,0.6,0.1,0.8,0.1c0.1,0,0.2-0.1,0.4-0.1l0,0l0.1,0
		c0.1,0-0.1,0,0,0l0,0c0,0,0.3-0.1,0.1,0c0.2,0,0.3-0.1,0.4-0.1c0.1,0,0-0.1,0.1-0.1c0,0,0,0,0,0c0.3-0.1,0.3-0.2,0.6-0.3l0,0
		c0,0,0.1-0.1,0.1-0.1c-0.1,0,0,0-0.1,0.1c0,0,0.1-0.1,0.1-0.1c0.1,0,0.1-0.1,0.2-0.1c0.1,0,0.2-0.1,0.3-0.1c0,0,0.1-0.1,0.2-0.2
		c0.1,0,0,0,0.1,0v0c0.1-0.1,0.1,0,0.1,0c0.1-0.1,0-0.1,0.2-0.1l0,0.1c0.1-0.1,0.1-0.1,0.2-0.2c0,0,0,0-0.1,0.1
		c0.1,0,0.1-0.1,0.1-0.1c0,0-0.1,0.1-0.1,0c0.1,0,0.1-0.1,0.1-0.1l0,0.1c0.1-0.1,0-0.1,0.1-0.2c0,0,0,0,0,0c0-0.1,0.1-0.2,0.2-0.3
		l0,0c0-0.1,0-0.1,0-0.1c-0.1,0.1-0.1,0-0.1,0c0.1-0.1,0.1-0.2,0.2-0.3c0,0,0,0.1,0,0.1c0,0.1,0,0.1,0,0.2c0-0.1,0.1-0.1,0.1-0.1
		l0,0l0.1-0.1c0,0-0.1,0,0,0c0-0.1,0.1,0,0.1,0c0.1-0.1,0-0.1,0.1-0.2c0,0,0,0,0,0c0.1-0.1,0.1-0.2,0.2-0.2c0,0,0,0,0,0.1l0,0
		c0,0.1,0-0.1,0.1,0c0,0,0-0.1,0.1-0.2l0,0c0-0.2,0,0,0.1-0.1c0-0.1,0,0,0,0c0-0.1,0.1-0.1,0.1-0.2c0,0,0.1-0.1,0.1-0.1
		c0-0.1,0.1-0.2,0.1-0.2c-0.1,0.1,0,0.1-0.1,0.2l0,0c0.1-0.1,0.1-0.2,0.2-0.2c0,0,0,0,0,0c0.1-0.1,0.1-0.2,0.2-0.2
		c0,0,0,0.1-0.1,0.1c0.1,0,0.1-0.1,0.2-0.1c0,0-0.1,0.1-0.1,0.1c0,0,0.1-0.1,0.1-0.1l0,0c0,0,0.1-0.1,0.1-0.1
		c0.2-0.1,0.2-0.2,0.3-0.2c0,0,0,0,0,0c-0.1,0,0,0-0.1,0c0.1,0,0.2,0,0.1,0c0.1-0.1,0,0,0,0l0.1-0.1c0,0-0.1,0,0,0
		c0.1,0,0.1,0,0.2-0.1c0,0,0,0,0,0c0,0,0.1,0,0.1,0c-0.1,0,0.2-0.1,0.1-0.1l0.1,0c0,0,0,0-0.1,0c0,0,0.1,0,0.1,0c0,0,0.1,0,0.1,0
		c0,0,0.1,0,0.1,0c0,0,0,0,0,0l0.2,0c0,0,0,0.1,0,0.1c0.1,0,0-0.1,0.1,0c-0.1,0,0.1,0,0,0.1c0,0,0.2,0,0.3,0.1c0.1,0-0.1,0-0.1-0.1
		c0.2,0,0.3,0,0.4,0l0,0c0.1,0,0.1,0,0.2,0c0,0,0.1,0.1,0.3,0.2c0,0-0.1-0.1-0.1-0.1l0.1,0c0,0,0,0,0,0c0.1,0,0.2,0.1,0.2,0.1
		l0.1,0.1l0,0c0,0,0.1,0,0.2,0c0.1,0,0.2,0,0.2,0.1c0,0-0.1-0.1,0-0.1c0,0.1,0.2,0,0.2,0.1c0,0,0.1,0,0.1,0l0,0c0,0,0.2,0,0.3-0.1
		c0,0.1,0.1,0,0.2,0c0,0,0.2,0,0.2-0.1c0.1,0,0.1,0,0.1,0l0,0c0,0,0.2,0,0.3,0l0.1-0.1l0,0c0,0,0.1,0,0,0l0,0c0,0,0.1,0,0.1-0.1
		c0,0,0,0,0,0c0,0,0,0,0.1,0c0,0,0.1-0.1,0-0.1c0,0,0-0.1,0.1-0.1l0,0l0-0.1c0.1,0,0.1,0,0.2-0.1c-0.1,0-0.1,0.1,0.1,0.1
		c-0.1,0.1-0.1,0.1-0.1,0.1c0,0,0,0,0,0c0.1-0.1,0,0,0.1-0.1c0,0,0.1,0,0.2,0l-0.1,0c0,0,0,0,0,0c0,0,0,0-0.1,0c0,0,0.1-0.1,0.1-0.1
		c-0.1,0,0.2-0.2,0.1-0.1c0,0,0.1-0.1,0.1-0.1c-0.1,0.1,0.1,0,0.1,0c0,0-0.1,0,0,0c0,0,0.1-0.1,0.1-0.1l0,0l0.1-0.1c0,0-0.1,0,0,0
		c0,0,0.1-0.1,0.1-0.1c0,0,0,0,0,0.1c0,0,0.2-0.2,0.1-0.2l0-0.1c0,0-0.1,0.1-0.1,0l0,0l0-0.1l0,0c0,0,0,0,0-0.1c0,0,0,0,0,0
		c0.1-0.1,0-0.1,0-0.1c0-0.1,0-0.1,0.1,0c0-0.1,0.1-0.2,0.1-0.3c0-0.1,0,0,0-0.1c0.1-0.1,0.1-0.4,0.2-0.5c-0.1,0,0-0.1,0-0.1
		c0,0,0.1-0.2,0.1,0l0-0.1c0-0.1,0,0.2,0.1,0.1c0-0.1,0-0.2,0-0.3c0,0,0-0.1,0-0.1c0,0,0,0.1,0,0.1l0,0c0-0.2,0-0.1,0-0.2
		c0-0.1,0-0.1,0.1-0.1c0,0,0-0.1,0-0.1c0,0-0.1,0.1-0.1,0.1c0.1,0,0-0.1,0.1-0.2C47,29,47.1,28.9,47,29.1c0,0,0,0,0,0.1
		c0-0.1,0,0,0,0c0,0,0,0.1,0,0.1c0,0,0-0.1-0.1,0l0.1,0c0,0,0,0,0,0.1c0-0.1,0,0,0-0.1c-0.1,0.2,0,0.2,0,0.4c0,0,0,0,0,0
		c0,0,0,0.1,0,0.1c0,0.1,0-0.1,0-0.1l0,0.1l0,0c0,0,0,0.1,0,0.1c0,0,0-0.1,0-0.1l0,0.1c0,0-0.1,0.1,0,0l-0.1,0.2l0,0c0,0,0,0.1,0,0
		c0,0.1-0.1,0.3-0.1,0.2c0,0.2-0.1,0.2-0.2,0.4c0.1-0.1-0.1,0.1-0.1,0c-0.1,0.1,0,0.1-0.1,0.2c-0.1,0-0.1,0,0-0.1l0,0.1l0,0l0,0.1
		c-0.1,0,0,0-0.1,0l0,0l-0.1,0c0,0,0,0,0,0.1l0,0l-0.1,0c0-0.1-0.1,0,0,0l-0.1,0.1l0,0c-0.1,0.1,0,0-0.1,0l0,0
		c-0.2,0.1-0.2,0.2-0.4,0.2c0.1,0,0-0.1,0,0c-0.1,0.1-0.3,0.1-0.3,0.2c-0.1,0-0.1,0-0.2,0c-0.1,0-0.1,0-0.1,0.1
		c-0.1,0-0.2,0.1-0.2,0c0,0-0.1,0-0.1,0l0,0l0,0c-0.1,0-0.2,0.1-0.4,0l0,0l-0.1,0c0,0,0,0,0,0c-0.1,0-0.2,0-0.3,0l0.1,0
		c-0.1,0-0.1,0-0.2,0c0.1,0-0.1,0-0.1,0l0.1,0c-0.1,0-0.1,0-0.1,0c-0.1,0-0.1-0.1-0.2,0l0.1,0c0,0,0,0-0.1,0c0,0,0,0,0,0
		c-0.1,0-0.2,0-0.2,0c0,0,0,0,0,0c-0.2,0-0.1,0-0.3,0l0,0l-0.1,0l-0.1-0.1l0,0c-0.1,0-0.1,0-0.2,0l0,0c-0.2,0-0.2-0.1-0.4-0.1
		c0,0,0,0,0,0c-0.2,0-0.1-0.1-0.3,0c0,0,0,0,0,0l-0.1,0l0,0l-0.1,0l0,0l0,0c-0.1-0.1-0.2,0-0.3-0.1l0,0c-0.3,0.1-0.6,0-0.9,0.2l0,0
		l-0.1,0.1c-0.1,0,0,0,0,0c-0.1,0.1,0,0.1-0.2,0.1c-0.1,0,0,0,0.1-0.1L39.8,32c0,0,0,0,0,0c-0.1,0.1-0.2,0.2-0.3,0.2c0,0,0,0,0-0.1
		c0,0-0.1,0.1-0.1,0.1l0-0.1c-0.1,0.1-0.2,0.2-0.2,0.2c0,0,0,0,0,0.1c-0.1,0-0.1,0.2-0.2,0.3c0,0,0-0.1,0-0.1c0,0-0.1,0.1-0.1,0.2
		l0,0l-0.1,0.3c-0.1,0-0.1,0.2-0.1,0.2c0,0.1,0.1-0.1,0,0c0,0,0,0.1-0.1,0.1l0,0l0,0.1v-0.1c0,0.1,0,0.1,0,0.1c0,0-0.1,0.1-0.1,0.1
		l0,0c-0.1,0.2-0.2,0.2-0.3,0.3c0,0,0,0,0,0l-0.1,0.1v0l-0.1,0.2l0,0c-0.1,0.1-0.2,0.2-0.3,0.3l0,0c-0.1,0.1-0.1,0.1-0.2,0.2l0,0
		l-0.1,0.1l0,0c-0.1,0.1-0.2,0.1-0.2,0.1c0,0-0.1,0.1-0.1,0.1c-0.1,0.1,0,0-0.1,0C37,34.9,37,35,36.9,35l0,0l-0.1,0.1l0,0
		c-0.1,0.1-0.2,0-0.2,0.1c-0.1,0-0.1,0.1-0.2,0c-0.1,0.1-0.3,0.1-0.4,0.2c0,0,0,0-0.1,0l0,0c-0.2,0.1-0.5,0.1-0.7,0.1l0,0l0,0
		c-0.2,0-0.5-0.1-0.6-0.2c-0.1,0-0.2-0.1-0.3-0.1l0,0c-0.2-0.1-0.4-0.3-0.7-0.3c0,0,0,0,0,0c-0.1,0-0.2,0-0.2,0l0.1,0
		c-0.1,0-0.2,0-0.2,0c0,0-0.1,0-0.1,0c0,0,0,0,0,0l0,0l-0.1,0c0,0-0.2,0-0.2,0.1c0,0-0.1,0,0,0c-0.1,0-0.3,0.1-0.4,0.1l0.1,0
		c0,0-0.1,0.1-0.2,0.1c0.1,0,0,0,0,0c0,0,0.1,0,0,0c-0.1,0-0.2,0.1-0.2,0.1l0,0c-0.1,0-0.1,0-0.2,0.1c-0.1,0.1-0.1,0.1-0.1,0.1
		c-0.1,0.1-0.1,0-0.1,0c0,0-0.2,0.1-0.2,0.1c0,0.1-0.3,0.2-0.3,0.2l-0.1,0c0,0,0,0.1,0,0.1c-0.1,0-0.1,0-0.1,0l0,0.1
		c-0.4,0.3-0.6,0.8-0.8,1.2c-0.1,0.2-0.2,0.4-0.3,0.5l0,0l-0.1,0.1l0.1-0.1c0,0,0,0.1-0.1,0.1c-0.2,0.2-0.4,0.3-0.6,0.5
		c-0.1,0.2-0.1,0-0.3,0.1c0,0,0,0,0,0l-0.4,0.3c0-0.1-0.1,0.1-0.1,0l0,0c0,0-0.1,0-0.1,0l-0.1,0.1l0,0c-0.1,0-0.3,0.1-0.4,0.1
		c-0.2,0.1-0.7,0.2-1,0.2c0,0-0.1,0-0.2,0l-0.1,0c-0.1,0-0.1,0-0.2,0l0,0c-0.1,0-0.1,0-0.2,0C26,39,26,38.9,26,38.9
		c0,0-0.2-0.1-0.2-0.1c0,0-0.2-0.2-0.9-0.3c-0.6-0.1-1.4,0.1-2,0.5c-1.3,0.9-2.1,2.2-2.3,2.8c0,0,0,0.2,0,0.1c0,0.1-0.1,0.1-0.1,0.1
		c0.1-0.1,0,0.1,0.1,0l0,0.1c0,0,0-0.1,0.1-0.1l0,0c0,0,0.1-0.1,0.1-0.1c0-0.1,0-0.1,0.1-0.2l0,0c0.1-0.1,0.1,0,0.1-0.1l0,0l0.1-0.1
		c-0.1,0-0.1,0.2-0.1,0.1c0.1-0.1,0,0,0-0.1c0-0.1,0,0,0.1,0l0.1-0.1c0,0,0,0.1,0,0l0.1-0.1c0.1,0,0.1-0.1,0.1-0.2c0,0.1,0,0,0,0
		l0.1-0.2c0,0,0,0.1,0,0c0,0,0-0.1,0-0.1c0,0,0.1-0.1,0.1-0.1c0.1-0.1,0-0.1,0.1-0.2c0,0-0.1,0.1,0,0.1l0.1-0.1c0,0,0,0,0,0.1
		c0.3-0.3,0.5-0.4,0.8-0.7c0.1,0,0,0,0,0.1c0.2-0.2,0.3-0.2,0.5-0.4l0,0c0.3-0.1,0.6-0.4,0.9-0.5l0,0c0,0,0.1-0.1,0.2-0.1
		c0,0,0,0.1,0.1,0c0,0-0.1,0-0.1,0c0.3,0,0.9-0.2,1.2,0.1c0.3,0.1,0.7,0.4,1.1,0.4c0.4,0.1,0.9,0,1.2-0.1c-0.1,0-0.1,0,0,0
		c0.3,0,0.4-0.1,0.6-0.2c0.4-0.2,0.8-0.3,1.1-0.6l0,0c0.1,0,0.1,0,0.1-0.1l0,0c0.1-0.1,0.3-0.2,0.3-0.3l0,0c0.1-0.1,0.1,0,0.1-0.1
		l0,0l0.1-0.1c0,0,0.2-0.2,0.2-0.2l0.3-0.4c0,0,0.2-0.2,0.2-0.3c0.1-0.2,0.3-0.6,0.4-0.8l0,0l0-0.1c0,0,0,0,0,0
		c0.1,0,0.1-0.1,0.1-0.2c0,0,0,0-0.1,0.1c0,0,0,0,0-0.1l0,0l0-0.1c0,0,0.1,0,0.1,0c0.2-0.2,0.3-0.3,0.5-0.4c0,0,0.2-0.1,0.1,0
		c0.1-0.1,0,0,0-0.1c0,0,0.1-0.1,0.1,0c0,0,0,0,0,0l0.1,0c0,0,0,0,0,0c0.2-0.1,0.4-0.1,0.5-0.2c0,0-0.1,0-0.1,0
		c0.2-0.1,0.2,0,0.3-0.1l0,0c0,0,0.1,0,0.1,0c0,0-0.1,0-0.1,0c0.1,0,0.2,0,0.1,0c0.1,0,0.1,0,0.1,0c0,0-0.1,0,0,0
		c0.1,0,0.2,0.1,0.3,0.1c0,0,0,0,0,0C33.7,35.7,33.6,35.7,33.7,35.8z"/>
	<path fill="#565656" d="M40,32.4L40,32.4C40,32.4,40,32.4,40,32.4L40,32.4z"/>
	<path fill="#565656" d="M38.5,34.6L38.5,34.6C38.5,34.6,38.5,34.6,38.5,34.6z"/>
	<path fill="#565656" d="M38,35.1C38.1,35.1,38,35.1,38,35.1C38,35.1,38,35.1,38,35.1z"/>
	<path fill="#565656" d="M41.3,31.9C41.3,31.9,41.3,31.9,41.3,31.9C41.3,31.9,41.3,31.9,41.3,31.9z"/>
	<path fill="#565656" d="M45.6,31.8L45.6,31.8C45.5,31.8,45.6,31.8,45.6,31.8z"/>
	<path fill="#565656" d="M45.3,31.9L45.3,31.9C45.3,31.9,45.3,31.9,45.3,31.9z"/>
	<path fill="#565656" d="M40.4,32.1C40.4,32.1,40.4,32.1,40.4,32.1C40.4,32.1,40.4,32.1,40.4,32.1z"/>
	<polygon fill="#565656" points="45.2,31.9 45.2,32 45.2,32 	"/>
	<path fill="#565656" d="M45.6,31.8L45.6,31.8C45.6,31.8,45.6,31.8,45.6,31.8z"/>
	<path fill="#565656" d="M42.8,32L42.8,32C42.8,32,42.8,32,42.8,32z"/>
	<polygon fill="#565656" points="45,32.1 45,32.1 45,32.1 	"/>
	<path fill="#565656" d="M45.9,31.6C45.9,31.6,45.9,31.7,45.9,31.6L45.9,31.6C45.9,31.6,45.9,31.6,45.9,31.6z"/>
	<path fill="#565656" d="M43.7,32.2C43.7,32.2,43.7,32.2,43.7,32.2C43.7,32.2,43.7,32.2,43.7,32.2z"/>
</g>
<g>
	<path fill="#565656" d="M44.8,39C44.8,39,44.8,39,44.8,39C44.7,39,44.8,39,44.8,39z"/>
	<path fill="#565656" d="M42.7,40.8L42.7,40.8C42.7,40.8,42.7,40.8,42.7,40.8z"/>
	<polygon fill="#565656" points="45.9,37.8 45.9,37.8 46,37.8 	"/>
	<path fill="#565656" d="M38.1,40.7L38.1,40.7C38.1,40.7,38.1,40.7,38.1,40.7z"/>
	<path fill="#565656" d="M40.8,41.2C40.8,41.2,40.8,41.2,40.8,41.2C40.8,41.2,40.8,41.2,40.8,41.2z"/>
	<path fill="#565656" d="M46.8,37.6L46.8,37.6C46.7,37.6,46.7,37.6,46.8,37.6z"/>
	<path fill="#565656" d="M48.3,37.3L48.3,37.3C48.3,37.3,48.3,37.3,48.3,37.3z"/>
	<path fill="#565656" d="M47.7,37.2L47.7,37.2C47.6,37.2,47.7,37.2,47.7,37.2z"/>
	<path fill="#565656" d="M47.6,37.2L47.6,37.2C47.6,37.2,47.6,37.2,47.6,37.2z"/>
	<path fill="#565656" d="M22.7,48.8c0,0.1,0,0.1,0.1,0.1L22.7,48.8z"/>
	<path fill="#565656" d="M34.5,44.1L34.5,44.1C34.5,44.1,34.5,44.1,34.5,44.1z"/>
	<path fill="#565656" d="M22.8,48.9L22.8,48.9C22.9,48.9,22.9,48.9,22.8,48.9z"/>
	<path fill="#565656" d="M46.1,38.1c0,0-0.1,0.1-0.1,0.1C46,38.2,46.1,38.1,46.1,38.1z"/>
	<path fill="#565656" d="M33.3,44.7L33.3,44.7L33.3,44.7z"/>
	<polygon fill="#565656" points="22.8,48.9 22.8,48.8 22.8,48.8 	"/>
	<polygon fill="#565656" points="30.3,44.5 30.3,44.5 30.3,44.5 	"/>
	<path fill="#565656" d="M30.1,44.7L30.1,44.7C30.1,44.7,30.1,44.7,30.1,44.7z"/>
	<path fill="#565656" d="M22.7,49L22.7,49C22.8,49,22.8,49,22.7,49z"/>
	<path fill="#565656" d="M28,46.6L28,46.6C28.1,46.6,28,46.6,28,46.6z"/>
	<path fill="#565656" d="M41,41.3L41,41.3C41,41.3,41,41.3,41,41.3z"/>
	<polygon fill="#565656" points="39.4,40.1 39.4,40.1 39.4,40.1 	"/>
	<path fill="#565656" d="M39.5,40.1C39.5,40.1,39.4,40.1,39.5,40.1C39.5,40.1,39.5,40.1,39.5,40.1z"/>
	<path fill="#565656" d="M39.3,40.2L39.3,40.2L39.3,40.2z"/>
	<polygon fill="#565656" points="40.6,41.7 40.6,41.7 40.6,41.7 	"/>
	<path fill="#565656" d="M40.2,41.3C40.2,41.3,40.2,41.3,40.2,41.3C40.2,41.3,40.2,41.3,40.2,41.3z"/>
	<polygon fill="#565656" points="38.7,40.9 38.7,40.9 38.7,40.9 	"/>
	<path fill="#565656" d="M35.7,44.3c0.4-0.2,0.9-0.6,1.2-0.9c0-0.1,0.2-0.2,0.2-0.3l0,0l0.1-0.1c0,0-0.1,0.1,0,0l0-0.1
		c0,0,0.2-0.2,0.1,0c0.1-0.1,0.2-0.2,0.3-0.4c0.1-0.1,0-0.1,0.1-0.2c0,0,0,0,0,0c0.2-0.3,0.2-0.4,0.3-0.6l0,0c0-0.1,0.1-0.1,0.1-0.1
		c-0.1,0,0,0.1-0.1,0.1c0,0,0-0.1,0-0.1c0.1-0.1,0.1-0.1,0.1-0.2c0.1-0.1,0.1-0.2,0.2-0.3c0-0.1,0-0.1,0.1-0.2c0.1,0,0,0,0.1-0.1
		l0,0c0.1-0.1,0-0.1,0.1,0c0.1-0.1,0-0.1,0.1-0.2l0,0.1c0-0.1,0.1-0.1,0.1-0.2c0,0,0,0,0,0.1c0.1,0,0-0.1,0.1-0.1c0,0-0.1,0.1-0.1,0
		c0,0,0-0.1,0.1-0.1l0,0.1c0.1-0.1,0-0.1,0.1-0.2c0,0,0,0,0,0c0-0.1,0.1-0.1,0.2-0.2l0,0c0,0,0-0.1,0.1-0.1c-0.1,0,0,0-0.1,0
		c0.1,0,0.1-0.1,0.2-0.1c0,0,0,0-0.1,0c0,0,0,0.1-0.1,0.1c0,0,0.1,0,0.1,0l0,0c0,0,0,0,0.1,0c0,0,0,0,0-0.1c0.1,0,0,0,0,0
		c0.1,0,0.1,0,0.1,0c0,0,0,0,0,0c0,0,0.1,0.1,0.1,0.2c0,0,0,0,0,0l0,0c-0.1,0,0,0,0,0.1c0,0,0.1,0.1,0.1,0.1l0,0
		c0.2,0.1-0.1,0,0,0.2c0.1,0.1,0,0,0,0c0,0.1,0,0.1,0.1,0.2c0,0,0,0.1,0,0.1c0,0.1,0.1,0.2,0.2,0.3C40,41.1,40,41.1,39.9,41l0.1,0
		c0.1,0.1,0.2,0.2,0.2,0.3c0,0,0,0,0,0c0.1,0.1,0.2,0.1,0.3,0.3c0,0-0.1,0-0.1-0.1c0.1,0.1,0.1,0.1,0.2,0.2c0,0-0.1-0.1-0.1-0.1
		c0.1,0,0.1,0.1,0.2,0.1l0,0c0,0,0.1,0.1,0.3,0.1c0.3,0.1,0.3,0,0.5,0c0,0,0.1,0,0,0c-0.1,0-0.1,0-0.1,0c0.1,0,0.2,0,0.2,0
		c0.1,0-0.1,0,0,0c0.1,0,0.1,0,0.2,0c0,0-0.1,0,0,0l0.2-0.1c0,0,0,0,0,0c0.1,0,0.1,0,0.2-0.1c-0.1,0,0.2-0.1,0.1-0.1l0.1,0
		c0,0,0,0-0.1,0c0,0,0.1,0,0.1-0.1c0,0,0.1-0.1,0.1,0c0,0,0.1-0.1,0.1,0c0,0,0,0,0,0c0.1,0,0.1-0.1,0.2-0.1c0,0,0.1,0,0,0.1
		c0.1,0,0-0.1,0.1-0.1c0,0.1,0.1,0,0.1,0c0.1,0,0.2-0.1,0.3-0.2c0-0.1-0.1,0-0.1,0c0.2-0.2,0.2-0.2,0.3-0.3l0,0
		c0.1-0.1,0.1-0.1,0.1-0.1c0,0,0.2,0,0.3-0.1c0,0-0.1,0-0.1,0l0.1-0.1c0,0,0,0,0,0c0.1-0.1,0.2-0.1,0.2-0.2l0.1,0l0,0
		c0,0,0.1-0.1,0.1-0.1c0.1-0.1,0.1-0.1,0.2-0.2c0,0-0.1,0,0-0.1c0,0,0.2-0.1,0.2-0.1c0,0,0.1-0.1,0.1-0.1l0,0c0,0,0.1-0.2,0.1-0.2
		c0,0.1,0.1-0.1,0.2-0.1c0,0,0.1-0.2,0.1-0.2c0.1-0.1,0.1,0,0.1,0l0,0c0,0,0.2-0.1,0.2-0.2l0-0.1l0,0c0,0,0-0.1,0-0.1l0,0
		c0,0,0-0.1,0.1-0.1c0,0,0,0,0,0c0,0,0,0,0.1,0c0,0,0.1-0.2,0-0.1c0,0,0-0.1,0.1-0.1l0,0l0-0.1c0-0.1,0.1-0.1,0.1-0.1
		c0,0,0,0.2,0.1,0c-0.1,0.1-0.1,0.1-0.1,0.1c0,0,0,0,0,0c0.1-0.1,0,0,0.1-0.1c0,0,0.1,0,0.1-0.1l-0.1,0c0,0,0,0,0,0c0,0,0,0,0,0
		c0,0,0.1-0.1,0.1-0.1c-0.1,0,0.1-0.2,0-0.1c0,0,0.1-0.1,0.1-0.1c-0.1,0.1,0.1,0,0.1,0c0,0-0.1,0,0,0c0,0,0.1,0,0.1-0.1l0,0l0.1,0
		c0,0-0.1,0,0,0c0,0,0.1-0.1,0.1,0c0,0,0,0.1,0,0.1c0,0,0.2-0.1,0.1-0.1l0.1,0c0,0-0.2,0,0,0l0,0c0,0,0,0,0.1-0.1l0,0c0,0,0,0,0,0
		c0,0,0,0,0,0c0.1,0,0.1-0.1,0.1-0.1c0.1,0,0.1,0,0.1,0c0.1,0,0.2-0.1,0.3-0.1c0.1,0,0,0,0,0c0.1,0,0.4-0.1,0.5-0.1
		c-0.1-0.1,0,0,0.1-0.1c0,0,0.2,0,0,0.1l0.1,0c0.1,0-0.2,0-0.1,0.1c0.1,0,0.2-0.1,0.3,0c0,0,0.1,0,0.1,0c0,0-0.1,0-0.1,0l0,0
		c0.2,0,0.1,0,0.2,0c0.1,0,0.1,0.1,0.1,0.1c0,0,0.1,0,0.1,0c-0.1,0-0.1-0.1-0.1-0.1c0,0.1,0.2,0.1,0.2,0.1c-0.2-0.1-0.1,0-0.3-0.1
		c0,0,0,0-0.1,0c0.1,0,0,0,0,0c0,0-0.1,0-0.1,0c0,0,0.1,0,0-0.1l0,0.1c0,0,0,0-0.1,0c0.1,0,0,0,0.1,0c-0.2-0.1-0.3,0-0.4,0
		c0,0,0,0,0,0c0,0-0.1,0-0.1,0c-0.1,0,0.1,0,0,0l-0.1,0l0,0c0,0-0.1,0-0.1,0c0,0,0.1,0,0.1-0.1l-0.1,0.1c0,0-0.1,0,0,0l-0.2,0.1l0,0
		c0,0,0,0,0,0c-0.1,0-0.3,0.2-0.3,0.1l-0.4,0.2c0.1-0.1-0.2,0,0,0c-0.1,0-0.1,0.1-0.2,0.1c-0.1,0-0.1,0,0-0.1l-0.1,0.1l0,0l-0.1,0.1
		c-0.1,0,0,0-0.1,0l0,0l-0.1,0c0,0,0,0-0.1,0.1l0,0l-0.1,0.1c0-0.1-0.1,0,0,0c0,0-0.1,0-0.1,0.1l0,0c-0.1,0.1,0,0-0.1,0.1l0,0
		c-0.2,0.1-0.2,0.2-0.3,0.3c0-0.1,0-0.1,0-0.1c-0.1,0.1-0.2,0.2-0.2,0.3c-0.1,0-0.1,0-0.2,0.1c-0.1,0.1-0.1,0.1-0.1,0.1
		c-0.1,0.1-0.2,0.2-0.2,0.2c0,0-0.1,0.1-0.1,0.1l0,0l0,0c-0.1,0.1-0.1,0.2-0.3,0.3l0,0l0,0.1c0,0,0,0,0,0l-0.2,0.2l0.1,0
		c0,0,0,0.1-0.1,0.1c0.1-0.1-0.1,0.1-0.1,0.1l0-0.1c-0.1,0.1-0.1,0.1,0,0.1c-0.1,0.1-0.1,0-0.1,0.1l0.1-0.1c0,0,0,0,0,0.1
		c0,0,0,0,0,0c-0.1,0.1-0.2,0.1-0.2,0.2c0,0,0,0,0,0c-0.1,0.1-0.1,0.1-0.2,0.2l0,0l0,0.1l-0.1,0l0,0c0,0-0.1,0.1-0.1,0.1l0,0
		c-0.1,0.1-0.2,0.1-0.3,0.2c0,0,0,0,0,0c-0.1,0.1-0.1,0-0.2,0.1c0,0,0,0,0,0l-0.1,0l0,0l0,0.1l-0.1,0l0,0c-0.1,0-0.2,0.1-0.3,0.1
		l0,0c-0.2,0.2-0.5,0.2-0.8,0.3l0,0l-0.1,0.1c-0.1,0,0,0,0,0c-0.1,0,0,0-0.2,0.1c-0.1,0,0,0,0.1,0c-0.1,0-0.3,0-0.4,0c0,0,0,0,0,0
		c-0.1,0-0.2-0.1-0.2-0.1c0,0,0,0,0,0c0,0,0-0.1-0.1-0.1l0,0c0,0-0.2-0.1-0.1-0.2c0,0,0,0-0.1,0c0-0.1-0.1-0.1-0.1-0.3
		c0,0,0.1,0.1,0,0.1c0-0.1-0.1-0.1-0.1-0.1l0,0l-0.1-0.2c0-0.1-0.1-0.2-0.1-0.2c-0.1-0.1,0,0.1,0,0c0,0-0.1-0.1-0.1-0.1l0,0
		c0,0,0-0.1-0.1-0.1l0.1,0c-0.1-0.1-0.2-0.1-0.2-0.1c-0.1-0.1-0.2-0.1-0.3-0.2l0,0c-0.3-0.1-0.6,0-0.7,0.1c0,0,0,0,0,0l-0.1,0.1l0,0
		c-0.1,0.1-0.1,0.1-0.2,0.2l0,0c-0.1,0.1-0.3,0.3-0.4,0.5l0,0c-0.1,0.2-0.1,0.2-0.2,0.3l0,0L38,40.8l0,0c0,0.1-0.2,0.2-0.1,0.2
		c0,0.1,0,0.1,0,0.2c-0.1,0.1,0,0-0.1,0.1c-0.1,0.1,0,0.1-0.1,0.2l0,0c0,0.1,0,0.1-0.1,0.2l0,0c-0.1,0.1-0.1,0.1-0.1,0.2
		c0,0-0.1,0.1-0.1,0.1c-0.1,0.1-0.2,0.3-0.3,0.4c-0.1,0,0,0-0.1,0.1l0,0c-0.2,0.2-0.4,0.3-0.6,0.5l0,0l0,0.1
		c-0.2,0.2-0.5,0.4-0.7,0.5c-0.1,0.1-0.1,0.1-0.2,0.2l0,0c-0.2,0.1-0.4,0.2-0.6,0.3c0,0,0,0,0,0c0,0-0.1,0.1-0.2,0.1l0.1,0
		c0,0-0.1,0.1-0.2,0l-0.1,0.1c0,0,0,0,0,0l0,0l-0.1,0c0,0-0.1,0.1-0.2,0.1c0,0-0.1,0,0,0c-0.1,0-0.2,0-0.3,0c0,0,0,0,0,0
		c0,0-0.1,0-0.1,0c0.1,0,0,0,0-0.1c0,0,0,0,0,0c0,0-0.1,0-0.1,0l0,0c-0.1,0,0-0.1-0.1-0.1c-0.1,0-0.1-0.1-0.1,0c-0.1-0.1,0,0,0-0.1
		c0,0-0.1-0.1-0.1-0.2c-0.1,0-0.1-0.3-0.2-0.3l0-0.1c0,0-0.1,0-0.1-0.1c0-0.1,0-0.1,0-0.1l-0.1,0c0-0.2-0.3-0.6-0.8-0.6
		c-0.5,0-0.6,0.2-0.9,0.4c-0.2,0.2-0.4,0.4-0.5,0.6l0,0l-0.2,0.2l0.1-0.1c0,0,0,0.1-0.1,0.1c-0.2,0.2-0.4,0.5-0.6,0.8
		c-0.1,0.2-0.1,0.1-0.2,0.3c0,0,0,0,0,0C30,44.9,30,45,29.9,45.2c0-0.1-0.1,0.1-0.1,0.1l0,0c0,0-0.1,0.1-0.1,0.1l0,0.1l0,0
		c-0.1,0.1-0.2,0.3-0.3,0.3c-0.2,0.2-0.5,0.5-0.8,0.7c0,0-0.1,0.1-0.2,0.1l-0.1,0c-0.1,0-0.1,0.1-0.2,0.1c0,0,0,0,0,0
		c-0.1,0-0.1,0-0.2,0.1c-0.1,0-0.2,0-0.1,0c0,0.1-0.2,0-0.2,0c0,0-0.3,0-0.7-0.1c-0.4-0.1-1.1-0.6-2-0.5c-0.4,0-0.8,0.2-1.2,0.3
		c-0.4,0.2-0.7,0.4-0.9,0.8c-0.5,0.7-0.2,1.5-0.1,1.7c0,0,0.1,0.2,0.1,0.1c0,0.1,0,0.1,0.1,0.2c0-0.1,0.1,0,0-0.1l0,0.1
		c0,0-0.1-0.1,0-0.1l-0.1,0c0-0.1,0-0.1,0-0.1c0-0.1-0.1-0.1-0.1-0.2l0,0c0-0.1,0-0.1,0-0.1l0,0l0-0.1c0,0.1,0.1,0.2,0,0.1
		c0-0.1,0,0,0-0.1c0-0.1,0,0,0,0l0-0.1c0,0,0,0.1,0,0l0-0.1c0.1,0,0-0.2,0-0.2c0,0.1,0,0,0,0c0-0.1,0-0.2,0-0.2c0,0,0,0.1,0,0
		c0,0,0-0.1,0-0.1c0,0,0.1-0.2,0.1-0.2c0.1-0.1,0-0.1,0.1-0.2c0,0-0.1,0.1,0,0.1c0,0,0.1-0.1,0.1-0.1c0,0,0,0,0,0.1
		c0.3-0.3,0.5-0.3,0.9-0.5c0.1,0,0,0-0.1,0.1c0.2-0.1,0.4-0.1,0.6-0.2l0,0c0.3,0,0.7-0.1,1,0.1l0,0c0.1,0,0.1,0,0.2,0
		c0,0-0.1,0,0,0.1c0,0-0.1,0,0,0c0.3,0.1,0.9,0.5,1.6,0.6c0.9,0.1,1.8-0.3,2.4-0.9c-0.1,0.1-0.1,0,0,0c0.2-0.1,0.3-0.3,0.5-0.5
		c0.3-0.4,0.6-0.7,0.7-1l0,0c0,0,0-0.1,0.1-0.1l0,0c0.1-0.1,0.2-0.3,0.2-0.3l0,0c0-0.1,0,0,0.1-0.1l0,0l0-0.1c0,0,0.1-0.2,0.2-0.2
		c0.1-0.1,0.2-0.3,0.3-0.4c0,0,0.2-0.1,0.3-0.2c0.1-0.1,0.2-0.1,0.3-0.2c0.1,0,0.1,0,0.1,0l0,0l0,0c0,0,0,0,0,0c0,0,0.1,0.1,0.1,0.2
		c0,0,0,0,0-0.1c0-0.1,0,0,0.1,0l0,0l0,0c0,0,0,0.1,0,0.1c0.1,0.2,0.2,0.4,0.4,0.7c-0.1,0,0.2,0.2,0.1,0.2c0.2,0.2,0-0.1,0.1,0
		c0,0,0.1,0.1,0.1,0.1c0,0,0,0.1,0,0c0,0,0.1,0.1,0.1,0.1c0,0,0,0,0,0c0.3,0.1,0.6,0.2,0.9,0.1c0,0-0.1,0-0.1,0
		c0.3-0.1,0.2,0,0.5-0.1l0,0c0.1,0,0.1-0.1,0.2-0.1c0,0-0.1,0.1-0.1,0.1c0.1,0,0.3-0.1,0.2-0.1c0.1,0,0.1,0,0.2,0c0,0-0.1,0,0,0
		c0.1,0,0.3-0.1,0.5-0.2c0,0,0,0,0,0C35.6,44.4,35.6,44.4,35.7,44.3z"/>
	<path fill="#565656" d="M40.7,41.7C40.7,41.7,40.7,41.7,40.7,41.7c-0.1,0-0.1,0-0.1,0C40.6,41.7,40.7,41.7,40.7,41.7z"/>
	<path fill="#565656" d="M39,40.4L39,40.4C39,40.4,39,40.4,39,40.4z"/>
	<path fill="#565656" d="M38.7,40.9C38.7,40.9,38.7,40.9,38.7,40.9C38.7,40.9,38.7,40.9,38.7,40.9z"/>
	<path fill="#565656" d="M42.4,41.5C42.4,41.5,42.4,41.5,42.4,41.5C42.4,41.5,42.4,41.5,42.4,41.5z"/>
	<path fill="#565656" d="M45.8,38.4L45.8,38.4C45.8,38.4,45.8,38.4,45.8,38.4z"/>
	<path fill="#565656" d="M45.6,38.6C45.6,38.6,45.6,38.6,45.6,38.6C45.6,38.6,45.6,38.6,45.6,38.6z"/>
	<path fill="#565656" d="M41.3,41.8C41.3,41.8,41.3,41.8,41.3,41.8C41.3,41.8,41.3,41.8,41.3,41.8z"/>
	<polygon fill="#565656" points="45.5,38.7 45.5,38.7 45.5,38.7 	"/>
	<path fill="#565656" d="M45.8,38.4L45.8,38.4C45.8,38.4,45.8,38.4,45.8,38.4z"/>
	<path fill="#565656" d="M43.8,40.5L43.8,40.5C43.8,40.5,43.8,40.5,43.8,40.5z"/>
	<polygon fill="#565656" points="45.4,38.9 45.4,38.9 45.4,38.9 	"/>
	<path fill="#565656" d="M46,38.2C46,38.2,46,38.2,46,38.2L46,38.2C46,38.2,46,38.2,46,38.2z"/>
	<path fill="#565656" d="M44.5,39.9C44.5,39.8,44.5,39.8,44.5,39.9C44.5,39.8,44.5,39.8,44.5,39.9z"/>
</g>
<g>
	<path fill="#565656" d="M46.1,47.6L46.1,47.6C46.1,47.6,46.1,47.6,46.1,47.6z"/>
	<path fill="#565656" d="M44.9,49.8L44.9,49.8C44.9,49.8,44.9,49.8,44.9,49.8z"/>
	<polygon fill="#565656" points="47.6,46.9 47.6,46.9 47.7,47 	"/>
	<path fill="#565656" d="M40.8,50.7L40.8,50.7C40.8,50.7,40.8,50.7,40.8,50.7z"/>
	<path fill="#565656" d="M43.4,49.5C43.4,49.5,43.4,49.4,43.4,49.5C43.4,49.4,43.4,49.5,43.4,49.5z"/>
	<path fill="#565656" d="M48.2,47.5L48.2,47.5C48.2,47.5,48.2,47.5,48.2,47.5z"/>
	<path fill="#565656" d="M49.6,48.4L49.6,48.4C49.6,48.4,49.6,48.4,49.6,48.4z"/>
	<path fill="#565656" d="M49.2,47.9L49.2,47.9C49.1,47.9,49.2,48,49.2,47.9z"/>
	<path fill="#565656" d="M49.1,47.9L49.1,47.9C49.1,47.9,49.1,47.9,49.1,47.9z"/>
	<path fill="#565656" d="M26.5,57.7c0,0,0,0.1,0.1,0.1L26.5,57.7z"/>
	<path fill="#565656" d="M37.3,52L37.3,52C37.3,52,37.3,52,37.3,52z"/>
	<path fill="#565656" d="M26.7,57.7L26.7,57.7L26.7,57.7z"/>
	<path fill="#565656" d="M47.4,47.2c0,0-0.1,0-0.1,0C47.4,47.2,47.4,47.3,47.4,47.2z"/>
	<path fill="#565656" d="M36.2,51.6C36.2,51.6,36.2,51.6,36.2,51.6L36.2,51.6z"/>
	<polygon fill="#565656" points="26.7,57.7 26.7,57.7 26.7,57.7 	"/>
	<polygon fill="#565656" points="33.4,54 33.4,54 33.4,54 	"/>
	<path fill="#565656" d="M33.2,54.2L33.2,54.2C33.2,54.1,33.2,54.1,33.2,54.2z"/>
	<path fill="#565656" d="M26.6,57.8L26.6,57.8C26.6,57.9,26.6,57.8,26.6,57.8z"/>
	<path fill="#565656" d="M30.9,54.3L30.9,54.3C30.9,54.3,30.9,54.3,30.9,54.3z"/>
	<path fill="#565656" d="M43.4,49.7L43.4,49.7C43.5,49.7,43.5,49.7,43.4,49.7z"/>
	<polygon fill="#565656" points="42,49.7 42,49.7 42,49.7 	"/>
	<path fill="#565656" d="M42.1,49.6c0,0,0,0.1,0,0.1C42,49.7,42.1,49.7,42.1,49.6z"/>
	<path fill="#565656" d="M41.9,49.9L41.9,49.9L41.9,49.9z"/>
	<polygon fill="#565656" points="42.9,49.8 42.9,49.8 42.9,49.8 	"/>
	<path fill="#565656" d="M42.7,49.4L42.7,49.4C42.7,49.4,42.7,49.4,42.7,49.4z"/>
	<polygon fill="#565656" points="41.4,51 41.4,51 41.4,51 	"/>
	<path fill="#565656" d="M37.4,53.3c0.7,0.3,1.3-0.1,1.7-0.3c0.1-0.1,0.2-0.1,0.3-0.2l0,0l0.1-0.1c0.1,0-0.1,0.1,0,0l0-0.1
		c0,0,0.3-0.2,0.1,0c0.1-0.1,0.3-0.2,0.4-0.3c0.1-0.1,0-0.1,0.1-0.1c0,0,0,0,0,0c0.3-0.2,0.2-0.3,0.5-0.5l0,0c0,0,0.1-0.1,0.1-0.1
		c-0.1,0,0,0.1-0.1,0.1c0,0,0.1-0.1,0-0.1c0.1,0,0.1-0.1,0.1-0.1c0.1-0.1,0.2-0.2,0.3-0.2c0-0.1,0-0.1,0.1-0.2c0.1,0,0,0,0.1-0.1
		l0,0c0.1-0.1,0.1-0.1,0.1,0c0.1-0.1,0-0.1,0.1-0.2l0,0.1c0-0.1,0.1-0.1,0.1-0.2c0,0,0,0.1,0,0.1c0.1,0,0-0.1,0.1-0.1
		c0,0-0.1,0.1-0.1,0c0-0.1,0-0.1,0.1-0.2l0,0.1c0-0.1,0-0.1,0.1-0.2c0,0,0,0,0,0c0-0.1,0.1-0.2,0.2-0.3l0,0c0-0.1,0-0.1,0-0.1
		c0,0.1,0,0-0.1,0c0.1-0.1,0-0.2,0.1-0.3c0,0,0,0.1,0,0.1c0,0.1,0,0.1,0,0.2c0-0.1,0-0.1,0.1-0.1l0,0l0-0.1c0,0-0.1,0,0,0
		c0-0.1,0.1,0,0.1,0c0.1-0.1,0-0.1,0.1-0.2c0,0,0,0,0,0c0.1-0.1,0.1-0.2,0.2-0.2c0,0,0,0,0,0l0,0c0,0.1,0-0.1,0.1,0
		c0,0,0.1-0.1,0.1-0.1l0,0c0.1-0.1,0,0,0.1,0c0,0,0,0,0,0c0,0,0.1,0,0.1,0c0,0,0,0,0,0.1c0,0,0,0.1,0.1,0.1c0-0.1,0,0-0.1-0.1l0,0
		c0,0,0.1,0.1,0.1,0.1c0,0,0,0,0,0c0.1,0.1,0.1,0.1,0.2,0.3c0,0,0-0.1-0.1-0.1c0,0.1,0,0.1,0.1,0.2c0,0,0-0.1-0.1-0.1l0.1,0.2l0,0
		c0,0,0.1,0.1,0.1,0.2c0.1,0.2,0.2,0.2,0.4,0.3c0,0,0,0.1,0,0c0-0.1,0,0-0.1,0c0.1,0.1,0.2,0.2,0.1,0.1c0.2,0.1,0-0.1,0.1,0
		c0.1,0,0.1,0.1,0.2,0.1c0,0-0.1-0.1,0,0c0.1,0,0.1,0,0.3,0c0,0,0,0-0.1,0c0.1,0,0.2,0,0.2,0c-0.1,0,0.2,0,0.1-0.1c0,0,0.1,0,0.1,0
		c0,0,0,0-0.1,0c0,0,0.1,0,0.1,0c0,0,0.1,0,0.2,0c0,0,0.1,0,0.1,0c0,0,0,0,0,0c0.1,0,0.1,0,0.2-0.1c0,0,0.1,0,0,0.1
		c0.1,0,0-0.1,0.1-0.1c0,0.1,0.1-0.1,0.1,0c0.1,0,0.2-0.1,0.3-0.2c0-0.1-0.1,0.1-0.1,0c0.2-0.2,0.2-0.3,0.3-0.4l0,0
		c0.1-0.1,0.1-0.1,0.1-0.2c0,0,0.2-0.1,0.3-0.2c0,0-0.1,0.1-0.1,0l0.1-0.1c0,0,0,0,0,0c0-0.1,0.1-0.2,0.1-0.2L46,49l0,0
		c0,0,0-0.1,0-0.2c0-0.1,0.1-0.2,0.1-0.2c0,0-0.1,0.1,0,0c0.1,0,0.1-0.2,0.1-0.2c0,0,0-0.1,0-0.1l0,0c0,0,0-0.2,0-0.3
		c0.1,0,0-0.1,0.1-0.1c0,0,0-0.2,0-0.2c0-0.1,0.1-0.1,0.1-0.1v0c0,0,0.1-0.2,0.2-0.2c0,0,0-0.1,0-0.1l0,0c0,0,0-0.1,0,0l0,0
		c0,0,0,0,0.1-0.1c0,0,0,0,0,0c0,0,0,0,0,0c0,0,0.1-0.1,0-0.1c0,0,0.1,0,0.1,0l0,0l0.1,0c0.1,0,0.1,0,0.2,0c-0.1,0-0.1,0.1,0,0.1
		c-0.1,0-0.1,0-0.1,0c0,0,0,0,0,0c0.1,0,0,0,0.1,0c0,0,0,0,0.1,0.1l-0.1,0l0,0c0,0,0,0,0,0c0,0,0.1,0,0.2,0c-0.1-0.1,0.2,0,0.1,0
		c0,0,0.1,0,0.1,0c-0.1,0,0.1,0.1,0,0.1c0,0-0.1-0.1,0,0c0.1,0,0.1,0.1,0.1,0.1l0,0l0.1,0.1c0,0-0.1-0.1,0,0c0,0,0.1,0,0.1,0.1
		c0,0,0,0-0.1,0c0.1,0,0.2,0.1,0.2,0l0.1,0c0,0-0.1-0.1,0-0.1l0,0l0.1,0l0,0c0,0,0,0,0.1,0c0,0,0,0,0,0c0.1,0.1,0.1,0,0.1,0
		c0.1,0,0.1,0,0,0.1c0.1,0,0.2,0.1,0.2,0.2c0.1,0,0,0,0.1,0c0,0.1,0.3,0.2,0.5,0.3c0-0.1,0,0,0.1,0c0,0,0.1,0.1,0,0.1l0.1,0.1
		c0,0.1-0.1-0.1-0.1,0c0.1,0.1,0.2,0.1,0.3,0.2c-0.1,0,0.1,0,0,0.1c0,0-0.1,0-0.1,0l0,0c0.2,0.2,0.1,0,0.2,0.1
		c0.1,0.1,0.1,0.1,0.1,0.1c0,0,0.1,0.1,0.1,0.1c-0.1,0-0.1-0.1-0.1-0.1c0,0.1,0.2,0.1,0.2,0.2c-0.1-0.2-0.1-0.1-0.2-0.3
		c0,0-0.1,0-0.1-0.1c0.1,0,0,0,0,0c0,0-0.1,0-0.1-0.1c0,0,0.1,0,0-0.1l0,0c0,0,0,0,0-0.1c0.1,0,0,0,0.1,0c-0.1-0.1-0.2-0.1-0.3-0.2
		c0,0,0,0,0,0c0,0-0.1,0-0.1-0.1c-0.1-0.1,0.1,0,0.1,0l-0.1-0.1l0,0c0,0-0.1,0-0.1,0c0,0,0.1,0,0.1,0l-0.1,0c0,0-0.1-0.1,0,0
		l-0.2-0.1l0,0c0,0-0.1,0,0,0c-0.1,0-0.3-0.1-0.2-0.2c-0.2-0.1-0.2-0.1-0.4-0.2c0.2,0-0.1-0.1,0-0.1c-0.1-0.1-0.1,0-0.2-0.1
		c-0.1,0,0-0.1,0.1,0l-0.1,0l0,0l-0.1,0c-0.1-0.1,0,0-0.1-0.1l0,0l0,0c0,0,0,0-0.1,0l0,0l-0.1,0c0.1,0-0.1,0,0,0c-0.1,0-0.1,0-0.2,0
		l0,0c-0.2,0,0,0-0.1-0.1l0,0c-0.2-0.1-0.3,0-0.5,0c0.1,0,0.1,0,0.1,0c-0.1,0-0.3,0.2-0.4,0.3c-0.1,0-0.1,0-0.2,0.1
		c-0.1,0.1-0.1,0.1,0,0.1c-0.1,0.1-0.1,0.2-0.1,0.2c0,0,0,0.1,0,0.1l0,0l0,0C46,47.9,46,48,46,48.1l0,0l0,0.1c0,0,0,0,0,0l-0.1,0.3
		l0,0c0,0.1,0,0.1,0,0.2c0-0.1,0,0.1-0.1,0.1l0-0.1c0,0.1,0,0.1,0,0.1c0,0.1-0.1,0.1-0.1,0.2l0-0.1c0,0,0,0,0,0.1c0,0,0,0,0,0
		c0,0.1-0.1,0.2-0.1,0.2c0,0,0,0,0,0c-0.1,0.2,0,0.1-0.1,0.2l0,0l0,0.1l-0.1,0.1l0,0c0,0,0,0.1-0.1,0.1v0c-0.1,0.1-0.1,0.1-0.2,0.2
		c0,0,0,0,0,0c-0.1,0.1-0.1,0-0.2,0.2c0,0,0,0,0,0l0,0l0,0l0,0.1l0,0l0,0c-0.1,0-0.2,0.1-0.3,0.1l0,0c-0.2,0.2-0.5,0.1-0.7,0.1l0,0
		c0,0-0.1,0-0.1,0c0,0,0,0,0,0c-0.1,0-0.1,0-0.1-0.1c0-0.1,0,0,0.1,0c-0.1-0.1-0.2-0.2-0.2-0.3c0,0,0,0,0,0
		c-0.1-0.1-0.1-0.2-0.1-0.3c0,0,0,0,0,0c0,0,0-0.1-0.1-0.1l0,0c0-0.1-0.1-0.2-0.1-0.3c0,0,0,0-0.1-0.1c0-0.1-0.2-0.2-0.4-0.3
		c0,0,0.1,0,0.1,0c-0.1-0.1-0.2,0-0.2,0l0,0c-0.1,0-0.3,0.1-0.4,0.1c-0.1,0-0.3,0.2-0.3,0.2c-0.1,0.1,0.1-0.1,0,0.1
		c0,0-0.1,0.1-0.1,0.1l0,0l-0.1,0.1l0-0.1c-0.1,0.1-0.1,0.1,0,0.2c-0.1,0.1-0.1,0.2-0.1,0.2l0,0c-0.1,0.2-0.2,0.3-0.3,0.4
		c0,0,0,0,0,0l-0.1,0.1l0,0l-0.1,0.2l0,0L41,50.5l0,0c-0.1,0.2-0.1,0.1-0.2,0.3l0,0l-0.1,0.1l0,0c0,0.1-0.2,0.2-0.1,0.1
		c0,0-0.1,0.1-0.1,0.1c-0.1,0.1,0,0-0.1,0.1c-0.1,0.1-0.1,0.1-0.1,0.2l0,0c0,0-0.1,0.1-0.1,0.1l0,0c-0.1,0.1-0.1,0.1-0.2,0.2
		c0,0-0.1,0.1-0.1,0.1c-0.1,0.1-0.2,0.2-0.3,0.3c0,0,0,0-0.1,0.1l0,0c-0.2,0.1-0.5,0.2-0.7,0.3l0,0l0,0c-0.3,0.1-0.6,0.2-0.7,0.2
		c-0.1,0-0.1,0-0.2,0l0,0c-0.1,0-0.2-0.1-0.3-0.3c0,0,0,0,0,0c0,0-0.1-0.1-0.1-0.1l0,0.1c0,0-0.1-0.1-0.1-0.2L37.3,52c0,0,0,0,0,0
		l0,0l0-0.1c0,0-0.1-0.1-0.1-0.2c0,0,0-0.1,0,0c-0.1-0.1-0.1-0.3-0.2-0.4l0,0.1c0,0-0.1-0.1-0.1-0.2c0.1,0.1,0,0,0-0.1
		c-0.1,0,0,0.1,0,0c-0.1-0.1-0.2-0.2-0.3-0.2l0.1,0c-0.1-0.1-0.2-0.1-0.3-0.2c-0.1,0-0.2,0-0.2,0c-0.2,0-0.1,0-0.1,0
		c-0.1,0-0.3,0-0.3,0c-0.1,0.1-0.3,0.1-0.4,0.2l-0.1,0c0,0,0,0.1-0.1,0.1c-0.1,0-0.1,0-0.1,0l0,0.1c-0.4,0.2-0.9,0.7-1.1,1.1
		c-0.1,0.2-0.2,0.5-0.3,0.7l0,0l-0.1,0.2l0.1-0.2c0,0.1,0,0.1,0,0.1L33.4,54c0,0.2-0.1,0.1-0.2,0.2c0,0,0,0,0,0
		c-0.1,0.1-0.1,0.2-0.3,0.3c0-0.1-0.1,0.1-0.1,0l0,0c0,0-0.1,0-0.1,0l-0.1,0.1l0,0c-0.1,0-0.3,0.1-0.4,0.1c-0.2,0.1-0.6,0-0.9-0.1
		c-0.1,0-0.1,0-0.2-0.1l-0.1-0.1c-0.1,0-0.2,0-0.2-0.1c0,0,0,0,0,0c-0.1,0-0.1-0.1-0.2-0.1c-0.1,0-0.2-0.1-0.1-0.1
		c0,0-0.2-0.1-0.2-0.1c0,0-0.3-0.2-0.8-0.3c-0.6-0.1-1.4-0.1-2.1,0.3c-0.8,0.5-1.1,1.5-1.1,2.1c0,0.7,0.1,1.3,0.3,1.6
		c0,0,0.1,0.2,0.1,0.1c0,0.1,0,0.1,0,0.2c0-0.1,0.1,0,0.1-0.1l0,0.1c0,0,0-0.1,0-0.1l-0.1,0c0-0.1,0-0.1,0-0.1
		c0-0.1-0.1-0.1-0.1-0.2l0,0c0-0.1,0-0.1,0-0.1l0,0l0-0.1c0,0.1,0.1,0.2,0,0.1c0-0.1,0,0,0-0.1c0-0.1,0,0,0,0l0-0.1c0,0,0,0.1,0,0
		l0-0.1c0.1,0,0-0.2,0-0.2c0,0.1,0,0,0,0l0-0.2c0,0,0,0.1,0,0c0,0,0-0.1,0-0.1c0,0,0-0.2,0-0.2c0-0.2,0-0.1,0-0.2c0,0,0,0.1,0,0.1
		l0-0.2c0,0,0,0,0,0.1c0.1-0.4,0.2-0.6,0.3-1c0,0,0,0,0,0.1c0.1-0.3,0.2-0.3,0.3-0.5l0,0c0.2-0.2,0.5-0.4,0.9-0.4l0,0
		c0,0,0.1-0.1,0.2-0.1c0,0,0,0.1,0.1,0c0,0-0.1,0-0.1,0c0.3,0,0.9,0,1.4,0.2c0.6,0.2,1.3,0.9,2.2,0.9c-0.1,0-0.1-0.1,0,0
		c0.3,0.1,0.5,0,0.8-0.1c0.4-0.2,0.9-0.4,1.1-0.9l0,0c0-0.1,0-0.1,0.1-0.1l0,0c0.1-0.1,0.2-0.3,0.2-0.4l0,0c0-0.1,0,0,0.1-0.1l0,0
		l0-0.1c0,0,0.1-0.2,0.1-0.3c0-0.1,0.1-0.3,0.1-0.5c0,0,0.1-0.2,0.2-0.3c0.1-0.2,0.3-0.5,0.5-0.6l0,0l0.1,0c0,0,0,0,0,0
		c0.1,0,0.1-0.1,0.2-0.1c0,0,0,0-0.1,0c-0.1,0,0,0,0.1-0.1l0,0l0,0c0,0,0.1,0,0.1,0c0.2-0.1,0.4-0.2,0.6-0.2c0,0,0.1,0,0.1,0
		c0.1,0,0,0,0-0.1c0,0,0,0,0,0c0,0,0,0,0,0c0,0,0,0,0,0c0,0,0,0,0,0c0.1,0,0.1,0.2,0.2,0.4c0,0,0-0.1,0-0.1c0.1,0.2,0,0.2,0.1,0.3
		l0,0c0,0.1,0.1,0.1,0.1,0.2c0,0-0.1-0.1-0.1-0.1c0,0.1,0.1,0.3,0.1,0.2c0.1,0.1,0,0.1,0.1,0.2c0,0,0-0.1,0,0c0,0.1,0.2,0.3,0.3,0.5
		c0,0,0,0,0,0C37.3,53.2,37.2,53.2,37.4,53.3z"/>
	<path fill="#565656" d="M43,49.9L43,49.9C42.9,49.8,42.9,49.8,43,49.9L43,49.9z"/>
	<path fill="#565656" d="M41.7,50.3L41.7,50.3C41.7,50.3,41.7,50.3,41.7,50.3z"/>
	<path fill="#565656" d="M41.4,51C41.4,50.9,41.4,51,41.4,51C41.4,51,41.4,51,41.4,51z"/>
	<path fill="#565656" d="M44.6,50.5C44.6,50.5,44.6,50.5,44.6,50.5C44.6,50.5,44.6,50.5,44.6,50.5z"/>
	<path fill="#565656" d="M47,47.2L47,47.2C47,47.2,47,47.2,47,47.2z"/>
	<path fill="#565656" d="M46.9,47.2L46.9,47.2C46.8,47.2,46.8,47.2,46.9,47.2z"/>
	<path fill="#565656" d="M43.4,50.3C43.3,50.3,43.3,50.3,43.4,50.3C43.3,50.3,43.3,50.3,43.4,50.3z"/>
	<polygon fill="#565656" points="46.8,47.2 46.8,47.2 46.8,47.2 	"/>
	<path fill="#565656" d="M47.1,47.2L47.1,47.2C47.1,47.2,47.1,47.2,47.1,47.2z"/>
	<path fill="#565656" d="M45.8,49.3L45.8,49.3C45.8,49.4,45.8,49.3,45.8,49.3z"/>
	<polygon fill="#565656" points="46.7,47.4 46.7,47.4 46.7,47.4 	"/>
	<path fill="#565656" d="M47.3,47.2C47.3,47.2,47.3,47.2,47.3,47.2L47.3,47.2L47.3,47.2z"/>
	<path fill="#565656" d="M46.2,48.4C46.2,48.4,46.2,48.4,46.2,48.4C46.2,48.4,46.2,48.4,46.2,48.4z"/>
</g>
</svg>
