<?xml version="1.0" encoding="utf-8"?>
<!-- Generator: Adobe Illustrator 17.1.0, SVG Export Plug-In . SVG Version: 6.00 Build 0)  -->
<svg version="1.2" baseProfile="tiny" id="Layer_1" xmlns="http://www.w3.org/2000/svg" xmlns:xlink="http://www.w3.org/1999/xlink"
	 x="0px" y="0px" viewBox="0 0 63.6 66" xml:space="preserve">
<linearGradient id="SVGID_1_" gradientUnits="userSpaceOnUse" x1="6.5332" y1="58.4209" x2="54.3653" y2="10.5889">
	<stop  offset="0" style="stop-color:#95C180"/>
	<stop  offset="0.2182" style="stop-color:#99C485"/>
	<stop  offset="0.5277" style="stop-color:#A7CC91"/>
	<stop  offset="0.8901" style="stop-color:#BEDBA8"/>
	<stop  offset="1" style="stop-color:#C7E2B1"/>
</linearGradient>
<path fill="url(#SVGID_1_)" d="M9.1,61L8.3,24.9l-5.6-1.6V12l24.9,3.2c0,0-11.7-8.1-8.3-10.5C22.8,2.3,30.9,8,30.9,8
	s8.1-8.4,10.9-4.6c2.8,3.8-8.6,10.8-8.6,10.8l25.9,1l1.9,13L55,25.8l0.7,33.6L9.1,61z"/>
<g>
	<path fill="#565656" d="M5.6,43.2C5.6,43.2,5.6,43.2,5.6,43.2C5.6,43.2,5.6,43.2,5.6,43.2z"/>
	<path fill="#565656" d="M5.4,53.1l0-0.1C5.4,53,5.4,53.1,5.4,53.1z"/>
	<polygon fill="#565656" points="5.7,37.3 5.7,37.3 5.7,36.9 	"/>
	<path fill="#565656" d="M17.4,63.3l-0.1,0C17.3,63.3,17.3,63.3,17.4,63.3z"/>
	<path fill="#565656" d="M5.4,61.6c0,0,0,0.1,0,0.2C5.4,61.7,5.4,61.6,5.4,61.6z"/>
	<path fill="#565656" d="M6.2,34.2l0,0.2C6.2,34.4,6.2,34.3,6.2,34.2z"/>
	<path fill="#565656" d="M6.1,28.2C6.1,28.2,6.1,28.2,6.1,28.2C6.1,28.3,6.1,28.2,6.1,28.2z"/>
	<path fill="#565656" d="M5.9,30.6l0,0.2C5.9,30.7,5.9,30.6,5.9,30.6z"/>
	<path fill="#565656" d="M6,30.8L6,30.8C6,30.8,6,30.8,6,30.8z"/>
	<path fill="#565656" d="M58.9,27.4c0-0.2,0-0.3-0.1-0.5L58.9,27.4z"/>
	<path fill="#565656" d="M36.4,63.3L36.4,63.3C36.4,63.3,36.4,63.3,36.4,63.3z"/>
	<path fill="#565656" d="M58.6,27.2l0-0.1C58.6,27.1,58.6,27.2,58.6,27.2z"/>
	<path fill="#565656" d="M6.3,37.4c0,0.2,0,0.5,0,0.5C6.4,37.7,6.4,37.5,6.3,37.4z"/>
	<path fill="#565656" d="M40.4,61.9l0.1,0L40.4,61.9z"/>
	<path fill="#565656" d="M58.6,27.2l0,0.1L58.6,27.2C58.6,27.3,58.6,27.2,58.6,27.2z"/>
	<polygon fill="#565656" points="56.2,63.3 56.2,63.3 56.1,63.3 	"/>
	<path fill="#565656" d="M57.2,63.4l-0.2,0C57.1,63.4,57.2,63.4,57.2,63.4z"/>
	<path fill="#565656" d="M58.9,27l0-0.3C58.8,26.8,58.8,26.9,58.9,27z"/>
	<path fill="#565656" d="M59.1,52.5l0,0.1C59.1,52.6,59.1,52.5,59.1,52.5z"/>
	<path fill="#565656" d="M5.4,60.8L5.4,60.8C5.4,60.7,5.4,60.7,5.4,60.8z"/>
	<polygon fill="#565656" points="11.9,62.1 11.9,62.1 11.9,62.1 	"/>
	<path fill="#565656" d="M11.5,62.2c0.1,0,0.3,0,0.4,0C11.8,62.1,11.7,62.2,11.5,62.2z"/>
	<path fill="#565656" d="M12.8,62.2L12.8,62.2L12.8,62.2z"/>
	<polygon fill="#565656" points="6.4,61.1 6.4,61.1 6.4,61.1 	"/>
	<path fill="#565656" d="M6.5,62.1C6.5,62.1,6.6,62.1,6.5,62.1C6.6,62.1,6.5,62.1,6.5,62.1z"/>
	<polygon fill="#565656" points="17,62.1 17,62.1 17,62.1 	"/>
	<path fill="#565656" d="M32.7,61.8c-1.6,0-3.6,0.1-5.2,0.1c-0.3,0.1-0.8,0.1-1.3,0.1l-0.1-0.1l-0.4,0c-0.2,0,0.3,0,0-0.1l-0.2,0.1
		c0,0-1.1,0-0.4-0.1l-1.6,0c-0.4,0-0.2,0.1-0.6,0.1c-0.1,0,0.1,0,0.1-0.1c-1.2-0.1-1.4,0.2-2.5,0.2l0.1,0c-0.2,0-0.5,0-0.5,0
		c0.1,0.1,0.2-0.1,0.5,0c0,0.1-0.4,0-0.4,0.1c-0.3,0-0.4,0-0.6,0c-0.4-0.1-0.9,0-1.2-0.1c-0.2,0-0.4,0.1-0.8,0.1
		c-0.3-0.1,0.1-0.1-0.3-0.1l-0.1,0.1c-0.3,0-0.3,0-0.3,0c-0.3,0-0.3,0.1-0.7,0l0.2,0c-0.3,0-0.5,0-0.9,0c0,0,0.2,0,0.3,0
		c-0.2-0.1-0.4,0-0.5,0c0,0,0.3,0,0.2,0.1c-0.2,0-0.5,0.1-0.6,0l0.2,0c-0.5,0-0.2,0.1-0.8,0c0,0,0,0,0,0c-0.3,0.1-0.8,0-1.3,0l0.1,0
		c-0.2,0-0.3,0.1-0.4,0.1c0.3,0,0.2,0,0.2,0.1c-0.4-0.1-0.6,0.1-1.2,0c0,0,0.2-0.1,0.3,0c0.2-0.1,0.2-0.2,0.6-0.2
		c-0.2,0-0.5,0-0.4,0l-0.1,0.1l-0.4,0c-0.1,0,0.3,0.1,0,0.1c-0.4,0-0.2-0.1-0.3,0c-0.5,0-0.2,0.1-0.7,0.1c0,0,0.1,0,0.2,0
		c-0.3,0-0.9,0-1-0.1c0.1,0,0.1,0,0.2,0l0,0c0.4-0.1-0.3,0-0.2-0.1c0,0.1-0.5,0-0.7,0l0.1,0.1c-0.7,0.2,0-0.1-0.7-0.1
		c-0.5,0,0.2,0-0.1,0.1c-0.3,0-0.4-0.1-0.9,0c-0.1,0-0.4-0.1-0.4-0.1c-0.1,0-0.3,0-0.5,0c-0.1,0-0.1,0-0.2,0c0.1,0.1,0.2-0.1,0.8,0
		l-0.2,0.1l-0.5,0c-0.1,0-0.2,0-0.2,0c0,0,0,0,0,0l-0.2,0c0-0.1-0.1-0.2,0-0.5c0.1,0,0,0.1,0.1,0.2c0-0.1,0-0.1,0-0.2l0-0.1l0-0.3
		c0.1,0,0,0.4,0,0.4l0-0.5c0,0,0,0,0,0c-0.1-0.1,0-0.4,0-0.8c0-0.9-0.1-1-0.2-1.5c0-0.1,0-0.2,0.1-0.1c0,0.2,0,0.2,0,0.2
		c0-0.3,0.1-0.6,0.1-0.5c0-0.5,0,0.2-0.1-0.1l0-0.6c0,0.1-0.1,0.3-0.1,0c0-0.3,0-0.4,0-0.8c0,0.1,0.1-0.1,0.1,0.2c0-0.2,0-0.4,0-0.5
		c0,0.4,0-0.6-0.1-0.3l0-0.4c0,0.1,0,0.1,0,0.2c0.1-0.1,0-0.3,0-0.5c0-0.1,0-0.5,0-0.5c0-0.1,0-0.4,0-0.5c0-0.2,0,0-0.1-0.1l0-0.6
		c0,0,0.1-0.1,0.2,0c0-0.2-0.1-0.1-0.1-0.4c0.1,0.2,0.1-0.5,0.1-0.2c0.1-0.2,0.1-0.8,0-1.1c-0.1-0.2,0,0.3-0.1,0.3
		c0-0.9-0.2-1-0.2-1.6l0,0.2c0-0.4,0-0.4-0.1-0.6c0.1,0.1,0.2-0.5,0.2-1.1c0-0.1-0.1,0.4-0.1,0.3l0-0.5c0,0,0,0,0,0.1
		c0-0.4,0.1-0.8,0-0.9L6.3,48l0,0.2c0-0.1,0-0.5-0.1-0.6c0-0.5,0-0.6,0-0.9c0,0.1-0.1,0.3-0.1-0.1c0.1,0,0-0.8,0.1-0.8
		c0-0.1,0-0.4,0-0.4l0.1,0c-0.1,0-0.1-0.6-0.1-1c0.1,0.1,0-0.5,0.1-0.6c-0.1-0.1,0-0.7-0.1-0.8c0-0.3,0.1-0.3,0.1-0.4l0-0.1
		c0-0.2,0.1-0.8,0.1-1.1l-0.1-0.3l0-0.1c0-0.1,0-0.3-0.1-0.2l0-0.2c-0.1,0,0-0.2-0.1-0.6c0-0.1,0-0.1,0,0c0-0.2,0-0.1,0.1-0.2
		c0,0.1-0.2-0.6-0.2-0.2c0,0-0.1-0.2,0-0.4l0.1-0.1l-0.1-0.2c0-0.3,0-0.4,0-0.6c0,0.2,0.2,0.5,0.2-0.1c0,0.3,0.1,0.5,0.1,0.6
		c0-0.1,0-0.2,0,0c0-0.5,0-0.2-0.1-0.6c0.1,0,0.1-0.1,0.1-0.5l-0.1,0.3c0,0,0,0,0-0.1c0,0.1,0,0.1,0,0.2c0-0.1-0.1-0.5,0-0.6
		c-0.1,0.5-0.1-0.8-0.2-0.5c0-0.1,0-0.4,0-0.4c0.1,0.4,0.1-0.3,0.1-0.2c0-0.1-0.1,0.3-0.1,0.1c0-0.2,0-0.4,0.1-0.5l0,0.1l0-0.3
		c0-0.1-0.1,0.3-0.1,0c0-0.1,0-0.4,0-0.4c0,0.2,0.1,0,0.1,0.3c0-0.2,0-0.9-0.1-0.7l0-0.3c0,0.2-0.1,0.6-0.1,0.1l0,0l-0.1-0.4l0-0.2
		c0,0,0-0.1,0-0.2c0,0,0-0.2,0.1-0.2c0-0.4,0-0.4-0.1-0.4c0-0.2,0-0.3,0.1-0.2c0-0.3,0-0.9,0-1.1c0-0.4,0,0.1-0.1-0.2
		c0.1-0.4,0-1.4,0-2c-0.1,0.2,0-0.2-0.1-0.3c0,0.1,0.1-0.6,0.1,0l0-0.4c0.1-0.2,0,0.6,0.1,0.2c0-0.4-0.1-0.7-0.1-1.1
		c0.1,0.2,0-0.4,0.1-0.2c0,0.1,0,0.2,0,0.4l0-0.1c0-0.9-0.1-0.3-0.1-0.7c0-0.5,0.1-0.4,0.1-0.5c0-0.1,0-0.4,0-0.5
		c0,0.3,0,0.6-0.1,0.5c0.1-0.2,0-0.8,0-1c-0.1,0.8,0,0.5-0.1,1.3c0,0.1,0.1,0.1,0.1,0.5c0-0.3,0,0-0.1,0.1c0-0.1,0,0.3,0,0.4
		c0,0.1-0.1-0.3-0.1,0.2l0.1,0.1c0,0.2-0.1-0.1-0.1,0.3C6,29,6,29.3,5.9,28.8c-0.1,0.6,0,0.9,0.1,1.4c0,0,0-0.1,0-0.1
		c0,0.1,0,0.3,0,0.4c0,0.3,0-0.2-0.1-0.2l0,0.5c0,0,0,0,0,0c0,0.1,0,0.3,0,0.3c0-0.1-0.1-0.2-0.1-0.3l0.1,0.5c0-0.1-0.1,0.4-0.1,0.1
		l0,0.8l-0.1,0.1c0,0.2,0,0.2,0,0c0,0.3,0.1,1.2,0,1c0.1,0.6,0,0.8,0.1,1.5c-0.1-0.6-0.1,0.6-0.1,0c0,0.3,0,0.4,0.1,0.7
		c0,0.3-0.1,0.1-0.1-0.1l0,0.3l0,0l0,0.3c0,0.3-0.1,0.1-0.1,0.4l0.1,0.1l0,0.2c0-0.1,0,0.1,0,0.3l0,0l0,0.3c0-0.3,0,0.2-0.1,0.1
		c0,0.2,0,0.2,0,0.7l0-0.1c0,0.6-0.1,0-0.1,0.5l0.1,0c-0.1,0.6,0,1.1,0,1.6c0-0.3-0.1-0.2-0.1-0.2c0,0.4,0,1.1,0.1,1.5
		c-0.1,0.2-0.1,0.2-0.1,0.6c0,0.3,0,0.4,0.1,0.5c0,0.3,0,0.9,0,0.9c0,0.1,0,0.3,0,0.4l0,0l0.1,0c-0.1,0.5,0.1,0.9,0,1.5l0-0.1l0,0.2
		c0,0,0-0.1-0.1-0.1l0,1.1l0-0.2c0,0.2,0.1,0.4,0,0.6c-0.1-0.4,0,0.4-0.1,0.4l0-0.2c0,0.3,0,0.3,0.1,0.3c0,0.4-0.1,0.3,0,0.7l0-0.3
		c0-0.1,0.1,0.1,0.1,0.3c0,0,0,0.2,0,0c0,0.3,0,0.8,0,0.9c0,0.2-0.1,0.1-0.1,0c0,0.7,0,0.3,0,1l0,0l0,0.2l-0.1,0.3l0-0.1
		c0,0.2,0,0.4,0,0.6l0-0.1c0,0.6-0.1,0.7,0,1.3c0,0,0-0.1,0-0.1c0.1,0.6-0.1,0.4,0,1c0,0,0,0,0,0l0,0.3l-0.1,0l0.1,0.2l-0.1,0.2
		l0,0.1c-0.1,0.3,0,0.7-0.1,1l0.1-0.1c0.2,0.9-0.1,2.2,0,3.3l-0.1,0l0.1,0.5c0,0.3,0-0.2-0.1-0.1c0,0.5,0.1,0.2,0.1,0.8
		c0,0.3,0-0.1-0.1-0.2c0,0.5,0.1,1.4,0,1.8c0,0,0,0,0,0c0,0.2,0,0.4,0,0.6l0,0.8c0,0,0-0.2,0-0.3c0,0.2,0,0.5,0,0.7l0-0.2l0,0.8
		c0.4,0,0.7,0,0.7,0c0,0,0-0.1,0.4-0.1c0.3,0.1,0.9,0,1.3,0c-0.1,0-0.4,0-0.3,0c0.2,0,0.4,0,0.6,0l-0.1,0l1,0c0.1,0.1,0.9,0,0.9,0.1
		c0.4,0-0.3,0,0.2,0c0.1,0,0.4,0,0.4,0l0,0l0.3,0l-0.2,0.1c0.3,0,0.5-0.1,0.5-0.1c0.3,0,0.6,0,0.7,0.1l-0.1,0c0.7,0,1.2,0.2,1.8,0.1
		c0,0,0,0-0.1,0l0.4,0l-0.1,0l0.7-0.1l0,0c0.5,0,1.3,0,1.9,0l-0.1,0c0.7,0,0.7,0,1.2,0c0,0,0,0-0.1,0l0.5,0l-0.1,0
		c0.3-0.1,1,0.1,0.8,0c0.2,0,0.5-0.1,0.6-0.1c0.5,0,0.1,0,0.4,0.1c0.4,0,0.4,0,0.9,0l0,0l0.7,0l-0.1,0c0.5-0.1,0.6,0.1,1,0
		c0.2,0,0.6,0,0.6,0.1l1.8-0.1c0.1,0.1,0.1,0,0.5,0l0-0.1c0.9,0,1.9,0.1,2.9,0.1l0,0.1l0.2-0.1l3.3,0c0.3,0,0.7-0.1,1.1-0.1l0,0
		c0.8,0,1.6-0.1,2.4,0c-0.1,0,0,0-0.1,0.1c0.2-0.1,0.5,0,0.7,0l-0.2,0c0.2,0,0.6,0,0.7,0l0.4-0.1c0,0,0.1,0,0.1,0l0.1,0l0.2,0.1
		c0.1,0,0.6,0,0.8-0.1c0,0,0.4,0,0.1,0.1l1.4,0l-0.2,0c0-0.1,0.4-0.1,0.6-0.1c-0.3,0,0,0.1,0.1,0.1c0.2,0-0.2,0-0.1-0.1
		c0.2,0,0.7-0.1,0.9,0l-0.1,0c0.3,0,0.5,0.1,0.8,0.1c0.3,0,0.5,0,0.4-0.1c0.4,0,0.2,0.1,0.3,0.1c0.2,0,0.8,0,0.8,0
		c0.2-0.1,1.1,0,1.2-0.1l0.3,0.1c0,0,0.1-0.1,0.4-0.1c0.3,0,0.2,0.1,0.3,0.1l0.2-0.1c1.5,0.1,3.4,0,5.1,0.1c0.7,0,1.6-0.1,2.5-0.1
		l-0.1,0l0.8,0l-0.6,0c0.2,0,0.3,0,0.5,0c0.9,0,2.2,0.1,3.3,0c0.7-0.1,0.5,0.1,1.2,0c-0.1,0-0.1,0-0.1,0l1.9-0.1l-0.1-1.3
		c0.1,0.1,0.1-0.1,0.1-0.3c0-0.2,0-0.3,0-0.2l0-0.1c0-0.2,0-0.6,0.1-0.5l-0.1-0.3l0.1,0c0-0.4,0-1.4,0.1-1.6c-0.1-1.1-0.1-2.8,0-4.2
		c0-0.2,0-0.6,0-0.9l0.1-0.3c0-0.3-0.1-0.7-0.1-1c0,0,0,0,0,0c0-0.3,0-0.6,0-0.9c0-0.4,0-0.7,0.1-0.6c-0.1,0,0-0.8,0-0.8
		s0.2-18.3-0.3-22.8c0-0.2-0.1-0.6-0.1-0.4c0-0.3,0.1-0.5,0-0.5c0,0.4-0.1-0.1-0.2,0.3l0-0.3c0-0.1,0,0.4,0,0.3l0.1,0.1
		c0,0.2,0,0.3-0.1,0.4c0,0.2,0.2,0.3,0.1,0.8l0-0.1c0,0.4-0.1,0.2-0.1,0.3l0-0.1l0,0.3c0-0.3,0-0.7,0-0.5c0,0.5,0-0.1,0,0.2
		c0,0.2,0,0.2-0.1,0.2l0,0.4c0,0,0-0.3,0-0.1l0,0.5c-0.1,0.1,0.1,0.6,0,0.8c0-0.4,0,0-0.1,0l0,0.9c0,0.1,0-0.2,0-0.1
		c0,0.2,0,0.3,0,0.4c0,0.1,0,0.7-0.1,0.6c0,0.6,0.1,0.3,0.1,0.8c0,0.1,0-0.5-0.1-0.2l0,0.6c0-0.1-0.1-0.1-0.1-0.3
		c-0.1,1.6-0.3,2.5-0.2,3.9c-0.1,0.2,0-0.1-0.1-0.3c0.1,1.1-0.1,1.5-0.1,2.4l0,0c-0.1,1.3-0.1,2.8-0.1,4.2l0-0.2
		c0,0.2,0,0.5,0.1,0.7c0,0-0.1-0.2-0.1,0.2c0-0.1,0-0.3,0.1-0.2c-0.1,1.2-0.1,3.8-0.1,5.8c0,2.7-0.1,5.6,0,8.3
		c0-0.4,0.1-0.2,0.1,0.1c-0.2,0.8,0,1.4-0.1,2.3c0,0.5,0,0.9,0,1.3l0,0.3l0,0.1l0,0.1c-0.1,0-0.1,0-0.2,0l0,0l-0.1,0l-0.2,0l-0.4,0
		l0-0.1c-0.2,0-0.3,0-0.5,0l0,0c-0.5,0-1.2,0-1.5,0l0,0.1c-0.3,0-0.2,0-0.5,0l0,0l-0.4,0.1c0-0.1-0.9,0-1.1-0.1
		c-0.4,0-1.2,0.1-1.8,0c-0.1-0.1-0.9-0.1-1.4-0.1c-0.9,0-2.3,0-3.5,0l0,0.1l-0.3,0c0,0,0,0,0,0c-0.2-0.1-0.7,0-1,0
		c0.2,0.1,0.2,0,0.4,0c0.3,0,0,0.1-0.3,0.1l0,0l-0.2,0c0-0.1-0.2-0.1-0.3-0.1c-1,0-1.7,0.1-2.8,0.1c0.1-0.1-0.8,0-0.6-0.1
		c-0.6,0,0.1,0.1-0.2,0.2c-0.2,0-0.4,0-0.4,0c0.1,0-0.1-0.1,0-0.1l-0.4,0c0,0,0.1,0,0.1,0c-0.9,0.1-1.5-0.1-2.3,0
		c-0.1,0,0.3,0,0.3,0c-0.8,0.1-0.7-0.1-1.4,0l0.2,0c-0.2,0-0.3,0.1-0.7,0c-0.1-0.1,0.3,0,0.5-0.1c-0.3,0-0.9,0-0.7,0.1
		c-0.3,0-0.4,0-0.6,0c0,0,0.3,0,0.1,0.1c-0.4,0-1.1,0-1.6,0c0,0,0,0,0,0C33.2,61.9,33.2,61.8,32.7,61.8z"/>
	<path fill="#565656" d="M6.5,60.9l0,0.2c0,0,0,0,0,0.1L6.5,60.9z"/>
	<path fill="#565656" d="M14.4,62.1L14.4,62.1C14.5,62.1,14.4,62.1,14.4,62.1z"/>
	<path fill="#565656" d="M16.9,62C16.7,62,16.9,62,16.9,62C17,62,17,62,16.9,62z"/>
	<path fill="#565656" d="M6.3,55.1C6.3,55.2,6.3,55.2,6.3,55.1C6.3,55.1,6.3,55.1,6.3,55.1z"/>
	<path fill="#565656" d="M6.3,39.1L6.3,39.1C6.3,39.2,6.3,39.2,6.3,39.1z"/>
	<path fill="#565656" d="M6.3,40l0,0.2C6.3,40.1,6.3,40.1,6.3,40z"/>
	<path fill="#565656" d="M6.3,59c0,0.1,0,0.1,0,0.2C6.3,59.1,6.3,59,6.3,59z"/>
	<polygon fill="#565656" points="6.3,40.4 6.3,40.6 6.3,40.6 	"/>
	<path fill="#565656" d="M6.3,38.9l0,0.3C6.4,39,6.4,38.9,6.3,38.9z"/>
	<path fill="#565656" d="M6.2,49.3L6.2,49.3C6.3,49.5,6.2,49.4,6.2,49.3z"/>
	<polygon fill="#565656" points="6.4,41.4 6.4,41.4 6.4,41.5 	"/>
	<path fill="#565656" d="M6.4,37.9c0,0,0,0.1,0,0.1L6.4,37.9C6.4,37.9,6.4,37.9,6.4,37.9z"/>
	<path fill="#565656" d="M6.3,45.9C6.3,45.9,6.3,45.8,6.3,45.9C6.3,45.9,6.3,46,6.3,45.9z"/>
</g>
<g>
	<path fill="#565656" d="M52.5,16.4C52.5,16.4,52.5,16.3,52.5,16.4C52.5,16.3,52.5,16.4,52.5,16.4z"/>
	<path fill="#565656" d="M41.9,16.2l0.1,0C42,16.2,41.9,16.2,41.9,16.2z"/>
	<polygon fill="#565656" points="58.9,16.4 58.8,16.4 59.3,16.4 	"/>
	<path fill="#565656" d="M19.3,16l0.1,0C19.4,16,19.4,16,19.3,16z"/>
	<path fill="#565656" d="M32.7,16.1c0,0-0.1,0-0.2,0C32.6,16.2,32.7,16.2,32.7,16.1z"/>
	<path fill="#565656" d="M60.6,18l0-0.2C60.6,17.8,60.6,17.9,60.6,18z"/>
	<path fill="#565656" d="M60.7,24.4C60.7,24.4,60.7,24.4,60.7,24.4C60.7,24.4,60.7,24.4,60.7,24.4z"/>
	<path fill="#565656" d="M60.9,21.9l0-0.2C60.8,21.8,60.8,21.9,60.9,21.9z"/>
	<path fill="#565656" d="M60.8,21.7L60.8,21.7C60.8,21.7,60.8,21.7,60.8,21.7z"/>
	<path fill="#565656" d="M59.9,26.9c0.2,0,0.3,0,0.5-0.1L59.9,26.9z"/>
	<path fill="#565656" d="M2.8,21.3L2.8,21.3C2.8,21.3,2.8,21.3,2.8,21.3z"/>
	<path fill="#565656" d="M60.1,26.6l0.1,0C60.2,26.6,60.1,26.6,60.1,26.6z"/>
	<path fill="#565656" d="M58.8,17.1c-0.2,0-0.6,0-0.6,0C58.4,17.1,58.7,17.2,58.8,17.1z"/>
	<path fill="#565656" d="M4.2,25.5L4.2,25.5C4.2,25.5,4.2,25.5,4.2,25.5z"/>
	<path fill="#565656" d="M60.1,26.6l-0.2,0l0,0C60,26.6,60.1,26.6,60.1,26.6z"/>
	<polygon fill="#565656" points="19.6,27.2 19.6,27.2 19.5,27.2 	"/>
	<path fill="#565656" d="M20.7,27.2l-0.2,0C20.6,27.2,20.6,27.2,20.7,27.2z"/>
	<path fill="#565656" d="M60.4,26.9l0.3,0C60.6,26.9,60.5,26.9,60.4,26.9z"/>
	<path fill="#565656" d="M32.9,27.2l-0.1,0C32.8,27.2,32.8,27.2,32.9,27.2z"/>
	<path fill="#565656" d="M33.6,16.2L33.6,16.2C33.7,16.2,33.7,16.1,33.6,16.2z"/>
	<polygon fill="#565656" points="25.2,17.1 25.2,17.1 25.2,17.1 	"/>
	<path fill="#565656" d="M25.6,17.1c-0.1,0-0.3,0-0.4,0C25.3,17.1,25.4,17.1,25.6,17.1z"/>
	<path fill="#565656" d="M24.2,17.1L24.2,17.1L24.2,17.1z"/>
	<polygon fill="#565656" points="33.2,17.2 33.2,17.2 33.2,17.2 	"/>
	<path fill="#565656" d="M31.4,17.2c0,0-0.1,0-0.1,0C31.4,17.2,31.4,17.2,31.4,17.2z"/>
	<polygon fill="#565656" points="19.7,17.2 19.7,17.2 19.7,17.2 	"/>
	<path fill="#565656" d="M4.3,17.6L4.3,17.6l0.1-0.1l0,0l0.3,0l1.3,0c0.9,0,1.7,0,2.4,0c0.4-0.1,0.9-0.1,1.4-0.1l0.1,0.1l0.4,0
		c0.2,0-0.3,0,0,0.1l0.2-0.1c0,0,1.1,0,0.4,0.1l1.7,0c0.4,0,0.2-0.1,0.6-0.1c0.1,0-0.2,0-0.1,0.1c1.3,0.1,1.5-0.2,2.7-0.2l-0.1,0
		c0.2,0,0.6,0,0.6,0c-0.2-0.1-0.2,0.1-0.6,0c0-0.1,0.5,0,0.4-0.1c0.3,0,0.4,0,0.7,0c0.4,0.1,1,0,1.3,0.1c0.2,0,0.4-0.1,0.9-0.1
		c0.3,0.1-0.1,0.1,0.4,0.1l0.1-0.1c0.3,0,0.3,0,0.3,0c0.4,0,0.3-0.1,0.8,0l-0.3,0c0.3,0,0.5,0,1,0c0,0-0.2,0-0.3,0
		c0.3,0.1,0.4,0,0.6,0c0,0-0.4,0-0.2-0.1c0.2,0,0.5-0.1,0.7,0l-0.3,0c0.5,0,0.3-0.1,0.8,0c0,0,0,0,0,0c0.4-0.1,0.8,0,1.4,0l-0.1,0
		c0.2,0,0.3-0.1,0.4-0.1c-0.3,0-0.2,0-0.2-0.1c0.4,0.1,0.6-0.1,1.3,0c0,0-0.2,0.1-0.3,0c-0.2,0.1-0.3,0.2-0.7,0.2c0.2,0,0.5,0,0.5,0
		l0.1-0.1l0.4,0c0.1,0-0.3-0.1,0-0.1c0.4,0,0.2,0.1,0.3,0c0.5,0,0.2-0.1,0.7-0.1c-0.1,0-0.2,0-0.2,0c0.4,0,0.9,0,1,0.1
		c-0.1,0-0.1,0.1-0.2,0l0,0c-0.4,0.1,0.3,0,0.2,0.1c0-0.1,0.5,0,0.7,0l-0.1-0.1c0.8-0.2,0,0.1,0.7,0.1c0.5,0-0.2,0,0.1-0.1
		c0.3,0,0.5,0.1,1,0c0.1,0,0.4,0.1,0.4,0.1c0.3,0,0.9,0,1.1,0c-0.5-0.1-0.5,0.1-1.1,0l0.2-0.1c0.4,0,0.9,0,1.2,0c-0.1,0-0.1,0,0,0
		c0.6,0,0.8-0.1,1.3-0.1c0.1,0.1-0.3,0-0.5,0.1c0.4,0,0.4,0,1,0c0,0.1-0.4,0-0.5,0l0.6,0c0,0,0,0,0,0c0.1-0.1,0.5,0,0.9,0
		c0.9,0,1.1-0.1,1.6-0.2c0.1,0,0.2,0,0.1,0.1c-0.2,0-0.2,0-0.3,0c0.3,0,0.7,0.1,0.5,0.1c0.5,0-0.2,0,0.1-0.1l0.7,0
		c-0.1,0-0.3-0.1,0-0.1c0.3,0,0.4,0,0.8,0c-0.1,0,0.1,0.1-0.2,0.1c0.2,0,0.5,0,0.6,0c-0.4,0,0.7,0,0.4-0.1l0.4,0c-0.1,0-0.1,0-0.2,0
		c0.1,0.1,0.3,0,0.5,0c0.1,0,0.5,0,0.6,0c0.1,0,0.5,0,0.5,0c0.2,0,0,0,0.1-0.1l0.7,0c0,0,0.1,0.1,0,0.2c0.3,0,0.1-0.1,0.5-0.1
		c-0.2,0.1,0.5,0.1,0.2,0.1c0.2,0.1,0.8,0.1,1.2,0c0.2-0.1-0.4,0-0.4-0.1c1,0,1-0.2,1.7-0.2L44,17c0.4,0,0.4,0,0.7-0.1
		c-0.1,0.1,0.5,0.2,1.2,0.2c0.1,0-0.4-0.1-0.3-0.1l0.5,0c0,0,0,0-0.1,0c0.4,0,0.8,0.1,0.9,0l0.4,0.1l-0.2,0c0.1,0,0.5,0,0.6-0.1
		c0.5,0,0.7,0,1,0c-0.1,0-0.3-0.1,0.1-0.1c0,0.1,0.8,0,0.8,0.1c0.2,0,0.4,0,0.5,0l0,0.1c0-0.1,0.6-0.1,1.1-0.1
		c-0.1,0.1,0.5,0,0.7,0.1c0.1-0.1,0.8,0,0.9-0.1c0.3,0,0.3,0.1,0.4,0.1l0.2,0c0.2,0,0.8,0.1,1.2,0.1l0.4-0.1l0.1,0
		c0.1,0,0.3,0,0.2-0.1l0.2,0c0-0.1,0.3,0,0.7-0.1c0.1,0,0.1,0,0,0c0.2,0,0.1,0,0.2,0.1c-0.1,0,0.7-0.2,0.2-0.2c0,0,0.3-0.1,0.5,0
		l0.1,0.1l0.2-0.1c0.3,0,0.4,0,0.7,0c-0.2,0-0.5,0.2,0.1,0.2c-0.3,0-0.5,0.1-0.7,0.1c0.1,0,0.2,0,0,0c0.5,0,0.2,0,0.6-0.1
		c0,0.1,0.1,0.1,0.5,0.1l-0.3-0.1c0,0,0,0,0.1,0c-0.1,0-0.2,0-0.2,0c0.1,0,0.6-0.1,0.6,0c-0.5-0.1,0.9-0.1,0.5-0.2
		c0.1,0,0.4,0,0.4,0C59.1,17,59.9,17,59.8,17c0.2,0-0.3-0.1-0.1-0.1c0.3,0,0.4,0,0.4,0.1l-0.1,0l0.2,0c0.1,0-0.2-0.1,0-0.1
		c0,0,0.2,0,0.3,0c0,0,0,0,0,0c0,0,0,0,0,0c-0.1,0-0.1,0.1-0.3,0.1l0.2,0c0,0.1,0,0.3,0.1,0.2l0,0.2c0-0.1,0.1-0.5,0.1-0.1l0,0
		l0.1,0.3l0,0.2c0,0,0,0.1,0,0.2c0,0,0,0.2-0.1,0.2c0,0.4,0,0.4,0.1,0.5c0,0.2,0,0.3-0.1,0.2c0,0.3,0,0.9,0,1.1c0,0.4,0-0.1,0.1,0.2
		c-0.1,0.4,0,1.5,0,2.2c0.1-0.2,0,0.2,0.1,0.3c0-0.2-0.1,0.7-0.1,0.1l0,0.4c-0.1,0.3,0-0.6-0.1-0.2c0,0.4,0.1,0.7,0.1,1.2
		c-0.1-0.2,0,0.4-0.1,0.3c0-0.1,0-0.2,0-0.4l0,0.1c0,1,0.1,0.3,0.1,0.8c0,0.6-0.1,0.5-0.1,0.5c0,0.1,0,0.4,0,0.5
		c0-0.4,0-0.7,0.1-0.5c-0.1,0.3,0,0.9,0,1c0.1-0.8,0-0.6,0.1-1.4c0-0.1-0.1-0.1-0.1-0.6c0,0.3,0,0,0.1-0.1c0,0.1,0-0.3,0-0.5
		c0-0.1,0.1,0.3,0.1-0.2l-0.1-0.1c0-0.2,0.1,0.1,0.1-0.3c0.1,0.2,0.1-0.1,0.1,0.5c0.1-0.6,0-1-0.1-1.5c0,0.1,0,0.1,0,0.1
		c0-0.1,0-0.3,0-0.4c0-0.3,0,0.3,0.1,0.2l0-0.5c0,0,0,0,0,0c0-0.1,0-0.3,0-0.3c0,0.2,0.1,0.2,0.1,0.3l-0.1-0.6
		c0,0.1,0.1-0.5,0.1-0.1l0-0.8l0.1-0.1c0-0.2,0-0.2,0,0c0-0.3-0.1-1.3,0-1.1c-0.1-0.7,0-0.9-0.1-1.7c0.1,0.6,0.1-0.8,0.1-0.1
		c0-0.4,0-0.5-0.1-0.7l-0.1,0c-0.2,0-0.1-0.1,0.2-0.1l0,0.1l0-0.1l-0.3,0l0,0l-0.4,0c-0.4,0-0.1-0.1-0.5-0.1l-0.1,0.1l-0.2,0
		c0.1,0-0.1,0-0.4,0l0,0l-0.3,0c0.3,0-0.3,0-0.1-0.1c-0.3,0-0.3,0-0.7,0l0.1,0c-0.6,0,0-0.1-0.5-0.1l0,0.1c-0.7-0.1-1.2,0-1.7,0
		c0.3,0,0.2-0.1,0.2-0.1c-0.4,0-1.2,0-1.6,0.1c-0.2-0.1-0.2-0.1-0.7-0.1c-0.3,0-0.4,0-0.5,0.1c-0.3,0-0.9,0-1,0c-0.1,0-0.3,0-0.5,0
		l0,0l0,0.1c-0.6-0.1-1,0.1-1.6,0l0.1,0l-0.2,0c0,0,0.1,0,0.1-0.1l-1.2,0l0.2,0c-0.2,0-0.4,0.1-0.7,0c0.5-0.1-0.4,0-0.5-0.1l0.2,0
		c-0.3,0-0.3,0-0.3,0.1c-0.4,0-0.3-0.1-0.7,0l0.3,0c0.1,0-0.1,0.1-0.3,0.1c0,0-0.2,0,0,0c-0.3,0-0.9,0-1,0c-0.2,0-0.1-0.1,0-0.1
		c-0.7,0-0.3,0-1.1,0l0,0l-0.3,0l-0.4-0.1l0.1,0c-0.2,0-0.4,0-0.7,0l0.1,0c-0.7,0-0.8-0.1-1.4,0c0,0,0.1,0,0.1,0
		c-0.6,0.1-0.5-0.1-1.1,0c0,0,0,0,0,0l-0.3,0l0-0.1l-0.2,0.1l-0.2-0.1l-0.1,0c-0.3-0.1-0.7,0-1.1-0.1l0.1,0.1c-1,0.2-2.3-0.1-3.6,0
		l0-0.1l-0.5,0.1c-0.3,0,0.2,0,0.1-0.1c-0.5,0-0.2,0.1-0.9,0.1c-0.3,0,0.1,0,0.3-0.1c-0.6,0-1.5,0.1-1.9,0c0,0,0,0,0,0
		c-0.4,0-0.9,0-1.4,0c0,0,0.1,0,0.2,0c-0.2,0-0.4,0-0.5,0l0.2,0c-0.3,0-1,0-1.1,0c0,0,0,0.1-0.3,0.1c-0.2-0.1-0.8,0-1.2,0
		c0.1,0,0.4,0,0.3,0c-0.2,0-0.4,0-0.6,0l0.1,0l-1.1,0c-0.2-0.1-1,0-0.9-0.1c-0.4,0,0.3,0-0.2,0c-0.1,0-0.4,0-0.4,0l0.1,0l-0.3,0
		l0.2-0.1c-0.3,0-0.5,0.1-0.5,0.1c-0.3,0-0.7,0-0.8-0.1l0.1,0c-0.8,0-1.3-0.2-1.9-0.1c0,0,0,0,0.1,0l-0.5,0l0.1,0L22.4,16l0,0
		c-0.5,0-1.3,0-2,0l0.1,0c-0.7,0-0.7,0-1.3,0c0,0,0,0,0.1,0l-0.5,0l0.1,0c-0.4,0.1-1-0.1-0.8,0c-0.2,0-0.6,0.1-0.6,0.1
		c-0.5,0-0.1,0-0.5-0.1c-0.4,0-0.5,0-1,0l0,0l-0.7,0l0.1,0c-0.6,0.1-0.7-0.1-1.1,0c-0.2,0-0.7,0-0.7-0.1L11.8,16
		c-0.1-0.1-0.1,0-0.6,0l0,0.1c-1,0-2.1-0.1-3.1-0.1l0-0.1L7.9,16l-3.6,0c-0.4,0-0.9,0.1-1.5,0.1v0.6l0-0.1l0,1.7c0,0.4,0,0.9,0,1.3
		c0-0.1,0,0-0.1-0.1c0.1,0.2,0,0.5,0,0.7l0-0.2c0,0.3,0,0.6,0,0.8l0.1,0.4c0,0,0,0.1,0,0.1l0,0.1l-0.1,0.2c0,0.1,0,0.6,0.1,0.8
		c0,0,0,0.4-0.1,0.1l0,1.5l0-0.2c0.1,0,0.1,0.4,0.1,0.6c0-0.3-0.1,0-0.1,0.1c0,0.2,0-0.2,0.1-0.1c0,0.3,0.1,0.8,0,0.9l0-0.2
		c0,0.3-0.1,0.7-0.1,1.2l0,0.7c0.1,0,0.1,0,0.1-0.1c0.7,0,0.2,0.1,0.5,0.1c0.2,0,0.5,0,0.9,0c0.2,0,0.3,0,0.3,0c0.1,0,0.1,0,0.1,0
		c0.2-0.1,1.2,0,1.3-0.1l0.4,0.1c0,0,0.1-0.1,0.4-0.1c0.3,0,0.2,0.1,0.3,0.1l0.2-0.1c1.6,0.1,3.7,0,5.4,0.1c0.8,0,1.8-0.1,2.7-0.1
		l-0.1,0l0.9,0l-0.7,0c0.2,0,0.4,0,0.5,0c1,0,2.3,0.1,3.5,0c0.8-0.1,0.5,0.1,1.3,0c-0.1,0-0.1,0-0.1,0c0.8,0,1.3-0.1,2.1-0.1
		c-0.1,0.1,0.5,0,0.5,0.1l0.1,0c0.2,0,0.6,0,0.5,0.1l0.4-0.1l0,0.1c0.5,0,1.5,0,1.8,0.1c1.2-0.1,3.1-0.1,4.5,0c0.2,0,0.6,0,1,0
		l0.4,0.1c0.3,0,0.7-0.1,1-0.1c0,0,0,0,0,0c0.4,0,0.7,0,1,0c0.4,0,0.8,0,0.6,0.1c0-0.1,0.8,0,0.8,0s19.7,0.2,24.5-0.3
		c0.2,0,0.6-0.1,0.4-0.1c0.3,0,0.5,0.1,0.6,0c-0.5,0,0.1-0.1-0.3-0.2l0.3,0c0.1,0-0.4,0-0.3,0l-0.1,0.1c-0.2,0-0.4,0-0.5-0.1
		c-0.2,0-0.4,0.2-0.9,0.1l0.1,0c-0.4,0-0.3-0.1-0.4-0.1l0.1,0l-0.4,0c0.3,0,0.7,0,0.5,0c-0.5,0,0.1,0-0.3,0c-0.2,0-0.2,0-0.2-0.1
		l-0.4,0c0,0,0.3,0,0.1,0l-0.5,0c-0.1-0.1-0.6,0.1-0.8-0.1c0.4,0,0,0,0-0.1l-1,0c-0.1,0,0.3,0,0.1,0c-0.2,0-0.3,0-0.4,0
		c-0.1,0-0.7,0-0.7-0.1c-0.7,0-0.3,0.1-0.9,0.1c-0.1,0,0.5,0,0.2-0.1l-0.6,0c0.1,0,0.1-0.1,0.4-0.1c-1.7-0.1-2.6-0.3-4.2-0.2
		c-0.2-0.1,0.2,0,0.3-0.1c-1.1,0.1-1.6-0.1-2.6-0.1l0,0c-1.3-0.1-3-0.1-4.5-0.1l0.2,0c-0.2,0-0.5,0-0.8,0.1c0,0,0.2-0.1-0.3-0.1
		c0.1,0,0.3,0,0.2,0.1c-1.3-0.1-4.1-0.1-6.2-0.1l-8.9,0c0.4,0,0.2,0.1-0.1,0.1c-0.9-0.2-1.6,0-2.5-0.1c-1.7,0.1-3.1-0.1-4.7,0l0-0.1
		c-0.2,0-0.3,0-0.5,0l0,0c-0.6,0-1.3,0-1.6,0l0,0.1c-0.3,0-0.2,0-0.5,0l0,0l-0.4,0.1c0-0.1-1,0-1.2-0.1c-0.4,0-1.3,0.1-1.9,0
		c-0.1-0.1-0.9-0.1-1.5-0.1c-1,0-2.5,0-3.8,0l0,0.1l-0.3,0c0,0,0,0,0,0c-0.3-0.1-0.8,0-1.1,0c0.2,0.1,0.2,0,0.4,0
		c0.3,0,0,0.1-0.4,0.1l0,0l-0.3,0c0-0.1-0.3-0.1-0.3-0.1c-0.6,0-1,0-1.5,0.1l-0.7,0l-0.2,0l-0.1,0c0,0,0,0-0.1,0c0,0,0-0.1,0.1-0.1
		c0-0.1-0.1,0.1-0.1,0c0-0.1,0-0.1,0-0.1c0,0,0.1,0,0.1,0l0-0.4c0,0,0,0.1,0,0.1c-0.1-0.9,0.1-1.7,0-2.5c0-0.1,0,0.3,0,0.3
		c-0.1-0.8,0.1-0.7,0-1.5l0,0.2c0-0.3-0.1-0.4,0-0.8c0.1-0.1,0,0.4,0.1,0.6c0-0.3,0-1-0.1-0.8c0-0.3,0-0.5,0-0.7c0,0,0,0.3-0.1,0.1
		c0-0.5,0-1.2,0-1.8c0,0,0,0,0,0c0-0.2,0-0.3,0-0.5L4.3,17.6C4.3,17.6,4.3,17.6,4.3,17.6z"/>
	<path fill="#565656" d="M33.5,17.2l-0.2,0c0,0,0,0-0.1,0L33.5,17.2z"/>
	<path fill="#565656" d="M22.5,17.2L22.5,17.2C22.5,17.2,22.5,17.2,22.5,17.2z"/>
	<path fill="#565656" d="M19.8,17.3C20,17.3,19.8,17.2,19.8,17.3C19.7,17.2,19.7,17.3,19.8,17.3z"/>
	<path fill="#565656" d="M39.7,17.1C39.7,17.1,39.6,17.1,39.7,17.1C39.7,17.1,39.7,17.1,39.7,17.1z"/>
	<path fill="#565656" d="M56.9,17.1L56.9,17.1C56.8,17.1,56.9,17.1,56.9,17.1z"/>
	<path fill="#565656" d="M55.9,17l-0.2,0C55.8,17,55.9,17,55.9,17z"/>
	<path fill="#565656" d="M35.5,17.1c-0.1,0-0.1,0-0.2,0C35.4,17.1,35.5,17.1,35.5,17.1z"/>
	<polygon fill="#565656" points="55.6,17 55.3,17 55.3,17 	"/>
	<path fill="#565656" d="M57.2,17.1l-0.3,0C57,17.1,57.1,17.1,57.2,17.1z"/>
	<path fill="#565656" d="M46,17L46,17C45.8,17,45.9,17,46,17z"/>
	<polygon fill="#565656" points="54.5,17.1 54.5,17.1 54.4,17.1 	"/>
	<path fill="#565656" d="M58.2,17.1c0,0-0.1,0-0.1,0L58.2,17.1C58.2,17.1,58.2,17.1,58.2,17.1z"/>
	<path fill="#565656" d="M49.6,17.1C49.7,17.1,49.7,17,49.6,17.1C49.6,17,49.6,17,49.6,17.1z"/>
</g>
<g>
	<path fill="#565656" d="M22.5,10.4C22.5,10.4,22.5,10.4,22.5,10.4C22.5,10.4,22.5,10.4,22.5,10.4z"/>
	<path fill="#565656" d="M17.8,6.9L17.8,6.9C17.9,6.9,17.9,6.9,17.8,6.9z"/>
	<polygon fill="#565656" points="25.9,11.7 25.9,11.7 26.2,11.8 	"/>
	<path fill="#565656" d="M26.7,3.4L26.7,3.4L26.7,3.4z"/>
	<path fill="#565656" d="M20.1,3.2C20.1,3.2,20.1,3.1,20.1,3.2C20.1,3.1,20.1,3.2,20.1,3.2z"/>
	<path fill="#565656" d="M27.7,12.8L27.7,12.8C27.6,12.7,27.6,12.7,27.7,12.8z"/>
	<path fill="#565656" d="M31.4,13.5C31.4,13.5,31.4,13.5,31.4,13.5C31.4,13.5,31.4,13.5,31.4,13.5z"/>
	<path fill="#565656" d="M30,13l-0.1,0C29.9,13,30,13,30,13z"/>
	<path fill="#565656" d="M29.8,13L29.8,13C29.8,13,29.8,13,29.8,13z"/>
	<path fill="#565656" d="M32.1,12.9c0,0.1,0,0.2,0,0.3L32.1,12.9z"/>
	<path fill="#565656" d="M33,13L33,13C33,13,33,13,33,13z"/>
	<path fill="#565656" d="M32.5,13.1L32.5,13.1C32.5,13.1,32.5,13.1,32.5,13.1z"/>
	<path fill="#565656" d="M25.7,12.3c-0.1,0-0.3-0.1-0.3-0.1C25.5,12.3,25.6,12.3,25.7,12.3z"/>
	<path fill="#565656" d="M34.7,12.7L34.7,12.7L34.7,12.7z"/>
	<path fill="#565656" d="M32.5,13.1L32.5,13.1L32.5,13.1C32.5,13,32.5,13,32.5,13.1z"/>
	<polygon fill="#565656" points="43.3,7.3 43.3,7.3 43.2,7.3 	"/>
	<path fill="#565656" d="M43.7,6.8l-0.1,0.1C43.7,6.8,43.7,6.8,43.7,6.8z"/>
	<path fill="#565656" d="M32.2,13.2l0,0.2C32.2,13.3,32.2,13.3,32.2,13.2z"/>
	<path fill="#565656" d="M41.1,0.8L41.1,0.8C41.1,0.8,41.1,0.8,41.1,0.8z"/>
	<path fill="#565656" d="M19.7,3.4L19.7,3.4C19.6,3.5,19.6,3.5,19.7,3.4z"/>
	<polygon fill="#565656" points="24,1.1 24,1.1 24,1.1 	"/>
	<path fill="#565656" d="M23.7,1.1c0.1,0,0.2,0,0.3,0C23.9,1.1,23.8,1.1,23.7,1.1z"/>
	<path fill="#565656" d="M24.6,1.2L24.6,1.2L24.6,1.2z"/>
	<polygon fill="#565656" points="19.2,2.5 19.2,2.5 19.2,2.5 	"/>
	<path fill="#565656" d="M20.2,1.9C20.2,1.9,20.2,1.9,20.2,1.9C20.2,1.9,20.2,1.9,20.2,1.9z"/>
	<polygon fill="#565656" points="27.2,2.2 27.2,2.2 27.2,2.2 	"/>
	<path fill="#565656" d="M33.5,10.2c-0.4-0.9-1.1-2.1-1.6-2.9c-0.2-0.1-0.3-0.4-0.5-0.7l0.1-0.1l-0.2-0.2c0-0.1,0.1,0.2,0.1,0
		l-0.1-0.1c0,0-0.4-0.6-0.1-0.3c-0.2-0.3-0.4-0.6-0.6-0.9c-0.1-0.2-0.2-0.1-0.3-0.3c0-0.1,0.1,0.1,0.1,0c-0.4-0.7-0.7-0.6-1.2-1.1
		l0.1,0c-0.1-0.1-0.3-0.2-0.3-0.2c0,0.1,0.1,0.1,0.2,0.3c-0.1,0-0.2-0.2-0.3-0.1c-0.1-0.1-0.2-0.2-0.3-0.3C28.4,3.2,28.1,3,28,2.8
		c-0.1-0.1-0.3-0.1-0.5-0.2c-0.1-0.2,0.1,0-0.1-0.2l-0.1,0c-0.2-0.1-0.1-0.1-0.1-0.1C27,2.1,27,2.2,26.8,2l0.2,0
		c-0.2-0.1-0.3-0.2-0.5-0.3c0,0,0.1,0,0.2,0.1c-0.1-0.1-0.3-0.1-0.3-0.2c0,0,0.2,0.1,0.1,0.1C26.2,1.7,26,1.7,26,1.6l0.2,0
		c-0.3-0.1-0.2,0-0.5-0.2c0,0,0,0,0,0c-0.2,0-0.5-0.2-0.8-0.3l0.1,0c-0.1,0-0.2,0-0.3,0c0.2,0.1,0.1,0.1,0.1,0.1
		c-0.2-0.1-0.4,0-0.8-0.1c0,0,0.1-0.1,0.2,0c0.2-0.1,0.2-0.1,0.4-0.1c-0.2,0-0.4,0-0.3-0.1l-0.1,0.1c-0.1,0-0.2,0-0.2,0
		c0,0,0.2,0.1,0,0.1c-0.2,0-0.1-0.1-0.2-0.1c-0.3,0-0.1,0.1-0.5,0c0,0,0.1,0,0.1,0c-0.2,0-0.6,0-0.7,0c0,0,0-0.1,0.1-0.1l0,0
		c0.3-0.1-0.2,0-0.1-0.1c0,0.1-0.3,0.1-0.5,0.1l0.1,0c-0.5,0.3,0-0.1-0.5,0c-0.3,0.1,0.1,0-0.1,0.1c-0.2,0-0.3,0-0.6,0.1
		c-0.1,0-0.3,0-0.3,0c-0.2,0.1-0.5,0.2-0.6,0.3c0.3-0.1,0.3-0.2,0.6-0.3l-0.1,0.1c-0.2,0.1-0.5,0.3-0.7,0.3c0,0,0.1,0,0,0
		c-0.3,0.2-0.4,0.3-0.7,0.5c-0.1,0,0.1-0.1,0.2-0.2c-0.2,0.1-0.2,0.1-0.5,0.3c0,0,0.2-0.1,0.2-0.2l-0.3,0.2l0,0
		c0,0.1-0.2,0.2-0.4,0.3c-0.4,0.4-0.4,0.5-0.6,0.8c-0.1,0-0.1,0-0.1,0c0.1-0.1,0.1-0.1,0.1-0.1c-0.1,0.1-0.4,0.2-0.3,0.1
		c-0.2,0.2,0.1-0.1,0,0.1c-0.1,0.1-0.2,0.2-0.3,0.3c0.1,0,0.2-0.1,0.1,0.1l-0.3,0.4c0,0-0.1,0,0-0.1c-0.1,0.1-0.2,0.3-0.2,0.3
		c0.2-0.2-0.2,0.4,0,0.3c0,0.1-0.1,0.2-0.1,0.2c0-0.1,0-0.1,0-0.2C17,5.1,17,5.3,17,5.4c0,0.1-0.1,0.3-0.1,0.4c0,0.1,0,0.3-0.1,0.4
		c0,0.1,0,0,0.1,0.1c0,0.2,0,0.3,0,0.5c0,0-0.1,0.1-0.2,0c0.1,0.2,0.1,0,0.2,0.3c-0.1-0.1,0.1,0.4-0.1,0.2c0,0.2,0.2,0.6,0.3,0.8
		c0.1,0.1-0.1-0.2,0-0.3c0.4,0.5,0.5,0.5,0.8,0.8l-0.1-0.1c0.2,0.2,0.2,0.2,0.3,0.2c-0.1,0,0.1,0.4,0.5,0.6c0.1,0-0.2-0.2-0.1-0.2
		l0.2,0.2c0,0,0,0-0.1,0c0.2,0.1,0.3,0.4,0.5,0.3l0.2,0.2l-0.1-0.1c0,0,0.3,0.1,0.4,0.2c0.3,0.1,0.4,0.2,0.5,0.3
		c0-0.1-0.1-0.2,0.1-0.1c-0.1,0.1,0.4,0.3,0.4,0.3c0.1,0,0.2,0.1,0.3,0.1l0,0.1c0.1-0.1,0.4,0.1,0.6,0.2c-0.1,0.1,0.3,0.1,0.3,0.3
		c0.1-0.1,0.4,0.1,0.5,0.1c0.2,0.1,0.1,0.1,0.2,0.2l0.1,0c0.1,0.1,0.4,0.2,0.6,0.3l0.2,0l0.1,0.1c0,0,0.2,0,0.1,0l0.1,0
		c0-0.1,0.2,0,0.4,0.1c0,0,0,0,0,0c0.1,0,0,0.1,0.1,0.1c-0.1,0,0.4,0,0.2-0.2c0,0,0.2,0,0.3,0l0,0.1l0.2,0c0.2,0,0.2,0.1,0.4,0.2
		c-0.1,0-0.4,0.1,0,0.2c-0.2,0-0.3,0-0.4-0.1c0.1,0,0.1,0,0,0c0.3,0.1,0.1,0,0.4,0.1c0,0.1,0,0.1,0.3,0.2l-0.2-0.1c0,0,0,0,0,0
		c-0.1,0-0.1,0-0.1-0.1c0.1,0,0.3,0,0.4,0.1c-0.2-0.2,0.5,0.1,0.4-0.1c0,0,0.2,0,0.2,0.1c-0.2,0,0.1,0.1,0.1,0.2
		c0.1,0-0.2-0.1,0-0.1c0.1,0,0.2,0.1,0.3,0.2l-0.1,0l0.2,0.1c0,0-0.2-0.1,0-0.1c0,0,0.2,0.1,0.2,0.1c-0.1,0-0.1,0.1-0.2,0.1
		c0.1,0,0.6,0.1,0.4,0l0.2,0c-0.1-0.1-0.4-0.2,0-0.1l0,0l0.2,0l0.1,0.1c0,0,0,0,0.1,0c0,0,0.1,0.1,0.1,0.1c0.2,0.1,0.2,0,0.3,0
		c0.1,0,0.2,0.1,0.1,0.1c0.2,0.1,0.5,0.1,0.6,0.2c0.3,0,0,0,0.1,0c0.2,0.2,0.8,0.2,1.3,0.3c-0.1-0.1,0.1,0,0.2-0.1
		c-0.1,0,0.4,0.2,0,0.1l0.2,0c0.1,0.1-0.4,0-0.2,0.1c0.3,0.1,0.4,0,0.7,0.1c-0.1,0.1,0.2,0,0.1,0.1c-0.1,0-0.1,0-0.2,0l0,0
		c0.5,0.1,0.2-0.1,0.5-0.1c0.3,0.1,0.3,0.1,0.3,0.2c0,0,0.2,0,0.3,0c-0.2,0-0.4-0.1-0.3-0.2c0.1,0.1,0.5,0.1,0.6,0.1
		c-0.5-0.2-0.3-0.1-0.8-0.3c-0.1,0-0.1,0.1-0.3,0c0.2,0,0,0,0-0.1c0,0.1-0.2,0-0.3,0c-0.1-0.1,0.2-0.1-0.1-0.1l-0.1,0.1
		c-0.1,0,0.1-0.1-0.2-0.1c0.1,0,0-0.1,0.3,0c-0.3-0.2-0.6-0.1-0.9-0.1c0,0,0,0,0.1,0c-0.1,0-0.2,0-0.3,0c-0.2-0.1,0.2,0,0.1-0.1
		L29.8,13c0,0,0,0,0,0c-0.1,0-0.2,0-0.2,0c0.1,0,0.1,0,0.2-0.1l-0.3,0c0,0-0.2-0.1,0-0.1L29,12.7l0-0.1c-0.1,0-0.1,0,0,0
		c-0.2-0.1-0.7-0.1-0.6-0.2c-0.4,0-0.5-0.1-1-0.2c0.4,0-0.4-0.2,0-0.1c-0.2-0.1-0.3,0-0.4-0.1c-0.1-0.1-0.1-0.1,0.1-0.1l-0.2,0l0,0
		l-0.2,0c-0.2-0.1,0-0.1-0.2-0.1l-0.1,0.1l-0.1-0.1c0,0-0.1,0-0.2,0l0,0l-0.2,0c0.2,0-0.1-0.1-0.1-0.1c-0.1,0-0.1,0-0.4-0.1l0,0.1
		c-0.3-0.1,0-0.1-0.3-0.2l0,0.1c-0.4-0.2-0.7-0.2-0.9-0.3c0.2,0,0.1,0,0.1,0c-0.2-0.1-0.6-0.2-0.9-0.3c-0.1-0.1-0.1-0.1-0.3-0.3
		c-0.2-0.1-0.2-0.1-0.3-0.1c-0.2-0.1-0.5-0.2-0.5-0.2c-0.1,0-0.2-0.1-0.3-0.1l0,0l0,0.1c-0.3-0.2-0.6-0.2-0.8-0.4l0.1,0l-0.1,0
		c0,0,0,0,0.1,0l-0.6-0.3l0.1,0.1c-0.1-0.1-0.2-0.1-0.4-0.2c0.3,0.1-0.2-0.1-0.2-0.2l0.1,0.1c-0.2-0.1-0.2-0.1-0.2,0
		c-0.2-0.1-0.1-0.2-0.3-0.2l0.1,0.1c0,0.1-0.1,0-0.2,0c0,0-0.1-0.1,0,0c-0.2-0.1-0.4-0.3-0.5-0.3c-0.1-0.1,0-0.1,0-0.1
		c-0.4-0.2-0.1-0.1-0.5-0.3l0,0l-0.1-0.1l-0.1-0.2l0,0.1c-0.1-0.1-0.2-0.1-0.3-0.3l0.1,0c-0.3-0.3-0.2-0.4-0.5-0.6c0,0,0,0,0.1,0
		c-0.2-0.2-0.1-0.2-0.3-0.5c0,0,0,0,0,0l-0.1-0.1l0.1,0l-0.1-0.1l0-0.1l0,0c0.1-0.2,0-0.3,0.1-0.5l-0.1,0c-0.1-0.5,0.4-1,0.7-1.6
		l0,0l0.1-0.2c0.1-0.1,0,0.1,0,0.1c0.2-0.2,0-0.1,0.3-0.4c0.2-0.1,0,0.1-0.1,0.1c0.2-0.2,0.6-0.6,0.8-0.7c0,0,0,0,0,0
		C19.8,3.3,20,3.1,20.2,3c0,0,0,0.1-0.1,0.1c0.1,0,0.2-0.1,0.2-0.2L20.3,3c0.2-0.1,0.4-0.3,0.5-0.3c0,0,0-0.1,0.1-0.1
		c0.1,0,0.4-0.2,0.6-0.3c0,0-0.2,0.1-0.1,0.1c0.1,0,0.2-0.1,0.3-0.2l0,0c0.2-0.1,0.4-0.1,0.5-0.2c0.1,0.1,0.5-0.1,0.5,0
		c0.2,0-0.2,0,0.1-0.1c0.1,0,0.2,0,0.2,0l0,0l0.2,0l-0.1,0.1c0.2,0,0.3-0.1,0.3-0.1c0.1,0,0.4,0,0.4,0.1l-0.1,0c0.4,0,0.6,0.2,1,0.2
		c0,0,0,0,0,0l0.2,0.1l-0.1,0c0.1,0,0.3,0,0.4,0.1l0,0c0.3,0.1,0.7,0.3,1,0.5l-0.1,0c0.4,0.2,0.3,0.2,0.6,0.4c0,0,0,0,0,0l0.2,0.2
		l-0.1,0c0.2,0.1,0.4,0.4,0.3,0.3c0.1,0,0.3,0.2,0.3,0.1c0.2,0.2,0,0.1,0.1,0.2c0.2,0.1,0.2,0.1,0.4,0.4l0,0
		c0.1,0.1,0.2,0.1,0.3,0.3l0,0c0.3,0.2,0.2,0.3,0.4,0.4c0.1,0.1,0.2,0.3,0.2,0.3c0.3,0.3,0.5,0.5,0.7,0.8c0,0.1,0.1,0.1,0.1,0.3l0,0
		c0.3,0.5,0.6,1.1,0.9,1.6l0,0l0.1,0.1c0.3,0.6,0.7,1.3,0.9,1.8c0.1,0.1,0.3,0.4,0.4,0.6l0,0c0.2,0.4,0.5,0.9,0.6,1.4c0,0,0,0-0.1,0
		c0.1,0.1,0.1,0.3,0.2,0.4l0-0.1c0.1,0.1,0.1,0.3,0.1,0.4l0.1,0.2c0,0,0,0,0,0l0,0c0,0,0,0.1,0,0.2c0.1,0.1,0.3,0.6,0.4,0.7
		c0,0.1,0.1,0.4,0,0.2l0.3,0.9c0.1-0.1,0.3-0.2,0.4-0.3L34,14.8c0-0.1,0.4-0.3,0.5-0.4c-0.2,0.2,0,0.1,0.1,0.1
		c0.2-0.1-0.1,0-0.1-0.1c0.2-0.2,0.6-0.5,0.7-0.5L35.2,14c0.1-0.1,0.3-0.2,0.4-0.2c0.1,0,0.1-0.1,0.2-0.1c0.1-0.1,0.3-0.2,0.2-0.2
		c0.2-0.2,0.1,0,0.2-0.1c0.1-0.1,0.4-0.3,0.5-0.3c0-0.2,0.6-0.4,0.6-0.5l0.2-0.1c0,0,0-0.1,0.1-0.2c0.1-0.1,0.1,0,0.2,0l0-0.2
		c0.8-0.5,1.8-1.3,2.6-1.9c0.3-0.3,0.7-0.7,1.2-1.1l0,0.1l0.4-0.4l-0.3,0.2c0.1-0.1,0.1-0.2,0.2-0.2c0.5-0.4,1.1-0.9,1.5-1.5
		c0.2-0.5,0.3-0.2,0.5-0.6c0,0,0,0.1,0,0.1c0.3-0.4,0.4-0.7,0.6-1.2c0.1,0.1,0.2-0.3,0.2-0.2l0-0.1c0.1-0.1,0.2-0.4,0.2-0.3
		c0-0.1,0-0.2,0-0.3l0.1,0c0.1-0.3,0.1-1.1,0.2-1.4c-0.1-0.5-0.5-1.1-1-1.5c-0.5-0.4-1-0.6-1.5-0.8c-0.1,0-0.4-0.1-0.6-0.1l-0.2-0.1
		c-0.2,0-0.5,0-0.7-0.1c0,0,0,0,0,0c-0.2,0-0.4-0.1-0.7,0c-0.2,0-0.5,0-0.4-0.1c0,0.1-0.5,0-0.5,0c0,0-0.9,0-2,0.6
		c-1.2,0.5-2.5,1.8-3.3,3.3c-1.7,3.1-2.1,6.8-1.9,8.3c0,0.1,0.1,0.4,0.1,0.3c0,0.2-0.1,0.3,0,0.3c0-0.3,0.1,0.1,0.2-0.2l0,0.2
		c0,0,0-0.2,0-0.2l-0.1-0.1c0-0.1,0-0.2,0.1-0.3c0-0.1-0.1-0.2-0.1-0.5l0,0.1c0-0.3,0.1-0.2,0.1-0.2l0,0.1l0.1-0.2
		c-0.1,0.2,0,0.4,0,0.3c0.1-0.3,0,0.1,0-0.2c0-0.1,0.1-0.1,0.1-0.1l0-0.3c0,0,0,0.2,0,0.1l0-0.3c0.1,0,0-0.4,0.1-0.5
		c0,0.2,0,0,0.1,0l0.1-0.6c0-0.1,0,0.2,0,0.1c0-0.1,0-0.2,0-0.2c0,0,0.1-0.4,0.1-0.4c0.1-0.4-0.1-0.2,0.1-0.5c0.1,0,0,0.3,0,0.1
		l0.1-0.4c0,0,0.1,0.1,0,0.2c0.3-1,0.6-1.4,0.9-2.3c0.1-0.1,0,0.1,0,0.2c0.1-0.6,0.4-0.8,0.6-1.3l0,0c0.4-0.6,0.8-1.5,1.4-2.1
		l-0.1,0.1c0-0.1,0.2-0.3,0.2-0.4c0,0,0,0.1,0.1-0.1c0,0-0.1,0.1-0.1,0.1c0.3-0.2,0.7-0.6,1.2-0.9c0.5-0.3,1.1-0.5,1.6-0.6
		c0.7-0.2,1.5-0.1,2.3,0c0.8,0.2,1.5,0.5,1.9,0.9c-0.1-0.1,0-0.1,0.1,0c0,0.2,0.1,0.3,0.1,0.4c0,0.1,0.1,0.3,0,0.5
		c-0.1,0.7-0.7,1.4-1.1,2.1l-0.1,0c-0.1,0.1-0.1,0.1-0.2,0.2l0,0c-0.2,0.2-0.4,0.6-0.6,0.7l0,0c-0.1,0.1-0.1,0-0.2,0.2l0,0l-0.1,0.2
		c-0.1-0.1-0.4,0.4-0.5,0.5c-0.2,0.2-0.5,0.5-0.8,0.8c-0.1,0-0.4,0.3-0.7,0.5c-0.4,0.4-1.1,0.9-1.7,1.4l0.1,0l-0.2,0.1c0,0,0,0,0,0
		c-0.2,0-0.3,0.3-0.5,0.3c0.1,0,0.1-0.1,0.2-0.1c0.1-0.1,0.1,0.1-0.1,0.2l0,0l-0.1,0.1c0,0-0.2,0-0.2,0c-0.5,0.4-0.8,0.7-1.4,1.1
		c0-0.1-0.4,0.3-0.3,0.1c-0.3,0.3,0.1,0,0,0.2c-0.1,0.1-0.2,0.2-0.2,0.1c0,0-0.1,0,0-0.1l-0.1,0c0,0,0,0,0,0
		c-0.1,0.1-0.2,0.1-0.2,0.1c0,0,0-0.1,0-0.1c0,0,0,0.1,0,0.1c-0.1-0.1,0-0.2-0.1-0.2l0.1,0c0,0-0.1-0.1-0.2-0.3
		c0-0.1,0.1,0.2,0.2,0.3c-0.1-0.2-0.2-0.6-0.2-0.4c-0.1-0.2-0.1-0.3-0.1-0.4c0,0,0,0.2,0,0.1c-0.1-0.3-0.2-0.7-0.4-1c0,0,0,0,0,0
		C33.5,10.6,33.7,10.5,33.5,10.2z"/>
	<path fill="#565656" d="M19.1,2.5l0.1-0.1c0,0,0,0,0-0.1L19.1,2.5z"/>
	<path fill="#565656" d="M25.7,1.5L25.7,1.5C25.7,1.4,25.7,1.4,25.7,1.5z"/>
	<path fill="#565656" d="M27.2,2.2C27.1,2.1,27.2,2.2,27.2,2.2C27.2,2.2,27.2,2.2,27.2,2.2z"/>
	<path fill="#565656" d="M16.9,5.7C16.9,5.7,16.8,5.7,16.9,5.7C16.8,5.7,16.8,5.8,16.9,5.7z"/>
	<path fill="#565656" d="M24.6,12L24.6,12C24.6,12,24.6,12,24.6,12z"/>
	<path fill="#565656" d="M24.1,11.7c0,0-0.1,0-0.1,0C24,11.7,24.1,11.7,24.1,11.7z"/>
	<path fill="#565656" d="M18.2,3.5C18.2,3.4,18.3,3.4,18.2,3.5C18.2,3.4,18.2,3.4,18.2,3.5z"/>
	<polygon fill="#565656" points="23.9,11.6 23.7,11.6 23.7,11.6 	"/>
	<path fill="#565656" d="M24.8,12L24.6,12C24.7,12,24.7,12,24.8,12z"/>
	<path fill="#565656" d="M18.8,9.1L18.8,9.1C18.7,9.1,18.7,9.1,18.8,9.1z"/>
	<polygon fill="#565656" points="23.3,11.5 23.2,11.5 23.2,11.5 	"/>
	<path fill="#565656" d="M25.4,12.2C25.3,12.2,25.3,12.2,25.4,12.2L25.4,12.2C25.4,12.3,25.4,12.2,25.4,12.2z"/>
	<path fill="#565656" d="M20.6,10.3C20.6,10.3,20.7,10.3,20.6,10.3C20.6,10.3,20.6,10.3,20.6,10.3z"/>
</g>
<path fill="#565656" d="M33.8,16"/>
<g>
	<line fill="#565656" x1="33.8" y1="65.9" x2="33.8" y2="15.5"/>
	<g>
		<path fill="#565656" d="M33.1,22.3C33.1,22.3,33.1,22.3,33.1,22.3C33.1,22.3,33.1,22.3,33.1,22.3z"/>
		<path fill="#565656" d="M32.8,26.3L32.8,26.3C32.8,26.2,32.8,26.2,32.8,26.3z"/>
		<polygon fill="#565656" points="33.3,19.9 33.3,19.9 33.3,19.7 		"/>
		<path fill="#565656" d="M32.4,34.7L32.4,34.7C32.4,34.7,32.4,34.7,32.4,34.7z"/>
		<path fill="#565656" d="M32.7,29.7C32.7,29.7,32.7,29.7,32.7,29.7C32.7,29.7,32.7,29.7,32.7,29.7z"/>
		<path fill="#565656" d="M34.4,18.6L34.4,18.6C34.4,18.7,34.4,18.7,34.4,18.6z"/>
		<path fill="#565656" d="M34.1,16.2L34.1,16.2C34.1,16.2,34.1,16.2,34.1,16.2z"/>
		<path fill="#565656" d="M33.8,17.2C33.8,17.2,33.8,17.2,33.8,17.2C33.8,17.2,33.8,17.2,33.8,17.2z"/>
		<path fill="#565656" d="M33.9,17.3L33.9,17.3C33.8,17.3,33.8,17.3,33.9,17.3z"/>
		<path fill="#565656" d="M32.8,65.5c0,0.1,0.1,0.1,0.1,0.2L32.8,65.5z"/>
		<path fill="#565656" d="M32.4,42.4L32.4,42.4C32.4,42.4,32.4,42.4,32.4,42.4z"/>
		<path fill="#565656" d="M33.5,65.6L33.5,65.6C33.5,65.6,33.5,65.6,33.5,65.6z"/>
		<path fill="#565656" d="M34.6,19.9c0.1,0.1,0,0.2,0.1,0.2C34.7,20.1,34.7,20,34.6,19.9z"/>
		<path fill="#565656" d="M35.2,44L35.2,44C35.2,44,35.2,44,35.2,44z"/>
		<path fill="#565656" d="M33.5,65.6L33.5,65.6L33.5,65.6C33.5,65.6,33.5,65.6,33.5,65.6z"/>
		<polygon fill="#565656" points="32.4,50.4 32.4,50.4 32.3,50.4 		"/>
		<path fill="#565656" d="M32.2,50.8L32.2,50.8C32.2,50.8,32.2,50.8,32.2,50.8z"/>
		<path fill="#565656" d="M32.9,65.7l0.1,0.1C33,65.8,32.9,65.7,32.9,65.7z"/>
		<path fill="#565656" d="M32.3,55.4L32.3,55.4C32.3,55.4,32.3,55.4,32.3,55.4z"/>
		<path fill="#565656" d="M32.7,29.4C32.7,29.4,32.7,29.4,32.7,29.4C32.7,29.3,32.7,29.3,32.7,29.4z"/>
		<polygon fill="#565656" points="34.7,32.5 34.7,32.5 34.7,32.5 		"/>
		<path fill="#565656" d="M34.6,32.4c0,0.1,0,0.1,0.1,0.2C34.7,32.5,34.7,32.4,34.6,32.4z"/>
		<path fill="#565656" d="M34.7,32.9L34.7,32.9C34.7,32.9,34.7,32.9,34.7,32.9z"/>
		<polygon fill="#565656" points="34.8,29.5 34.8,29.5 34.8,29.5 		"/>
		<path fill="#565656" d="M34.8,30.2C34.8,30.2,34.8,30.2,34.8,30.2C34.8,30.2,34.8,30.2,34.8,30.2z"/>
		<polygon fill="#565656" points="34.9,34.6 34.9,34.6 34.9,34.6 		"/>
		<path fill="#565656" d="M35.4,40.9c0-0.6-0.2-1.5-0.2-2.1c-0.2-0.1-0.2-0.3-0.2-0.5l0.2,0l-0.1-0.2c0.1-0.1,0,0.1,0.1,0L35.2,38
			c0.1,0,0-0.4,0.2-0.1l0-0.7c0-0.1-0.2-0.1-0.1-0.2c0.1,0,0,0.1,0.1,0c0.2-0.5-0.4-0.6-0.3-1l0,0c-0.1-0.1,0-0.2-0.1-0.2
			c-0.2,0.1,0.1,0.1,0,0.2c-0.2,0-0.1-0.2-0.2-0.2c0.1-0.1,0-0.2,0-0.3c0.1-0.2,0-0.4,0.2-0.5c-0.1-0.1-0.2-0.2-0.2-0.3
			c0.1-0.1,0.1,0,0.2-0.1l-0.1,0c0-0.1,0-0.1,0.1-0.1c0-0.1-0.1-0.1-0.1-0.3l0.1,0.1c0-0.1,0-0.2,0-0.4c0.1,0,0.1,0.1,0,0.1
			c0.1-0.1-0.1-0.2,0-0.2c0,0-0.1,0.1-0.2,0.1c0-0.1-0.1-0.2,0-0.3l0.1,0.1c-0.1-0.2-0.1-0.1-0.1-0.3c0,0,0,0,0.1,0
			c-0.1-0.1,0-0.3,0-0.5l0,0c0-0.1-0.1-0.1-0.1-0.2C34.6,33,34.6,33,34.5,33c0.2-0.2-0.2-0.2-0.1-0.5c0.1,0,0.1,0.1,0.1,0.1
			c0.2,0.1,0.3,0.1,0.4,0.2c0-0.1-0.1-0.2,0-0.2l-0.2,0c0-0.1,0-0.1,0-0.1c-0.1,0-0.2,0.1-0.2,0c-0.1-0.1,0.2-0.1,0.1-0.1
			c-0.1-0.2-0.2-0.1-0.1-0.3c0,0,0,0.1,0,0.1c0.1-0.1,0-0.3,0.2-0.4c0,0,0.1,0,0.1,0.1l0,0c0.1,0.2,0-0.1,0.1-0.1
			c-0.1,0-0.1-0.2-0.1-0.3l-0.1,0c-0.3-0.3,0.2,0,0.2-0.3c-0.1-0.2,0,0.1-0.1,0c0-0.1,0.1-0.2,0.1-0.4c0-0.1,0.1-0.2,0.2-0.2
			c-0.1-0.1,0.1-0.3-0.1-0.4c-0.1,0.2,0.1,0.2,0,0.4l-0.1-0.1c0-0.2-0.1-0.4,0-0.5c0,0-0.1,0-0.1,0c0-0.2-0.2-0.3-0.1-0.5
			c0.1,0,0.1,0.1,0.1,0.2c0.1-0.1,0-0.1,0-0.4c0.1,0,0,0.1,0.1,0.2l0-0.2h0c-0.2,0,0-0.2,0-0.3c0-0.3-0.2-0.4-0.4-0.6
			c0-0.1,0.1-0.1,0.1,0c-0.1,0.1,0,0.1,0,0.1c0-0.1,0.2-0.3,0.2-0.2c0-0.2-0.1,0.1-0.1,0l0-0.3c-0.1,0-0.1,0.1-0.2,0
			c0-0.1,0-0.2,0-0.3c0,0,0.1,0,0.1,0.1c0-0.1,0-0.2,0-0.2c-0.1,0.2-0.1-0.3-0.2-0.1l0.1-0.2c0,0,0.1,0,0,0.1c0.1,0,0-0.1,0-0.2
			c0-0.1,0-0.2,0.1-0.2c0,0,0-0.2,0.1-0.2c0-0.1-0.1,0-0.1,0l0-0.3c0.1,0,0.3,0,0.3,0c-0.1-0.1-0.2,0-0.2-0.2
			c0.1,0.1,0.1-0.2,0.3-0.1c0.1-0.1,0.1-0.3,0.1-0.4c-0.1-0.1-0.1,0.1-0.2,0.1c0-0.4-0.4-0.4-0.3-0.7l0,0.1
			c-0.1-0.2-0.1-0.1-0.1-0.2c0.1,0,0.4-0.2,0.4-0.5c-0.1,0-0.1,0.2-0.3,0.1l0-0.2c0,0,0,0,0.1,0c-0.1-0.2,0.2-0.3,0-0.4l0.2-0.2
			l-0.1,0.1c-0.1,0-0.1-0.2-0.1-0.2c-0.1-0.2,0-0.3,0.1-0.4c-0.1,0-0.2,0.1-0.2,0c0.2,0,0.1-0.3,0.2-0.3c0-0.1,0.1-0.2,0-0.2l0.1,0
			c-0.2,0-0.2-0.2-0.2-0.4c0.3,0,0-0.2,0.2-0.3c-0.2,0-0.1-0.3-0.2-0.3c0-0.1,0.2-0.1,0.2-0.1L34.5,22c0.1-0.1,0.1-0.3,0.2-0.4
			l-0.2-0.1l0.1,0c0,0-0.1-0.1-0.1-0.1l0-0.1c-0.2,0,0-0.1-0.1-0.2c0,0,0.1,0,0.1,0c0-0.1,0.1,0,0.2-0.1c0,0.1-0.3-0.3-0.4-0.1
			c-0.1,0-0.1-0.1-0.1-0.2l0.2,0l-0.2-0.1c0-0.1,0.1-0.2,0.1-0.2c0,0.1,0.3,0.2,0.3,0c0,0.1,0.1,0.2,0.1,0.2c0,0,0-0.1,0.1,0
			c0-0.2-0.1-0.1-0.1-0.2c0.1,0,0.2,0,0.2-0.2l-0.1,0.1c0,0,0,0,0,0c0,0,0,0.1-0.1,0.1c0,0-0.2-0.2-0.1-0.2
			c-0.2,0.2-0.2-0.3-0.3-0.2c0,0,0-0.1,0-0.2c0.1,0.2,0.2-0.1,0.3-0.1c0-0.1-0.1,0.1-0.2,0c0-0.1,0.1-0.2,0.1-0.2l0,0l0.1-0.1
			c-0.1,0-0.1,0.1-0.2,0c0,0,0-0.2,0.1-0.2c0.1,0.1,0.2,0,0.3,0.1c0-0.1,0-0.4-0.2-0.3l0-0.1c-0.1,0.1-0.2,0.3-0.2,0l0,0l-0.1-0.2
			l0.1-0.1c0,0-0.1,0-0.1-0.1c0,0,0.1-0.1,0.1-0.1c0-0.2-0.1-0.2-0.1-0.2c0-0.1,0-0.1,0.1-0.1c0-0.1,0-0.3,0.1-0.4
			c-0.1-0.2,0,0-0.1-0.1c0.3-0.1,0.1-0.6,0.1-0.8c-0.2,0.1,0-0.1-0.2-0.1c0.1,0.1,0.2-0.3,0.2,0l0-0.1c0.1-0.1,0.1,0.2,0.3,0.1
			c0-0.2-0.2-0.3-0.2-0.5c0.2,0.1-0.1-0.1,0.1-0.1c0.1,0,0,0.1,0.1,0.1l0,0c0-0.4-0.2-0.1-0.3-0.3c0-0.2,0.1-0.2,0.2-0.2
			c0,0,0-0.1,0-0.2c0.1,0.1-0.1,0.2-0.2,0.2c0.2-0.1,0-0.3-0.1-0.4c-0.2,0.3,0,0.2-0.2,0.5c0.1,0,0.2,0,0.1,0.2
			c-0.1-0.1-0.1,0-0.1,0c0.1,0,0,0.1,0.1,0.2c-0.1,0-0.2-0.1-0.2,0.1l0.2,0c0,0.1-0.2,0-0.1,0.1c-0.1-0.1-0.2,0-0.2-0.2
			c-0.2,0.2,0.1,0.4,0.2,0.6c0,0,0,0-0.1,0c0.1,0,0.1,0.1,0.1,0.2c0,0.1-0.1-0.1-0.2-0.1l0,0.2c0,0,0,0,0,0c0,0.1,0,0.1,0,0.1
			c-0.1-0.1-0.1-0.1-0.2-0.1l0.1,0.2c-0.1,0-0.1,0.2-0.2,0l0,0.3l-0.1,0c0,0.1,0.1,0.1,0.1,0c0,0.1,0.3,0.5,0,0.4
			c0.1,0.2,0.1,0.3,0.1,0.6c-0.1-0.2-0.2,0.3-0.2,0c-0.1,0.1,0.1,0.2,0.1,0.3c-0.1,0.1-0.2,0.1-0.3-0.1l0.1,0.1l0,0l0.1,0.1
			c-0.1,0.1-0.1,0-0.2,0.2l0.1,0l-0.1,0.1c0.1,0,0.1,0,0.1,0.1l0,0l0,0.1c-0.1-0.1,0,0.1-0.1,0.1c0,0.1,0,0.1,0,0.3l0.1,0
			c0.1,0.2-0.1,0-0.1,0.2l0.1,0c-0.2,0.3,0.1,0.4,0,0.6c0-0.1-0.1-0.1-0.1-0.1c0,0.2,0,0.4,0.1,0.6c-0.1,0.1-0.2,0.1-0.3,0.3
			c0,0.1,0,0.1,0.1,0.2c-0.1,0.1,0,0.4-0.1,0.4c0.1,0,0,0.1,0.1,0.2l0,0l0.1,0c-0.2,0.2,0.1,0.4-0.1,0.6l0,0l0,0.1c0,0-0.1,0-0.1,0
			l0,0.4l0.1-0.1c0,0.1,0.1,0.2,0,0.3c-0.2-0.2,0,0.1-0.1,0.2l0-0.1c0,0.1,0,0.1,0.1,0.1c0,0.2-0.2,0.1-0.1,0.3l0-0.1
			c0.1,0,0.1,0,0.1,0.1c0,0-0.1,0.1-0.1,0c0,0.1,0,0.3,0,0.4c0,0.1-0.1,0-0.1,0c0.1,0.3,0,0.1,0.1,0.4L33,25l0.1,0.1L33,25.2l0.1,0
			c0,0.1,0.1,0.1,0,0.3l-0.1,0c0,0.3-0.1,0.3,0,0.5c0,0,0,0-0.1,0c0.1,0.2-0.2,0.2,0,0.4c0,0-0.1,0-0.1,0l0.1,0.1l-0.1,0l0.2,0.1
			l-0.1,0.1l0.1,0c-0.2,0.1-0.1,0.3-0.2,0.4l0.1,0c0.3,0.4-0.2,0.9,0,1.3l-0.1,0l0.1,0.2c-0.1,0.1-0.1-0.1-0.2,0
			c0.1,0.2,0.2,0.1,0.2,0.3c-0.1,0.1-0.1,0-0.1-0.1c0.1,0.2,0.1,0.5,0.1,0.7c0,0,0,0,0,0c0.1,0.1,0,0.3,0,0.5c-0.1,0-0.1,0-0.1-0.1
			c0,0.1,0,0.1,0,0.2l-0.1-0.1c0,0.1,0.1,0.4,0,0.4c0,0,0.1,0,0.1,0.1c-0.2,0.1,0.1,0.3,0,0.5c0,0-0.1-0.1-0.1-0.1
			c0,0.1,0,0.2,0.1,0.2l-0.1,0l0.1,0.4c-0.2,0.1,0,0.4-0.1,0.4c0,0.1,0.1-0.1,0.1,0.1c-0.1,0,0,0.2-0.1,0.2l0,0l0,0.1L32.6,32
			c0,0.1,0.1,0.2,0.2,0.2c-0.1,0.1,0,0.3-0.1,0.3l0,0c0,0.3-0.3,0.5-0.1,0.7c0,0,0,0,0,0l0,0.2l-0.1,0l0.1,0.3l-0.1,0
			c0,0.2,0,0.5,0,0.8l0,0c0.1,0.3-0.1,0.3,0,0.5c0,0,0,0,0,0l0,0.2l-0.1,0c0.1,0.1-0.2,0.4-0.1,0.3c0.1,0.1,0.1,0.2,0.2,0.2
			c0,0.2-0.1,0-0.1,0.2c0,0.1,0.1,0.2,0,0.4l-0.1,0c0,0.1,0.1,0.1,0.1,0.3l0,0c0.1,0.2-0.2,0.3,0.1,0.4c0,0.1,0,0.3-0.1,0.2
			c0.1,0.3,0.1,0.5,0.2,0.7c-0.2,0,0,0.1-0.1,0.2l0.1,0c0,0.4-0.2,0.8-0.2,1.2l-0.1,0l0.1,0.1c0,0.4-0.1,1-0.1,1.3
			c0.1,0.1,0.2,0.3,0.1,0.5l0,0c0.1,0.3,0.1,0.6,0,1c0,0-0.1,0-0.1,0c0.1,0.1,0,0.2,0,0.3l0.1-0.1c0.1,0.1,0,0.2-0.1,0.3l0.1,0.2
			c0,0,0,0,0,0l0.1,0l-0.1,0.1c0,0,0.1,0.2,0.2,0.3c0,0-0.1,0.2-0.1,0l0,0.6l0-0.1c0.1,0,0.2,0.2,0.1,0.2c-0.1-0.1-0.1,0-0.2,0
			c0.1,0.1,0.1-0.1,0.1,0c0.1,0.1,0.1,0.3,0.1,0.3l0-0.1c0,0.1-0.1,0.2-0.1,0.3c0.1,0.1,0,0.2,0.2,0.2c0,0.2-0.1,0.1-0.1,0.1
			c0.1,0.1,0,0.3-0.1,0.3c0.3,0.1-0.1,0.4,0.1,0.5l-0.1,0.1c0.1,0,0.2,0,0.2,0.1c-0.1,0.1-0.2,0.1-0.2,0.1l0.2,0.1
			c-0.2,0.6-0.1,1.4-0.3,2c0,0.3,0.1,0.7,0.1,1l0,0l-0.1,0.3l0.1-0.2c0,0.1,0.1,0.1,0.1,0.2c-0.1,0.4-0.2,0.9-0.1,1.3
			c0.2,0.3-0.2,0.2,0,0.5c0,0-0.1,0-0.1-0.1c0.1,0.3,0.1,0.5,0.3,0.8c-0.2,0,0,0.2-0.1,0.2l0.1,0c-0.1,0.1-0.1,0.2-0.2,0.2l0.1,0.1
			l-0.1,0c0,0.2,0.1,0.6-0.1,0.7c0.2,0.4,0.1,1.1,0.1,1.7c0.1,0.1,0.1,0.2,0.1,0.4L32.3,55c0,0.1,0.2,0.3,0.1,0.4c0,0,0,0,0,0
			c0,0.1,0,0.3,0.1,0.4c0,0.1-0.1,0.3-0.2,0.2c0.2,0,0,0.3,0,0.3s-0.5,7.4,0.6,9.2c0.1,0.1,0.2,0.2,0.3,0.2c0,0.1-0.1,0.2,0,0.2
			c0.1-0.2,0.3,0.1,0.4-0.1l0,0.1c0.1,0-0.1-0.2,0-0.1l-0.2,0c0-0.1,0.1-0.1,0.1-0.2c-0.1-0.1-0.3-0.1-0.2-0.3l0,0.1
			c0-0.2,0.1-0.1,0.2-0.1l0,0l0.1-0.1c-0.1,0.1,0.1,0.3,0.1,0.2c0.1-0.2,0,0.1-0.1-0.1c0-0.1,0.1-0.1,0.1-0.1l0-0.2
			c0.1,0,0,0.1,0.1,0l-0.1-0.2c0.2,0-0.1-0.2,0.1-0.3c0.1,0.1,0.1,0,0.1,0l0-0.4c0,0,0.1,0.1,0.1,0C34,64,33.9,64,33.9,64
			c0.1,0,0-0.3,0.1-0.3c0.1-0.2-0.2-0.1-0.1-0.3c0.1,0,0,0.2,0.1,0.1l0-0.2c0,0,0.1,0,0.1,0.1c0.1-0.6,0.6-1,0.5-1.6
			c0.1-0.1,0.1,0.1,0.1,0.1c-0.1-0.4,0.2-0.6,0.2-1l-0.1,0c0.3-0.5,0.1-1.1,0.2-1.7L35,59.3c-0.1-0.1-0.1-0.2-0.1-0.3
			c0,0,0.2,0.1,0.1-0.1c0,0-0.1,0.1-0.1,0.1c0.2-0.5,0.2-1.5,0.3-2.3c-0.1-1.1,0.1-2.3,0-3.3c0,0.2-0.2,0.1-0.2,0
			c0.4-0.3-0.1-0.6,0.2-0.9c-0.1-0.6,0.2-1.2-0.1-1.8l0.1,0c0-0.1,0-0.1,0-0.2l0,0c0-0.2-0.1-0.5,0-0.6l-0.1,0c0-0.1,0.1-0.1,0-0.2
			l0.1,0l-0.1-0.2c0.2,0,0-0.4,0.1-0.5c0-0.2-0.1-0.5-0.1-0.7c0.1,0,0.1-0.4,0.2-0.5c0-0.4-0.1-0.9,0-1.4l-0.1,0l0-0.1
			c0,0,0,0,0.1,0c0.1-0.1,0-0.3,0-0.4c-0.1,0.1,0,0.1,0,0.2c-0.1,0.1-0.2,0-0.1-0.1l0,0l-0.1-0.1c0.1,0,0.1-0.1,0.3-0.1
			c0-0.4-0.2-0.7-0.2-1.1c0.1,0,0-0.3,0.2-0.2c-0.1-0.3-0.2,0-0.3-0.1c0-0.1-0.1-0.1,0-0.2c0,0,0.1-0.1,0.1,0l0-0.2c0,0,0,0,0.1,0
			c-0.1-0.4,0.1-0.6,0-0.9c-0.1,0,0,0.1-0.1,0.1c-0.1-0.3,0.1-0.3,0-0.6l0.1,0.1c-0.1-0.1-0.2-0.1-0.1-0.3c0.1,0,0.1,0.1,0.1,0.2
			c0-0.1,0-0.4-0.1-0.3c0-0.1,0.1-0.2,0.1-0.2c0,0-0.1,0.1-0.1,0c0.1-0.2,0.1-0.4,0.1-0.7c0,0,0.1,0,0.1,0
			C35.2,41.1,35.5,41.1,35.4,40.9z"/>
		<path fill="#565656" d="M34.8,29.4L34.8,29.4c0,0.1,0,0.1,0.1,0.1L34.8,29.4z"/>
		<path fill="#565656" d="M34.8,33.5C34.8,33.6,34.8,33.6,34.8,33.5C34.8,33.6,34.8,33.5,34.8,33.5z"/>
		<path fill="#565656" d="M35,34.5C34.9,34.5,34.9,34.5,35,34.5C34.9,34.6,34.9,34.6,35,34.5z"/>
		<path fill="#565656" d="M34.5,27.1C34.5,27.1,34.6,27.1,34.5,27.1C34.6,27.1,34.5,27.1,34.5,27.1z"/>
		<path fill="#565656" d="M34.6,20.6L34.6,20.6C34.6,20.7,34.6,20.6,34.6,20.6z"/>
		<path fill="#565656" d="M34.4,21C34.4,21,34.4,21,34.4,21C34.5,21,34.5,21,34.4,21z"/>
		<path fill="#565656" d="M34.6,28.7C34.6,28.7,34.6,28.7,34.6,28.7C34.6,28.7,34.6,28.7,34.6,28.7z"/>
		<polygon fill="#565656" points="34.5,21.1 34.5,21.2 34.5,21.2 		"/>
		<path fill="#565656" d="M34.6,20.5c0,0,0,0.1,0,0.1C34.7,20.6,34.7,20.6,34.6,20.5z"/>
		<path fill="#565656" d="M34.4,24.7L34.4,24.7C34.4,24.8,34.4,24.8,34.4,24.7z"/>
		<polygon fill="#565656" points="34.7,21.5 34.7,21.5 34.7,21.6 		"/>
		<path fill="#565656" d="M34.7,20.1C34.7,20.1,34.7,20.2,34.7,20.1L34.7,20.1C34.7,20.1,34.7,20.1,34.7,20.1z"/>
		<path fill="#565656" d="M34.6,23.4C34.5,23.3,34.5,23.3,34.6,23.4C34.5,23.4,34.5,23.4,34.6,23.4z"/>
	</g>
</g>
<g>
	<line fill="#565656" x1="3.2" y1="41.7" x2="61.7" y2="41.7"/>
	<g>
		<path fill="#565656" d="M53.8,41.1C53.8,41.1,53.8,41.1,53.8,41.1C53.8,41.1,53.8,41.1,53.8,41.1z"/>
		<path fill="#565656" d="M49.2,40.8L49.2,40.8C49.2,40.8,49.2,40.8,49.2,40.8z"/>
		<polygon fill="#565656" points="56.5,41.3 56.5,41.3 56.7,41.3 		"/>
		<path fill="#565656" d="M39.4,40.4L39.4,40.4C39.4,40.4,39.4,40.4,39.4,40.4z"/>
		<path fill="#565656" d="M45.2,40.7C45.2,40.7,45.1,40.7,45.2,40.7C45.1,40.7,45.2,40.7,45.2,40.7z"/>
		<path fill="#565656" d="M58,42.4L58,42.4C57.9,42.4,58,42.4,58,42.4z"/>
		<path fill="#565656" d="M60.8,42.1L60.8,42.1C60.8,42.1,60.8,42.1,60.8,42.1z"/>
		<path fill="#565656" d="M59.7,41.8C59.7,41.8,59.7,41.8,59.7,41.8C59.7,41.8,59.7,41.8,59.7,41.8z"/>
		<path fill="#565656" d="M59.6,41.8L59.6,41.8C59.6,41.8,59.6,41.8,59.6,41.8z"/>
		<path fill="#565656" d="M3.7,40.8c-0.1,0-0.1,0.1-0.2,0.1L3.7,40.8z"/>
		<path fill="#565656" d="M30.5,40.4L30.5,40.4C30.5,40.3,30.5,40.4,30.5,40.4z"/>
		<path fill="#565656" d="M3.6,41.4L3.6,41.4C3.6,41.4,3.6,41.4,3.6,41.4z"/>
		<path fill="#565656" d="M56.5,42.6c-0.1,0.1-0.2,0-0.2,0.1C56.4,42.6,56.5,42.7,56.5,42.6z"/>
		<path fill="#565656" d="M28.6,43.2L28.6,43.2C28.6,43.2,28.6,43.2,28.6,43.2z"/>
		<path fill="#565656" d="M3.6,41.4L3.6,41.4L3.6,41.4C3.6,41.4,3.6,41.4,3.6,41.4z"/>
		<polygon fill="#565656" points="21.2,40.3 21.2,40.3 21.2,40.3 		"/>
		<path fill="#565656" d="M20.7,40.2l0.1,0C20.8,40.2,20.7,40.2,20.7,40.2z"/>
		<path fill="#565656" d="M3.5,40.9l-0.1,0.1C3.4,40.9,3.4,40.9,3.5,40.9z"/>
		<path fill="#565656" d="M15.4,40.3L15.4,40.3C15.4,40.3,15.4,40.3,15.4,40.3z"/>
		<path fill="#565656" d="M45.6,40.7C45.6,40.7,45.6,40.7,45.6,40.7C45.6,40.7,45.6,40.7,45.6,40.7z"/>
		<polygon fill="#565656" points="41.9,42.7 41.9,42.7 41.9,42.7 		"/>
		<path fill="#565656" d="M42.1,42.6c-0.1,0-0.1,0-0.2,0.1C42,42.7,42,42.7,42.1,42.6z"/>
		<path fill="#565656" d="M41.5,42.7L41.5,42.7C41.5,42.7,41.5,42.7,41.5,42.7z"/>
		<polygon fill="#565656" points="45.4,42.8 45.4,42.8 45.4,42.8 		"/>
		<path fill="#565656" d="M44.6,42.8C44.6,42.8,44.6,42.8,44.6,42.8C44.6,42.8,44.6,42.8,44.6,42.8z"/>
		<polygon fill="#565656" points="39.5,42.9 39.5,42.9 39.5,42.9 		"/>
		<path fill="#565656" d="M32.2,43.4c0.7,0,1.7-0.2,2.4-0.2c0.2-0.2,0.4-0.2,0.6-0.2l0,0.2l0.2-0.1c0.1,0.1-0.1,0,0,0.1l0.1-0.1
			c0,0.1,0.5,0,0.2,0.2l0.8,0c0.2,0,0.1-0.2,0.3-0.1c0,0.1-0.1,0-0.1,0.1c0.6,0.2,0.6-0.4,1.2-0.3l0,0c0.1-0.1,0.3,0,0.3-0.1
			c-0.1-0.2-0.1,0.1-0.3,0c0-0.2,0.2-0.1,0.2-0.2c0.1,0.1,0.2,0,0.3,0c0.2,0.1,0.4,0,0.6,0.2c0.1-0.1,0.2-0.2,0.4-0.2
			c0.1,0.1,0,0.1,0.2,0.2l0-0.1c0.2,0,0.1,0,0.1,0.1c0.2,0,0.1-0.1,0.3-0.1l-0.1,0.1c0.1,0,0.2,0,0.4,0c0,0.1-0.1,0.1-0.1,0
			c0.1,0.1,0.2-0.1,0.3,0c0,0-0.2-0.1-0.1-0.2c0.1,0,0.2-0.1,0.3,0l-0.1,0.1c0.2-0.1,0.1-0.1,0.4-0.1c0,0,0,0,0,0.1
			c0.2-0.1,0.4,0,0.6,0l0,0c0.1,0,0.1-0.1,0.2-0.1c-0.1-0.1-0.1-0.1-0.1-0.2c0.2,0.2,0.3-0.2,0.6-0.1c0,0.1-0.1,0.1-0.2,0.1
			c-0.1,0.2-0.1,0.3-0.3,0.4c0.1,0,0.2-0.1,0.2,0l0-0.2c0.1,0,0.1,0,0.2,0c0-0.1-0.1-0.2,0-0.2c0.2-0.1,0.1,0.2,0.1,0.1
			c0.2-0.1,0.1-0.2,0.3-0.1c0,0-0.1,0-0.1,0c0.2,0.1,0.4,0,0.4,0.2c0,0,0,0.1-0.1,0.1l0,0c-0.2,0.1,0.1,0,0.1,0.1
			c0-0.1,0.2-0.1,0.3-0.1l0-0.1c0.3-0.3,0,0.2,0.3,0.2c0.2-0.1-0.1,0,0.1-0.1c0.1,0,0.2,0.1,0.4,0.1c0.1,0,0.2,0.1,0.2,0.2
			c0.1-0.1,0.4,0.1,0.5-0.1c-0.2-0.1-0.2,0.1-0.5,0l0.1-0.1c0.2,0,0.4-0.1,0.5,0c0,0,0-0.1,0-0.1c0.3,0,0.3-0.2,0.6-0.1
			c0,0.1-0.1,0.1-0.2,0.1c0.2,0.1,0.2,0,0.4,0c0,0.1-0.2,0-0.2,0.1l0.3,0v0c0-0.2,0.2,0,0.4,0c0.4,0,0.5-0.2,0.7-0.4
			c0.1,0,0.1,0.1,0.1,0.1c-0.1-0.1-0.1,0-0.1,0c0.1,0,0.3,0.2,0.2,0.2c0.2,0-0.1-0.1,0.1-0.1l0.3,0c0-0.1-0.1-0.1,0-0.2
			c0.1,0,0.2,0,0.4,0c0,0,0.1,0.1-0.1,0.1c0.1,0,0.2,0,0.3,0c-0.2-0.1,0.3-0.1,0.2-0.2l0.2,0.1c0,0,0,0.1-0.1,0c0.1,0.1,0.1,0,0.2,0
			c0.1,0,0.2,0,0.2,0.1c0.1,0,0.2,0,0.2,0.1c0.1,0,0-0.1,0-0.1l0.3,0c0,0.1,0,0.3,0,0.3c0.1-0.1,0-0.2,0.2-0.2
			c-0.1,0.1,0.2,0.1,0.1,0.3c0.1,0.1,0.4,0.1,0.5,0.1c0.1-0.1-0.2-0.1-0.2-0.2c0.4,0,0.4-0.4,0.8-0.3l-0.1,0
			c0.2-0.1,0.2-0.1,0.3-0.1c-0.1,0.1,0.2,0.4,0.5,0.4c0-0.1-0.2-0.1-0.1-0.3l0.2,0c0,0,0,0,0,0.1c0.2-0.1,0.4,0.2,0.4,0l0.2,0.2
			l-0.1-0.1c0-0.1,0.2-0.1,0.3-0.1c0.2-0.1,0.3,0,0.4,0.1c0-0.1-0.1-0.2,0-0.2c0,0.2,0.4,0.1,0.4,0.2c0.1,0,0.2,0.1,0.2,0l0,0.1
			c0-0.2,0.3-0.2,0.5-0.2c0,0.3,0.2,0,0.3,0.2c0-0.2,0.3-0.1,0.4-0.2c0.1,0,0.1,0.2,0.2,0.2l0.1-0.1c0.1,0.1,0.4,0.1,0.5,0.2
			l0.2-0.2l0.1,0.1c0,0,0.2-0.1,0.1-0.1l0.1,0c0-0.2,0.1,0,0.3-0.1c0,0,0,0.1,0,0.1c0.1,0,0,0.1,0.1,0.2c-0.1,0,0.3-0.3,0.1-0.4
			c0-0.1,0.1-0.1,0.2-0.1l0,0.2l0.1-0.2c0.1,0,0.2,0.1,0.3,0.1c-0.1,0-0.2,0.3,0,0.3c-0.1,0-0.2,0.1-0.3,0.1c0.1,0,0.1,0,0,0.1
			c0.2,0,0.1-0.1,0.3-0.1c0,0.1,0,0.2,0.2,0.2l-0.1-0.1c0,0,0,0,0,0c-0.1,0-0.1,0-0.1-0.1c0,0,0.2-0.2,0.3-0.1
			c-0.2-0.2,0.4-0.2,0.2-0.3c0,0,0.2,0,0.2,0c-0.2,0.1,0.1,0.2,0.1,0.3c0.1,0-0.1-0.1,0-0.2c0.1,0,0.2,0.1,0.2,0.1l0,0l0.2,0.1
			c0-0.1-0.2-0.1,0-0.2c0,0,0.2,0,0.2,0.1c-0.1,0.1,0,0.2-0.1,0.3c0.1,0,0.4,0,0.3-0.2l0.1,0c-0.1-0.1-0.3-0.2,0-0.2l0,0l0.2-0.1
			l0.1,0.1c0,0,0-0.1,0.1-0.1c0,0,0.1,0.1,0.1,0.1c0.2,0,0.2-0.1,0.2-0.1c0.1,0,0.1,0,0.1,0.1c0.1,0,0.4,0,0.5,0.1
			c0.2-0.1,0,0,0.1-0.1c0.2,0.3,0.6,0.1,1,0.1c-0.1-0.2,0.1,0,0.1-0.2c-0.1,0.1,0.3,0.2,0,0.2l0.2,0c0.1,0.1-0.3,0.1-0.1,0.3
			c0.2,0,0.3-0.2,0.5-0.2c-0.1,0.2,0.2-0.1,0.1,0.1c0,0.1-0.1,0-0.2,0.1l0,0c0.4,0,0.1-0.2,0.3-0.3c0.3,0,0.2,0.1,0.2,0.2
			c0,0,0.2,0,0.2,0c-0.2,0.1-0.3-0.1-0.2-0.2c0.1,0.2,0.4,0,0.4-0.1c-0.4-0.2-0.2,0-0.6-0.2c0,0.1,0,0.2-0.2,0.1
			c0.1-0.1,0-0.1,0-0.1c0,0.1-0.1,0-0.2,0.1c-0.1-0.1,0.1-0.2-0.1-0.2l0,0.2c-0.1,0,0-0.2-0.1-0.1c0.1-0.1,0-0.2,0.2-0.2
			c-0.3-0.2-0.4,0.1-0.6,0.2c0,0,0,0,0-0.1c0,0.1-0.1,0.1-0.2,0.1c-0.1,0,0.1-0.1,0.1-0.2l-0.2,0c0,0,0,0,0,0c-0.1,0-0.1,0-0.1,0
			c0.1-0.1,0.1-0.1,0.1-0.2l-0.2,0.1c0-0.1-0.2-0.1,0-0.2l-0.4,0l0-0.1c-0.1,0-0.1,0.1,0,0.1c-0.1,0-0.5,0.3-0.5,0
			c-0.3,0.1-0.4,0.1-0.7,0.1c0.3-0.1-0.3-0.2,0-0.2c-0.2-0.1-0.2,0.1-0.3,0.1c-0.1-0.1-0.1-0.2,0.1-0.3l-0.2,0.1l0,0l-0.1,0.1
			c-0.1-0.1,0-0.1-0.2-0.2l0,0.1l-0.1-0.1c0,0.1,0,0.1-0.2,0.1l0,0l-0.1,0c0.1-0.1-0.1,0-0.1-0.1c-0.1,0-0.1,0-0.3,0l0,0.1
			c-0.3,0.1,0-0.1-0.2-0.1l0,0.1c-0.3-0.2-0.5,0.1-0.7,0c0.1,0,0.1-0.1,0.1-0.1c-0.2,0-0.5,0-0.7,0.1c-0.1-0.1-0.1-0.2-0.3-0.3
			c-0.1,0-0.2,0-0.2,0.1c-0.1-0.1-0.4,0-0.4-0.1c0,0.1-0.1,0-0.2,0.1l0,0l0,0.1c-0.3-0.2-0.4,0.1-0.7-0.1l0,0l-0.1,0
			c0,0,0-0.1,0-0.1l-0.5,0l0.1,0.1c-0.1,0-0.2,0.1-0.3,0c0.2-0.2-0.2,0-0.2-0.1l0.1,0c-0.1,0-0.1,0-0.1,0.1c-0.2,0-0.1-0.2-0.3-0.1
			l0.1,0c0,0.1-0.1,0.1-0.1,0.1c0,0-0.1-0.1,0-0.1c-0.1,0-0.4,0-0.4,0c-0.1,0-0.1-0.1,0-0.1c-0.3,0.1-0.1,0-0.5,0.1l0-0.1l-0.1,0.1
			l-0.2-0.1l0.1,0.1c-0.1,0-0.2,0.1-0.3,0l0-0.1c-0.3,0-0.3-0.1-0.6,0c0,0,0,0,0-0.1c-0.3,0.1-0.2-0.2-0.5,0c0,0,0-0.1,0-0.1
			l-0.1,0.1l0-0.1L49,40.9l-0.1-0.1l0,0.1c-0.1-0.2-0.3-0.1-0.5-0.2l0,0.1c-0.4,0.3-1-0.2-1.5,0l0-0.1l-0.2,0.1
			c-0.1-0.1,0.1-0.1,0-0.2c-0.2,0.1-0.1,0.2-0.4,0.2c-0.1-0.1,0-0.1,0.1-0.1c-0.3,0.1-0.6,0.1-0.8,0.1c0,0,0,0,0,0
			c-0.2,0.1-0.4,0-0.6,0c0-0.1,0.1-0.1,0.1-0.1c-0.1,0-0.2,0-0.2,0l0.1-0.1c-0.1,0-0.4,0.1-0.5,0c0,0,0,0.1-0.1,0.1
			c-0.1-0.2-0.3,0.1-0.5,0c0,0,0.2-0.1,0.1-0.1c-0.1,0-0.2,0-0.3,0.1l0-0.1l-0.5,0.1c-0.1-0.2-0.4,0-0.4-0.1c-0.2,0,0.1,0.1-0.1,0.1
			c-0.1-0.1-0.2,0-0.2-0.1l0,0l-0.1,0l0.1-0.1c-0.1,0-0.2,0.1-0.2,0.2c-0.1-0.1-0.3,0-0.3-0.1l0,0c-0.3,0-0.6-0.3-0.8-0.1
			c0,0,0,0,0,0l-0.2,0l0-0.1l-0.3,0.1l0-0.1c-0.2,0-0.6,0-0.9,0l0,0c-0.3,0.1-0.3-0.1-0.5,0c0,0,0,0,0,0l-0.2,0l0-0.1
			c-0.2,0.1-0.4-0.2-0.4-0.1c-0.1,0.1-0.2,0.1-0.3,0.2c-0.2,0-0.1-0.1-0.2-0.1c-0.2,0-0.2,0.1-0.4,0l0-0.1c-0.1,0-0.2,0.1-0.3,0.1
			l0,0c-0.2,0.1-0.3-0.2-0.5,0.1c-0.1,0-0.3,0-0.3-0.1c-0.3,0.1-0.5,0.1-0.8,0.2c0-0.2-0.1,0-0.2-0.1l0,0.1c-0.4,0-0.9-0.2-1.4-0.2
			l0-0.1l-0.1,0.1c-0.5,0-1.1-0.1-1.5-0.1c-0.1,0.1-0.3,0.2-0.5,0.1l0,0c-0.4,0.1-0.7,0.1-1.1,0c0,0,0-0.1,0-0.1
			c-0.1,0.1-0.2,0-0.3,0l0.1,0.1c-0.1,0.1-0.3,0-0.3-0.1l-0.2,0.1c0,0,0,0,0,0l0,0.1l-0.1-0.1c0,0-0.3,0.1-0.4,0.2
			c0,0-0.2-0.1-0.1-0.1l-0.6,0l0.1,0c0,0.1-0.2,0.2-0.3,0.1c0.1-0.1,0-0.1,0-0.2c-0.1,0.1,0.1,0.1,0,0.1c-0.1,0.1-0.3,0.1-0.4,0.1
			l0.1,0c-0.1,0-0.2-0.1-0.4-0.1c-0.1,0.1-0.2,0-0.2,0.2c-0.2,0-0.1-0.1-0.1-0.1c-0.1,0.1-0.4,0-0.4-0.1c-0.1,0.3-0.5-0.1-0.6,0.1
			l-0.2-0.1c0,0.1,0,0.2-0.2,0.2c-0.1-0.1-0.1-0.2-0.1-0.2l-0.1,0.2c-0.7-0.2-1.6-0.1-2.4-0.3c-0.3,0-0.8,0.1-1.2,0.1l0,0l-0.4-0.1
			l0.3,0.1c-0.1,0-0.2,0.1-0.2,0.1c-0.4-0.1-1-0.2-1.5-0.1c-0.3,0.2-0.2-0.2-0.6,0c0,0,0-0.1,0.1-0.1c-0.4,0.1-0.5,0.1-0.9,0.3
			c0-0.2-0.2,0-0.2-0.1l0,0.1c-0.1-0.1-0.3-0.1-0.2-0.2l-0.2,0.1l0-0.1c-0.2,0-0.7,0.1-0.8-0.1c-0.5,0.2-1.3,0.1-2,0.1
			c-0.1,0.1-0.3,0.1-0.4,0.1l-0.2-0.1c-0.2,0-0.3,0.2-0.4,0.1c0,0,0,0,0,0c-0.2,0-0.3,0-0.4,0.1c-0.2,0-0.3-0.1-0.3-0.2
			c0,0.2-0.4,0-0.4,0s-8.6-0.5-10.7,0.6c-0.1,0.1-0.3,0.2-0.2,0.3c-0.1,0-0.2-0.1-0.2,0c0.2,0.1-0.1,0.3,0.1,0.4l-0.1,0
			c0,0.1,0.2-0.1,0.1,0l0-0.2c0.1,0,0.2,0.1,0.2,0.1c0.1-0.1,0.2-0.3,0.4-0.2l-0.1,0c0.2,0,0.1,0.1,0.2,0.2l0,0l0.2,0.1
			c-0.1-0.1-0.3,0.1-0.2,0.1c0.2,0.1-0.1,0,0.1-0.1c0.1,0,0.1,0.1,0.1,0.1l0.2,0c0,0.1-0.1,0,0,0.1l0.2-0.1c0,0.2,0.3-0.1,0.4,0.1
			c-0.2,0.1,0,0.1,0,0.1l0.4,0c0,0-0.1,0.1,0,0.1c0.1,0.1,0.1-0.1,0.2-0.1c0,0.1,0.3,0,0.3,0.1c0.3,0.1,0.1-0.2,0.4-0.1
			c0,0.1-0.2,0-0.1,0.1l0.3,0c0,0-0.1,0.1-0.2,0.1c0.7,0.1,1.1,0.6,1.8,0.5c0.1,0.1-0.1,0.1-0.1,0.1c0.5-0.1,0.7,0.2,1.1,0.2l0-0.1
			c0.6,0.3,1.3,0.1,2,0.2L10.9,43c0.1-0.1,0.2-0.1,0.3-0.1c0,0-0.1,0.2,0.1,0.1c0,0-0.1-0.1-0.1-0.1c0.6,0.2,1.8,0.2,2.7,0.3
			c1.3-0.1,2.6,0.1,3.9,0c-0.2,0-0.1-0.2,0-0.2c0.4,0.4,0.7-0.1,1.1,0.2c0.7-0.1,1.4,0.2,2-0.1l0,0.1c0.1,0,0.1,0,0.2,0l0,0
			c0.2,0,0.5-0.1,0.7,0l0-0.1c0.1,0,0.1,0.1,0.2,0l0,0.1l0.2-0.1c0,0.2,0.4,0,0.5,0.1c0.2,0,0.6-0.1,0.8-0.1
			c0.1,0.1,0.4,0.1,0.6,0.2c0.4,0,1.1-0.1,1.6,0l0-0.1l0.1,0c0,0,0,0,0,0.1c0.1,0.1,0.3,0,0.5,0c-0.1-0.1-0.1,0-0.2,0
			c-0.1-0.1,0-0.2,0.2-0.1l0,0l0.1-0.1c0,0.1,0.1,0.1,0.1,0.3c0.5,0,0.8-0.2,1.3-0.2c-0.1,0.1,0.4,0,0.3,0.2c0.3-0.1,0-0.2,0.1-0.3
			c0.1,0,0.2-0.1,0.2,0c0,0,0.1,0.1,0,0.1l0.2,0c0,0,0,0,0,0.1c0.4-0.1,0.7,0.1,1.1,0c0-0.1-0.1,0-0.1-0.1c0.4-0.1,0.3,0.1,0.7,0
			l-0.1,0.1c0.1-0.1,0.2-0.2,0.3-0.1c0,0.1-0.2,0.1-0.2,0.1c0.1,0,0.4,0,0.3-0.1c0.1,0,0.2,0.1,0.3,0.1c0,0-0.1-0.1-0.1-0.1
			c0.2,0.1,0.5,0.1,0.8,0.1c0,0,0,0.1,0,0.1C31.9,43.2,31.9,43.5,32.2,43.4z"/>
		<path fill="#565656" d="M45.5,42.8l-0.1,0c0,0,0,0.1-0.1,0.1L45.5,42.8z"/>
		<path fill="#565656" d="M40.7,42.7C40.7,42.8,40.7,42.8,40.7,42.7C40.7,42.8,40.7,42.8,40.7,42.7z"/>
		<path fill="#565656" d="M39.6,43C39.7,42.9,39.6,42.9,39.6,43C39.5,42.9,39.5,42.9,39.6,43z"/>
		<path fill="#565656" d="M48.2,42.5C48.2,42.5,48.2,42.5,48.2,42.5C48.2,42.5,48.2,42.5,48.2,42.5z"/>
		<path fill="#565656" d="M55.7,42.6L55.7,42.6C55.7,42.6,55.7,42.6,55.7,42.6z"/>
		<path fill="#565656" d="M55.3,42.4C55.3,42.4,55.2,42.4,55.3,42.4C55.2,42.4,55.3,42.4,55.3,42.4z"/>
		<path fill="#565656" d="M46.4,42.6C46.4,42.6,46.3,42.6,46.4,42.6C46.4,42.6,46.4,42.6,46.4,42.6z"/>
		<polygon fill="#565656" points="55.1,42.5 55,42.4 55,42.5 		"/>
		<path fill="#565656" d="M55.8,42.6c0,0-0.1,0-0.1,0C55.7,42.6,55.8,42.6,55.8,42.6z"/>
		<path fill="#565656" d="M51,42.4L51,42.4C50.9,42.4,50.9,42.4,51,42.4z"/>
		<polygon fill="#565656" points="54.7,42.7 54.6,42.7 54.6,42.7 		"/>
		<path fill="#565656" d="M56.3,42.7C56.3,42.7,56.2,42.7,56.3,42.7L56.3,42.7C56.3,42.7,56.3,42.7,56.3,42.7z"/>
		<path fill="#565656" d="M52.5,42.5C52.6,42.5,52.6,42.5,52.5,42.5C52.5,42.5,52.5,42.5,52.5,42.5z"/>
	</g>
</g>
</svg>
