<?xml version="1.0" encoding="utf-8"?>
<!-- Generator: Adobe Illustrator 17.1.0, SVG Export Plug-In . SVG Version: 6.00 Build 0)  -->
<!DOCTYPE svg PUBLIC "-//W3C//DTD SVG 1.1//EN" "http://www.w3.org/Graphics/SVG/1.1/DTD/svg11.dtd">
<svg version="1.1" id="Layer_1" xmlns="http://www.w3.org/2000/svg" xmlns:xlink="http://www.w3.org/1999/xlink" x="0px" y="0px"
	 viewBox="42 76.1 5.5 201.1" enable-background="new 42 76.1 5.5 201.1" xml:space="preserve">
<g>
	<path fill="#FFFFFF" d="M42,106.2v3.6c1,0,1.8-0.8,1.8-1.8C43.8,107,43,106.2,42,106.2z"/>
	<path fill="#FFFFFF" d="M42,111.4v3.3c0.9,0,1.6-0.7,1.6-1.6C43.7,112.1,42.9,111.4,42,111.4z"/>
	<path fill="#FFFFFF" d="M47.5,101c-1,0-1.8,0.9-1.8,1.9c0,0.2,0,0.5,0.1,0.7c-0.3-0.2-0.6-0.3-1-0.3c-0.3,0-0.6,0.1-0.9,0.2
		c0.1-0.2,0.1-0.4,0.1-0.6c0-1.1-0.9-1.9-1.9-1.9v3.8c0.4,0,0.7-0.1,1-0.3c0,0.2-0.1,0.3-0.1,0.5c0,1,0.8,1.8,1.8,1.8
		c1,0,1.8-0.8,1.8-1.8c0-0.2,0-0.4-0.1-0.6c0.3,0.2,0.7,0.4,1.1,0.4"/>
	<path fill="#FFFFFF" d="M42,116.5v3c0.8,0,1.5-0.7,1.5-1.5C43.5,117.2,42.9,116.5,42,116.5z"/>
	<path fill="#FFFFFF" d="M42,137.3v1.9c0.5,0,0.9-0.4,0.9-0.9C43,137.7,42.6,137.3,42,137.3z"/>
	<path fill="#FFFFFF" d="M42,142.5v1.6c0.4,0,0.8-0.4,0.8-0.8C42.8,142.8,42.5,142.5,42,142.5z"/>
	<path fill="#FFFFFF" d="M42,121.7v2.7c0.7,0,1.4-0.6,1.4-1.4C43.4,122.3,42.8,121.7,42,121.7z"/>
	<path fill="#FFFFFF" d="M42,126.9v2.4c0.7,0,1.2-0.5,1.2-1.2C43.3,127.5,42.7,126.9,42,126.9z"/>
	<path fill="#FFFFFF" d="M42,132.1v2.1v0c0.6,0,1.1-0.5,1.1-1.1S42.6,132.1,42,132.1z"/>
	<circle fill="#FFFFFF" cx="44.8" cy="125.2" r="1.2"/>
	<circle fill="#FFFFFF" cx="44.8" cy="135.3" r="0.9"/>
	<circle fill="#FFFFFF" cx="44.8" cy="140.3" r="0.8"/>
	<circle fill="#FFFFFF" cx="44.8" cy="120.1" r="1.4"/>
	<circle fill="#FFFFFF" cx="44.8" cy="130.2" r="1.1"/>
	<path fill="#FFFFFF" d="M47.5,111.4c-0.9,0-1.6,0.8-1.6,1.6c0,0.9,0.7,1.6,1.6,1.6"/>
	<path fill="#FFFFFF" d="M47.5,116.5c-0.8,0-1.4,0.7-1.4,1.5s0.6,1.5,1.4,1.5"/>
	<circle fill="#FFFFFF" cx="44.8" cy="110.1" r="1.6"/>
	<path fill="#FFFFFF" d="M47.5,109.7c-0.9,0-1.7-0.8-1.7-1.8c0-1,0.8-1.7,1.7-1.8"/>
	<path fill="#FFFFFF" d="M47.5,132.1c-0.6,0-1,0.5-1,1.1c0,0.6,0.4,1,1,1.1"/>
	<path fill="#FFFFFF" d="M47.5,121.7c-0.7,0-1.3,0.6-1.3,1.3c0,0.7,0.6,1.3,1.3,1.3"/>
	<path fill="#FFFFFF" d="M47.5,126.9c-0.6,0-1.1,0.6-1.1,1.2c0,0.6,0.5,1.2,1.1,1.2"/>
	<path fill="#FFFFFF" d="M47.5,137.3c-0.5,0-0.9,0.4-0.9,0.9c0,0.5,0.4,0.9,0.9,0.9"/>
	<circle fill="#FFFFFF" cx="44.8" cy="115.1" r="1.5"/>
	<path fill="#FFFFFF" d="M47.5,142.5c-0.4,0-0.7,0.4-0.7,0.8c0,0.4,0.3,0.7,0.7,0.8"/>
	<path fill="#FFFFFF" d="M42,147.6v1.4c0.4,0,0.7-0.3,0.7-0.7C42.8,147.9,42.4,147.6,42,147.6z"/>
	<circle fill="#FFFFFF" cx="44.8" cy="145.4" r="0.7"/>
	<path fill="#FFFFFF" d="M47.5,147.6c-0.4,0-0.6,0.3-0.6,0.7c0,0.4,0.3,0.7,0.6,0.7"/>
	<path fill="#FFFFFF" d="M42,152.7v1.3c0.4,0,0.6-0.3,0.6-0.6C42.7,153,42.4,152.7,42,152.7z"/>
	<circle fill="#FFFFFF" cx="44.8" cy="150" r="0.6"/>
	<path fill="#FFFFFF" d="M47.5,152.7c-0.3,0-0.6,0.3-0.6,0.6c0,0.3,0.3,0.6,0.6,0.6"/>
	<path fill="#FFFFFF" d="M42,157.9v1.2c0.3,0,0.6-0.3,0.6-0.6C42.6,158.2,42.4,157.9,42,157.9z"/>
	<circle fill="#FFFFFF" cx="44.8" cy="155" r="0.6"/>
	<path fill="#FFFFFF" d="M47.5,157.9c-0.3,0-0.5,0.3-0.5,0.6c0,0.3,0.2,0.5,0.5,0.6"/>
	<path fill="#FFFFFF" d="M42,163.1v1c0.3,0,0.5-0.2,0.5-0.5C42.6,163.3,42.3,163.1,42,163.1z"/>
	<circle fill="#FFFFFF" cx="44.8" cy="161" r="0.5"/>
	<path fill="#FFFFFF" d="M47.5,163.1c-0.3,0-0.5,0.2-0.5,0.5c0,0.3,0.2,0.5,0.5,0.5"/>
	<path fill="#FFFFFF" d="M42,168.4v0.9c0.3,0,0.5-0.2,0.5-0.5C42.5,168.6,42.3,168.4,42,168.4z"/>
	<circle fill="#FFFFFF" cx="44.8" cy="166.5" r="0.5"/>
	<path fill="#FFFFFF" d="M47.5,168.4c-0.2,0-0.4,0.2-0.4,0.5c0,0.2,0.2,0.4,0.4,0.5"/>
	<path fill="#FFFFFF" d="M42,173.9v0.8c0.2,0,0.4-0.2,0.4-0.4C42.5,174.1,42.3,173.9,42,173.9z"/>
	<circle fill="#FFFFFF" cx="44.8" cy="171.6" r="0.4"/>
	<path fill="#FFFFFF" d="M47.5,173.9c-0.2,0-0.4,0.2-0.4,0.4c0,0.2,0.2,0.4,0.4,0.4"/>
	<path fill="#FFFFFF" d="M42,179.5v0.8c0.2,0,0.4-0.2,0.4-0.4C42.4,179.6,42.3,179.5,42,179.5z"/>
	<circle fill="#FFFFFF" cx="44.8" cy="177.1" r="0.4"/>
	<path fill="#FFFFFF" d="M47.5,179.5c-0.2,0-0.3,0.2-0.3,0.4c0,0.2,0.2,0.4,0.3,0.4"/>
	<path fill="#FFFFFF" d="M42,185.2v0.6c0.2,0,0.3-0.1,0.3-0.3C42.3,185.3,42.2,185.2,42,185.2z"/>
	<circle fill="#FFFFFF" cx="44.8" cy="182.6" r="0.3"/>
	<path fill="#FFFFFF" d="M47.5,185.2c-0.1,0-0.3,0.1-0.3,0.3c0,0.1,0.1,0.3,0.3,0.3"/>
	<path fill="#FFFFFF" d="M42,190.9v0.5c0.1,0,0.2-0.1,0.2-0.2C42.3,191,42.2,190.9,42,190.9z"/>
	<circle fill="#FFFFFF" cx="44.8" cy="188.3" r="0.3"/>
	<path fill="#FFFFFF" d="M47.5,190.9c-0.1,0-0.2,0.1-0.2,0.2c0,0.1,0.1,0.2,0.2,0.2"/>
	<path fill="#FFFFFF" d="M42,196.9v0.4c0.1,0,0.2-0.1,0.2-0.2C42.3,197,42.2,196.9,42,196.9z"/>
	<circle fill="#FFFFFF" cx="44.8" cy="194.2" r="0.2"/>
	<path fill="#FFFFFF" d="M47.5,196.9c-0.1,0-0.2,0.1-0.2,0.2c0,0.1,0.1,0.2,0.2,0.2"/>
	<path fill="#FFFFFF" d="M42,203.1v0.4c0.1,0,0.2-0.1,0.2-0.2C42.2,203.2,42.2,203.1,42,203.1z"/>
	<circle fill="#FFFFFF" cx="44.8" cy="200.2" r="0.2"/>
	<path fill="#FFFFFF" d="M47.5,203.1c-0.1,0-0.2,0.1-0.2,0.2c0,0.1,0.1,0.2,0.2,0.2"/>
	<path fill="#FFFFFF" d="M42,209.5v0.4c0.1,0,0.2-0.1,0.2-0.2C42.2,209.6,42.1,209.5,42,209.5z"/>
	<circle fill="#FFFFFF" cx="44.8" cy="206.5" r="0.2"/>
	<path fill="#FFFFFF" d="M47.5,209.5c-0.1,0-0.2,0.1-0.2,0.2c0,0.1,0.1,0.2,0.2,0.2"/>
	<path fill="#FFFFFF" d="M42,216.2v0.3c0.1,0,0.2-0.1,0.2-0.2C42.2,216.3,42.1,216.2,42,216.2z"/>
	<circle fill="#FFFFFF" cx="44.8" cy="213" r="0.2"/>
	<path fill="#FFFFFF" d="M47.5,216.2c-0.1,0-0.1,0.1-0.1,0.2c0,0.1,0.1,0.2,0.1,0.2"/>
	<path fill="#FFFFFF" d="M42,223.2v0.3c0.1,0,0.1-0.1,0.1-0.1C42.2,223.2,42.1,223.2,42,223.2z"/>
	<circle fill="#FFFFFF" cx="44.8" cy="219.8" r="0.2"/>
	<path fill="#FFFFFF" d="M47.5,223.2c-0.1,0-0.1,0.1-0.1,0.1c0,0.1,0.1,0.1,0.1,0.1"/>
	<path fill="#FFFFFF" d="M42,230.5v0.3c0.1,0,0.1-0.1,0.1-0.1C42.2,230.5,42.1,230.5,42,230.5z"/>
	<circle fill="#FFFFFF" cx="44.8" cy="226.9" r="0.1"/>
	<path fill="#FFFFFF" d="M47.5,230.5c-0.1,0-0.1,0.1-0.1,0.1c0,0.1,0.1,0.1,0.1,0.1"/>
	<path fill="#FFFFFF" d="M42,238v0.2c0.1,0,0.1-0.1,0.1-0.1C42.2,238.1,42.1,238,42,238z"/>
	<circle fill="#FFFFFF" cx="44.8" cy="234.4" r="0.1"/>
	<path fill="#FFFFFF" d="M47.5,238c-0.1,0-0.1,0.1-0.1,0.1c0,0.1,0,0.1,0.1,0.1"/>
	<path fill="#FFFFFF" d="M42,245.9v0.2c0.1,0,0.1,0,0.1-0.1C42.2,246,42.1,245.9,42,245.9z"/>
	<circle fill="#FFFFFF" cx="44.8" cy="242.1" r="0.1"/>
	<path fill="#FFFFFF" d="M47.5,245.9c-0.1,0-0.1,0.1-0.1,0.1c0,0.1,0,0.1,0.1,0.1"/>
	<path fill="#FFFFFF" d="M42,254.2v0.2C42.1,254.4,42.1,254.3,42,254.2C42.1,254.2,42.1,254.2,42,254.2z"/>
	<circle fill="#FFFFFF" cx="44.8" cy="250.1" r="0.1"/>
	<path fill="#FFFFFF" d="M47.5,254.2C47.5,254.2,47.4,254.2,47.5,254.2c-0.1,0.1,0,0.2,0,0.2"/>
	<path fill="#FFFFFF" d="M42,262.8v0.2C42.1,263,42.1,262.9,42,262.8C42.1,262.8,42.1,262.8,42,262.8z"/>
	<circle fill="#FFFFFF" cx="44.8" cy="258.6" r="0.1"/>
	<path fill="#FFFFFF" d="M47.5,262.8C47.5,262.8,47.4,262.8,47.5,262.8c-0.1,0.1,0,0.2,0,0.2"/>
	<path fill="#FFFFFF" d="M42,271.9v0.2C42.1,272.1,42.1,272,42,271.9C42.1,271.9,42.1,271.9,42,271.9z"/>
	<circle fill="#FFFFFF" cx="44.8" cy="267.4" r="0.1"/>
	<path fill="#FFFFFF" d="M47.5,271.9C47.5,271.9,47.4,271.9,47.5,271.9c-0.1,0.1,0,0.2,0,0.2"/>
	<circle fill="#FFFFFF" cx="44.8" cy="277.2" r="0.1"/>
	<polygon fill="#FFFFFF" points="47.2,80.3 47.2,80.3 47.2,80.3 	"/>
	<line fill="#FFFFFF" x1="44.5" y1="82.3" x2="44.5" y2="82.3"/>
	<path fill="#FFFFFF" d="M47.5,85.2v-9.1H42v4.1v4.9v0c0.1,0,0.3,0,0.4,0c0,0.1,0,0.2,0.1,0.3c-0.1,0-0.3,0-0.5,0v4.7
		c0.2,0,0.3,0,0.5-0.1c0,0.2,0.1,0.5,0.2,0.7c-0.2-0.1-0.4-0.1-0.7-0.1V95c0.2,0,0.4,0,0.6-0.1l0,0c0,0.4,0.1,0.8,0.3,1.1
		c-0.3-0.2-0.6-0.2-1-0.2v4.1c0.3,0,0.6-0.1,0.8-0.2c0,0.1,0,0.1,0,0.2c0,1.1,0.9,1.9,1.9,1.9s1.9-0.9,1.9-1.9c0-0.1,0-0.2,0-0.3
		c0.3,0.1,0.5,0.2,0.9,0.2v-4.1c-0.4,0-0.8,0.1-1.1,0.4c0.3-0.3,0.4-0.8,0.4-1.2c0,0,0,0,0-0.1c0.2,0.1,0.4,0.1,0.7,0.1v-4.4
		c-0.3,0-0.5,0.1-0.7,0.1c0.1-0.2,0.2-0.5,0.2-0.7c0.2,0,0.4,0.1,0.6,0.1v-4.7c-0.2,0-0.3,0-0.5,0.1c0-0.1,0.1-0.2,0.1-0.3
		C47.2,85.2,47.4,85.2,47.5,85.2z M44.8,82.3c0.1,0,0.3,0,0.4,0c0,0.1,0,0.2,0,0.3c-0.1,0-0.2,0-0.3,0c-0.1,0-0.2,0-0.2,0
		c0-0.1,0-0.2,0-0.3C44.6,82.3,44.7,82.3,44.8,82.3z M44.3,87.1c0.1,0,0.3,0,0.5,0c0.2,0,0.4,0,0.6-0.1c-0.1,0.2-0.1,0.4-0.1,0.6
		c-0.2,0-0.3-0.1-0.5-0.1c-0.1,0-0.2,0-0.4,0C44.4,87.5,44.4,87.3,44.3,87.1L44.3,87.1z M44.1,92c0.2,0.1,0.4,0.1,0.7,0.1
		c0.3,0,0.6-0.1,0.8-0.2c-0.1,0.3-0.2,0.6-0.2,0.9c0,0.1,0,0.1,0,0.2c-0.2-0.1-0.4-0.1-0.6-0.1c-0.2,0-0.3,0-0.5,0.1
		c0,0,0-0.1,0-0.1C44.2,92.5,44.2,92.2,44.1,92L44.1,92z M45.5,98.2C45.3,98.1,45,98,44.8,98c-0.2,0-0.5,0-0.7,0.1
		c0-0.1,0-0.2,0-0.3c0-0.4-0.1-0.8-0.3-1.1c0.3,0.2,0.6,0.2,1,0.2c0.4,0,0.8-0.1,1.2-0.4c-0.3,0.3-0.4,0.8-0.4,1.2
		C45.5,98,45.5,98.1,45.5,98.2z"/>
	<polyline fill="#FFFFFF" points="43.8,96.7 43.8,96.7 43.8,96.7 43.8,96.7 	"/>
	<line fill="#FFFFFF" x1="47.5" y1="116.5" x2="47.5" y2="119.5"/>
</g>
</svg>
