<?xml version="1.0" encoding="utf-8"?>
<!-- Generator: Adobe Illustrator 17.1.0, SVG Export Plug-In . SVG Version: 6.00 Build 0)  -->
<!DOCTYPE svg PUBLIC "-//W3C//DTD SVG 1.1//EN" "http://www.w3.org/Graphics/SVG/1.1/DTD/svg11.dtd">
<svg version="1.1" id="Layer_1" xmlns="http://www.w3.org/2000/svg" xmlns:xlink="http://www.w3.org/1999/xlink" x="0px" y="0px"
	 viewBox="0 0 87.1 417.4" enable-background="new 0 0 87.1 417.4" xml:space="preserve">
<g>
	<linearGradient id="SVGID_2_" gradientUnits="userSpaceOnUse" x1="86.8548" y1="-8.494060e-02" x2="86.8548" y2="416.9954">
		<stop  offset="0" style="stop-color:#000000"/>
		<stop  offset="1" style="stop-color:#000000;stop-opacity:0"/>
	</linearGradient>
	<path fill="url(#SVGID_2_)" d="M87.1,103v-0.4c-0.1,0-0.3-0.1-0.4-0.1C86.8,102.7,86.9,102.8,87.1,103z"/>
	<linearGradient id="SVGID_3_" gradientUnits="userSpaceOnUse" x1="43.5254" y1="-1.959052e-09" x2="43.5254" y2="417.0803">
		<stop  offset="0" style="stop-color:#000000"/>
		<stop  offset="1" style="stop-color:#000000;stop-opacity:0"/>
	</linearGradient>
	<path fill="url(#SVGID_3_)" d="M0,0v46.7c0.2,0,0.3,0,0.5,0c0.3,1.8,0.7,3.3,1,5.1c-0.5,0-1,0.1-1.5,0.1v13.8c1-0.1,2-0.3,3-0.4
		c0.3,2,0.5,3.9,0.8,5.9c-1.2,0.1-2.5,0.2-3.8,0.3v12.8c2-0.1,3.9-0.2,5.8-0.3c0,0.7-0.1,1.4-0.1,2.2c-0.1,4.7,4.4,8,8.8,6.3
		c1.1-0.4,2.1-1.2,3.1-1.8c1.5-2.8,1.9-5.7-0.2-8.7c1.6,0.1,2.8,0.3,3.9,0.2c1.2-0.1,2.3-0.5,3.4-0.8c0.3,2.2,0.5,4.6,0.8,7.2
		c-2.9-0.7-5.6-0.1-7.9,2.1c-0.3,1.1-0.7,2.1-0.9,3.2c-0.5,2.6,0.7,4.6,2.3,6.5l0,0c1.4,0.3,2.8,0.9,4.2,0.9c1.3,0,2.7-0.5,4.2-0.9
		c-0.1,1-0.2,1.8-0.3,2.5c-0.2,3,1.6,5.5,4.4,6.4c2.6,0.8,5.7-0.1,7.1-2.2c1.7-2.5,1.6-5.6-0.3-8c-1.6-1.9-4.9-2.6-7.5-1.5
		c-0.8,0.3-1.5,0.8-2.2,1.2c1.5-2.8,1.1-5.4-0.1-8c2.5-0.2,4.8-0.4,7.1-0.7c-0.6,3.4-0.1,6.5,3.5,8.3c2.4,1.2,4.8,0.9,7-0.7
		c3.2-2.5,2.5-5.8,1.5-9.1c1.3,0,2.5,0.1,3.7,0c1.1-0.1,2.3-0.5,3.9-0.9c-1.3,3.4,0,5.9,1.8,8.2c3.2,1.3,6.3,1.6,9.1-0.9
		c0.3-0.3,0.7-0.7,1-1c0.9-2.6,1.2-5.1-0.5-7.6c2.4-0.2,4.6-0.3,6.9-0.4c0.1,1.2-0.1,2.4,0.2,3.6c0.3,1.2,1,2.4,1.5,3.5
		c0.2,0.2,0.4,0.3,0.5,0.5c0.4,0.1,0.8,0.2,1.1,0.4c2.7,1.5,5.2,1.2,7.6-0.6c0.1-0.1,0.3,0.1,0.5,0.1c-1.3,3-0.8,5.8,1.2,8.3
		c0.2,0.2,0.3,0.3,0.5,0.5c0.1,0,0.3,0.1,0.4,0.1V91.2c-0.2,0-0.3,0-0.5,0.1c0.2-2.3,0.6-4.8-1.2-6.9c0.6,0,1.1-0.1,1.7-0.1V71.4
		c-0.7,0.1-1.4,0.1-2.1,0.2c-0.1-2-0.2-3.8-0.3-5.6c0.8-0.1,1.6-0.3,2.5-0.4V51.8c-1.3,0.1-2.6,0.2-3.9,0.4
		c-0.2-1.6-0.3-3.1-0.5-4.6c1.3-1.1,2.8-0.7,4.4-0.8V0H0z M81.9,10.3c0.6,2.3,0.6,2.3-1.6,2.2C80,10.7,80,10.7,81.9,10.3z
		 M74.6,23.4c-1.1,0.1-2.1,0.1-3.3,0.2c-0.2-1.2-0.3-2-0.5-3.1c1.2-0.2,2.2-0.3,3.4-0.5C74.4,21.2,74.5,22.2,74.6,23.4z M70.4,2.5
		C70.7,2.8,70.9,3,71,3.2c0,0.1-0.3,0.5-0.4,0.4c-0.3-0.1-0.5-0.3-0.7-0.5C69.9,3.1,70.2,2.8,70.4,2.5z M65.4,30.6
		c1.4,0.6,0.9,2.1,1.1,3.7c-1.5,0.2-2.7,0.4-4.1,0.6c-0.1-1.4-0.9-2.8,0.1-3.7C63.2,30.6,64.6,30.3,65.4,30.6z M61.9,12.2
		c0.8-0.2,1.6,0.5,1.5,1.4C63.3,15,62.2,15,61,14.9C60.7,13.6,60.6,12.6,61.9,12.2z M55.5,25.6c-1.2,0.1-2.2,0.2-3.4,0.3
		c-0.1-1.1-0.1-2.1-0.2-3.3c1.2-0.1,2-0.2,3.1-0.3C55.2,23.4,55.3,24.4,55.5,25.6z M51.3,4.1C51.7,4.7,52,5,52.1,5.4
		c0,0.1-0.4,0.3-0.6,0.5c-0.3-0.3-0.6-0.6-0.8-1C50.7,4.8,51,4.5,51.3,4.1z M47.5,36.6c-1.4,0.1-2.6,0.2-4,0.3
		c-0.2-1.4-0.3-2.7-0.5-4.1c1.3-0.2,2.5-0.3,3.9-0.5C47,33.9,47.2,35.1,47.5,36.6z M42,14.7c0.3-0.3,1.1-0.4,1.5-0.2
		c1,0.3,1.2,1.2,0.8,2.4C43.5,17,42.7,17,42,17.1C41.4,16.2,41.3,15.3,42,14.7z M36.7,27.8c-1.4,0.1-2.4,0.2-3.8,0.4
		c-0.1-1.4-0.2-2.4-0.3-3.7c1.1-0.1,2.1-0.2,3.3-0.4C36.2,25.4,36.4,26.5,36.7,27.8z M32.6,6.3c0.2,0.3,0.7,0.6,0.6,0.8
		c-0.1,0.4-0.4,0.7-0.8,1.3c-0.3-0.5-0.8-0.9-0.7-1.1C31.9,6.9,32.3,6.7,32.6,6.3z M17.5,29.9c-1.2,0.2-2.3,0.4-3.7,0.6
		c-0.1-1.4-0.2-2.5-0.3-3.9c1.3-0.1,2.3-0.2,3.7-0.4C17.3,27.6,17.4,28.6,17.5,29.9z M13.4,8.4c0.4-0.1,0.8,0.4,1.6,0.8
		c-0.7,0.6-1,1.1-1.4,1.2c-0.7,0.2-1.3-0.3-1.2-1C12.4,9,13,8.4,13.4,8.4z M2.9,1.5C2.8,1.3,2.6,1.2,2.5,1.1c0,0,0.2-0.3,0.2-0.3
		C2.9,0.9,3.1,1,3.2,1.1C3.1,1.3,3,1.4,2.9,1.5z M3.5,21.8c-0.8-3.2-0.5-3.6,2.6-3.6c0.1,0.8,0.3,1.7,0.5,2.9
		C5.5,21.4,4.6,21.6,3.5,21.8z M5.5,41.3c-1.3-1.2-0.5-2.6-0.7-4.1c4.1-1.1,4.1-1.1,4.7,2.7c0,0.3,0,0.6,0,0.8
		C9.2,40.9,9,41,8.9,41.1C7.8,41.1,6.7,41.2,5.5,41.3z M6.8,60.9c-0.2-1.8-0.4-3.5-0.7-5.6c1.7-0.1,3.4-0.2,5.2-0.3
		c0.3,1.9,0.5,3.6,0.8,5.4C10.3,60.5,8.7,60.7,6.8,60.9z M8.7,80.3c-0.2-2.1-0.4-4.1-0.6-5.9c1.9-0.2,3.9-0.5,5.7-0.7
		c0.3,2,0.6,4,1,6C12.8,79.9,10.7,80.1,8.7,80.3z M15.4,45.3c1.4-0.2,2.8-0.4,4.4-0.7c0.2,1.7,0.4,3.3,0.6,4.9
		c-1.6,0.1-3.1,0.2-5,0.3C15.4,48.3,15.4,46.9,15.4,45.3z M17.1,69.5c-0.2-1.8-0.4-3.8-0.6-5.7c1.9-0.3,3.8-0.5,5.6-0.7
		c0.3,1.8,0.5,3.8,0.8,5.7C21,69.1,19.1,69.3,17.1,69.5z M22.6,19.2c-0.3-2.1-0.1-2.7,1.2-2.8c1-0.1,1.6,0.4,1.7,1.5
		C25.5,19,24.9,19.3,22.6,19.2z M24.2,39c-0.1-1.4-0.2-2.6-0.3-4.1c1.3-0.2,2.4-0.3,3.6-0.5c1.3,1.2,0.6,2.7,1.2,4.4
		C26.9,38.9,25.7,38.9,24.2,39z M25.4,53.2c1.7-0.2,3.4-0.4,5.1-0.6c0.3,1.9,0.5,3.8,0.8,5.5c-1.9,0.2-3.7,0.5-5.6,0.7 M27.5,78.3
		c-0.1-2-0.2-4-0.3-6.1c1.9-0.2,3.7-0.4,5.6-0.6c0.3,1.9,0.6,3.8,0.9,5.6C31.7,77.6,29.7,78,27.5,78.3z M34.5,47.9
		c-0.1-1.6-0.2-3-0.3-4.6c1.6-0.3,3-0.6,4.7-0.9c0.2,1.7,0.3,3.1,0.5,4.7C37.8,47.4,36.3,47.6,34.5,47.9z M36.3,67.4
		c-0.2-1.8-0.3-3.7-0.5-5.8c1.7-0.1,3.5-0.3,5.3-0.4c0.3,2,0.6,3.8,0.9,5.7C40.3,67,38.4,67.2,36.3,67.4z M38,86.9
		c0-1.9,0-3.9,0.1-6.2c1.8-0.3,3.7-0.6,5.5-0.9c0.3,2.2,0.6,4.3,0.9,6.2C42.3,86.3,40.2,86.6,38,86.9z M44.8,51.5
		c1.5-0.2,3-0.3,4.7-0.5c0.2,1.7,0.3,3.1,0.5,4.7c-1.8,0.3-3.3,0.6-5,0.9C44.9,54.9,44.8,53.3,44.8,51.5z M46.7,76
		c-0.3-2-0.5-4.1-0.8-6.1c1.9-0.1,3.9-0.3,5.9-0.4c0.4,2.1,0.7,4.1,1.1,6.2C51,75.8,48.9,75.9,46.7,76z M53.4,41
		c1.4-0.2,2.7-0.4,4.2-0.6c0.3,1.7,0.6,3.2,0.9,4.9c-1.6,0.1-3,0.2-4.6,0.3C53.7,44.1,53.6,42.7,53.4,41z M55,59.7
		c1.8-0.2,3.5-0.4,5.3-0.6c0.3,2,0.6,3.8,0.9,5.6c-1.8,0.1-3.8,0.3-5.8,0.4C55.3,63.5,55.2,61.7,55,59.7z M57.2,84.7
		c-0.2-2-0.5-4.2-0.7-6.4c2-0.2,4.1-0.4,6.3-0.6c0.2,2,0.4,4.1,0.6,6.1C61.5,84.1,59.4,84.4,57.2,84.7z M63.6,49.2
		c1.5-0.1,2.9-0.2,4.6-0.3c0.3,1.7,0.5,3.1,0.8,4.6c-1.7,0.3-3.2,0.6-4.8,0.9C64,52.6,63.8,51,63.6,49.2z M65.8,73.8
		c0-1,0.1-2.1,0-3.1c-0.1-1-0.5-2-0.7-3c1.9-0.1,3.8-0.2,5.7-0.3c0.4,2,0.8,3.9,1.2,6C70.1,73.5,68.1,73.7,65.8,73.8z M72.9,43.5
		c-0.2-1.6-0.3-3.1-0.5-4.8c1.4-0.1,2.6-0.2,4.1-0.2c0.3,1.7,0.6,3,0.9,4.6C75.8,43.2,74.4,43.4,72.9,43.5z M74.6,63
		c-0.1-1.8-0.3-3.5-0.4-5.5c1.6-0.1,3.1-0.3,4.9-0.4c0.3,1.9,0.5,3.5,0.7,5.2C78.1,62.5,76.4,62.7,74.6,63z M83.9,82.4
		c-1.8-0.2-3.1-0.5-4.3-0.4c-1.1,0.1-2.3,0.5-3.3,0.8c-0.3-2.3-0.5-4.5-0.8-6.7c1.9-0.1,4-0.3,6.2-0.4
		C82.5,77.8,81.4,80.4,83.9,82.4z M81.7,32.5c-0.1-1.2-0.2-2.3-0.3-3.7c1.2-0.2,2.1-0.3,3.3-0.5c0.3,1.3,0.6,2.4,0.9,3.9
		C84.1,32.3,83,32.4,81.7,32.5z"/>
	<linearGradient id="SVGID_4_" gradientUnits="userSpaceOnUse" x1="71.6248" y1="-8.494060e-02" x2="71.6248" y2="416.9954">
		<stop  offset="0" style="stop-color:#000000"/>
		<stop  offset="1" style="stop-color:#000000;stop-opacity:0"/>
	</linearGradient>
	<path fill="url(#SVGID_4_)" d="M67.1,94.1c-0.3,0.3-0.7,0.7-1,1c-0.2,0.6-0.3,1.2-0.5,1.8c-0.6,1.7-0.4,3.3,0.3,4.9
		c1.2,2.6,4.2,4,7.5,3.4c2.5-0.5,4.5-3,4.7-5.6c0.3-2.4-0.9-4.1-2.3-5.8c-0.2-0.2-0.4-0.3-0.5-0.5C72.4,92.4,69.6,92.5,67.1,94.1z"
		/>
	<linearGradient id="SVGID_5_" gradientUnits="userSpaceOnUse" x1="5.1222" y1="-8.494059e-02" x2="5.1222" y2="416.9954">
		<stop  offset="0" style="stop-color:#000000"/>
		<stop  offset="1" style="stop-color:#000000;stop-opacity:0"/>
	</linearGradient>
	<path fill="url(#SVGID_5_)" d="M7.9,101.9c2.4-2.1,3-5.3,1.4-8C7.8,91.2,4.7,90,1.7,91c-0.6,0.2-1.1,0.5-1.7,0.8v10.5
		C2.5,104,5.6,103.9,7.9,101.9z"/>
	<linearGradient id="SVGID_6_" gradientUnits="userSpaceOnUse" x1="52.7408" y1="-8.494059e-02" x2="52.7408" y2="416.9954">
		<stop  offset="0" style="stop-color:#000000"/>
		<stop  offset="1" style="stop-color:#000000;stop-opacity:0"/>
	</linearGradient>
	<path fill="url(#SVGID_6_)" d="M47,98.1c-1.5,2.7-0.6,6.3,1.8,8.2c2.2,1.7,6.3,1.5,8.2-0.4c2-2,3.5-5.2-0.2-9.9
		C51.9,94.2,48.7,94.9,47,98.1z"/>
	<linearGradient id="SVGID_7_" gradientUnits="userSpaceOnUse" x1="14.4648" y1="-8.494059e-02" x2="14.4648" y2="416.9954">
		<stop  offset="0" style="stop-color:#000000"/>
		<stop  offset="1" style="stop-color:#000000;stop-opacity:0"/>
	</linearGradient>
	<path fill="url(#SVGID_7_)" d="M16.5,99.4c-2.2-0.8-4.3-0.3-6.1,1.1c-2.5,1.9-3,5.6-1.4,8.2c1.5,2.4,5.1,3.9,8.2,2.3
		c2.7-1.3,4.2-4.4,3.3-7.4c-0.4-1.1-1-2.2-1.6-3.2l0,0C18.2,100,17.3,99.7,16.5,99.4z"/>
	<linearGradient id="SVGID_8_" gradientUnits="userSpaceOnUse" x1="81.5523" y1="-8.494060e-02" x2="81.5523" y2="416.9954">
		<stop  offset="0" style="stop-color:#000000"/>
		<stop  offset="1" style="stop-color:#000000;stop-opacity:0"/>
	</linearGradient>
	<path fill="url(#SVGID_8_)" d="M86.2,102c-0.7-0.2-1.4-0.3-2.1-0.5c-1.5-0.5-2.8-0.2-4.2,0.3c-2.7,1.1-4.2,3.9-3.7,6.7
		c0.5,2.9,3,5,6,5.2c1.9,0.1,3.6-0.7,4.9-2V103c-0.1-0.2-0.3-0.3-0.4-0.5C86.5,102.3,86.3,102.2,86.2,102z"/>
	<linearGradient id="SVGID_9_" gradientUnits="userSpaceOnUse" x1="0.8026" y1="-8.494059e-02" x2="0.8026" y2="416.9954">
		<stop  offset="0" style="stop-color:#000000"/>
		<stop  offset="1" style="stop-color:#000000;stop-opacity:0"/>
	</linearGradient>
	<path fill="url(#SVGID_9_)" d="M0,103.5v8.1c1-1.1,1.6-2.6,1.6-4.1C1.6,106,1,104.6,0,103.5z"/>
	<linearGradient id="SVGID_10_" gradientUnits="userSpaceOnUse" x1="63.0651" y1="-8.494059e-02" x2="63.0651" y2="416.9954">
		<stop  offset="0" style="stop-color:#000000"/>
		<stop  offset="1" style="stop-color:#000000;stop-opacity:0"/>
	</linearGradient>
	<path fill="url(#SVGID_10_)" d="M63.2,103.5c-3.3-0.1-6.3,2.8-6.4,6.1c-0.1,3.3,2.9,6.3,6.2,6.3c3.7,0,6.2-2.5,6.3-6.1
		C69.3,106.1,66.9,103.6,63.2,103.5z"/>
	<linearGradient id="SVGID_11_" gradientUnits="userSpaceOnUse" x1="25.0577" y1="-8.494059e-02" x2="25.0577" y2="416.9954">
		<stop  offset="0" style="stop-color:#000000"/>
		<stop  offset="1" style="stop-color:#000000;stop-opacity:0"/>
	</linearGradient>
	<path fill="url(#SVGID_11_)" d="M24.8,107.6c-3.3,0-6,2.8-6,6.2c0,3.4,2.6,6.2,5.9,6.3c3.4,0.1,6.4-2.7,6.5-6
		C31.4,110.6,28.3,107.6,24.8,107.6z"/>
	<linearGradient id="SVGID_12_" gradientUnits="userSpaceOnUse" x1="6.0472" y1="-8.494059e-02" x2="6.0472" y2="416.9954">
		<stop  offset="0" style="stop-color:#000000"/>
		<stop  offset="1" style="stop-color:#000000;stop-opacity:0"/>
	</linearGradient>
	<path fill="url(#SVGID_12_)" d="M5.7,122.2c3.5,0.1,6.3-2.5,6.4-6c0.1-3.5-2.5-6.2-6-6.4c-2.6-0.1-5.2,1.8-6.1,4.3v3.7
		C0.8,120.3,3.2,122.2,5.7,122.2z"/>
	<linearGradient id="SVGID_13_" gradientUnits="userSpaceOnUse" x1="86.8021" y1="-8.494060e-02" x2="86.8021" y2="416.9954">
		<stop  offset="0" style="stop-color:#000000"/>
		<stop  offset="1" style="stop-color:#000000;stop-opacity:0"/>
	</linearGradient>
	<path fill="url(#SVGID_13_)" d="M87.1,118.3v-4.6c-0.3,0.7-0.5,1.5-0.5,2.3C86.6,116.8,86.7,117.6,87.1,118.3z"/>
	<linearGradient id="SVGID_14_" gradientUnits="userSpaceOnUse" x1="44.2912" y1="-8.494059e-02" x2="44.2912" y2="416.9954">
		<stop  offset="0" style="stop-color:#000000"/>
		<stop  offset="1" style="stop-color:#000000;stop-opacity:0"/>
	</linearGradient>
	<path fill="url(#SVGID_14_)" d="M44.4,105.9c-3.9-0.1-6.3,2.2-6.3,5.9c-0.1,3.8,2.2,6.1,6.1,6.1c3.5,0.1,6.4-2.7,6.4-6
		C50.5,108.6,47.8,105.9,44.4,105.9z"/>
	<linearGradient id="SVGID_15_" gradientUnits="userSpaceOnUse" x1="73.9431" y1="-8.494060e-02" x2="73.9431" y2="416.9954">
		<stop  offset="0" style="stop-color:#000000"/>
		<stop  offset="1" style="stop-color:#000000;stop-opacity:0"/>
	</linearGradient>
	<path fill="url(#SVGID_15_)" d="M74,112c-3.4,0-6.1,2.6-6.2,6c-0.1,3.4,2.6,6.3,5.9,6.3c3.3,0.1,6.5-2.9,6.5-6.1
		C80.1,115.1,77.1,112,74,112z"/>
	<linearGradient id="SVGID_16_" gradientUnits="userSpaceOnUse" x1="54.6887" y1="-8.494059e-02" x2="54.6887" y2="416.9954">
		<stop  offset="0" style="stop-color:#000000"/>
		<stop  offset="1" style="stop-color:#000000;stop-opacity:0"/>
	</linearGradient>
	<path fill="url(#SVGID_16_)" d="M48.5,120.1c0,3.4,2.6,6.1,6,6.1c3.7,0,6.4-2.6,6.3-6c0-3.4-2.6-5.9-6.1-6
		C51.3,114.1,48.6,116.7,48.5,120.1z"/>
	<linearGradient id="SVGID_17_" gradientUnits="userSpaceOnUse" x1="35.6357" y1="-8.494059e-02" x2="35.6357" y2="416.9954">
		<stop  offset="0" style="stop-color:#000000"/>
		<stop  offset="1" style="stop-color:#000000;stop-opacity:0"/>
	</linearGradient>
	<path fill="url(#SVGID_17_)" d="M29.5,122.4c0,3.4,2.8,6,6.2,6c3.5,0,6.1-2.6,6.1-6c0-3.4-2.7-5.9-6.1-6
		C32.2,116.3,29.5,119,29.5,122.4z"/>
	<linearGradient id="SVGID_18_" gradientUnits="userSpaceOnUse" x1="82.6761" y1="-8.494060e-02" x2="82.6761" y2="416.9954">
		<stop  offset="0" style="stop-color:#000000"/>
		<stop  offset="1" style="stop-color:#000000;stop-opacity:0"/>
	</linearGradient>
	<path fill="url(#SVGID_18_)" d="M78.3,126.4c-0.2,3.3,2.7,6.1,6.1,6.1c0.9,0,1.8-0.2,2.7-0.6v-10.8c-0.8-0.4-1.6-0.6-2.5-0.5
		C80.5,120.7,78.5,122.7,78.3,126.4z"/>
	<linearGradient id="SVGID_19_" gradientUnits="userSpaceOnUse" x1="16.586" y1="-8.494059e-02" x2="16.586" y2="416.9954">
		<stop  offset="0" style="stop-color:#000000"/>
		<stop  offset="1" style="stop-color:#000000;stop-opacity:0"/>
	</linearGradient>
	<path fill="url(#SVGID_19_)" d="M10.6,124.5c0,3.1,2.8,6,6,6c3.6,0,6-2.4,6-6c0-3.5-2.3-6-5.8-6C13.5,118.6,10.6,121.3,10.6,124.5z
		"/>
	<linearGradient id="SVGID_20_" gradientUnits="userSpaceOnUse" x1="1.6763" y1="-8.494059e-02" x2="1.6763" y2="416.9954">
		<stop  offset="0" style="stop-color:#000000"/>
		<stop  offset="1" style="stop-color:#000000;stop-opacity:0"/>
	</linearGradient>
	<path fill="url(#SVGID_20_)" d="M3.4,126.8c0-2.5-1.3-4.5-3.4-5.5v10.9C2.1,131.3,3.3,129.3,3.4,126.8z"/>
	<linearGradient id="SVGID_21_" gradientUnits="userSpaceOnUse" x1="65.4641" y1="-8.494060e-02" x2="65.4641" y2="416.9954">
		<stop  offset="0" style="stop-color:#000000"/>
		<stop  offset="1" style="stop-color:#000000;stop-opacity:0"/>
	</linearGradient>
	<path fill="url(#SVGID_21_)" d="M65.3,122.9c-3.6,0-5.8,2.1-5.8,5.8c0,3.6,2.2,5.8,5.8,5.8c3.6,0,6.1-2.3,6.1-5.7
		C71.5,125.3,69,122.9,65.3,122.9z"/>
	<linearGradient id="SVGID_22_" gradientUnits="userSpaceOnUse" x1="46.2794" y1="-8.494059e-02" x2="46.2794" y2="416.9954">
		<stop  offset="0" style="stop-color:#000000"/>
		<stop  offset="1" style="stop-color:#000000;stop-opacity:0"/>
	</linearGradient>
	<path fill="url(#SVGID_22_)" d="M46.3,125.1c-3-0.2-5.9,2.8-6,5.7c-0.1,2.9,2.9,6.2,6,5.9c3.5,0,6-2.3,6-5.7
		C52.3,127.5,49.9,125.3,46.3,125.1z"/>
	<linearGradient id="SVGID_23_" gradientUnits="userSpaceOnUse" x1="8.2536" y1="-8.494059e-02" x2="8.2536" y2="416.9954">
		<stop  offset="0" style="stop-color:#000000"/>
		<stop  offset="1" style="stop-color:#000000;stop-opacity:0"/>
	</linearGradient>
	<path fill="url(#SVGID_23_)" d="M8.3,129.1c-2.9,0.1-6.2,2.4-6,5.9c-0.3,3.5,3,5.8,5.9,6c2.9,0.1,5.9-2.8,6-5.7
		C14.3,132.2,11.3,129,8.3,129.1z"/>
	<linearGradient id="SVGID_24_" gradientUnits="userSpaceOnUse" x1="27.1154" y1="-8.494059e-02" x2="27.1154" y2="416.9954">
		<stop  offset="0" style="stop-color:#000000"/>
		<stop  offset="1" style="stop-color:#000000;stop-opacity:0"/>
	</linearGradient>
	<path fill="url(#SVGID_24_)" d="M27.1,127.3c-3.5-0.3-5.8,2.9-5.9,5.6c-0.1,2.5,2.1,6.1,5.9,5.9c3.5-0.1,5.9-2.3,6-5.8
		C33.1,129.7,30.7,127.3,27.1,127.3z"/>
	<linearGradient id="SVGID_25_" gradientUnits="userSpaceOnUse" x1="76.0424" y1="-8.494060e-02" x2="76.0424" y2="416.9954">
		<stop  offset="0" style="stop-color:#000000"/>
		<stop  offset="1" style="stop-color:#000000;stop-opacity:0"/>
	</linearGradient>
	<path fill="url(#SVGID_25_)" d="M76.2,131.3c-3.3,0-6.1,2.7-6.1,5.9c0,3.2,2.8,5.9,6,5.9c3.1,0,5.8-2.7,5.8-5.9
		C81.9,134,79.3,131.3,76.2,131.3z"/>
	<linearGradient id="SVGID_26_" gradientUnits="userSpaceOnUse" x1="56.8172" y1="-8.494059e-02" x2="56.8172" y2="416.9954">
		<stop  offset="0" style="stop-color:#000000"/>
		<stop  offset="1" style="stop-color:#000000;stop-opacity:0"/>
	</linearGradient>
	<path fill="url(#SVGID_26_)" d="M50.9,139.3c0,2.9,2.8,5.9,5.8,5.9c3.2,0.1,6-2.7,6-5.9c0-3.1-2.7-5.7-5.8-5.8
		C53.9,133.5,51,136.4,50.9,139.3z"/>
	<linearGradient id="SVGID_27_" gradientUnits="userSpaceOnUse" x1="37.7841" y1="-8.494059e-02" x2="37.7841" y2="416.9954">
		<stop  offset="0" style="stop-color:#000000"/>
		<stop  offset="1" style="stop-color:#000000;stop-opacity:0"/>
	</linearGradient>
	<path fill="url(#SVGID_27_)" d="M32,141.3c0,3.1,2.7,5.7,5.9,5.7c3.3,0,5.6-2.3,5.6-5.7c0-3.4-2.4-5.8-5.6-5.7
		C34.7,135.6,32,138.3,32,141.3z"/>
	<linearGradient id="SVGID_28_" gradientUnits="userSpaceOnUse" x1="18.56" y1="-8.494059e-02" x2="18.56" y2="416.9954">
		<stop  offset="0" style="stop-color:#000000"/>
		<stop  offset="1" style="stop-color:#000000;stop-opacity:0"/>
	</linearGradient>
	<path fill="url(#SVGID_28_)" d="M12.8,143.5c0,3.1,2.7,5.8,5.9,5.8c3.2,0,5.5-2.3,5.6-5.6c0.1-3.4-2.2-5.9-5.5-5.9
		C15.6,137.8,12.8,140.4,12.8,143.5z"/>
	<linearGradient id="SVGID_29_" gradientUnits="userSpaceOnUse" x1="83.9726" y1="-8.494060e-02" x2="83.9726" y2="416.9954">
		<stop  offset="0" style="stop-color:#000000"/>
		<stop  offset="1" style="stop-color:#000000;stop-opacity:0"/>
	</linearGradient>
	<path fill="url(#SVGID_29_)" d="M80.9,145.7c0,3.2,2.4,5.7,5.5,5.7c0.2,0,0.4,0,0.6,0V140c-0.2,0-0.3,0-0.5,0
		C83.9,139.9,80.7,142.1,80.9,145.7z"/>
	<linearGradient id="SVGID_30_" gradientUnits="userSpaceOnUse" x1="2.7511" y1="-8.494059e-02" x2="2.7511" y2="416.9954">
		<stop  offset="0" style="stop-color:#000000"/>
		<stop  offset="1" style="stop-color:#000000;stop-opacity:0"/>
	</linearGradient>
	<path fill="url(#SVGID_30_)" d="M5.5,145.8c0-2.8-2.7-5.6-5.5-5.7v11.4C2.8,151.3,5.5,148.5,5.5,145.8z"/>
	<linearGradient id="SVGID_31_" gradientUnits="userSpaceOnUse" x1="67.471" y1="-8.494060e-02" x2="67.471" y2="416.9954">
		<stop  offset="0" style="stop-color:#000000"/>
		<stop  offset="1" style="stop-color:#000000;stop-opacity:0"/>
	</linearGradient>
	<path fill="url(#SVGID_31_)" d="M67.4,142.2c-2.9,0.1-5.7,2.9-5.7,5.7c0,2.8,2.9,5.7,5.7,5.7c3.3,0,5.8-2.5,5.7-5.8
		C73.2,144.5,70.7,142.1,67.4,142.2z"/>
	<linearGradient id="SVGID_32_" gradientUnits="userSpaceOnUse" x1="48.2677" y1="-8.494059e-02" x2="48.2677" y2="416.9954">
		<stop  offset="0" style="stop-color:#000000"/>
		<stop  offset="1" style="stop-color:#000000;stop-opacity:0"/>
	</linearGradient>
	<path fill="url(#SVGID_32_)" d="M48.5,144.3c-3.4,0-6,2.4-5.9,5.6c0,3.1,2.5,5.4,5.8,5.5c3.3,0.1,5.6-2.1,5.6-5.5
		C54,146.6,51.8,144.4,48.5,144.3z"/>
	<linearGradient id="SVGID_33_" gradientUnits="userSpaceOnUse" x1="29.4059" y1="-8.494059e-02" x2="29.4059" y2="416.9954">
		<stop  offset="0" style="stop-color:#000000"/>
		<stop  offset="1" style="stop-color:#000000;stop-opacity:0"/>
	</linearGradient>
	<path fill="url(#SVGID_33_)" d="M29.4,146.5c-3.4,0-5.7,2.3-5.6,5.5c0,3.1,2.5,5.5,5.7,5.5c2.9,0,5.6-2.5,5.6-5.4
		C35.1,149.2,32.4,146.5,29.4,146.5z"/>
	<linearGradient id="SVGID_34_" gradientUnits="userSpaceOnUse" x1="78.0322" y1="-8.494060e-02" x2="78.0322" y2="416.9954">
		<stop  offset="0" style="stop-color:#000000"/>
		<stop  offset="1" style="stop-color:#000000;stop-opacity:0"/>
	</linearGradient>
	<path fill="url(#SVGID_34_)" d="M78.2,150.6c-3.2,0-5.7,2.4-5.7,5.5c0,3.2,2.4,5.6,5.7,5.6c2.9,0,5.5-2.7,5.6-5.5
		C83.7,153.3,81,150.6,78.2,150.6z"/>
	<linearGradient id="SVGID_35_" gradientUnits="userSpaceOnUse" x1="10.1736" y1="-8.494059e-02" x2="10.1736" y2="416.9954">
		<stop  offset="0" style="stop-color:#000000"/>
		<stop  offset="1" style="stop-color:#000000;stop-opacity:0"/>
	</linearGradient>
	<path fill="url(#SVGID_35_)" d="M9.9,159.8c3.5,0.3,5.8-2.9,6-5.4c0.2-2.7-2.4-5.5-5.2-5.7c-3.2-0.2-5.9,2-6.1,5.1
		C4.3,156.9,6.7,159.5,9.9,159.8z"/>
	<linearGradient id="SVGID_36_" gradientUnits="userSpaceOnUse" x1="58.9769" y1="-8.494059e-02" x2="58.9769" y2="416.9954">
		<stop  offset="0" style="stop-color:#000000"/>
		<stop  offset="1" style="stop-color:#000000;stop-opacity:0"/>
	</linearGradient>
	<path fill="url(#SVGID_36_)" d="M59.2,152.9c-3.1,0-5.6,2.4-5.7,5.3c-0.1,3,2.4,5.6,5.6,5.7c2.8,0,5.6-2.2,5.4-5.4
		C64.8,155.2,62,152.9,59.2,152.9z"/>
	<linearGradient id="SVGID_37_" gradientUnits="userSpaceOnUse" x1="85.1212" y1="-8.494060e-02" x2="85.1212" y2="416.9954">
		<stop  offset="0" style="stop-color:#000000"/>
		<stop  offset="1" style="stop-color:#000000;stop-opacity:0"/>
	</linearGradient>
	<path fill="url(#SVGID_37_)" d="M83.2,164.5c-0.1,2.2,1.7,4.4,3.9,5.3v-10.3C85,160.3,83.3,162.4,83.2,164.5z"/>
	<linearGradient id="SVGID_38_" gradientUnits="userSpaceOnUse" x1="39.7372" y1="-8.494059e-02" x2="39.7372" y2="416.9954">
		<stop  offset="0" style="stop-color:#000000"/>
		<stop  offset="1" style="stop-color:#000000;stop-opacity:0"/>
	</linearGradient>
	<path fill="url(#SVGID_38_)" d="M34.2,160.5c-0.1,2.9,2.3,5.3,5.3,5.4c3.4,0.1,5.6-1.8,5.7-5.1c0.1-3.3-1.9-5.4-5.3-5.5
		C36.8,155.2,34.3,157.5,34.2,160.5z"/>
	<linearGradient id="SVGID_39_" gradientUnits="userSpaceOnUse" x1="3.6349" y1="-8.494059e-02" x2="3.6349" y2="416.9954">
		<stop  offset="0" style="stop-color:#000000"/>
		<stop  offset="1" style="stop-color:#000000;stop-opacity:0"/>
	</linearGradient>
	<path fill="url(#SVGID_39_)" d="M7.3,164.8c0-3.1-2.2-5.4-5.4-5.5c-0.6,0-1.3,0.1-1.9,0.4v10.1c0.6,0.2,1.1,0.4,1.7,0.4
		C4.9,170.2,7.2,167.9,7.3,164.8z"/>
	<linearGradient id="SVGID_40_" gradientUnits="userSpaceOnUse" x1="20.9529" y1="-8.494059e-02" x2="20.9529" y2="416.9954">
		<stop  offset="0" style="stop-color:#000000"/>
		<stop  offset="1" style="stop-color:#000000;stop-opacity:0"/>
	</linearGradient>
	<path fill="url(#SVGID_40_)" d="M15.5,162.7c0,3.1,2.3,5.3,5.5,5.3c3.1,0,5.6-2.4,5.5-5.3c-0.1-2.9-2.4-5.2-5.4-5.2
		C17.8,157.4,15.5,159.6,15.5,162.7z"/>
	<linearGradient id="SVGID_41_" gradientUnits="userSpaceOnUse" x1="69.4395" y1="-8.494060e-02" x2="69.4395" y2="416.9954">
		<stop  offset="0" style="stop-color:#000000"/>
		<stop  offset="1" style="stop-color:#000000;stop-opacity:0"/>
	</linearGradient>
	<path fill="url(#SVGID_41_)" d="M69.5,161.4c-2.7,0-5.5,2.7-5.5,5.3c-0.1,2.7,2.6,5.5,5.3,5.5c3,0.1,5.6-2.3,5.6-5.3
		C75,164,72.5,161.5,69.5,161.4z"/>
	<linearGradient id="SVGID_42_" gradientUnits="userSpaceOnUse" x1="50.5864" y1="-8.494059e-02" x2="50.5864" y2="416.9954">
		<stop  offset="0" style="stop-color:#000000"/>
		<stop  offset="1" style="stop-color:#000000;stop-opacity:0"/>
	</linearGradient>
	<path fill="url(#SVGID_42_)" d="M50.5,163.7c-2.9,0-5.3,2.4-5.3,5.3c0,2.9,2.4,5.4,5.2,5.5c2.9,0,5.7-2.7,5.6-5.5
		C55.9,166.3,53.3,163.7,50.5,163.7z"/>
	<linearGradient id="SVGID_43_" gradientUnits="userSpaceOnUse" x1="31.5534" y1="-8.494059e-02" x2="31.5534" y2="416.9954">
		<stop  offset="0" style="stop-color:#000000"/>
		<stop  offset="1" style="stop-color:#000000;stop-opacity:0"/>
	</linearGradient>
	<path fill="url(#SVGID_43_)" d="M31.6,165.8c-3.1,0-5.4,2.3-5.4,5.2c0,2.9,2.4,5.3,5.3,5.3c3.1,0,5.4-2.3,5.4-5.2
		C36.9,168.1,34.6,165.7,31.6,165.8z"/>
	<linearGradient id="SVGID_44_" gradientUnits="userSpaceOnUse" x1="12.4388" y1="-8.494059e-02" x2="12.4388" y2="416.9954">
		<stop  offset="0" style="stop-color:#000000"/>
		<stop  offset="1" style="stop-color:#000000;stop-opacity:0"/>
	</linearGradient>
	<path fill="url(#SVGID_44_)" d="M12.2,178.5c2.9,0,5.5-2.4,5.5-5.2c0-2.8-2.5-5.3-5.4-5.3c-2.9,0-5,2-5.1,4.9
		C7.1,176,9.3,178.5,12.2,178.5z"/>
	<linearGradient id="SVGID_45_" gradientUnits="userSpaceOnUse" x1="80.1432" y1="-8.494060e-02" x2="80.1432" y2="416.9954">
		<stop  offset="0" style="stop-color:#000000"/>
		<stop  offset="1" style="stop-color:#000000;stop-opacity:0"/>
	</linearGradient>
	<path fill="url(#SVGID_45_)" d="M85.4,175.4c0-2.9-2.3-5.3-5.1-5.2c-2.9,0-5.4,2.5-5.4,5.3c0,2.8,2.5,5.2,5.4,5.3
		C83.1,180.7,85.4,178.3,85.4,175.4z"/>
	<linearGradient id="SVGID_46_" gradientUnits="userSpaceOnUse" x1="61.3587" y1="-8.494059e-02" x2="61.3587" y2="416.9954">
		<stop  offset="0" style="stop-color:#000000"/>
		<stop  offset="1" style="stop-color:#000000;stop-opacity:0"/>
	</linearGradient>
	<path fill="url(#SVGID_46_)" d="M61.2,172.4c-2.9,0.1-5.1,2.4-5.1,5.2c0,2.9,2.3,5.2,5.2,5.2c2.7,0,5.3-2.4,5.4-5.1
		C66.7,174.9,64,172.3,61.2,172.4z"/>
	<linearGradient id="SVGID_47_" gradientUnits="userSpaceOnUse" x1="42.1293" y1="-8.494059e-02" x2="42.1293" y2="416.9954">
		<stop  offset="0" style="stop-color:#000000"/>
		<stop  offset="1" style="stop-color:#000000;stop-opacity:0"/>
	</linearGradient>
	<path fill="url(#SVGID_47_)" d="M36.9,179.4c-0.1,3,2,5.1,5.1,5.2c2.9,0,5.3-2.2,5.4-4.9c0.1-2.8-2.4-5.2-5.4-5.2
		C39,174.5,37,176.5,36.9,179.4z"/>
	<linearGradient id="SVGID_48_" gradientUnits="userSpaceOnUse" x1="22.9631" y1="-8.494059e-02" x2="22.9631" y2="416.9954">
		<stop  offset="0" style="stop-color:#000000"/>
		<stop  offset="1" style="stop-color:#000000;stop-opacity:0"/>
	</linearGradient>
	<path fill="url(#SVGID_48_)" d="M22.9,186.8c3.1,0,5.2-2,5.3-5c0-2.9-2.1-5-5.2-5.1c-2.7,0-5.2,2.2-5.3,4.9
		C17.6,184.3,20.1,186.8,22.9,186.8z"/>
	<linearGradient id="SVGID_49_" gradientUnits="userSpaceOnUse" x1="4.4835" y1="-8.494059e-02" x2="4.4835" y2="416.9954">
		<stop  offset="0" style="stop-color:#000000"/>
		<stop  offset="1" style="stop-color:#000000;stop-opacity:0"/>
	</linearGradient>
	<path fill="url(#SVGID_49_)" d="M9,184c0-2.9-2.1-5.1-5.1-5.1c-1.5,0-2.9,0.6-3.8,1.6v6.8c0.9,1,2.2,1.6,3.7,1.6
		C6.7,189,8.9,187,9,184z"/>
	<linearGradient id="SVGID_50_" gradientUnits="userSpaceOnUse" x1="86.433" y1="-8.494060e-02" x2="86.433" y2="416.9954">
		<stop  offset="0" style="stop-color:#000000"/>
		<stop  offset="1" style="stop-color:#000000;stop-opacity:0"/>
	</linearGradient>
	<path fill="url(#SVGID_50_)" d="M87.1,187.3v-6.7c-0.8,0.9-1.2,2-1.2,3.3C85.8,185.2,86.3,186.4,87.1,187.3z"/>
	<linearGradient id="SVGID_51_" gradientUnits="userSpaceOnUse" x1="71.7456" y1="-8.494060e-02" x2="71.7456" y2="416.9954">
		<stop  offset="0" style="stop-color:#000000"/>
		<stop  offset="1" style="stop-color:#000000;stop-opacity:0"/>
	</linearGradient>
	<path fill="url(#SVGID_51_)" d="M76.9,186c0.1-2.7-2.4-5.2-5.2-5.2c-2.7,0-5,2.2-5.1,5c-0.1,2.8,2.1,5.1,4.8,5.2
		C74.2,191.1,76.8,188.7,76.9,186z"/>
	<linearGradient id="SVGID_52_" gradientUnits="userSpaceOnUse" x1="52.7351" y1="-8.494059e-02" x2="52.7351" y2="416.9954">
		<stop  offset="0" style="stop-color:#000000"/>
		<stop  offset="1" style="stop-color:#000000;stop-opacity:0"/>
	</linearGradient>
	<path fill="url(#SVGID_52_)" d="M57.9,188.2c0.1-2.7-2.3-5.1-4.9-5.2c-2.7-0.1-5.2,2.2-5.3,4.9c-0.1,2.7,2.3,5.3,5.1,5.3
		C55.3,193.2,57.8,190.9,57.9,188.2z"/>
	<linearGradient id="SVGID_53_" gradientUnits="userSpaceOnUse" x1="82.2923" y1="-8.494060e-02" x2="82.2923" y2="416.9954">
		<stop  offset="0" style="stop-color:#000000"/>
		<stop  offset="1" style="stop-color:#000000;stop-opacity:0"/>
	</linearGradient>
	<path fill="url(#SVGID_53_)" d="M82.3,189.4c-2.7,0-4.8,2.2-4.8,4.9c0,3,2.2,5.1,4.9,5.1c2-0.1,3.8-1.3,4.6-3v-4.1
		C86.2,190.6,84.4,189.4,82.3,189.4z"/>
	<linearGradient id="SVGID_54_" gradientUnits="userSpaceOnUse" x1="33.6252" y1="-8.494059e-02" x2="33.6252" y2="416.9954">
		<stop  offset="0" style="stop-color:#000000"/>
		<stop  offset="1" style="stop-color:#000000;stop-opacity:0"/>
	</linearGradient>
	<path fill="url(#SVGID_54_)" d="M33.6,195.1c3,0,5.1-2,5.1-4.8c0-2.8-2-4.7-4.9-4.8c-3.1,0-5.1,1.8-5.1,4.7
		C28.6,193.2,30.5,195,33.6,195.1z"/>
	<linearGradient id="SVGID_55_" gradientUnits="userSpaceOnUse" x1="14.4396" y1="-8.494059e-02" x2="14.4396" y2="416.9954">
		<stop  offset="0" style="stop-color:#000000"/>
		<stop  offset="1" style="stop-color:#000000;stop-opacity:0"/>
	</linearGradient>
	<path fill="url(#SVGID_55_)" d="M9.4,192.2c-0.2,2.7,1.9,4.9,4.6,5.1c3.1,0.2,5.2-1.5,5.4-4.4c0.2-2.9-1.5-5-4.4-5.2
		C12,187.4,9.6,189.3,9.4,192.2z"/>
	<linearGradient id="SVGID_56_" gradientUnits="userSpaceOnUse" x1="0.1095" y1="-8.494059e-02" x2="0.1095" y2="416.9954">
		<stop  offset="0" style="stop-color:#000000"/>
		<stop  offset="1" style="stop-color:#000000;stop-opacity:0"/>
	</linearGradient>
	<path fill="url(#SVGID_56_)" d="M0,193v2.7c0.1-0.4,0.2-0.8,0.2-1.2C0.2,194,0.1,193.5,0,193z"/>
	<linearGradient id="SVGID_57_" gradientUnits="userSpaceOnUse" x1="63.3127" y1="-8.494059e-02" x2="63.3127" y2="416.9954">
		<stop  offset="0" style="stop-color:#000000"/>
		<stop  offset="1" style="stop-color:#000000;stop-opacity:0"/>
	</linearGradient>
	<path fill="url(#SVGID_57_)" d="M63.3,201.5c2.4,0,5-2.6,5-5c0-2.4-2.5-4.9-5-5c-2.7,0-5.1,2.4-5,5.1
		C58.4,199.3,60.8,201.6,63.3,201.5z"/>
	<linearGradient id="SVGID_58_" gradientUnits="userSpaceOnUse" x1="44.1954" y1="-8.494059e-02" x2="44.1954" y2="416.9954">
		<stop  offset="0" style="stop-color:#000000"/>
		<stop  offset="1" style="stop-color:#000000;stop-opacity:0"/>
	</linearGradient>
	<path fill="url(#SVGID_58_)" d="M44.3,193.9c-2.6,0-4.9,2.2-5,4.8c-0.1,2.6,2.3,5,5,5c2.5,0,4.9-2.3,4.9-4.9
		C49.1,196.2,46.8,193.8,44.3,193.9z"/>
	<linearGradient id="SVGID_59_" gradientUnits="userSpaceOnUse" x1="6.0405" y1="-8.494059e-02" x2="6.0405" y2="416.9954">
		<stop  offset="0" style="stop-color:#000000"/>
		<stop  offset="1" style="stop-color:#000000;stop-opacity:0"/>
	</linearGradient>
	<path fill="url(#SVGID_59_)" d="M1.2,203.1c0.1,2.6,2.4,4.7,5.1,4.6c2.5-0.1,4.7-2.4,4.7-4.8c-0.1-2.6-2.4-4.8-5-4.7
		C3.2,198.3,1,200.5,1.2,203.1z"/>
	<linearGradient id="SVGID_60_" gradientUnits="userSpaceOnUse" x1="25.0029" y1="-8.494059e-02" x2="25.0029" y2="416.9954">
		<stop  offset="0" style="stop-color:#000000"/>
		<stop  offset="1" style="stop-color:#000000;stop-opacity:0"/>
	</linearGradient>
	<path fill="url(#SVGID_60_)" d="M25,196c-2.6-0.1-5,2.2-4.9,4.8c0,2.5,2.2,4.7,4.8,4.7c2.7,0,5-2.1,5-4.7
		C29.9,198.2,27.8,196,25,196z"/>
	<linearGradient id="SVGID_61_" gradientUnits="userSpaceOnUse" x1="74.0314" y1="-8.494060e-02" x2="74.0314" y2="416.9954">
		<stop  offset="0" style="stop-color:#000000"/>
		<stop  offset="1" style="stop-color:#000000;stop-opacity:0"/>
	</linearGradient>
	<path fill="url(#SVGID_61_)" d="M73.9,200.3c-2.7-0.1-4.6,1.9-4.7,4.7c0,2.9,1.9,4.9,4.8,4.8c2.6,0,4.8-2.1,4.8-4.7
		C78.8,202.5,76.7,200.4,73.9,200.3z"/>
	<linearGradient id="SVGID_62_" gradientUnits="userSpaceOnUse" x1="54.8083" y1="-8.494059e-02" x2="54.8083" y2="416.9954">
		<stop  offset="0" style="stop-color:#000000"/>
		<stop  offset="1" style="stop-color:#000000;stop-opacity:0"/>
	</linearGradient>
	<path fill="url(#SVGID_62_)" d="M54.7,212c2.4,0,4.8-2.3,4.8-4.7c0-2.4-2.4-4.8-4.8-4.8c-2.8,0-4.7,1.9-4.8,4.6
		C50,210,51.9,212,54.7,212z"/>
	<linearGradient id="SVGID_63_" gradientUnits="userSpaceOnUse" x1="16.8336" y1="-8.494059e-02" x2="16.8336" y2="416.9954">
		<stop  offset="0" style="stop-color:#000000"/>
		<stop  offset="1" style="stop-color:#000000;stop-opacity:0"/>
	</linearGradient>
	<path fill="url(#SVGID_63_)" d="M16.9,216c2.6,0,4.6-1.9,4.7-4.4c0.1-2.6-2-4.7-4.7-4.7c-2.8,0-4.8,1.9-4.8,4.5
		C12.1,214.1,14.1,216,16.9,216z"/>
	<linearGradient id="SVGID_64_" gradientUnits="userSpaceOnUse" x1="35.634" y1="-8.494059e-02" x2="35.634" y2="416.9954">
		<stop  offset="0" style="stop-color:#000000"/>
		<stop  offset="1" style="stop-color:#000000;stop-opacity:0"/>
	</linearGradient>
	<path fill="url(#SVGID_64_)" d="M35.5,213.8c2.8,0.1,4.8-1.8,4.9-4.4c0.1-2.7-1.9-4.6-4.7-4.7c-2.7,0-4.8,2-4.8,4.6
		C30.9,211.8,32.9,213.7,35.5,213.8z"/>
	<linearGradient id="SVGID_65_" gradientUnits="userSpaceOnUse" x1="83.3976" y1="-8.494060e-02" x2="83.3976" y2="416.9954">
		<stop  offset="0" style="stop-color:#000000"/>
		<stop  offset="1" style="stop-color:#000000;stop-opacity:0"/>
	</linearGradient>
	<path fill="url(#SVGID_65_)" d="M79.7,213.6c0,2.6,2,4.6,4.8,4.6c0.9,0,1.8-0.3,2.5-0.7v-7.6c-0.8-0.5-1.7-0.8-2.7-0.7
		C81.7,209.1,79.8,211,79.7,213.6z"/>
	<linearGradient id="SVGID_66_" gradientUnits="userSpaceOnUse" x1="1.1275" y1="-8.494059e-02" x2="1.1275" y2="416.9954">
		<stop  offset="0" style="stop-color:#000000"/>
		<stop  offset="1" style="stop-color:#000000;stop-opacity:0"/>
	</linearGradient>
	<path fill="url(#SVGID_66_)" d="M2.3,213.8c0.1-1.7-0.8-3.2-2.3-4v7.7C1.3,216.7,2.2,215.4,2.3,213.8z"/>
	<linearGradient id="SVGID_67_" gradientUnits="userSpaceOnUse" x1="65.4087" y1="-8.494060e-02" x2="65.4087" y2="416.9954">
		<stop  offset="0" style="stop-color:#000000"/>
		<stop  offset="1" style="stop-color:#000000;stop-opacity:0"/>
	</linearGradient>
	<path fill="url(#SVGID_67_)" d="M65.6,210.9c-2.4,0-4.7,2-4.8,4.4c-0.1,2.4,2.1,4.8,4.6,4.8c2.3,0.1,4.6-2.3,4.7-4.6
		C70.1,213.1,68,211,65.6,210.9z"/>
	<linearGradient id="SVGID_68_" gradientUnits="userSpaceOnUse" x1="46.4477" y1="-8.494059e-02" x2="46.4477" y2="416.9954">
		<stop  offset="0" style="stop-color:#000000"/>
		<stop  offset="1" style="stop-color:#000000;stop-opacity:0"/>
	</linearGradient>
	<path fill="url(#SVGID_68_)" d="M46.4,222.4c2.5,0,4.7-2.2,4.7-4.6c0-2.4-2.1-4.6-4.6-4.7c-2.3-0.1-4.7,2.2-4.7,4.5
		C41.8,220,44.1,222.4,46.4,222.4z"/>
	<linearGradient id="SVGID_69_" gradientUnits="userSpaceOnUse" x1="27.1122" y1="-8.494059e-02" x2="27.1122" y2="416.9954">
		<stop  offset="0" style="stop-color:#000000"/>
		<stop  offset="1" style="stop-color:#000000;stop-opacity:0"/>
	</linearGradient>
	<path fill="url(#SVGID_69_)" d="M31.6,220.1c0.1-2.7-1.7-4.7-4.3-4.7c-2.4,0-4.7,2.1-4.7,4.5c0,2.4,2.2,4.6,4.7,4.6
		C29.8,224.5,31.6,222.7,31.6,220.1z"/>
	<linearGradient id="SVGID_70_" gradientUnits="userSpaceOnUse" x1="76.0412" y1="-8.494060e-02" x2="76.0412" y2="416.9954">
		<stop  offset="0" style="stop-color:#000000"/>
		<stop  offset="1" style="stop-color:#000000;stop-opacity:0"/>
	</linearGradient>
	<path fill="url(#SVGID_70_)" d="M76.2,219.6c-2.4,0-4.7,2.2-4.7,4.6c0,2.4,2.3,4.5,4.7,4.5c2.4,0,4.3-2.1,4.3-4.6
		C80.5,221.6,78.5,219.5,76.2,219.6z"/>
	<linearGradient id="SVGID_71_" gradientUnits="userSpaceOnUse" x1="56.8161" y1="-8.494059e-02" x2="56.8161" y2="416.9954">
		<stop  offset="0" style="stop-color:#000000"/>
		<stop  offset="1" style="stop-color:#000000;stop-opacity:0"/>
	</linearGradient>
	<path fill="url(#SVGID_71_)" d="M61.3,226.3c0-2.6-2-4.6-4.6-4.5c-2.3,0-4.5,2.2-4.5,4.5c0,2.2,2.2,4.4,4.4,4.5
		C59.3,230.8,61.3,228.8,61.3,226.3z"/>
	<linearGradient id="SVGID_72_" gradientUnits="userSpaceOnUse" x1="8.3177" y1="-8.494059e-02" x2="8.3177" y2="416.9954">
		<stop  offset="0" style="stop-color:#000000"/>
		<stop  offset="1" style="stop-color:#000000;stop-opacity:0"/>
	</linearGradient>
	<path fill="url(#SVGID_72_)" d="M8,226.5c2.8,0.1,4.8-1.8,4.9-4.5c0-2.3-2.1-4.1-4.6-4.2c-2.8,0-4.3,1.5-4.4,4.2
		C3.7,224.8,5.2,226.4,8,226.5z"/>
	<linearGradient id="SVGID_73_" gradientUnits="userSpaceOnUse" x1="37.9674" y1="-8.494059e-02" x2="37.9674" y2="416.9954">
		<stop  offset="0" style="stop-color:#000000"/>
		<stop  offset="1" style="stop-color:#000000;stop-opacity:0"/>
	</linearGradient>
	<path fill="url(#SVGID_73_)" d="M37.9,232.9c2.3,0,4.5-2.2,4.6-4.4c0-2.2-2.3-4.4-4.5-4.5c-2.4,0-4.4,2-4.4,4.4
		C33.5,230.8,35.5,232.9,37.9,232.9z"/>
	<linearGradient id="SVGID_74_" gradientUnits="userSpaceOnUse" x1="18.7809" y1="-8.494059e-02" x2="18.7809" y2="416.9954">
		<stop  offset="0" style="stop-color:#000000"/>
		<stop  offset="1" style="stop-color:#000000;stop-opacity:0"/>
	</linearGradient>
	<path fill="url(#SVGID_74_)" d="M23.3,230.5c0.1-2.2-1.9-4.3-4.2-4.4c-2.5-0.1-4.6,1.7-4.8,4.1c-0.1,2.3,1.8,4.4,4.3,4.5
		C21,234.8,23.2,232.9,23.3,230.5z"/>
	<linearGradient id="SVGID_75_" gradientUnits="userSpaceOnUse" x1="84.6195" y1="-8.494060e-02" x2="84.6195" y2="416.9954">
		<stop  offset="0" style="stop-color:#000000"/>
		<stop  offset="1" style="stop-color:#000000;stop-opacity:0"/>
	</linearGradient>
	<path fill="url(#SVGID_75_)" d="M82.2,232.5c-0.1,2.5,1.8,4.4,4.3,4.4c0.2,0,0.3,0,0.5-0.1v-8.5c-0.2,0-0.4-0.1-0.6-0.1
		C84.1,228.3,82.2,230.1,82.2,232.5z"/>
	<linearGradient id="SVGID_76_" gradientUnits="userSpaceOnUse" x1="2.0567" y1="-8.494059e-02" x2="2.0567" y2="416.9954">
		<stop  offset="0" style="stop-color:#000000"/>
		<stop  offset="1" style="stop-color:#000000;stop-opacity:0"/>
	</linearGradient>
	<path fill="url(#SVGID_76_)" d="M4.1,232.7c0-2.2-1.9-4.2-4.1-4.3v8.5C2.2,236.8,4.1,234.9,4.1,232.7z"/>
	<linearGradient id="SVGID_77_" gradientUnits="userSpaceOnUse" x1="67.5185" y1="-8.494060e-02" x2="67.5185" y2="416.9954">
		<stop  offset="0" style="stop-color:#000000"/>
		<stop  offset="1" style="stop-color:#000000;stop-opacity:0"/>
	</linearGradient>
	<path fill="url(#SVGID_77_)" d="M67.6,230.5c-2.3-0.1-4.3,1.9-4.4,4.2c-0.1,2.3,1.9,4.3,4.2,4.4c2.6,0.1,4.4-1.7,4.4-4.3
		C71.8,232.3,70.2,230.6,67.6,230.5z"/>
	<linearGradient id="SVGID_78_" gradientUnits="userSpaceOnUse" x1="48.295" y1="-8.494059e-02" x2="48.295" y2="416.9954">
		<stop  offset="0" style="stop-color:#000000"/>
		<stop  offset="1" style="stop-color:#000000;stop-opacity:0"/>
	</linearGradient>
	<path fill="url(#SVGID_78_)" d="M52.6,236.9c0-2.5-1.7-4.2-4.2-4.2c-2.3,0-4.3,2-4.3,4.2c0,2.3,2,4.3,4.2,4.3
		C50.9,241.3,52.6,239.5,52.6,236.9z"/>
	<linearGradient id="SVGID_79_" gradientUnits="userSpaceOnUse" x1="10.3362" y1="-8.494059e-02" x2="10.3362" y2="416.9954">
		<stop  offset="0" style="stop-color:#000000"/>
		<stop  offset="1" style="stop-color:#000000;stop-opacity:0"/>
	</linearGradient>
	<path fill="url(#SVGID_79_)" d="M10.4,245.2c2.6,0,4.2-1.6,4.2-4.1c0-2.5-1.7-4-4.3-4c-2.1,0-4.2,2-4.2,4
		C6,243.2,8.2,245.2,10.4,245.2z"/>
	<linearGradient id="SVGID_80_" gradientUnits="userSpaceOnUse" x1="29.5072" y1="-8.494059e-02" x2="29.5072" y2="416.9954">
		<stop  offset="0" style="stop-color:#000000"/>
		<stop  offset="1" style="stop-color:#000000;stop-opacity:0"/>
	</linearGradient>
	<path fill="url(#SVGID_80_)" d="M29.5,243c2.1,0,4.2-1.9,4.3-3.9c0.1-2.1-2-4.2-4.3-4.2c-2.6,0-4.2,1.6-4.3,4.1
		C25.2,241.4,26.9,243,29.5,243z"/>
	<linearGradient id="SVGID_81_" gradientUnits="userSpaceOnUse" x1="78.0495" y1="-8.494060e-02" x2="78.0495" y2="416.9954">
		<stop  offset="0" style="stop-color:#000000"/>
		<stop  offset="1" style="stop-color:#000000;stop-opacity:0"/>
	</linearGradient>
	<path fill="url(#SVGID_81_)" d="M78.3,239.2c-2.4,0-4.4,1.8-4.4,4.1c0,2.2,2,4.1,4.4,4.1c2.4,0,4-1.6,4-4.1
		C82.3,240.9,80.7,239.3,78.3,239.2z"/>
	<linearGradient id="SVGID_82_" gradientUnits="userSpaceOnUse" x1="59.1193" y1="-8.494059e-02" x2="59.1193" y2="416.9954">
		<stop  offset="0" style="stop-color:#000000"/>
		<stop  offset="1" style="stop-color:#000000;stop-opacity:0"/>
	</linearGradient>
	<path fill="url(#SVGID_82_)" d="M58.9,249.4c2.3,0.1,4.4-1.8,4.4-4.1c0-2.2-1.7-4-4-4.2c-2.2-0.1-4.2,1.7-4.3,3.9
		C54.9,247.3,56.7,249.3,58.9,249.4z"/>
	<linearGradient id="SVGID_83_" gradientUnits="userSpaceOnUse" x1="39.897" y1="-8.494059e-02" x2="39.897" y2="416.9954">
		<stop  offset="0" style="stop-color:#000000"/>
		<stop  offset="1" style="stop-color:#000000;stop-opacity:0"/>
	</linearGradient>
	<path fill="url(#SVGID_83_)" d="M44.1,247.5c0-2.1-2-4.1-4.2-4.1c-2.3,0-4.2,1.8-4.2,4.1c0,2.2,1.9,4,4.2,4
		C41.9,251.5,44,249.5,44.1,247.5z"/>
	<linearGradient id="SVGID_84_" gradientUnits="userSpaceOnUse" x1="21.0042" y1="-8.494059e-02" x2="21.0042" y2="416.9954">
		<stop  offset="0" style="stop-color:#000000"/>
		<stop  offset="1" style="stop-color:#000000;stop-opacity:0"/>
	</linearGradient>
	<path fill="url(#SVGID_84_)" d="M20.7,253.7c2.3,0.1,4.3-1.7,4.3-3.9c0.1-2.2-1.8-4.1-4.1-4.2c-2-0.1-3.9,1.8-4,3.9
		C16.9,251.7,18.7,253.7,20.7,253.7z"/>
	<linearGradient id="SVGID_85_" gradientUnits="userSpaceOnUse" x1="85.8668" y1="-8.494060e-02" x2="85.8668" y2="416.9954">
		<stop  offset="0" style="stop-color:#000000"/>
		<stop  offset="1" style="stop-color:#000000;stop-opacity:0"/>
	</linearGradient>
	<path fill="url(#SVGID_85_)" d="M84.7,251.6c0,1.4,1,2.8,2.4,3.5V248C85.7,248.8,84.6,250.2,84.7,251.6z"/>
	<linearGradient id="SVGID_86_" gradientUnits="userSpaceOnUse" x1="69.4869" y1="-8.494060e-02" x2="69.4869" y2="416.9954">
		<stop  offset="0" style="stop-color:#000000"/>
		<stop  offset="1" style="stop-color:#000000;stop-opacity:0"/>
	</linearGradient>
	<path fill="url(#SVGID_86_)" d="M65.5,253.7c0,2,2,4,4,4.1c2.2,0,4-1.6,4.1-3.8c0.1-2.3-1.6-4.1-4-4.2
		C67.6,249.7,65.5,251.7,65.5,253.7z"/>
	<linearGradient id="SVGID_87_" gradientUnits="userSpaceOnUse" x1="2.9332" y1="-8.494059e-02" x2="2.9332" y2="416.9954">
		<stop  offset="0" style="stop-color:#000000"/>
		<stop  offset="1" style="stop-color:#000000;stop-opacity:0"/>
	</linearGradient>
	<path fill="url(#SVGID_87_)" d="M5.9,252c0.1-2.3-1.4-3.8-3.6-3.9c-0.8,0-1.6,0.1-2.3,0.4v6.8c0.5,0.3,1.1,0.4,1.8,0.5
		C4.2,255.8,5.8,254.3,5.9,252z"/>
	<linearGradient id="SVGID_88_" gradientUnits="userSpaceOnUse" x1="50.6386" y1="-8.494059e-02" x2="50.6386" y2="416.9954">
		<stop  offset="0" style="stop-color:#000000"/>
		<stop  offset="1" style="stop-color:#000000;stop-opacity:0"/>
	</linearGradient>
	<path fill="url(#SVGID_88_)" d="M50.7,259.9c2.2-0.1,4-2,4-4c-0.1-2.1-2-3.9-4.1-3.9c-2.2,0-3.9,1.8-3.8,4
		C46.7,258.2,48.5,260,50.7,259.9z"/>
	<linearGradient id="SVGID_89_" gradientUnits="userSpaceOnUse" x1="31.5686" y1="-8.494059e-02" x2="31.5686" y2="416.9954">
		<stop  offset="0" style="stop-color:#000000"/>
		<stop  offset="1" style="stop-color:#000000;stop-opacity:0"/>
	</linearGradient>
	<path fill="url(#SVGID_89_)" d="M31.6,262.1c1.8,0,3.9-1.9,3.9-3.8c0.1-1.9-1.8-4-3.6-4.1c-2.2-0.2-4.3,1.8-4.3,3.9
		C27.6,260.2,29.5,262.1,31.6,262.1z"/>
	<linearGradient id="SVGID_90_" gradientUnits="userSpaceOnUse" x1="12.3799" y1="-8.494059e-02" x2="12.3799" y2="416.9954">
		<stop  offset="0" style="stop-color:#000000"/>
		<stop  offset="1" style="stop-color:#000000;stop-opacity:0"/>
	</linearGradient>
	<path fill="url(#SVGID_90_)" d="M12.6,256.3c-2.2,0-4.2,1.8-4.1,3.9c0,1.9,1.9,3.7,4,3.7c2.2,0,3.8-1.6,3.9-3.7
		C16.3,258,14.7,256.4,12.6,256.3z"/>
	<linearGradient id="SVGID_91_" gradientUnits="userSpaceOnUse" x1="80.1902" y1="-8.494060e-02" x2="80.1902" y2="416.9954">
		<stop  offset="0" style="stop-color:#000000"/>
		<stop  offset="1" style="stop-color:#000000;stop-opacity:0"/>
	</linearGradient>
	<path fill="url(#SVGID_91_)" d="M80.3,258.5c-2.2-0.1-4,1.6-4,3.8c0,2.1,1.7,3.8,3.8,3.7c2.2,0,3.8-1.6,3.8-3.7
		C84,260.2,82.5,258.6,80.3,258.5z"/>
	<linearGradient id="SVGID_92_" gradientUnits="userSpaceOnUse" x1="61.3749" y1="-8.494059e-02" x2="61.3749" y2="416.9954">
		<stop  offset="0" style="stop-color:#000000"/>
		<stop  offset="1" style="stop-color:#000000;stop-opacity:0"/>
	</linearGradient>
	<path fill="url(#SVGID_92_)" d="M61.2,268.3c2.2,0.1,3.8-1.4,3.9-3.6c0.1-2.2-1.4-3.9-3.6-4c-2.2-0.1-3.9,1.5-3.9,3.6
		C57.5,266.5,59,268.1,61.2,268.3z"/>
	<linearGradient id="SVGID_93_" gradientUnits="userSpaceOnUse" x1="42.1793" y1="-8.494059e-02" x2="42.1793" y2="416.9954">
		<stop  offset="0" style="stop-color:#000000"/>
		<stop  offset="1" style="stop-color:#000000;stop-opacity:0"/>
	</linearGradient>
	<path fill="url(#SVGID_93_)" d="M42.1,270c2.2,0,3.9-1.6,3.8-3.7c0-2-1.7-3.5-3.8-3.5c-2.5,0-3.8,1.2-3.8,3.5
		C38.4,268.7,39.7,270,42.1,270z"/>
	<linearGradient id="SVGID_94_" gradientUnits="userSpaceOnUse" x1="23.0084" y1="-8.494059e-02" x2="23.0084" y2="416.9954">
		<stop  offset="0" style="stop-color:#000000"/>
		<stop  offset="1" style="stop-color:#000000;stop-opacity:0"/>
	</linearGradient>
	<path fill="url(#SVGID_94_)" d="M26.8,268.8c0.1-2-1.5-3.7-3.6-3.7c-2.2,0-4,1.5-4,3.6c0,1.9,1.6,3.5,3.8,3.6
		C25.1,272.3,26.7,270.8,26.8,268.8z"/>
	<linearGradient id="SVGID_95_" gradientUnits="userSpaceOnUse" x1="3.8369" y1="-8.494059e-02" x2="3.8369" y2="416.9954">
		<stop  offset="0" style="stop-color:#000000"/>
		<stop  offset="1" style="stop-color:#000000;stop-opacity:0"/>
	</linearGradient>
	<path fill="url(#SVGID_95_)" d="M0.1,270.7c-0.1,2.1,1.5,3.7,3.8,3.7c2,0,3.7-1.6,3.6-3.6c0-2-1.6-3.6-3.7-3.6
		C1.7,267.3,0.2,268.7,0.1,270.7z"/>
	<linearGradient id="SVGID_96_" gradientUnits="userSpaceOnUse" x1="52.7871" y1="-8.494059e-02" x2="52.7871" y2="416.9954">
		<stop  offset="0" style="stop-color:#000000"/>
		<stop  offset="1" style="stop-color:#000000;stop-opacity:0"/>
	</linearGradient>
	<path fill="url(#SVGID_96_)" d="M56.5,275.1c0.1-2-1.6-3.7-3.5-3.8c-1.9-0.1-3.8,1.7-3.8,3.5c-0.1,1.9,1.6,3.7,3.6,3.8
		C54.6,278.7,56.4,277,56.5,275.1z"/>
	<linearGradient id="SVGID_97_" gradientUnits="userSpaceOnUse" x1="71.8434" y1="-8.494060e-02" x2="71.8434" y2="416.9954">
		<stop  offset="0" style="stop-color:#000000"/>
		<stop  offset="1" style="stop-color:#000000;stop-opacity:0"/>
	</linearGradient>
	<path fill="url(#SVGID_97_)" d="M75.6,273c0-1.9-1.7-3.5-3.8-3.5c-2,0-3.7,1.6-3.6,3.6c0,1.9,1.6,3.5,3.5,3.5
		C73.8,276.6,75.6,274.9,75.6,273z"/>
	<linearGradient id="SVGID_98_" gradientUnits="userSpaceOnUse" x1="33.6766" y1="-8.494059e-02" x2="33.6766" y2="416.9954">
		<stop  offset="0" style="stop-color:#000000"/>
		<stop  offset="1" style="stop-color:#000000;stop-opacity:0"/>
	</linearGradient>
	<path fill="url(#SVGID_98_)" d="M33.5,280.7c2.2,0,3.7-1.5,3.7-3.5c0-2-1.7-3.7-3.6-3.7c-2,0-3.5,1.6-3.5,3.7
		C30.1,279.3,31.6,280.7,33.5,280.7z"/>
	<linearGradient id="SVGID_99_" gradientUnits="userSpaceOnUse" x1="82.5891" y1="-8.494060e-02" x2="82.5891" y2="416.9954">
		<stop  offset="0" style="stop-color:#000000"/>
		<stop  offset="1" style="stop-color:#000000;stop-opacity:0"/>
	</linearGradient>
	<path fill="url(#SVGID_99_)" d="M82.7,284.8c1.9,0,3.5-1.7,3.5-3.5c0-1.9-1.7-3.5-3.5-3.5c-2,0-3.6,1.7-3.6,3.7
		C79.1,283.2,80.8,284.8,82.7,284.8z"/>
	<linearGradient id="SVGID_100_" gradientUnits="userSpaceOnUse" x1="63.3661" y1="-8.494059e-02" x2="63.3661" y2="416.9954">
		<stop  offset="0" style="stop-color:#000000"/>
		<stop  offset="1" style="stop-color:#000000;stop-opacity:0"/>
	</linearGradient>
	<path fill="url(#SVGID_100_)" d="M63.4,287c1.8,0,3.5-1.6,3.6-3.5c0-1.8-1.6-3.5-3.4-3.6c-1.9,0-3.6,1.5-3.7,3.3
		C59.7,285.2,61.4,287,63.4,287z"/>
	<linearGradient id="SVGID_101_" gradientUnits="userSpaceOnUse" x1="14.5119" y1="-8.494059e-02" x2="14.5119" y2="416.9954">
		<stop  offset="0" style="stop-color:#000000"/>
		<stop  offset="1" style="stop-color:#000000;stop-opacity:0"/>
	</linearGradient>
	<path fill="url(#SVGID_101_)" d="M18,279.7c0.2-2.1-1-3.5-3.1-3.7c-1.9-0.2-3.7,1.2-3.9,3c-0.2,1.7,1.4,3.4,3.1,3.6
		C16.3,282.9,17.8,281.7,18,279.7z"/>
	<linearGradient id="SVGID_102_" gradientUnits="userSpaceOnUse" x1="44.2206" y1="-8.494059e-02" x2="44.2206" y2="416.9954">
		<stop  offset="0" style="stop-color:#000000"/>
		<stop  offset="1" style="stop-color:#000000;stop-opacity:0"/>
	</linearGradient>
	<path fill="url(#SVGID_102_)" d="M47.7,285.6c0-1.8-1.6-3.4-3.3-3.5c-1.7,0-3.7,1.8-3.7,3.4c0,1.5,1.9,3.4,3.4,3.5
		C46,289.1,47.7,287.5,47.7,285.6z"/>
	<linearGradient id="SVGID_103_" gradientUnits="userSpaceOnUse" x1="25.3673" y1="-8.494059e-02" x2="25.3673" y2="416.9954">
		<stop  offset="0" style="stop-color:#000000"/>
		<stop  offset="1" style="stop-color:#000000;stop-opacity:0"/>
	</linearGradient>
	<path fill="url(#SVGID_103_)" d="M25.4,291.3c1.6,0,3.5-1.9,3.5-3.4c0-1.5-1.9-3.4-3.5-3.4c-1.8,0-3.4,1.5-3.4,3.3
		C21.8,289.6,23.5,291.3,25.4,291.3z"/>
	<linearGradient id="SVGID_104_" gradientUnits="userSpaceOnUse" x1="5.9987" y1="-8.494059e-02" x2="5.9987" y2="416.9954">
		<stop  offset="0" style="stop-color:#000000"/>
		<stop  offset="1" style="stop-color:#000000;stop-opacity:0"/>
	</linearGradient>
	<path fill="url(#SVGID_104_)" d="M6,293.1c1.9,0,3.3-1.3,3.3-3.3c0-2-1.3-3.3-3.2-3.3c-1.6,0-3.2,1.5-3.3,3.2
		C2.6,291.4,4.3,293.1,6,293.1z"/>
	<linearGradient id="SVGID_105_" gradientUnits="userSpaceOnUse" x1="74.0637" y1="-8.494060e-02" x2="74.0637" y2="416.9954">
		<stop  offset="0" style="stop-color:#000000"/>
		<stop  offset="1" style="stop-color:#000000;stop-opacity:0"/>
	</linearGradient>
	<path fill="url(#SVGID_105_)" d="M74,295.3c1.6,0,3.2-1.5,3.3-3.2c0.1-1.7-1.5-3.4-3.2-3.5c-1.9,0-3.3,1.3-3.3,3.3
		C70.8,293.9,72.1,295.3,74,295.3z"/>
	<linearGradient id="SVGID_106_" gradientUnits="userSpaceOnUse" x1="54.8379" y1="-8.494059e-02" x2="54.8379" y2="416.9954">
		<stop  offset="0" style="stop-color:#000000"/>
		<stop  offset="1" style="stop-color:#000000;stop-opacity:0"/>
	</linearGradient>
	<path fill="url(#SVGID_106_)" d="M54.7,297.5c1.8,0,3.5-1.6,3.5-3.3c0-1.7-1.7-3.3-3.5-3.3c-1.8,0-3,1.4-3,3.3
		C51.6,296.1,52.9,297.5,54.7,297.5z"/>
	<linearGradient id="SVGID_107_" gradientUnits="userSpaceOnUse" x1="35.6818" y1="-8.494059e-02" x2="35.6818" y2="416.9954">
		<stop  offset="0" style="stop-color:#000000"/>
		<stop  offset="1" style="stop-color:#000000;stop-opacity:0"/>
	</linearGradient>
	<path fill="url(#SVGID_107_)" d="M39,296.1c0-1.9-1.2-3.1-3.1-3.1c-2.1,0-3.5,1.2-3.5,3.1c0,1.8,1.4,3.1,3.5,3.1
		C37.8,299.2,39,298,39,296.1z"/>
	<linearGradient id="SVGID_108_" gradientUnits="userSpaceOnUse" x1="16.8552" y1="-8.494059e-02" x2="16.8552" y2="416.9954">
		<stop  offset="0" style="stop-color:#000000"/>
		<stop  offset="1" style="stop-color:#000000;stop-opacity:0"/>
	</linearGradient>
	<path fill="url(#SVGID_108_)" d="M16.8,301.4c1.6,0,3.3-1.6,3.3-3.1c-0.1-1.6-1.7-3-3.4-3c-1.7,0-3,1.2-3,3
		C13.6,300,14.9,301.4,16.8,301.4z"/>
	<linearGradient id="SVGID_109_" gradientUnits="userSpaceOnUse" x1="0.4313" y1="-8.494059e-02" x2="0.4313" y2="416.9954">
		<stop  offset="0" style="stop-color:#000000"/>
		<stop  offset="1" style="stop-color:#000000;stop-opacity:0"/>
	</linearGradient>
	<path fill="url(#SVGID_109_)" d="M0,298.6v3.8c0.5-0.5,0.8-1.2,0.9-1.9C0.9,299.9,0.5,299.2,0,298.6z"/>
	<linearGradient id="SVGID_110_" gradientUnits="userSpaceOnUse" x1="84.1696" y1="-8.494060e-02" x2="84.1696" y2="416.9954">
		<stop  offset="0" style="stop-color:#000000"/>
		<stop  offset="1" style="stop-color:#000000;stop-opacity:0"/>
	</linearGradient>
	<path fill="url(#SVGID_110_)" d="M84.6,297.4c-1.8-0.1-3.3,1.2-3.3,3c0,1.8,1.3,3.1,3.2,3.1c1,0,2-0.6,2.6-1.3v-3.5
		C86.4,298,85.5,297.4,84.6,297.4z"/>
	<linearGradient id="SVGID_111_" gradientUnits="userSpaceOnUse" x1="65.4077" y1="-8.494060e-02" x2="65.4077" y2="416.9954">
		<stop  offset="0" style="stop-color:#000000"/>
		<stop  offset="1" style="stop-color:#000000;stop-opacity:0"/>
	</linearGradient>
	<path fill="url(#SVGID_111_)" d="M65.4,305.8c1.8,0,3.2-1.3,3.3-3.1c0-1.8-1.4-3.1-3.2-3.1c-1.6,0-3.3,1.6-3.2,3.2
		C62.3,304.3,63.8,305.7,65.4,305.8z"/>
	<linearGradient id="SVGID_112_" gradientUnits="userSpaceOnUse" x1="46.4077" y1="-8.494059e-02" x2="46.4077" y2="416.9954">
		<stop  offset="0" style="stop-color:#000000"/>
		<stop  offset="1" style="stop-color:#000000;stop-opacity:0"/>
	</linearGradient>
	<path fill="url(#SVGID_112_)" d="M46.6,307.7c1.7,0,2.8-1.3,2.8-3.2c0-1.7-1.4-3.1-3-3c-1.6,0-3.1,1.5-3.1,3.1
		C43.4,306.3,44.9,307.8,46.6,307.7z"/>
	<linearGradient id="SVGID_113_" gradientUnits="userSpaceOnUse" x1="27.1798" y1="-8.494059e-02" x2="27.1798" y2="416.9954">
		<stop  offset="0" style="stop-color:#000000"/>
		<stop  offset="1" style="stop-color:#000000;stop-opacity:0"/>
	</linearGradient>
	<path fill="url(#SVGID_113_)" d="M27.1,309.7c1.8,0,3.1-1.2,3.1-2.9c0-1.6-1.4-3-3.1-3c-1.6,0-3,1.5-3,3.1
		C24.2,308.5,25.5,309.7,27.1,309.7z"/>
	<linearGradient id="SVGID_114_" gradientUnits="userSpaceOnUse" x1="8.3622" y1="-8.494059e-02" x2="8.3622" y2="416.9954">
		<stop  offset="0" style="stop-color:#000000"/>
		<stop  offset="1" style="stop-color:#000000;stop-opacity:0"/>
	</linearGradient>
	<path fill="url(#SVGID_114_)" d="M8.3,311.9c1.7,0.1,3-1,3.1-2.6c0.1-1.7-1.2-3-2.9-3.1c-1.7,0-3,1.1-3.1,2.6
		C5.2,310.5,6.5,311.8,8.3,311.9z"/>
	<linearGradient id="SVGID_115_" gradientUnits="userSpaceOnUse" x1="76.1188" y1="-8.494060e-02" x2="76.1188" y2="416.9954">
		<stop  offset="0" style="stop-color:#000000"/>
		<stop  offset="1" style="stop-color:#000000;stop-opacity:0"/>
	</linearGradient>
	<path fill="url(#SVGID_115_)" d="M76.2,314c1.5,0,2.8-1.3,2.9-2.9c0-1.6-1.2-3-2.7-3.1c-1.5-0.1-3.2,1.4-3.3,2.9
		C73.1,312.3,74.7,313.9,76.2,314z"/>
	<linearGradient id="SVGID_116_" gradientUnits="userSpaceOnUse" x1="56.8954" y1="-8.494059e-02" x2="56.8954" y2="416.9954">
		<stop  offset="0" style="stop-color:#000000"/>
		<stop  offset="1" style="stop-color:#000000;stop-opacity:0"/>
	</linearGradient>
	<path fill="url(#SVGID_116_)" d="M57.1,316.1c1.5,0,2.8-1.4,2.8-3c0-1.6-1.2-2.9-2.8-2.9c-1.5-0.1-3.2,1.5-3.1,3
		C53.9,314.7,55.6,316.2,57.1,316.1z"/>
	<linearGradient id="SVGID_117_" gradientUnits="userSpaceOnUse" x1="38.0422" y1="-8.494059e-02" x2="38.0422" y2="416.9954">
		<stop  offset="0" style="stop-color:#000000"/>
		<stop  offset="1" style="stop-color:#000000;stop-opacity:0"/>
	</linearGradient>
	<path fill="url(#SVGID_117_)" d="M37.9,318.3c1.4,0.1,3-1.3,3.1-2.7c0.1-1.4-1.4-3-2.8-3.1c-1.4-0.1-3.1,1.4-3.2,2.8
		C35,316.5,36.5,318.1,37.9,318.3z"/>
	<linearGradient id="SVGID_118_" gradientUnits="userSpaceOnUse" x1="18.66" y1="-8.494059e-02" x2="18.66" y2="416.9954">
		<stop  offset="0" style="stop-color:#000000"/>
		<stop  offset="1" style="stop-color:#000000;stop-opacity:0"/>
	</linearGradient>
	<path fill="url(#SVGID_118_)" d="M18.6,320.4c1.6,0.1,2.8-1.1,2.9-2.8c0-1.7-1.1-2.9-2.7-2.9c-1.4,0-2.9,1.5-2.9,2.9
		C15.9,318.9,17.3,320.3,18.6,320.4z"/>
	<linearGradient id="SVGID_119_" gradientUnits="userSpaceOnUse" x1="85.4983" y1="-8.494060e-02" x2="85.4983" y2="416.9954">
		<stop  offset="0" style="stop-color:#000000"/>
		<stop  offset="1" style="stop-color:#000000;stop-opacity:0"/>
	</linearGradient>
	<path fill="url(#SVGID_119_)" d="M83.9,319.4c0,1.5,1.1,2.8,2.6,2.8c0.2,0,0.3,0,0.5,0v-5.5c-0.1,0-0.3,0-0.4,0
		C85.2,316.7,84,317.9,83.9,319.4z"/>
	<linearGradient id="SVGID_120_" gradientUnits="userSpaceOnUse" x1="67.588" y1="-8.494060e-02" x2="67.588" y2="416.9954">
		<stop  offset="0" style="stop-color:#000000"/>
		<stop  offset="1" style="stop-color:#000000;stop-opacity:0"/>
	</linearGradient>
	<path fill="url(#SVGID_120_)" d="M67.6,324.4c1.5,0,2.8-1.2,2.8-2.7c0-1.5-1.1-2.8-2.6-2.9c-1.6,0-3,1.3-3,2.8
		C64.8,323.1,66.1,324.4,67.6,324.4z"/>
	<linearGradient id="SVGID_121_" gradientUnits="userSpaceOnUse" x1="1.3208" y1="-8.494059e-02" x2="1.3208" y2="416.9954">
		<stop  offset="0" style="stop-color:#000000"/>
		<stop  offset="1" style="stop-color:#000000;stop-opacity:0"/>
	</linearGradient>
	<path fill="url(#SVGID_121_)" d="M2.6,319.8c0.2-1.5-1-3-2.6-3.1v5.5C1.3,322.2,2.4,321.2,2.6,319.8z"/>
	<linearGradient id="SVGID_122_" gradientUnits="userSpaceOnUse" x1="48.3633" y1="-8.494059e-02" x2="48.3633" y2="416.9954">
		<stop  offset="0" style="stop-color:#000000"/>
		<stop  offset="1" style="stop-color:#000000;stop-opacity:0"/>
	</linearGradient>
	<path fill="url(#SVGID_122_)" d="M48.3,326.6c1.5,0,2.8-1.2,2.8-2.7c0-1.5-1.1-2.7-2.6-2.8c-1.5-0.1-3,1.2-2.9,2.8
		C45.6,325.4,46.9,326.6,48.3,326.6z"/>
	<linearGradient id="SVGID_123_" gradientUnits="userSpaceOnUse" x1="29.5321" y1="-8.494059e-02" x2="29.5321" y2="416.9954">
		<stop  offset="0" style="stop-color:#000000"/>
		<stop  offset="1" style="stop-color:#000000;stop-opacity:0"/>
	</linearGradient>
	<path fill="url(#SVGID_123_)" d="M29.5,328.4c1.4,0,2.7-1.1,2.8-2.4c0.1-1.4-1.2-2.7-2.7-2.7c-1.4,0-2.7,1.1-2.8,2.4
		C26.7,327.1,28,328.4,29.5,328.4z"/>
	<linearGradient id="SVGID_124_" gradientUnits="userSpaceOnUse" x1="10.4146" y1="-8.494059e-02" x2="10.4146" y2="416.9954">
		<stop  offset="0" style="stop-color:#000000"/>
		<stop  offset="1" style="stop-color:#000000;stop-opacity:0"/>
	</linearGradient>
	<path fill="url(#SVGID_124_)" d="M10.5,330.6c1.4,0,2.7-1.2,2.6-2.6c0-1.4-1.3-2.6-2.7-2.5c-1.4,0-2.7,1.2-2.8,2.4
		C7.6,329.3,9,330.6,10.5,330.6z"/>
	<linearGradient id="SVGID_125_" gradientUnits="userSpaceOnUse" x1="78.1736" y1="-8.494060e-02" x2="78.1736" y2="416.9954">
		<stop  offset="0" style="stop-color:#000000"/>
		<stop  offset="1" style="stop-color:#000000;stop-opacity:0"/>
	</linearGradient>
	<path fill="url(#SVGID_125_)" d="M80.7,330.5c0.2-1.3-0.9-2.7-2.2-2.8c-1.4-0.1-2.5,0.7-2.8,2c-0.3,1.7,0.6,2.9,2.1,3.1
		C79.2,332.9,80.5,331.9,80.7,330.5z"/>
	<linearGradient id="SVGID_126_" gradientUnits="userSpaceOnUse" x1="59.0933" y1="-8.494059e-02" x2="59.0933" y2="416.9954">
		<stop  offset="0" style="stop-color:#000000"/>
		<stop  offset="1" style="stop-color:#000000;stop-opacity:0"/>
	</linearGradient>
	<path fill="url(#SVGID_126_)" d="M61.6,332.4c0-1.3-1.2-2.5-2.4-2.5c-1.3,0-2.5,1.1-2.6,2.4c-0.1,1.3,1.2,2.6,2.6,2.6
		C60.4,334.9,61.6,333.7,61.6,332.4z"/>
	<linearGradient id="SVGID_127_" gradientUnits="userSpaceOnUse" x1="21.0301" y1="-8.494059e-02" x2="21.0301" y2="416.9954">
		<stop  offset="0" style="stop-color:#000000"/>
		<stop  offset="1" style="stop-color:#000000;stop-opacity:0"/>
	</linearGradient>
	<path fill="url(#SVGID_127_)" d="M23.6,336.7c0.1-1.2-1.2-2.5-2.6-2.5c-1.5-0.1-2.4,0.8-2.5,2.3c0,1.5,0.9,2.4,2.3,2.4
		C22.1,338.9,23.4,337.9,23.6,336.7z"/>
	<linearGradient id="SVGID_128_" gradientUnits="userSpaceOnUse" x1="40.2515" y1="-8.494059e-02" x2="40.2515" y2="416.9954">
		<stop  offset="0" style="stop-color:#000000"/>
		<stop  offset="1" style="stop-color:#000000;stop-opacity:0"/>
	</linearGradient>
	<path fill="url(#SVGID_128_)" d="M40.1,336.7c1.3,0,2.6-1.1,2.6-2.3c0.1-1.2-1.3-2.4-2.7-2.4c-1.5,0-2.4,0.9-2.4,2.4
		C37.7,335.8,38.7,336.7,40.1,336.7z"/>
	<linearGradient id="SVGID_129_" gradientUnits="userSpaceOnUse" x1="86.7141" y1="-8.494060e-02" x2="86.7141" y2="416.9954">
		<stop  offset="0" style="stop-color:#000000"/>
		<stop  offset="1" style="stop-color:#000000;stop-opacity:0"/>
	</linearGradient>
	<path fill="url(#SVGID_129_)" d="M87.1,340.2v-3.1c-0.4,0.4-0.7,1-0.7,1.5C86.4,339.3,86.6,339.8,87.1,340.2z"/>
	<linearGradient id="SVGID_130_" gradientUnits="userSpaceOnUse" x1="2.182" y1="-8.494059e-02" x2="2.182" y2="416.9954">
		<stop  offset="0" style="stop-color:#000000"/>
		<stop  offset="1" style="stop-color:#000000;stop-opacity:0"/>
	</linearGradient>
	<path fill="url(#SVGID_130_)" d="M4.4,338.6c-0.1-1.3-1-2.2-2.4-2.2c-0.8,0-1.5,0.4-2,1v2.7c0.5,0.6,1.2,1,2,1
		C3.4,341,4.4,339.9,4.4,338.6z"/>
	<linearGradient id="SVGID_131_" gradientUnits="userSpaceOnUse" x1="69.7457" y1="-8.494060e-02" x2="69.7457" y2="416.9954">
		<stop  offset="0" style="stop-color:#000000"/>
		<stop  offset="1" style="stop-color:#000000;stop-opacity:0"/>
	</linearGradient>
	<path fill="url(#SVGID_131_)" d="M72.1,340.5c-0.1-1.2-1.3-2.4-2.5-2.3c-1.2,0-2.1,1.1-2.1,2.4c0,1.3,0.9,2.4,2.1,2.5
		C70.8,343.1,72.1,341.8,72.1,340.5z"/>
	<linearGradient id="SVGID_132_" gradientUnits="userSpaceOnUse" x1="31.7318" y1="-8.494059e-02" x2="31.7318" y2="416.9954">
		<stop  offset="0" style="stop-color:#000000"/>
		<stop  offset="1" style="stop-color:#000000;stop-opacity:0"/>
	</linearGradient>
	<path fill="url(#SVGID_132_)" d="M31.8,347.4c1.1,0,2.3-1.2,2.2-2.4c0-1.2-1.1-2.4-2.3-2.3c-1.2,0-2.3,1.2-2.3,2.4
		C29.5,346.2,30.6,347.4,31.8,347.4z"/>
	<linearGradient id="SVGID_133_" gradientUnits="userSpaceOnUse" x1="50.5785" y1="-8.494059e-02" x2="50.5785" y2="416.9954">
		<stop  offset="0" style="stop-color:#000000"/>
		<stop  offset="1" style="stop-color:#000000;stop-opacity:0"/>
	</linearGradient>
	<path fill="url(#SVGID_133_)" d="M52.8,342.9c0-1.2-1.1-2.3-2.2-2.4c-1.1,0-2.3,1.1-2.3,2.3c0,1.2,1.1,2.4,2.2,2.4
		C51.7,345.2,52.8,344,52.8,342.9z"/>
	<linearGradient id="SVGID_134_" gradientUnits="userSpaceOnUse" x1="12.5068" y1="-8.494059e-02" x2="12.5068" y2="416.9954">
		<stop  offset="0" style="stop-color:#000000"/>
		<stop  offset="1" style="stop-color:#000000;stop-opacity:0"/>
	</linearGradient>
	<path fill="url(#SVGID_134_)" d="M14.8,347.4c0.1-1.2-0.8-2.1-2-2.2c-1.4-0.1-2.4,0.7-2.5,2c-0.1,1.2,0.7,2.1,2,2.2
		C13.6,349.5,14.7,348.7,14.8,347.4z"/>
	<linearGradient id="SVGID_135_" gradientUnits="userSpaceOnUse" x1="80.3003" y1="-8.494060e-02" x2="80.3003" y2="416.9954">
		<stop  offset="0" style="stop-color:#000000"/>
		<stop  offset="1" style="stop-color:#000000;stop-opacity:0"/>
	</linearGradient>
	<path fill="url(#SVGID_135_)" d="M82.5,349.2c0-1.3-1-2.3-2.2-2.3c-1,0-2.1,1.1-2.2,2.2c-0.1,1.1,1.1,2.3,2.3,2.3
		C81.5,351.4,82.5,350.4,82.5,349.2z"/>
	<linearGradient id="SVGID_136_" gradientUnits="userSpaceOnUse" x1="42.0583" y1="-8.494059e-02" x2="42.0583" y2="416.9954">
		<stop  offset="0" style="stop-color:#000000"/>
		<stop  offset="1" style="stop-color:#000000;stop-opacity:0"/>
	</linearGradient>
	<path fill="url(#SVGID_136_)" d="M44.1,353.7c0-1.2-0.8-2.2-1.9-2.3c-1,0-2.2,1-2.2,2.1c-0.1,1,1,2.2,2,2.3
		C43.1,355.8,44.1,354.9,44.1,353.7z"/>
	<linearGradient id="SVGID_137_" gradientUnits="userSpaceOnUse" x1="61.2828" y1="-8.494059e-02" x2="61.2828" y2="416.9954">
		<stop  offset="0" style="stop-color:#000000"/>
		<stop  offset="1" style="stop-color:#000000;stop-opacity:0"/>
	</linearGradient>
	<path fill="url(#SVGID_137_)" d="M63.3,351.3c0-1.2-0.9-2.2-2-2.2c-1,0-2.1,1.2-2.1,2.2c0,1.1,1.1,2.2,2.1,2.2
		C62.5,353.5,63.3,352.6,63.3,351.3z"/>
	<linearGradient id="SVGID_138_" gradientUnits="userSpaceOnUse" x1="23.222" y1="-8.494059e-02" x2="23.222" y2="416.9954">
		<stop  offset="0" style="stop-color:#000000"/>
		<stop  offset="1" style="stop-color:#000000;stop-opacity:0"/>
	</linearGradient>
	<path fill="url(#SVGID_138_)" d="M25.2,355.6c0-1.1-1-2.1-2.2-2.1c-1.1,0-1.9,0.9-1.9,2c0,1.2,0.9,2.1,2.1,2.1
		C24.4,357.6,25.2,356.6,25.2,355.6z"/>
	<linearGradient id="SVGID_139_" gradientUnits="userSpaceOnUse" x1="3.9876" y1="-8.494059e-02" x2="3.9876" y2="416.9954">
		<stop  offset="0" style="stop-color:#000000"/>
		<stop  offset="1" style="stop-color:#000000;stop-opacity:0"/>
	</linearGradient>
	<path fill="url(#SVGID_139_)" d="M6,357.8c0-1-1.2-2.1-2.2-2c-0.9,0-1.7,0.8-1.8,1.9c-0.1,1.1,0.7,2.1,1.7,2.2
		C4.7,359.8,6,358.7,6,357.8z"/>
	<linearGradient id="SVGID_140_" gradientUnits="userSpaceOnUse" x1="71.781" y1="-8.494060e-02" x2="71.781" y2="416.9954">
		<stop  offset="0" style="stop-color:#000000"/>
		<stop  offset="1" style="stop-color:#000000;stop-opacity:0"/>
	</linearGradient>
	<path fill="url(#SVGID_140_)" d="M73.8,359.9c0-1.1-0.8-2-1.9-2c-0.9,0-2.1,1-2.2,1.9c-0.1,1,1.1,2.1,2.1,2.2
		C72.9,361.9,73.8,361,73.8,359.9z"/>
	<linearGradient id="SVGID_141_" gradientUnits="userSpaceOnUse" x1="52.9018" y1="-8.494059e-02" x2="52.9018" y2="416.9954">
		<stop  offset="0" style="stop-color:#000000"/>
		<stop  offset="1" style="stop-color:#000000;stop-opacity:0"/>
	</linearGradient>
	<path fill="url(#SVGID_141_)" d="M54.9,362c-0.1-0.9-1.2-1.9-2.1-1.9c-1.1,0.1-1.9,1-1.9,2c0,1,1,1.9,2.1,1.9
		C53.9,364,55,362.9,54.9,362z"/>
	<linearGradient id="SVGID_142_" gradientUnits="userSpaceOnUse" x1="33.5489" y1="-8.494059e-02" x2="33.5489" y2="416.9954">
		<stop  offset="0" style="stop-color:#000000"/>
		<stop  offset="1" style="stop-color:#000000;stop-opacity:0"/>
	</linearGradient>
	<path fill="url(#SVGID_142_)" d="M35.4,364.1c0-1.2-0.6-1.9-1.6-1.9c-1.1,0-2,0.8-2,1.9c0,0.9,0.8,1.7,1.9,1.8
		C34.7,365.9,35.3,365.3,35.4,364.1z"/>
	<linearGradient id="SVGID_143_" gradientUnits="userSpaceOnUse" x1="82.4559" y1="-8.494060e-02" x2="82.4559" y2="416.9954">
		<stop  offset="0" style="stop-color:#000000"/>
		<stop  offset="1" style="stop-color:#000000;stop-opacity:0"/>
	</linearGradient>
	<path fill="url(#SVGID_143_)" d="M84.2,368.5c0.1-1-0.8-1.9-1.7-1.9c-1.1,0-1.5,0.7-1.7,1.7c-0.2,0.9,0.5,1.7,1.5,1.9
		C83.2,370.3,84.1,369.5,84.2,368.5z"/>
	<linearGradient id="SVGID_144_" gradientUnits="userSpaceOnUse" x1="14.692" y1="-8.494059e-02" x2="14.692" y2="416.9954">
		<stop  offset="0" style="stop-color:#000000"/>
		<stop  offset="1" style="stop-color:#000000;stop-opacity:0"/>
	</linearGradient>
	<path fill="url(#SVGID_144_)" d="M16.4,366.3c0.1-1-0.8-1.9-1.7-1.9c-0.9,0-1.6,0.8-1.7,1.7c-0.1,1,0.8,1.9,1.7,1.9
		C15.6,368,16.3,367.3,16.4,366.3z"/>
	<linearGradient id="SVGID_145_" gradientUnits="userSpaceOnUse" x1="63.2694" y1="-8.494059e-02" x2="63.2694" y2="416.9954">
		<stop  offset="0" style="stop-color:#000000"/>
		<stop  offset="1" style="stop-color:#000000;stop-opacity:0"/>
	</linearGradient>
	<path fill="url(#SVGID_145_)" d="M65,370.4c0-1-0.6-1.6-1.6-1.6c-0.9,0-1.7,0.4-1.9,1.4c-0.1,0.9,0.8,1.7,1.8,1.7
		C64.3,371.9,65,371.3,65,370.4z"/>
	<linearGradient id="SVGID_146_" gradientUnits="userSpaceOnUse" x1="44.3886" y1="-8.494059e-02" x2="44.3886" y2="416.9954">
		<stop  offset="0" style="stop-color:#000000"/>
		<stop  offset="1" style="stop-color:#000000;stop-opacity:0"/>
	</linearGradient>
	<path fill="url(#SVGID_146_)" d="M46.1,372.5c-0.1-1-0.8-1.5-1.7-1.6c-1-0.1-1.7,0.5-1.8,1.5c-0.1,1,0.6,1.7,1.5,1.7
		C45.2,374.2,46.2,373.4,46.1,372.5z"/>
	<linearGradient id="SVGID_147_" gradientUnits="userSpaceOnUse" x1="74.1947" y1="-8.494060e-02" x2="74.1947" y2="416.9954">
		<stop  offset="0" style="stop-color:#000000"/>
		<stop  offset="1" style="stop-color:#000000;stop-opacity:0"/>
	</linearGradient>
	<path fill="url(#SVGID_147_)" d="M74.1,377.3c-0.8-0.3-1.7,0.7-1.7,1.6c0.1,0.9,0.7,1.6,1.5,1.5c0.6-0.1,1.2-0.8,2.1-1.4
		C75.2,378.2,74.7,377.5,74.1,377.3z"/>
	<linearGradient id="SVGID_148_" gradientUnits="userSpaceOnUse" x1="6.4705" y1="-8.494059e-02" x2="6.4705" y2="416.9954">
		<stop  offset="0" style="stop-color:#000000"/>
		<stop  offset="1" style="stop-color:#000000;stop-opacity:0"/>
	</linearGradient>
	<path fill="url(#SVGID_148_)" d="M6.2,375.5c-0.8-0.3-1.5,0.4-1.5,1.4c-0.1,0.9,0.5,1.8,1.3,1.6c0.7-0.2,1.2-0.7,2.3-1.3
		C7.4,376.3,6.9,375.7,6.2,375.5z"/>
	<linearGradient id="SVGID_149_" gradientUnits="userSpaceOnUse" x1="25.6913" y1="-8.494059e-02" x2="25.6913" y2="416.9954">
		<stop  offset="0" style="stop-color:#000000"/>
		<stop  offset="1" style="stop-color:#000000;stop-opacity:0"/>
	</linearGradient>
	<path fill="url(#SVGID_149_)" d="M25.3,373.3c-0.8-0.2-1.5,0.6-1.5,1.5c0,0.9,0.7,1.7,1.5,1.5c0.7-0.2,1.2-0.8,2.2-1.5
		C26.5,374.1,26,373.5,25.3,373.3z"/>
	<linearGradient id="SVGID_150_" gradientUnits="userSpaceOnUse" x1="55.1606" y1="-8.494059e-02" x2="55.1606" y2="416.9954">
		<stop  offset="0" style="stop-color:#000000"/>
		<stop  offset="1" style="stop-color:#000000;stop-opacity:0"/>
	</linearGradient>
	<path fill="url(#SVGID_150_)" d="M55.1,379.7c-0.8,0.1-1.4,0.4-1.4,1.3c0,0.8,0.7,1.4,2,1.3c0.2-0.3,0.8-0.7,0.9-1.3
		C56.8,380.3,56,379.7,55.1,379.7z"/>
	<linearGradient id="SVGID_151_" gradientUnits="userSpaceOnUse" x1="35.8491" y1="-8.494059e-02" x2="35.8491" y2="416.9954">
		<stop  offset="0" style="stop-color:#000000"/>
		<stop  offset="1" style="stop-color:#000000;stop-opacity:0"/>
	</linearGradient>
	<path fill="url(#SVGID_151_)" d="M37.2,383.2c-0.1-0.6-0.7-1-1.3-1.8c-0.7,0.7-1.3,1.1-1.5,1.7c-0.2,0.8,0.3,1.3,1.1,1.4
		C36.5,384.6,37.4,383.9,37.2,383.2z"/>
	<linearGradient id="SVGID_152_" gradientUnits="userSpaceOnUse" x1="84.815" y1="-8.494060e-02" x2="84.815" y2="416.9954">
		<stop  offset="0" style="stop-color:#000000"/>
		<stop  offset="1" style="stop-color:#000000;stop-opacity:0"/>
	</linearGradient>
	<path fill="url(#SVGID_152_)" d="M84.4,386c-0.9-0.1-1.2,0.7-1.1,1.5c0,0.8,0.4,1.5,1.3,1.3c0.6-0.1,1-0.8,1.8-1.5
		C85.5,386.7,85,386.1,84.4,386z"/>
	<linearGradient id="SVGID_153_" gradientUnits="userSpaceOnUse" x1="17.1592" y1="-8.494059e-02" x2="17.1592" y2="416.9954">
		<stop  offset="0" style="stop-color:#000000"/>
		<stop  offset="1" style="stop-color:#000000;stop-opacity:0"/>
	</linearGradient>
	<path fill="url(#SVGID_153_)" d="M16.9,383.9c-0.8-0.2-1.3,0.5-1.3,1.3c0,0.8,0.3,1.5,1.2,1.4c0.6-0.1,1-0.7,1.9-1.3
		C17.9,384.7,17.5,384,16.9,383.9z"/>
	<linearGradient id="SVGID_154_" gradientUnits="userSpaceOnUse" x1="65.7511" y1="-8.494060e-02" x2="65.7511" y2="416.9954">
		<stop  offset="0" style="stop-color:#000000"/>
		<stop  offset="1" style="stop-color:#000000;stop-opacity:0"/>
	</linearGradient>
	<path fill="url(#SVGID_154_)" d="M65.5,388.3c-0.8-0.1-1.4,0.6-1.2,1.3c0.1,0.5,0.7,1.2,1.1,1.2c0.5,0,1-0.6,1.9-1.2
		C66.4,389,66,388.4,65.5,388.3z"/>
	<linearGradient id="SVGID_155_" gradientUnits="userSpaceOnUse" x1="46.9004" y1="-8.494059e-02" x2="46.9004" y2="416.9954">
		<stop  offset="0" style="stop-color:#000000"/>
		<stop  offset="1" style="stop-color:#000000;stop-opacity:0"/>
	</linearGradient>
	<path fill="url(#SVGID_155_)" d="M46.7,390.4c-0.7-0.2-1.2,0.3-1.3,1c-0.1,0.8,0.5,1.5,1.2,1.3c0.5-0.1,1-0.6,1.8-1.1
		C47.6,391,47.2,390.5,46.7,390.4z"/>
	<linearGradient id="SVGID_156_" gradientUnits="userSpaceOnUse" x1="27.6055" y1="-8.494059e-02" x2="27.6055" y2="416.9954">
		<stop  offset="0" style="stop-color:#000000"/>
		<stop  offset="1" style="stop-color:#000000;stop-opacity:0"/>
	</linearGradient>
	<path fill="url(#SVGID_156_)" d="M26.2,393.8c0,0.7,0.4,1.3,1.2,1.1c0.5-0.1,0.9-0.6,1.7-1.2c-0.8-0.5-1.3-1-1.8-1.1
		C26.5,392.5,26.1,393.1,26.2,393.8z"/>
	<linearGradient id="SVGID_157_" gradientUnits="userSpaceOnUse" x1="76.1147" y1="-8.494060e-02" x2="76.1147" y2="416.9954">
		<stop  offset="0" style="stop-color:#000000"/>
		<stop  offset="1" style="stop-color:#000000;stop-opacity:0"/>
	</linearGradient>
	<path fill="url(#SVGID_157_)" d="M75.2,397.8c0,0.5,0.5,0.9,0.8,1.4c0.4-0.3,1-0.6,1.1-0.9c0.1-0.5-0.3-1-0.7-1.9
		C75.7,397.1,75.1,397.5,75.2,397.8z"/>
	<linearGradient id="SVGID_158_" gradientUnits="userSpaceOnUse" x1="57.2704" y1="-8.494059e-02" x2="57.2704" y2="416.9954">
		<stop  offset="0" style="stop-color:#000000"/>
		<stop  offset="1" style="stop-color:#000000;stop-opacity:0"/>
	</linearGradient>
	<path fill="url(#SVGID_158_)" d="M56,400.1c0.1,0.4,0.7,0.9,1.1,0.9c0.4,0,0.8-0.5,1.5-0.9c-0.7-0.5-1-1-1.4-1.1
		C56.5,398.9,55.9,399.4,56,400.1z"/>
	<linearGradient id="SVGID_159_" gradientUnits="userSpaceOnUse" x1="8.5892" y1="-8.494059e-02" x2="8.5892" y2="416.9954">
		<stop  offset="0" style="stop-color:#000000"/>
		<stop  offset="1" style="stop-color:#000000;stop-opacity:0"/>
	</linearGradient>
	<path fill="url(#SVGID_159_)" d="M7.5,395.8c0,0.4,0.5,0.8,0.8,1.2c0.4-0.3,0.8-0.5,1.5-1c-0.6-0.5-1-1-1.4-1.1
		C8.1,394.9,7.4,395.5,7.5,395.8z"/>
	<linearGradient id="SVGID_160_" gradientUnits="userSpaceOnUse" x1="19.1022" y1="-8.494059e-02" x2="19.1022" y2="416.9954">
		<stop  offset="0" style="stop-color:#000000"/>
		<stop  offset="1" style="stop-color:#000000;stop-opacity:0"/>
	</linearGradient>
	<path fill="url(#SVGID_160_)" d="M18,404.5c0.3,0.3,0.6,0.9,0.9,0.9c0.4,0,0.8-0.4,1.4-0.8c-0.6-0.5-1-1-1.2-1
		C18.6,403.7,18.3,404.1,18,404.5z"/>
	<linearGradient id="SVGID_161_" gradientUnits="userSpaceOnUse" x1="38.1393" y1="-8.494059e-02" x2="38.1393" y2="416.9954">
		<stop  offset="0" style="stop-color:#000000"/>
		<stop  offset="1" style="stop-color:#000000;stop-opacity:0"/>
	</linearGradient>
	<path fill="url(#SVGID_161_)" d="M38.3,401.3c-0.4,0.1-0.9,0.5-1,0.9c-0.1,0.2,0.4,0.7,0.9,1.3c0.4-0.6,0.9-0.9,1-1.3
		C39.1,401.9,38.4,401.3,38.3,401.3z"/>
	<linearGradient id="SVGID_162_" gradientUnits="userSpaceOnUse" x1="86.4231" y1="-8.494060e-02" x2="86.4231" y2="416.9954">
		<stop  offset="0" style="stop-color:#000000"/>
		<stop  offset="1" style="stop-color:#000000;stop-opacity:0"/>
	</linearGradient>
	<path fill="url(#SVGID_162_)" d="M85.8,406.2c0.2,0.3,0.4,0.8,0.7,0.8c0.2,0,0.4,0,0.6-0.1v-1.2c0,0-0.1-0.1-0.1-0.1
		C86.5,405.7,86.2,406,85.8,406.2z"/>
	<linearGradient id="SVGID_163_" gradientUnits="userSpaceOnUse" x1="0.3102" y1="-8.494059e-02" x2="0.3102" y2="416.9954">
		<stop  offset="0" style="stop-color:#000000"/>
		<stop  offset="1" style="stop-color:#000000;stop-opacity:0"/>
	</linearGradient>
	<path fill="url(#SVGID_163_)" d="M0,405.9v1.7c0.3-0.4,0.6-0.7,0.6-0.9C0.6,406.4,0.3,406.2,0,405.9z"/>
	<linearGradient id="SVGID_164_" gradientUnits="userSpaceOnUse" x1="67.9258" y1="-8.494060e-02" x2="67.9258" y2="416.9954">
		<stop  offset="0" style="stop-color:#000000"/>
		<stop  offset="1" style="stop-color:#000000;stop-opacity:0"/>
	</linearGradient>
	<path fill="url(#SVGID_164_)" d="M66.9,408.6c0.3,0.2,0.7,0.6,1,0.7c0.2,0,0.5-0.4,1-0.8c-0.6-0.3-1-0.6-1.4-0.6
		C67.3,407.8,67.1,408.3,66.9,408.6z"/>
	<linearGradient id="SVGID_165_" gradientUnits="userSpaceOnUse" x1="48.474" y1="-8.494059e-02" x2="48.474" y2="416.9954">
		<stop  offset="0" style="stop-color:#000000"/>
		<stop  offset="1" style="stop-color:#000000;stop-opacity:0"/>
	</linearGradient>
	<path fill="url(#SVGID_165_)" d="M48.2,410c-0.1,0.3-0.4,0.6-0.4,0.9c0,0.2,0.4,0.3,0.7,0.5c0.2-0.3,0.5-0.6,0.5-0.9
		c0.1-0.3-0.1-0.6-0.2-0.9C48.7,409.7,48.5,409.9,48.2,410z"/>
	<linearGradient id="SVGID_166_" gradientUnits="userSpaceOnUse" x1="29.6319" y1="-8.494059e-02" x2="29.6319" y2="416.9954">
		<stop  offset="0" style="stop-color:#000000"/>
		<stop  offset="1" style="stop-color:#000000;stop-opacity:0"/>
	</linearGradient>
	<path fill="url(#SVGID_166_)" d="M29.1,413c-0.1,0.1,0.2,0.5,0.4,0.7c0.2,0.1,0.4,0.2,0.5,0.4c0.1-0.3,0.3-0.6,0.3-0.9
		c0-0.2-0.2-0.5-0.4-0.7C29.6,412.6,29.2,412.7,29.1,413z"/>
	<linearGradient id="SVGID_167_" gradientUnits="userSpaceOnUse" x1="10.6293" y1="-8.494059e-02" x2="10.6293" y2="416.9954">
		<stop  offset="0" style="stop-color:#000000"/>
		<stop  offset="1" style="stop-color:#000000;stop-opacity:0"/>
	</linearGradient>
	<path fill="url(#SVGID_167_)" d="M10,414.9c0.2,0.2,0.4,0.4,0.7,0.5c0.1,0,0.3-0.2,0.6-0.5c-0.4-0.2-0.6-0.4-0.9-0.4
		C10.3,414.5,10.1,414.7,10,414.9z"/>
	<linearGradient id="SVGID_168_" gradientUnits="userSpaceOnUse" x1="78.1999" y1="-8.494060e-02" x2="78.1999" y2="416.9954">
		<stop  offset="0" style="stop-color:#000000"/>
		<stop  offset="1" style="stop-color:#000000;stop-opacity:0"/>
	</linearGradient>
	<path fill="url(#SVGID_168_)" d="M77.9,416.9c0,0.2,0.1,0.4,0.1,0.6c0.2-0.1,0.3-0.1,0.5-0.2c-0.1-0.2-0.1-0.4-0.2-0.5
		C78.2,416.7,77.9,416.8,77.9,416.9z"/>
</g>
</svg>
