<?xml version="1.0" encoding="utf-8"?>
<!-- Generator: Adobe Illustrator 17.1.0, SVG Export Plug-In . SVG Version: 6.00 Build 0)  -->
<!DOCTYPE svg PUBLIC "-//W3C//DTD SVG 1.1//EN" "http://www.w3.org/Graphics/SVG/1.1/DTD/svg11.dtd">
<svg version="1.1" id="Layer_1" xmlns="http://www.w3.org/2000/svg" xmlns:xlink="http://www.w3.org/1999/xlink" x="0px" y="0px"
	 viewBox="42 76.1 5.5 201.1" enable-background="new 42 76.1 5.5 201.1" xml:space="preserve">
<g>
	<path fill="#FFFFFF" d="M43.8,107.9c0-1-0.8-1.8-1.8-1.8v3.6C43,109.7,43.8,108.9,43.8,107.9z"/>
	<path fill="#FFFFFF" d="M43.7,113c0-0.9-0.7-1.6-1.6-1.6v3.3C42.9,114.6,43.7,113.9,43.7,113z"/>
	<path fill="#FFFFFF" d="M45.7,102.9c0,0.2,0,0.5,0.1,0.7c-0.3-0.2-0.6-0.3-1-0.3c-0.3,0-0.6,0.1-0.9,0.2c0.1-0.2,0.1-0.4,0.1-0.6
		c0-1.1-0.9-1.9-1.9-1.9v3.8c0.4,0,0.7-0.1,1-0.3c0,0.2-0.1,0.3-0.1,0.5c0,1,0.8,1.8,1.8,1.8c1,0,1.8-0.8,1.8-1.8
		c0-0.2,0-0.4-0.1-0.6c0.3,0.2,0.7,0.4,1.1,0.4V101C46.5,101,45.7,101.9,45.7,102.9z"/>
	<path fill="#FFFFFF" d="M43.5,118c0-0.8-0.7-1.5-1.5-1.5v3C42.9,119.5,43.5,118.9,43.5,118z"/>
	<path fill="#FFFFFF" d="M42,137.3v1.9c0.5,0,0.9-0.4,0.9-0.9C43,137.7,42.6,137.3,42,137.3z"/>
	<path fill="#FFFFFF" d="M42,142.5v1.6c0.4,0,0.8-0.4,0.8-0.8C42.8,142.8,42.5,142.5,42,142.5z"/>
	<path fill="#FFFFFF" d="M42,121.7v2.7c0.7,0,1.4-0.6,1.4-1.4C43.4,122.3,42.8,121.7,42,121.7z"/>
	<path fill="#FFFFFF" d="M42,126.9v2.4c0.7,0,1.2-0.5,1.2-1.2C43.3,127.5,42.7,126.9,42,126.9z"/>
	<path fill="#FFFFFF" d="M42,132.1v2.1c0.6,0,1.1-0.5,1.1-1.1S42.6,132.1,42,132.1z"/>
	<circle fill="#FFFFFF" cx="44.8" cy="125.2" r="1.2"/>
	<circle fill="#FFFFFF" cx="44.8" cy="135.3" r="0.9"/>
	<circle fill="#FFFFFF" cx="44.8" cy="140.3" r="0.8"/>
	<circle fill="#FFFFFF" cx="44.8" cy="120.1" r="1.4"/>
	<circle fill="#FFFFFF" cx="44.8" cy="130.2" r="1.1"/>
	<path fill="#FFFFFF" d="M45.9,113c0,0.9,0.7,1.6,1.6,1.6v-3.3C46.6,111.4,45.9,112.1,45.9,113z"/>
	<path fill="#FFFFFF" d="M46.1,118c0,0.8,0.6,1.5,1.4,1.5v-3C46.7,116.6,46.1,117.2,46.1,118z"/>
	<circle fill="#FFFFFF" cx="44.8" cy="110.1" r="1.6"/>
	<path fill="#FFFFFF" d="M45.8,107.9c0,1,0.8,1.7,1.7,1.8v-3.5C46.6,106.2,45.8,107,45.8,107.9z"/>
	<path fill="#FFFFFF" d="M46.5,133.2c0,0.6,0.4,1,1,1.1v-2.1C46.9,132.1,46.5,132.6,46.5,133.2z"/>
	<path fill="#FFFFFF" d="M46.2,123.1c0,0.7,0.6,1.3,1.3,1.3v-2.7C46.8,121.8,46.2,122.4,46.2,123.1z"/>
	<path fill="#FFFFFF" d="M46.4,128.1c0,0.6,0.5,1.2,1.1,1.2v-2.4C46.9,127,46.4,127.5,46.4,128.1z"/>
	<path fill="#FFFFFF" d="M46.6,138.2c0,0.5,0.4,0.9,0.9,0.9v-1.8C47,137.3,46.6,137.7,46.6,138.2z"/>
	<circle fill="#FFFFFF" cx="44.8" cy="115.1" r="1.5"/>
	<path fill="#FFFFFF" d="M46.8,143.3c0,0.4,0.3,0.7,0.7,0.8v-1.6C47.1,142.5,46.8,142.9,46.8,143.3z"/>
	<path fill="#FFFFFF" d="M42,147.6v1.4c0.4,0,0.7-0.3,0.7-0.7C42.8,147.9,42.4,147.6,42,147.6z"/>
	<circle fill="#FFFFFF" cx="44.8" cy="145.4" r="0.7"/>
	<path fill="#FFFFFF" d="M46.9,148.3c0,0.4,0.3,0.7,0.6,0.7v-1.4C47.1,147.6,46.9,147.9,46.9,148.3z"/>
	<path fill="#FFFFFF" d="M42,152.7v1.3c0.4,0,0.6-0.3,0.6-0.6C42.7,153,42.4,152.7,42,152.7z"/>
	<circle fill="#FFFFFF" cx="44.8" cy="150" r="0.6"/>
	<path fill="#FFFFFF" d="M46.9,153.4c0,0.3,0.3,0.6,0.6,0.6v-1.3C47.2,152.8,46.9,153,46.9,153.4z"/>
	<path fill="#FFFFFF" d="M42,157.9v1.2c0.3,0,0.6-0.3,0.6-0.6C42.6,158.2,42.4,157.9,42,157.9z"/>
	<circle fill="#FFFFFF" cx="44.8" cy="155" r="0.6"/>
	<path fill="#FFFFFF" d="M47,158.5c0,0.3,0.2,0.5,0.5,0.6v-1.1C47.2,157.9,47,158.2,47,158.5z"/>
	<path fill="#FFFFFF" d="M42,163.1v1c0.3,0,0.5-0.2,0.5-0.5C42.6,163.3,42.3,163.1,42,163.1z"/>
	<circle fill="#FFFFFF" cx="44.8" cy="161" r="0.5"/>
	<path fill="#FFFFFF" d="M47,163.6c0,0.3,0.2,0.5,0.5,0.5v-1C47.2,163.1,47,163.4,47,163.6z"/>
	<path fill="#FFFFFF" d="M42,168.4v0.9c0.3,0,0.5-0.2,0.5-0.5C42.5,168.6,42.3,168.4,42,168.4z"/>
	<circle fill="#FFFFFF" cx="44.8" cy="166.5" r="0.5"/>
	<path fill="#FFFFFF" d="M47.1,168.9c0,0.2,0.2,0.4,0.4,0.5v-0.9C47.3,168.5,47.1,168.7,47.1,168.9z"/>
	<path fill="#FFFFFF" d="M42,173.9v0.8c0.2,0,0.4-0.2,0.4-0.4C42.5,174.1,42.3,173.9,42,173.9z"/>
	<circle fill="#FFFFFF" cx="44.8" cy="171.6" r="0.4"/>
	<path fill="#FFFFFF" d="M47.1,174.3c0,0.2,0.2,0.4,0.4,0.4v-0.8C47.3,173.9,47.1,174.1,47.1,174.3z"/>
	<path fill="#FFFFFF" d="M42,179.5v0.8c0.2,0,0.4-0.2,0.4-0.4C42.4,179.6,42.3,179.5,42,179.5z"/>
	<circle fill="#FFFFFF" cx="44.8" cy="177.1" r="0.4"/>
	<path fill="#FFFFFF" d="M47.2,179.8c0,0.2,0.2,0.4,0.3,0.4v-0.7C47.3,179.5,47.2,179.6,47.2,179.8z"/>
	<path fill="#FFFFFF" d="M42,185.2v0.6c0.2,0,0.3-0.1,0.3-0.3C42.3,185.3,42.2,185.2,42,185.2z"/>
	<circle fill="#FFFFFF" cx="44.8" cy="182.6" r="0.3"/>
	<path fill="#FFFFFF" d="M47.2,185.5c0,0.1,0.1,0.3,0.3,0.3v-0.5C47.4,185.2,47.2,185.3,47.2,185.5z"/>
	<path fill="#FFFFFF" d="M42,190.9v0.5c0.1,0,0.2-0.1,0.2-0.2C42.3,191,42.2,190.9,42,190.9z"/>
	<circle fill="#FFFFFF" cx="44.8" cy="188.3" r="0.3"/>
	<path fill="#FFFFFF" d="M47.3,191.2c0,0.1,0.1,0.2,0.2,0.2v-0.5C47.4,190.9,47.3,191,47.3,191.2z"/>
	<path fill="#FFFFFF" d="M42,196.9v0.4c0.1,0,0.2-0.1,0.2-0.2C42.3,197,42.2,196.9,42,196.9z"/>
	<circle fill="#FFFFFF" cx="44.8" cy="194.2" r="0.2"/>
	<path fill="#FFFFFF" d="M47.3,197.1c0,0.1,0.1,0.2,0.2,0.2v-0.4C47.4,196.9,47.3,197,47.3,197.1z"/>
	<path fill="#FFFFFF" d="M42,203.1v0.4c0.1,0,0.2-0.1,0.2-0.2C42.2,203.2,42.2,203.1,42,203.1z"/>
	<circle fill="#FFFFFF" cx="44.8" cy="200.2" r="0.2"/>
	<path fill="#FFFFFF" d="M47.3,203.3c0,0.1,0.1,0.2,0.2,0.2v-0.4C47.4,203.1,47.3,203.2,47.3,203.3z"/>
	<path fill="#FFFFFF" d="M42,209.5v0.4c0.1,0,0.2-0.1,0.2-0.2C42.2,209.6,42.1,209.5,42,209.5z"/>
	<circle fill="#FFFFFF" cx="44.8" cy="206.5" r="0.2"/>
	<path fill="#FFFFFF" d="M47.3,209.7c0,0.1,0.1,0.2,0.2,0.2v-0.4C47.4,209.5,47.3,209.6,47.3,209.7z"/>
	<path fill="#FFFFFF" d="M42,216.2v0.3c0.1,0,0.2-0.1,0.2-0.2C42.2,216.3,42.1,216.2,42,216.2z"/>
	<circle fill="#FFFFFF" cx="44.8" cy="213" r="0.2"/>
	<path fill="#FFFFFF" d="M47.4,216.4c0,0.1,0.1,0.2,0.1,0.2v-0.3C47.4,216.2,47.4,216.3,47.4,216.4z"/>
	<path fill="#FFFFFF" d="M42,223.2v0.3c0.1,0,0.1-0.1,0.1-0.1C42.2,223.2,42.1,223.2,42,223.2z"/>
	<circle fill="#FFFFFF" cx="44.8" cy="219.8" r="0.2"/>
	<path fill="#FFFFFF" d="M47.4,223.3c0,0.1,0.1,0.1,0.1,0.1v-0.3C47.4,223.2,47.4,223.2,47.4,223.3z"/>
	<path fill="#FFFFFF" d="M42,230.5v0.3c0.1,0,0.1-0.1,0.1-0.1C42.2,230.5,42.1,230.5,42,230.5z"/>
	<circle fill="#FFFFFF" cx="44.8" cy="226.9" r="0.1"/>
	<path fill="#FFFFFF" d="M47.4,230.6c0,0.1,0.1,0.1,0.1,0.1v-0.3C47.4,230.5,47.4,230.5,47.4,230.6z"/>
	<path fill="#FFFFFF" d="M42,238v0.2c0.1,0,0.1-0.1,0.1-0.1C42.2,238.1,42.1,238,42,238z"/>
	<circle fill="#FFFFFF" cx="44.8" cy="234.4" r="0.1"/>
	<path fill="#FFFFFF" d="M47.4,238.1c0,0.1,0,0.1,0.1,0.1V238C47.4,238,47.4,238.1,47.4,238.1z"/>
	<path fill="#FFFFFF" d="M42,245.9v0.2c0.1,0,0.1,0,0.1-0.1C42.2,246,42.1,245.9,42,245.9z"/>
	<circle fill="#FFFFFF" cx="44.8" cy="242.1" r="0.1"/>
	<path fill="#FFFFFF" d="M47.4,246c0,0.1,0,0.1,0.1,0.1v-0.2C47.4,245.9,47.4,246,47.4,246z"/>
	<path fill="#FFFFFF" d="M42,254.2v0.2C42.1,254.4,42.1,254.3,42,254.2C42.1,254.2,42.1,254.2,42,254.2z"/>
	<circle fill="#FFFFFF" cx="44.8" cy="250.1" r="0.1"/>
	<path fill="#FFFFFF" d="M47.4,254.3C47.4,254.3,47.5,254.3,47.4,254.3L47.4,254.3C47.5,254.2,47.4,254.2,47.4,254.3z"/>
	<path fill="#FFFFFF" d="M42,262.8v0.2C42.1,263,42.1,262.9,42,262.8C42.1,262.8,42.1,262.8,42,262.8z"/>
	<circle fill="#FFFFFF" cx="44.8" cy="258.6" r="0.1"/>
	<path fill="#FFFFFF" d="M47.5,263v-0.2C47.5,262.8,47.4,262.8,47.5,263C47.4,262.9,47.5,263,47.5,263z"/>
	<path fill="#FFFFFF" d="M42,272.1C42.1,272.1,42.1,272,42,272.1c0.1-0.1,0-0.2,0-0.2V272.1z"/>
	<circle fill="#FFFFFF" cx="44.8" cy="267.4" r="0.1"/>
	<path fill="#FFFFFF" d="M47.5,272.1v-0.2C47.5,271.9,47.4,271.9,47.5,272.1C47.4,272,47.5,272,47.5,272.1z"/>
	<circle fill="#FFFFFF" cx="44.8" cy="277.2" r="0.1"/>
	<path fill="#FFFFFF" d="M47.5,85.2v-9.1H42v4.1v4.9v0c0.1,0,0.3,0,0.4,0c0,0.1,0,0.2,0.1,0.3c-0.1,0-0.3,0-0.5,0v4.7
		c0.2,0,0.3,0,0.5-0.1c0,0.2,0.1,0.5,0.2,0.7c-0.2-0.1-0.4-0.1-0.7-0.1V95c0.2,0,0.4,0,0.6-0.1l0,0c0,0.4,0.1,0.8,0.3,1.1
		c-0.3-0.2-0.6-0.2-1-0.2v4.1c0.3,0,0.6-0.1,0.8-0.2c0,0.1,0,0.1,0,0.2c0,1.1,0.9,1.9,1.9,1.9s1.9-0.9,1.9-1.9c0-0.1,0-0.2,0-0.3
		c0.3,0.1,0.5,0.2,0.9,0.2v-4.1c-0.4,0-0.8,0.1-1.1,0.4c0.3-0.3,0.4-0.8,0.4-1.2c0,0,0,0,0-0.1c0.2,0.1,0.4,0.1,0.7,0.1v-4.4
		c-0.3,0-0.5,0.1-0.7,0.1c0.1-0.2,0.2-0.5,0.2-0.7c0.2,0,0.4,0.1,0.6,0.1v-4.7c-0.2,0-0.3,0-0.5,0.1c0-0.1,0.1-0.2,0.1-0.3
		C47.2,85.2,47.4,85.2,47.5,85.2z M44.8,82.3c0.1,0,0.3,0,0.4,0c0,0.1,0,0.2,0,0.3c-0.1,0-0.2,0-0.3,0c-0.1,0-0.2,0-0.2,0
		c0-0.1,0-0.2,0-0.3C44.6,82.3,44.7,82.3,44.8,82.3z M44.8,87.2c0.2,0,0.4,0,0.6-0.1c-0.1,0.2-0.1,0.4-0.1,0.6
		c-0.2,0-0.3-0.1-0.5-0.1c-0.1,0-0.2,0-0.4,0c0-0.2,0-0.4-0.1-0.6C44.4,87.2,44.6,87.2,44.8,87.2z M44.8,92.1c0.3,0,0.6-0.1,0.8-0.2
		c-0.1,0.3-0.2,0.6-0.2,0.9c0,0.1,0,0.1,0,0.2c-0.2-0.1-0.4-0.1-0.6-0.1c-0.2,0-0.3,0-0.5,0.1c0,0,0-0.1,0-0.1
		c0-0.3-0.1-0.6-0.2-0.8C44.3,92,44.5,92.1,44.8,92.1z M45.5,98.2C45.3,98.1,45,98,44.8,98c-0.2,0-0.5,0-0.7,0.1c0-0.1,0-0.2,0-0.3
		c0-0.4-0.1-0.8-0.3-1.1c0.3,0.2,0.6,0.2,1,0.2c0.4,0,0.8-0.1,1.2-0.4c-0.3,0.3-0.4,0.8-0.4,1.2C45.5,98,45.5,98.1,45.5,98.2z"/>
</g>
</svg>
